<?xml version="1.0" encoding="us-ascii" standalone="no"?><svg xmlns="http://www.w3.org/2000/svg" xmlns:xlink="http://www.w3.org/1999/xlink" contentStyleType="text/css" height="1511px" preserveAspectRatio="none" style="width:1545px;height:1511px;background:#FFFFFF;" version="1.1" viewBox="0 0 1545 1511" width="1545px" zoomAndPan="magnify"><defs><filter height="1" id="be66zzj1iad4t0" width="1" x="0" y="0"><feFlood flood-color="#FFFF00" result="flood"/><feComposite in="SourceGraphic" in2="flood" operator="over"/></filter></defs><g><text fill="#000000" font-family="sans-serif" font-size="14" font-weight="bold" lengthAdjust="spacing" textLength="323" x="604" y="25.1074">Keyple - keyple-util-java-lib - 2.3.+ (2024-04-10)</text><rect fill="#DDDDDD" height="65.8633" id="_legend" rx="7.5" ry="7.5" style="stroke:#000000;stroke-width:1.0;" width="186" x="672.5" y="51.6211"/><text fill="#000000" font-family="sans-serif" font-size="14" lengthAdjust="spacing" text-decoration="underline" textLength="88" x="677.5" y="71.7285">Colors legend</text><text fill="#000000" font-family="sans-serif" font-size="14" lengthAdjust="spacing" textLength="4" x="769.5" y="71.7285">:</text><ellipse cx="683" cy="86.3633" fill="#000000" rx="2.5" ry="2.5" style="stroke:#000000;stroke-width:0.0;"/><text fill="#000000" font-family="sans-serif" font-size="14" lengthAdjust="spacing" text-decoration="underline" textLength="148" x="689.5" y="90.3496">External API references</text><text fill="#000000" font-family="sans-serif" font-size="14" lengthAdjust="spacing" textLength="4" x="841.5" y="90.3496">:</text><rect fill="#000000" height="3.5" style="stroke:#000000;stroke-width:0.0;" width="3.5" x="686.5" y="102.4844"/><text fill="#000000" filter="url(#be66zzj1iad4t0)" font-family="sans-serif" font-size="14" font-weight="bold" lengthAdjust="spacing" textLength="160" x="693.5" y="108.9707">com.google.code.gson</text><!--cluster util--><g id="cluster_util"><path d="M8.5,136.498 L200.5,136.498 A3.75,3.75 0 0 1 203,138.998 L210,161.1191 L1535.5,161.1191 A2.5,2.5 0 0 1 1538,163.6191 L1538,1501.998 A2.5,2.5 0 0 1 1535.5,1504.498 L8.5,1504.498 A2.5,2.5 0 0 1 6,1501.998 L6,138.998 A2.5,2.5 0 0 1 8.5,136.498 " fill="#F8F9F9" style="stroke:#000000;stroke-width:1.5;"/><line style="stroke:#000000;stroke-width:1.5;" x1="6" x2="210" y1="161.1191" y2="161.1191"/><text fill="#000000" font-family="sans-serif" font-size="14" font-weight="bold" lengthAdjust="spacing" textLength="191" x="10" y="153.6055">org.eclipse.keyple.core.util</text></g><!--cluster json--><g id="cluster_json"><path d="M50.5,966.498 L81.5,966.498 A3.75,3.75 0 0 1 84,968.998 L91,991.1191 L1511.5,991.1191 A2.5,2.5 0 0 1 1514,993.6191 L1514,1477.998 A2.5,2.5 0 0 1 1511.5,1480.498 L50.5,1480.498 A2.5,2.5 0 0 1 48,1477.998 L48,968.998 A2.5,2.5 0 0 1 50.5,966.498 " fill="#F2F3F4" style="stroke:#000000;stroke-width:1.5;"/><line style="stroke:#000000;stroke-width:1.5;" x1="48" x2="91" y1="991.1191" y2="991.1191"/><text fill="#000000" font-family="sans-serif" font-size="14" font-weight="bold" lengthAdjust="spacing" textLength="30" x="52" y="983.6055">json</text></g><!--cluster protocol--><g id="cluster_protocol"><path d="M873.5,201.498 L933.5,201.498 A3.75,3.75 0 0 1 936,203.998 L943,226.1191 L1511.5,226.1191 A2.5,2.5 0 0 1 1514,228.6191 L1514,411.998 A2.5,2.5 0 0 1 1511.5,414.498 L873.5,414.498 A2.5,2.5 0 0 1 871,411.998 L871,203.998 A2.5,2.5 0 0 1 873.5,201.498 " fill="#F2F3F4" style="stroke:#000000;stroke-width:1.5;"/><line style="stroke:#000000;stroke-width:1.5;" x1="871" x2="943" y1="226.1191" y2="226.1191"/><text fill="#000000" font-family="sans-serif" font-size="14" font-weight="bold" lengthAdjust="spacing" textLength="59" x="875" y="218.6055">protocol</text></g><!--class Assert--><g id="elem_Assert"><rect codeLine="60" fill="#FEFECE" height="252.832" id="Assert" rx="2.5" ry="2.5" style="stroke:#D4AC0D;stroke-width:2.0;" width="500" x="352" y="191.998"/><ellipse cx="555.25" cy="207.998" fill="#ADD1B2" rx="11" ry="11" style="stroke:#181818;stroke-width:1.0;"/><path d="M558.0156,203.873 Q558.1719,203.6543 558.3594,203.5449 Q558.5469,203.4355 558.7656,203.4355 Q559.1406,203.4355 559.375,203.7012 Q559.6094,203.9512 559.6094,204.5605 L559.6094,206.0137 Q559.6094,206.623 559.375,206.8887 Q559.1406,207.1543 558.7656,207.1543 Q558.4219,207.1543 558.2188,206.9512 Q558.0156,206.7637 557.9063,206.248 Q557.8594,205.8887 557.6719,205.7012 Q557.3438,205.3262 556.7344,205.1074 Q556.125,204.8887 555.5,204.8887 Q554.7344,204.8887 554.0938,205.2168 Q553.4688,205.5449 552.9688,206.2949 Q552.4844,207.0449 552.4844,208.0762 L552.4844,209.1699 Q552.4844,210.4043 553.375,211.2324 Q554.2656,212.0449 555.8594,212.0449 Q556.7969,212.0449 557.4531,211.7949 Q557.8438,211.6387 558.2656,211.2012 Q558.5313,210.9355 558.6719,210.8574 Q558.8281,210.7793 559.0313,210.7793 Q559.3594,210.7793 559.6094,211.0449 Q559.875,211.2949 559.875,211.6387 Q559.875,211.9824 559.5313,212.3887 Q559.0313,212.9668 558.2344,213.2949 Q557.1563,213.748 555.8594,213.748 Q554.3438,213.748 553.1406,213.123 Q552.1563,212.623 551.4688,211.5605 Q550.7813,210.4824 550.7813,209.2012 L550.7813,208.0449 Q550.7813,206.7168 551.3906,205.5762 Q552.0156,204.4199 553.1094,203.8105 Q554.2031,203.1855 555.4375,203.1855 Q556.1719,203.1855 556.8125,203.3574 Q557.4688,203.5137 558.0156,203.873 Z " fill="#000000"/><ellipse cx="580.75" cy="207.498" fill="#84BE84" rx="3" ry="3" style="stroke:#038048;stroke-width:1.0;"/><text fill="#000000" font-family="sans-serif" font-size="14" font-weight="bold" lengthAdjust="spacing" textLength="30" x="586.75" y="213.7949">final</text><text fill="#000000" font-family="sans-serif" font-size="14" lengthAdjust="spacing" textLength="40" x="620.75" y="213.7949">Assert</text><line style="stroke:#D4AC0D;stroke-width:2.0;" x1="353" x2="851" y1="223.998" y2="223.998"/><line style="stroke:#D4AC0D;stroke-width:2.0;" x1="353" x2="851" y1="231.998" y2="231.998"/><ellipse cx="363" cy="246.8086" fill="#84BE84" rx="3" ry="3" style="stroke:#038048;stroke-width:1.0;"/><text fill="#000000" font-family="sans-serif" font-size="14" lengthAdjust="spacing" text-decoration="underline" textLength="131" x="372" y="251.1055">Assert getInstance ()</text><text fill="#000000" font-family="sans-serif" font-size="14" lengthAdjust="spacing" textLength="4" x="372" y="269.7266">&#160;</text><ellipse cx="363" cy="284.0508" fill="#84BE84" rx="3" ry="3" style="stroke:#038048;stroke-width:1.0;"/><text fill="#000000" font-family="sans-serif" font-size="14" lengthAdjust="spacing" textLength="249" x="372" y="288.3477">Assert notNull (Object obj, String name)</text><ellipse cx="363" cy="302.6719" fill="#84BE84" rx="3" ry="3" style="stroke:#038048;stroke-width:1.0;"/><text fill="#000000" font-family="sans-serif" font-size="14" lengthAdjust="spacing" textLength="261" x="372" y="306.9688">Assert notEmpty (String obj, String name)</text><ellipse cx="363" cy="321.293" fill="#84BE84" rx="3" ry="3" style="stroke:#038048;stroke-width:1.0;"/><text fill="#000000" font-family="sans-serif" font-size="14" lengthAdjust="spacing" textLength="310" x="372" y="325.5898">Assert notEmpty (Collection&lt;?&gt; obj, String name)</text><ellipse cx="363" cy="339.9141" fill="#84BE84" rx="3" ry="3" style="stroke:#038048;stroke-width:1.0;"/><text fill="#000000" font-family="sans-serif" font-size="14" lengthAdjust="spacing" textLength="259" x="372" y="344.2109">Assert notEmpty (byte[] obj, String name)</text><ellipse cx="363" cy="358.5352" fill="#84BE84" rx="3" ry="3" style="stroke:#038048;stroke-width:1.0;"/><text fill="#000000" font-family="sans-serif" font-size="14" lengthAdjust="spacing" textLength="295" x="372" y="362.832">Assert isTrue (Boolean condition, String name)</text><ellipse cx="363" cy="377.1563" fill="#84BE84" rx="3" ry="3" style="stroke:#038048;stroke-width:1.0;"/><text fill="#000000" font-family="sans-serif" font-size="14" lengthAdjust="spacing" textLength="421" x="372" y="381.4531">Assert greaterOrEqual (Integer number, int minValue, String name)</text><ellipse cx="363" cy="395.7773" fill="#84BE84" rx="3" ry="3" style="stroke:#038048;stroke-width:1.0;"/><text fill="#000000" font-family="sans-serif" font-size="14" lengthAdjust="spacing" textLength="345" x="372" y="400.0742">Assert isEqual (Integer number, int value, String name)</text><ellipse cx="363" cy="414.3984" fill="#84BE84" rx="3" ry="3" style="stroke:#038048;stroke-width:1.0;"/><text fill="#000000" font-family="sans-serif" font-size="14" lengthAdjust="spacing" textLength="474" x="372" y="418.6953">Assert isInRange (Integer number, int minValue, int maxValue, String name)</text><ellipse cx="363" cy="433.0195" fill="#84BE84" rx="3" ry="3" style="stroke:#038048;stroke-width:1.0;"/><text fill="#000000" font-family="sans-serif" font-size="14" lengthAdjust="spacing" textLength="275" x="372" y="437.3164">Assert isHexString (String hex, String name)</text></g><!--class ByteArrayUtil--><g id="elem_ByteArrayUtil"><rect codeLine="73" fill="#FEFECE" height="420.4219" id="ByteArrayUtil" rx="2.5" ry="2.5" style="stroke:#D4AC0D;stroke-width:2.0;" width="460" x="22" y="523.498"/><ellipse cx="184.75" cy="539.498" fill="#ADD1B2" rx="11" ry="11" style="stroke:#181818;stroke-width:1.0;"/><path d="M187.5156,535.373 Q187.6719,535.1543 187.8594,535.0449 Q188.0469,534.9355 188.2656,534.9355 Q188.6406,534.9355 188.875,535.2012 Q189.1094,535.4512 189.1094,536.0605 L189.1094,537.5137 Q189.1094,538.123 188.875,538.3887 Q188.6406,538.6543 188.2656,538.6543 Q187.9219,538.6543 187.7188,538.4512 Q187.5156,538.2637 187.4063,537.748 Q187.3594,537.3887 187.1719,537.2012 Q186.8438,536.8262 186.2344,536.6074 Q185.625,536.3887 185,536.3887 Q184.2344,536.3887 183.5938,536.7168 Q182.9688,537.0449 182.4688,537.7949 Q181.9844,538.5449 181.9844,539.5762 L181.9844,540.6699 Q181.9844,541.9043 182.875,542.7324 Q183.7656,543.5449 185.3594,543.5449 Q186.2969,543.5449 186.9531,543.2949 Q187.3438,543.1387 187.7656,542.7012 Q188.0313,542.4355 188.1719,542.3574 Q188.3281,542.2793 188.5313,542.2793 Q188.8594,542.2793 189.1094,542.5449 Q189.375,542.7949 189.375,543.1387 Q189.375,543.4824 189.0313,543.8887 Q188.5313,544.4668 187.7344,544.7949 Q186.6563,545.248 185.3594,545.248 Q183.8438,545.248 182.6406,544.623 Q181.6563,544.123 180.9688,543.0605 Q180.2813,541.9824 180.2813,540.7012 L180.2813,539.5449 Q180.2813,538.2168 180.8906,537.0762 Q181.5156,535.9199 182.6094,535.3105 Q183.7031,534.6855 184.9375,534.6855 Q185.6719,534.6855 186.3125,534.8574 Q186.9688,535.0137 187.5156,535.373 Z " fill="#000000"/><ellipse cx="210.25" cy="538.998" fill="#84BE84" rx="3" ry="3" style="stroke:#038048;stroke-width:1.0;"/><text fill="#000000" font-family="sans-serif" font-size="14" font-weight="bold" lengthAdjust="spacing" textLength="30" x="216.25" y="545.2949">final</text><text fill="#000000" font-family="sans-serif" font-size="14" lengthAdjust="spacing" textLength="81" x="250.25" y="545.2949">ByteArrayUtil</text><line style="stroke:#D4AC0D;stroke-width:2.0;" x1="23" x2="481" y1="555.498" y2="555.498"/><line style="stroke:#D4AC0D;stroke-width:2.0;" x1="23" x2="481" y1="563.498" y2="563.498"/><ellipse cx="33" cy="578.3086" fill="#84BE84" rx="3" ry="3" style="stroke:#038048;stroke-width:1.0;"/><text fill="#000000" font-family="sans-serif" font-size="14" lengthAdjust="spacing" text-decoration="underline" textLength="346" x="42" y="582.6055">byte[] extractBytes (byte[] src, int bitOffset, int nbBytes)</text><ellipse cx="33" cy="596.9297" fill="#84BE84" rx="3" ry="3" style="stroke:#038048;stroke-width:1.0;"/><text fill="#000000" font-family="sans-serif" font-size="14" lengthAdjust="spacing" text-decoration="underline" textLength="258" x="42" y="601.2266">byte[] extractBytes (long src, int nbBytes)</text><text fill="#000000" font-family="sans-serif" font-size="14" lengthAdjust="spacing" textLength="4" x="42" y="619.8477">&#160;</text><ellipse cx="33" cy="634.1719" fill="#84BE84" rx="3" ry="3" style="stroke:#038048;stroke-width:1.0;"/><text fill="#000000" font-family="sans-serif" font-size="14" lengthAdjust="spacing" text-decoration="underline" textLength="246" x="42" y="638.4688">short extractShort (byte[] src, int offset)</text><ellipse cx="33" cy="652.793" fill="#84BE84" rx="3" ry="3" style="stroke:#038048;stroke-width:1.0;"/><text fill="#000000" font-family="sans-serif" font-size="14" lengthAdjust="spacing" text-decoration="underline" textLength="405" x="42" y="657.0898">int extractInt (byte[] src, int offset, int nbBytes, boolean isSigned)</text><ellipse cx="33" cy="671.4141" fill="#84BE84" rx="3" ry="3" style="stroke:#038048;stroke-width:1.0;"/><text fill="#000000" font-family="sans-serif" font-size="14" lengthAdjust="spacing" text-decoration="underline" textLength="434" x="42" y="675.7109">long extractLong (byte[] src, int offset, int nbBytes, boolean isSigned)</text><text fill="#000000" font-family="sans-serif" font-size="14" lengthAdjust="spacing" textLength="4" x="42" y="694.332">&#160;</text><ellipse cx="33" cy="708.6563" fill="#84BE84" rx="3" ry="3" style="stroke:#038048;stroke-width:1.0;"/><text fill="#000000" font-family="sans-serif" font-size="14" lengthAdjust="spacing" text-decoration="underline" textLength="373" x="42" y="712.9531">void copyBytes (long src, byte[] dest, int offset, int nbBytes)</text><text fill="#000000" font-family="sans-serif" font-size="14" lengthAdjust="spacing" textLength="4" x="42" y="731.5742">&#160;</text><ellipse cx="33" cy="745.8984" fill="#84BE84" rx="3" ry="3" style="stroke:#038048;stroke-width:1.0;"/><text fill="#000000" font-family="sans-serif" font-size="14" lengthAdjust="spacing" text-decoration="line-through" textLength="233" x="42" y="750.1953">boolean isValidHexString (String hex)</text><ellipse cx="33" cy="764.5195" fill="#84BE84" rx="3" ry="3" style="stroke:#038048;stroke-width:1.0;"/><text fill="#000000" font-family="sans-serif" font-size="14" lengthAdjust="spacing" text-decoration="line-through" textLength="238" x="42" y="768.8164">String normalizeHexString (String hex)</text><text fill="#000000" font-family="sans-serif" font-size="14" lengthAdjust="spacing" textLength="4" x="42" y="787.4375">&#160;</text><ellipse cx="33" cy="801.7617" fill="#84BE84" rx="3" ry="3" style="stroke:#038048;stroke-width:1.0;"/><text fill="#000000" font-family="sans-serif" font-size="14" lengthAdjust="spacing" text-decoration="line-through" textLength="167" x="42" y="806.0586">byte[] fromHex (String hex)</text><ellipse cx="33" cy="820.3828" fill="#84BE84" rx="3" ry="3" style="stroke:#038048;stroke-width:1.0;"/><text fill="#000000" font-family="sans-serif" font-size="14" lengthAdjust="spacing" text-decoration="line-through" textLength="157" x="42" y="824.6797">String toHex (byte[] data)</text><text fill="#000000" font-family="sans-serif" font-size="14" lengthAdjust="spacing" textLength="4" x="42" y="843.3008">&#160;</text><ellipse cx="33" cy="857.625" fill="#84BE84" rx="3" ry="3" style="stroke:#038048;stroke-width:1.0;"/><text fill="#000000" font-family="sans-serif" font-size="14" lengthAdjust="spacing" text-decoration="line-through" textLength="256" x="42" y="861.9219">int twoBytesToInt (byte[] bytes, int offset)</text><ellipse cx="33" cy="876.2461" fill="#84BE84" rx="3" ry="3" style="stroke:#038048;stroke-width:1.0;"/><text fill="#000000" font-family="sans-serif" font-size="14" lengthAdjust="spacing" text-decoration="line-through" textLength="300" x="42" y="880.543">int twoBytesSignedToInt (byte[] bytes, int offset)</text><ellipse cx="33" cy="894.8672" fill="#84BE84" rx="3" ry="3" style="stroke:#038048;stroke-width:1.0;"/><text fill="#000000" font-family="sans-serif" font-size="14" lengthAdjust="spacing" text-decoration="line-through" textLength="268" x="42" y="899.1641">int threeBytesToInt (byte[] bytes, int offset)</text><ellipse cx="33" cy="913.4883" fill="#84BE84" rx="3" ry="3" style="stroke:#038048;stroke-width:1.0;"/><text fill="#000000" font-family="sans-serif" font-size="14" lengthAdjust="spacing" text-decoration="line-through" textLength="312" x="42" y="917.7852">int threeBytesSignedToInt (byte[] bytes, int offset)</text><ellipse cx="33" cy="932.1094" fill="#84BE84" rx="3" ry="3" style="stroke:#038048;stroke-width:1.0;"/><text fill="#000000" font-family="sans-serif" font-size="14" lengthAdjust="spacing" text-decoration="line-through" textLength="260" x="42" y="936.4063">int fourBytesToInt (byte[] bytes, int offset)</text></g><!--class HexUtil--><g id="elem_HexUtil"><rect codeLine="95" fill="#FEFECE" height="290.0742" id="HexUtil" rx="2.5" ry="2.5" style="stroke:#D4AC0D;stroke-width:2.0;" width="216" x="62" y="173.498"/><ellipse cx="122.25" cy="189.498" fill="#ADD1B2" rx="11" ry="11" style="stroke:#181818;stroke-width:1.0;"/><path d="M125.0156,185.373 Q125.1719,185.1543 125.3594,185.0449 Q125.5469,184.9355 125.7656,184.9355 Q126.1406,184.9355 126.375,185.2012 Q126.6094,185.4512 126.6094,186.0605 L126.6094,187.5137 Q126.6094,188.123 126.375,188.3887 Q126.1406,188.6543 125.7656,188.6543 Q125.4219,188.6543 125.2188,188.4512 Q125.0156,188.2637 124.9063,187.748 Q124.8594,187.3887 124.6719,187.2012 Q124.3438,186.8262 123.7344,186.6074 Q123.125,186.3887 122.5,186.3887 Q121.7344,186.3887 121.0938,186.7168 Q120.4688,187.0449 119.9688,187.7949 Q119.4844,188.5449 119.4844,189.5762 L119.4844,190.6699 Q119.4844,191.9043 120.375,192.7324 Q121.2656,193.5449 122.8594,193.5449 Q123.7969,193.5449 124.4531,193.2949 Q124.8438,193.1387 125.2656,192.7012 Q125.5313,192.4355 125.6719,192.3574 Q125.8281,192.2793 126.0313,192.2793 Q126.3594,192.2793 126.6094,192.5449 Q126.875,192.7949 126.875,193.1387 Q126.875,193.4824 126.5313,193.8887 Q126.0313,194.4668 125.2344,194.7949 Q124.1563,195.248 122.8594,195.248 Q121.3438,195.248 120.1406,194.623 Q119.1563,194.123 118.4688,193.0605 Q117.7813,191.9824 117.7813,190.7012 L117.7813,189.5449 Q117.7813,188.2168 118.3906,187.0762 Q119.0156,185.9199 120.1094,185.3105 Q121.2031,184.6855 122.4375,184.6855 Q123.1719,184.6855 123.8125,184.8574 Q124.4688,185.0137 125.0156,185.373 Z " fill="#000000"/><ellipse cx="147.75" cy="188.998" fill="#84BE84" rx="3" ry="3" style="stroke:#038048;stroke-width:1.0;"/><text fill="#000000" font-family="sans-serif" font-size="14" font-weight="bold" lengthAdjust="spacing" textLength="30" x="153.75" y="195.2949">final</text><text fill="#000000" font-family="sans-serif" font-size="14" lengthAdjust="spacing" textLength="42" x="187.75" y="195.2949">HexUtil</text><line style="stroke:#D4AC0D;stroke-width:2.0;" x1="63" x2="277" y1="205.498" y2="205.498"/><line style="stroke:#D4AC0D;stroke-width:2.0;" x1="63" x2="277" y1="213.498" y2="213.498"/><ellipse cx="73" cy="228.3086" fill="#84BE84" rx="3" ry="3" style="stroke:#038048;stroke-width:1.0;"/><text fill="#000000" font-family="sans-serif" font-size="14" lengthAdjust="spacing" text-decoration="underline" textLength="173" x="82" y="232.6055">boolean isValid (String hex)</text><text fill="#000000" font-family="sans-serif" font-size="14" lengthAdjust="spacing" textLength="4" x="82" y="251.2266">&#160;</text><ellipse cx="73" cy="265.5508" fill="#84BE84" rx="3" ry="3" style="stroke:#038048;stroke-width:1.0;"/><text fill="#000000" font-family="sans-serif" font-size="14" lengthAdjust="spacing" text-decoration="underline" textLength="190" x="82" y="269.8477">byte[] toByteArray (String hex)</text><ellipse cx="73" cy="284.1719" fill="#84BE84" rx="3" ry="3" style="stroke:#038048;stroke-width:1.0;"/><text fill="#000000" font-family="sans-serif" font-size="14" lengthAdjust="spacing" text-decoration="underline" textLength="148" x="82" y="288.4688">byte toByte (String hex)</text><ellipse cx="73" cy="302.793" fill="#84BE84" rx="3" ry="3" style="stroke:#038048;stroke-width:1.0;"/><text fill="#000000" font-family="sans-serif" font-size="14" lengthAdjust="spacing" text-decoration="underline" textLength="159" x="82" y="307.0898">short toShort (String hex)</text><ellipse cx="73" cy="321.4141" fill="#84BE84" rx="3" ry="3" style="stroke:#038048;stroke-width:1.0;"/><text fill="#000000" font-family="sans-serif" font-size="14" lengthAdjust="spacing" text-decoration="underline" textLength="123" x="82" y="325.7109">int toInt (String hex)</text><ellipse cx="73" cy="340.0352" fill="#84BE84" rx="3" ry="3" style="stroke:#038048;stroke-width:1.0;"/><text fill="#000000" font-family="sans-serif" font-size="14" lengthAdjust="spacing" text-decoration="underline" textLength="152" x="82" y="344.332">long toLong (String hex)</text><text fill="#000000" font-family="sans-serif" font-size="14" lengthAdjust="spacing" textLength="4" x="82" y="362.9531">&#160;</text><ellipse cx="73" cy="377.2773" fill="#84BE84" rx="3" ry="3" style="stroke:#038048;stroke-width:1.0;"/><text fill="#000000" font-family="sans-serif" font-size="14" lengthAdjust="spacing" text-decoration="underline" textLength="149" x="82" y="381.5742">String toHex (byte[] tab)</text><ellipse cx="73" cy="395.8984" fill="#84BE84" rx="3" ry="3" style="stroke:#038048;stroke-width:1.0;"/><text fill="#000000" font-family="sans-serif" font-size="14" lengthAdjust="spacing" text-decoration="underline" textLength="139" x="82" y="400.1953">String toHex (byte val)</text><ellipse cx="73" cy="414.5195" fill="#84BE84" rx="3" ry="3" style="stroke:#038048;stroke-width:1.0;"/><text fill="#000000" font-family="sans-serif" font-size="14" lengthAdjust="spacing" text-decoration="underline" textLength="144" x="82" y="418.8164">String toHex (short val)</text><ellipse cx="73" cy="433.1406" fill="#84BE84" rx="3" ry="3" style="stroke:#038048;stroke-width:1.0;"/><text fill="#000000" font-family="sans-serif" font-size="14" lengthAdjust="spacing" text-decoration="underline" textLength="127" x="82" y="437.4375">String toHex (int val)</text><ellipse cx="73" cy="451.7617" fill="#84BE84" rx="3" ry="3" style="stroke:#038048;stroke-width:1.0;"/><text fill="#000000" font-family="sans-serif" font-size="14" lengthAdjust="spacing" text-decoration="underline" textLength="139" x="82" y="456.0586">String toHex (long val)</text></g><!--class ApduUtil--><g id="elem_ApduUtil"><rect codeLine="110" fill="#FEFECE" height="103.8633" id="ApduUtil" rx="2.5" ry="2.5" style="stroke:#D4AC0D;stroke-width:2.0;" width="462" x="517" y="681.498"/><ellipse cx="695.25" cy="697.498" fill="#ADD1B2" rx="11" ry="11" style="stroke:#181818;stroke-width:1.0;"/><path d="M698.0156,693.373 Q698.1719,693.1543 698.3594,693.0449 Q698.5469,692.9355 698.7656,692.9355 Q699.1406,692.9355 699.375,693.2012 Q699.6094,693.4512 699.6094,694.0605 L699.6094,695.5137 Q699.6094,696.123 699.375,696.3887 Q699.1406,696.6543 698.7656,696.6543 Q698.4219,696.6543 698.2188,696.4512 Q698.0156,696.2637 697.9063,695.748 Q697.8594,695.3887 697.6719,695.2012 Q697.3438,694.8262 696.7344,694.6074 Q696.125,694.3887 695.5,694.3887 Q694.7344,694.3887 694.0938,694.7168 Q693.4688,695.0449 692.9688,695.7949 Q692.4844,696.5449 692.4844,697.5762 L692.4844,698.6699 Q692.4844,699.9043 693.375,700.7324 Q694.2656,701.5449 695.8594,701.5449 Q696.7969,701.5449 697.4531,701.2949 Q697.8438,701.1387 698.2656,700.7012 Q698.5313,700.4355 698.6719,700.3574 Q698.8281,700.2793 699.0313,700.2793 Q699.3594,700.2793 699.6094,700.5449 Q699.875,700.7949 699.875,701.1387 Q699.875,701.4824 699.5313,701.8887 Q699.0313,702.4668 698.2344,702.7949 Q697.1563,703.248 695.8594,703.248 Q694.3438,703.248 693.1406,702.623 Q692.1563,702.123 691.4688,701.0605 Q690.7813,699.9824 690.7813,698.7012 L690.7813,697.5449 Q690.7813,696.2168 691.3906,695.0762 Q692.0156,693.9199 693.1094,693.3105 Q694.2031,692.6855 695.4375,692.6855 Q696.1719,692.6855 696.8125,692.8574 Q697.4688,693.0137 698.0156,693.373 Z " fill="#000000"/><ellipse cx="720.75" cy="696.998" fill="#84BE84" rx="3" ry="3" style="stroke:#038048;stroke-width:1.0;"/><text fill="#000000" font-family="sans-serif" font-size="14" font-weight="bold" lengthAdjust="spacing" textLength="30" x="726.75" y="703.2949">final</text><text fill="#000000" font-family="sans-serif" font-size="14" lengthAdjust="spacing" textLength="52" x="760.75" y="703.2949">ApduUtil</text><line style="stroke:#D4AC0D;stroke-width:2.0;" x1="518" x2="978" y1="713.498" y2="713.498"/><line style="stroke:#D4AC0D;stroke-width:2.0;" x1="518" x2="978" y1="721.498" y2="721.498"/><ellipse cx="528" cy="736.3086" fill="#84BE84" rx="3" ry="3" style="stroke:#038048;stroke-width:1.0;"/><text fill="#000000" font-family="sans-serif" font-size="14" lengthAdjust="spacing" text-decoration="underline" textLength="436" x="537" y="740.6055">byte[] build (byte cla, byte ins, byte p1, byte p2, byte[] dataIn, Byte le)</text><text fill="#000000" font-family="sans-serif" font-size="14" lengthAdjust="spacing" textLength="4" x="537" y="759.2266">&#160;</text><ellipse cx="528" cy="773.5508" fill="#84BE84" rx="3" ry="3" style="stroke:#038048;stroke-width:1.0;"/><text fill="#000000" font-family="sans-serif" font-size="14" lengthAdjust="spacing" text-decoration="underline" textLength="255" x="537" y="777.8477">boolean isCase4 (byte[] apduCommand)</text></g><!--class BerTlvUtil--><g id="elem_BerTlvUtil"><rect codeLine="115" fill="#FEFECE" height="122.4844" id="BerTlvUtil" rx="2.5" ry="2.5" style="stroke:#D4AC0D;stroke-width:2.0;" width="507" x="1014.5" y="672.498"/><ellipse cx="1228.25" cy="688.498" fill="#ADD1B2" rx="11" ry="11" style="stroke:#181818;stroke-width:1.0;"/><path d="M1231.0156,684.373 Q1231.1719,684.1543 1231.3594,684.0449 Q1231.5469,683.9355 1231.7656,683.9355 Q1232.1406,683.9355 1232.375,684.2012 Q1232.6094,684.4512 1232.6094,685.0605 L1232.6094,686.5137 Q1232.6094,687.123 1232.375,687.3887 Q1232.1406,687.6543 1231.7656,687.6543 Q1231.4219,687.6543 1231.2188,687.4512 Q1231.0156,687.2637 1230.9063,686.748 Q1230.8594,686.3887 1230.6719,686.2012 Q1230.3438,685.8262 1229.7344,685.6074 Q1229.125,685.3887 1228.5,685.3887 Q1227.7344,685.3887 1227.0938,685.7168 Q1226.4688,686.0449 1225.9688,686.7949 Q1225.4844,687.5449 1225.4844,688.5762 L1225.4844,689.6699 Q1225.4844,690.9043 1226.375,691.7324 Q1227.2656,692.5449 1228.8594,692.5449 Q1229.7969,692.5449 1230.4531,692.2949 Q1230.8438,692.1387 1231.2656,691.7012 Q1231.5313,691.4355 1231.6719,691.3574 Q1231.8281,691.2793 1232.0313,691.2793 Q1232.3594,691.2793 1232.6094,691.5449 Q1232.875,691.7949 1232.875,692.1387 Q1232.875,692.4824 1232.5313,692.8887 Q1232.0313,693.4668 1231.2344,693.7949 Q1230.1563,694.248 1228.8594,694.248 Q1227.3438,694.248 1226.1406,693.623 Q1225.1563,693.123 1224.4688,692.0605 Q1223.7813,690.9824 1223.7813,689.7012 L1223.7813,688.5449 Q1223.7813,687.2168 1224.3906,686.0762 Q1225.0156,684.9199 1226.1094,684.3105 Q1227.2031,683.6855 1228.4375,683.6855 Q1229.1719,683.6855 1229.8125,683.8574 Q1230.4688,684.0137 1231.0156,684.373 Z " fill="#000000"/><ellipse cx="1253.75" cy="687.998" fill="#84BE84" rx="3" ry="3" style="stroke:#038048;stroke-width:1.0;"/><text fill="#000000" font-family="sans-serif" font-size="14" lengthAdjust="spacing" textLength="60" x="1259.75" y="694.2949">BerTlvUtil</text><line style="stroke:#D4AC0D;stroke-width:2.0;" x1="1015.5" x2="1520.5" y1="704.498" y2="704.498"/><line style="stroke:#D4AC0D;stroke-width:2.0;" x1="1015.5" x2="1520.5" y1="712.498" y2="712.498"/><ellipse cx="1025.5" cy="727.3086" fill="#84BE84" rx="3" ry="3" style="stroke:#038048;stroke-width:1.0;"/><text fill="#000000" font-family="sans-serif" font-size="14" lengthAdjust="spacing" text-decoration="underline" textLength="481" x="1034.5" y="731.6055">Map&lt;Integer, byte[]&gt; parseSimple (byte[] tlvStructure, boolean primitiveOnly)</text><ellipse cx="1025.5" cy="745.9297" fill="#84BE84" rx="3" ry="3" style="stroke:#038048;stroke-width:1.0;"/><text fill="#000000" font-family="sans-serif" font-size="14" lengthAdjust="spacing" text-decoration="underline" textLength="477" x="1034.5" y="750.2266">Map&lt;Integer, List&lt;byte[]&gt;&gt; parse (byte[] tlvStructure, boolean primitiveOnly)</text><text fill="#000000" font-family="sans-serif" font-size="14" lengthAdjust="spacing" textLength="4" x="1034.5" y="768.8477">&#160;</text><ellipse cx="1025.5" cy="783.1719" fill="#84BE84" rx="3" ry="3" style="stroke:#038048;stroke-width:1.0;"/><text fill="#000000" font-family="sans-serif" font-size="14" lengthAdjust="spacing" text-decoration="underline" textLength="206" x="1034.5" y="787.4688">boolean isConstructed (int tagId)</text></g><!--class JsonUtil--><g id="elem_JsonUtil"><rect codeLine="122" fill="#FEFECE" height="141.1055" id="JsonUtil" rx="2.5" ry="2.5" style="stroke:#D4AC0D;stroke-width:2.0;" width="354" x="64" y="1003.498"/><ellipse cx="190.25" cy="1019.498" fill="#ADD1B2" rx="11" ry="11" style="stroke:#181818;stroke-width:1.0;"/><path d="M193.0156,1015.373 Q193.1719,1015.1543 193.3594,1015.0449 Q193.5469,1014.9355 193.7656,1014.9355 Q194.1406,1014.9355 194.375,1015.2012 Q194.6094,1015.4512 194.6094,1016.0605 L194.6094,1017.5137 Q194.6094,1018.123 194.375,1018.3887 Q194.1406,1018.6543 193.7656,1018.6543 Q193.4219,1018.6543 193.2188,1018.4512 Q193.0156,1018.2637 192.9063,1017.748 Q192.8594,1017.3887 192.6719,1017.2012 Q192.3438,1016.8262 191.7344,1016.6074 Q191.125,1016.3887 190.5,1016.3887 Q189.7344,1016.3887 189.0938,1016.7168 Q188.4688,1017.0449 187.9688,1017.7949 Q187.4844,1018.5449 187.4844,1019.5762 L187.4844,1020.6699 Q187.4844,1021.9043 188.375,1022.7324 Q189.2656,1023.5449 190.8594,1023.5449 Q191.7969,1023.5449 192.4531,1023.2949 Q192.8438,1023.1387 193.2656,1022.7012 Q193.5313,1022.4355 193.6719,1022.3574 Q193.8281,1022.2793 194.0313,1022.2793 Q194.3594,1022.2793 194.6094,1022.5449 Q194.875,1022.7949 194.875,1023.1387 Q194.875,1023.4824 194.5313,1023.8887 Q194.0313,1024.4668 193.2344,1024.7949 Q192.1563,1025.248 190.8594,1025.248 Q189.3438,1025.248 188.1406,1024.623 Q187.1563,1024.123 186.4688,1023.0605 Q185.7813,1021.9824 185.7813,1020.7012 L185.7813,1019.5449 Q185.7813,1018.2168 186.3906,1017.0762 Q187.0156,1015.9199 188.1094,1015.3105 Q189.2031,1014.6855 190.4375,1014.6855 Q191.1719,1014.6855 191.8125,1014.8574 Q192.4688,1015.0137 193.0156,1015.373 Z " fill="#000000"/><ellipse cx="215.75" cy="1018.998" fill="#84BE84" rx="3" ry="3" style="stroke:#038048;stroke-width:1.0;"/><text fill="#000000" font-family="sans-serif" font-size="14" font-weight="bold" lengthAdjust="spacing" textLength="30" x="221.75" y="1025.2949">final</text><text fill="#000000" font-family="sans-serif" font-size="14" lengthAdjust="spacing" textLength="48" x="255.75" y="1025.2949">JsonUtil</text><line style="stroke:#D4AC0D;stroke-width:2.0;" x1="65" x2="417" y1="1035.498" y2="1035.498"/><line style="stroke:#D4AC0D;stroke-width:2.0;" x1="65" x2="417" y1="1043.498" y2="1043.498"/><ellipse cx="75" cy="1058.3086" fill="#84BE84" rx="3" ry="3" style="stroke:#038048;stroke-width:1.0;"/><text fill="#000000" filter="url(#be66zzj1iad4t0)" font-family="sans-serif" font-size="14" lengthAdjust="spacing" text-decoration="underline" textLength="34" x="84" y="1062.6055">Gson</text><text fill="#000000" font-family="sans-serif" font-size="14" lengthAdjust="spacing" text-decoration="underline" textLength="76" x="122" y="1062.6055">getParser ()</text><ellipse cx="75" cy="1076.9297" fill="#84BE84" rx="3" ry="3" style="stroke:#038048;stroke-width:1.0;"/><text fill="#000000" font-family="sans-serif" font-size="14" lengthAdjust="spacing" text-decoration="underline" textLength="328" x="84" y="1081.2266">void registerTypeAdapter (Class&lt;?&gt; matchingClass,</text><text fill="#000000" font-family="sans-serif" font-size="14" lengthAdjust="spacing" textLength="258" x="116" y="1099.8477">Object adapter, boolean withSubclasses)</text><text fill="#000000" font-family="sans-serif" font-size="14" lengthAdjust="spacing" textLength="4" x="84" y="1118.4688">&#160;</text><ellipse cx="75" cy="1132.793" fill="#84BE84" rx="3" ry="3" style="stroke:#038048;stroke-width:1.0;"/><text fill="#000000" font-family="sans-serif" font-size="14" lengthAdjust="spacing" text-decoration="underline" textLength="160" x="84" y="1137.0898">String toJson (Object obj)</text></g><!--class BodyError--><g id="elem_BodyError"><rect codeLine="129" fill="#FEFECE" height="122.4844" id="BodyError" rx="2.5" ry="2.5" style="stroke:#D4AC0D;stroke-width:2.0;" width="229" x="453.5" y="1012.998"/><ellipse cx="526.25" cy="1028.998" fill="#ADD1B2" rx="11" ry="11" style="stroke:#181818;stroke-width:1.0;"/><path d="M529.0156,1024.873 Q529.1719,1024.6543 529.3594,1024.5449 Q529.5469,1024.4355 529.7656,1024.4355 Q530.1406,1024.4355 530.375,1024.7012 Q530.6094,1024.9512 530.6094,1025.5605 L530.6094,1027.0137 Q530.6094,1027.623 530.375,1027.8887 Q530.1406,1028.1543 529.7656,1028.1543 Q529.4219,1028.1543 529.2188,1027.9512 Q529.0156,1027.7637 528.9063,1027.248 Q528.8594,1026.8887 528.6719,1026.7012 Q528.3438,1026.3262 527.7344,1026.1074 Q527.125,1025.8887 526.5,1025.8887 Q525.7344,1025.8887 525.0938,1026.2168 Q524.4688,1026.5449 523.9688,1027.2949 Q523.4844,1028.0449 523.4844,1029.0762 L523.4844,1030.1699 Q523.4844,1031.4043 524.375,1032.2324 Q525.2656,1033.0449 526.8594,1033.0449 Q527.7969,1033.0449 528.4531,1032.7949 Q528.8438,1032.6387 529.2656,1032.2012 Q529.5313,1031.9355 529.6719,1031.8574 Q529.8281,1031.7793 530.0313,1031.7793 Q530.3594,1031.7793 530.6094,1032.0449 Q530.875,1032.2949 530.875,1032.6387 Q530.875,1032.9824 530.5313,1033.3887 Q530.0313,1033.9668 529.2344,1034.2949 Q528.1563,1034.748 526.8594,1034.748 Q525.3438,1034.748 524.1406,1034.123 Q523.1563,1033.623 522.4688,1032.5605 Q521.7813,1031.4824 521.7813,1030.2012 L521.7813,1029.0449 Q521.7813,1027.7168 522.3906,1026.5762 Q523.0156,1025.4199 524.1094,1024.8105 Q525.2031,1024.1855 526.4375,1024.1855 Q527.1719,1024.1855 527.8125,1024.3574 Q528.4688,1024.5137 529.0156,1024.873 Z " fill="#000000"/><ellipse cx="551.75" cy="1028.498" fill="#84BE84" rx="3" ry="3" style="stroke:#038048;stroke-width:1.0;"/><text fill="#000000" font-family="sans-serif" font-size="14" lengthAdjust="spacing" textLength="64" x="557.75" y="1034.7949">BodyError</text><line style="stroke:#D4AC0D;stroke-width:2.0;" x1="454.5" x2="681.5" y1="1044.998" y2="1044.998"/><line style="stroke:#D4AC0D;stroke-width:2.0;" x1="454.5" x2="681.5" y1="1052.998" y2="1052.998"/><ellipse cx="464.5" cy="1067.8086" fill="#84BE84" rx="3" ry="3" style="stroke:#038048;stroke-width:1.0;"/><text fill="#000000" font-family="sans-serif" font-size="14" lengthAdjust="spacing" textLength="203" x="473.5" y="1072.1055">BodyError (Exception exception)</text><text fill="#000000" font-family="sans-serif" font-size="14" lengthAdjust="spacing" textLength="4" x="473.5" y="1090.7266">&#160;</text><ellipse cx="464.5" cy="1105.0508" fill="#84BE84" rx="3" ry="3" style="stroke:#038048;stroke-width:1.0;"/><text fill="#000000" font-family="sans-serif" font-size="14" lengthAdjust="spacing" textLength="109" x="473.5" y="1109.3477">String getCode ()</text><ellipse cx="464.5" cy="1123.6719" fill="#84BE84" rx="3" ry="3" style="stroke:#038048;stroke-width:1.0;"/><text fill="#000000" font-family="sans-serif" font-size="14" lengthAdjust="spacing" textLength="160" x="473.5" y="1127.9688">Exception getException ()</text></g><!--class BodyErrorJsonDeserializer--><g id="elem_BodyErrorJsonDeserializer"><rect codeLine="135" fill="#FEFECE" height="81.8633" id="BodyErrorJsonDeserializer" rx="2.5" ry="2.5" style="stroke:#D4AC0D;stroke-width:2.0;" width="258" x="718" y="1032.998"/><ellipse cx="733" cy="1056.6191" fill="#ADD1B2" rx="11" ry="11" style="stroke:#181818;stroke-width:1.0;"/><path d="M735.7656,1052.4941 Q735.9219,1052.2754 736.1094,1052.166 Q736.2969,1052.0566 736.5156,1052.0566 Q736.8906,1052.0566 737.125,1052.3223 Q737.3594,1052.5723 737.3594,1053.1816 L737.3594,1054.6348 Q737.3594,1055.2441 737.125,1055.5098 Q736.8906,1055.7754 736.5156,1055.7754 Q736.1719,1055.7754 735.9688,1055.5723 Q735.7656,1055.3848 735.6563,1054.8691 Q735.6094,1054.5098 735.4219,1054.3223 Q735.0938,1053.9473 734.4844,1053.7285 Q733.875,1053.5098 733.25,1053.5098 Q732.4844,1053.5098 731.8438,1053.8379 Q731.2188,1054.166 730.7188,1054.916 Q730.2344,1055.666 730.2344,1056.6973 L730.2344,1057.791 Q730.2344,1059.0254 731.125,1059.8535 Q732.0156,1060.666 733.6094,1060.666 Q734.5469,1060.666 735.2031,1060.416 Q735.5938,1060.2598 736.0156,1059.8223 Q736.2813,1059.5566 736.4219,1059.4785 Q736.5781,1059.4004 736.7813,1059.4004 Q737.1094,1059.4004 737.3594,1059.666 Q737.625,1059.916 737.625,1060.2598 Q737.625,1060.6035 737.2813,1061.0098 Q736.7813,1061.5879 735.9844,1061.916 Q734.9063,1062.3691 733.6094,1062.3691 Q732.0938,1062.3691 730.8906,1061.7441 Q729.9063,1061.2441 729.2188,1060.1816 Q728.5313,1059.1035 728.5313,1057.8223 L728.5313,1056.666 Q728.5313,1055.3379 729.1406,1054.1973 Q729.7656,1053.041 730.8594,1052.4316 Q731.9531,1051.8066 733.1875,1051.8066 Q733.9219,1051.8066 734.5625,1051.9785 Q735.2188,1052.1348 735.7656,1052.4941 Z " fill="#000000"/><ellipse cx="752" cy="1056.1191" fill="#84BE84" rx="3" ry="3" style="stroke:#038048;stroke-width:1.0;"/><text fill="#000000" font-family="sans-serif" font-size="14" lengthAdjust="spacing" textLength="16" x="758" y="1053.1055">&lt;&lt;</text><text fill="#000000" filter="url(#be66zzj1iad4t0)" font-family="sans-serif" font-size="14" lengthAdjust="spacing" textLength="183" x="774" y="1053.1055">JsonDeserializer&lt;BodyError&gt;</text><text fill="#000000" font-family="sans-serif" font-size="14" lengthAdjust="spacing" textLength="16" x="957" y="1053.1055">&gt;&gt;</text><text fill="#000000" font-family="sans-serif" font-size="14" lengthAdjust="spacing" textLength="167" x="782" y="1071.7266">BodyErrorJsonDeserializer</text><line style="stroke:#D4AC0D;stroke-width:2.0;" x1="719" x2="975" y1="1080.2402" y2="1080.2402"/><line style="stroke:#D4AC0D;stroke-width:2.0;" x1="719" x2="975" y1="1088.2402" y2="1088.2402"/><text fill="#000000" font-family="sans-serif" font-size="14" lengthAdjust="spacing" textLength="12" x="724" y="1107.3477">...</text></g><!--class ByteArrayJsonAdapter--><g id="elem_ByteArrayJsonAdapter"><rect codeLine="139" fill="#FEFECE" height="100.4844" id="ByteArrayJsonAdapter" rx="2.5" ry="2.5" style="stroke:#D4AC0D;stroke-width:2.0;" width="229" x="1011.5" y="1023.998"/><ellipse cx="1026.5" cy="1056.9297" fill="#ADD1B2" rx="11" ry="11" style="stroke:#181818;stroke-width:1.0;"/><path d="M1029.2656,1052.8047 Q1029.4219,1052.5859 1029.6094,1052.4766 Q1029.7969,1052.3672 1030.0156,1052.3672 Q1030.3906,1052.3672 1030.625,1052.6328 Q1030.8594,1052.8828 1030.8594,1053.4922 L1030.8594,1054.9453 Q1030.8594,1055.5547 1030.625,1055.8203 Q1030.3906,1056.0859 1030.0156,1056.0859 Q1029.6719,1056.0859 1029.4688,1055.8828 Q1029.2656,1055.6953 1029.1563,1055.1797 Q1029.1094,1054.8203 1028.9219,1054.6328 Q1028.5938,1054.2578 1027.9844,1054.0391 Q1027.375,1053.8203 1026.75,1053.8203 Q1025.9844,1053.8203 1025.3438,1054.1484 Q1024.7188,1054.4766 1024.2188,1055.2266 Q1023.7344,1055.9766 1023.7344,1057.0078 L1023.7344,1058.1016 Q1023.7344,1059.3359 1024.625,1060.1641 Q1025.5156,1060.9766 1027.1094,1060.9766 Q1028.0469,1060.9766 1028.7031,1060.7266 Q1029.0938,1060.5703 1029.5156,1060.1328 Q1029.7813,1059.8672 1029.9219,1059.7891 Q1030.0781,1059.7109 1030.2813,1059.7109 Q1030.6094,1059.7109 1030.8594,1059.9766 Q1031.125,1060.2266 1031.125,1060.5703 Q1031.125,1060.9141 1030.7813,1061.3203 Q1030.2813,1061.8984 1029.4844,1062.2266 Q1028.4063,1062.6797 1027.1094,1062.6797 Q1025.5938,1062.6797 1024.3906,1062.0547 Q1023.4063,1061.5547 1022.7188,1060.4922 Q1022.0313,1059.4141 1022.0313,1058.1328 L1022.0313,1056.9766 Q1022.0313,1055.6484 1022.6406,1054.5078 Q1023.2656,1053.3516 1024.3594,1052.7422 Q1025.4531,1052.1172 1026.6875,1052.1172 Q1027.4219,1052.1172 1028.0625,1052.2891 Q1028.7188,1052.4453 1029.2656,1052.8047 Z " fill="#000000"/><ellipse cx="1045.5" cy="1056.4297" fill="#84BE84" rx="3" ry="3" style="stroke:#038048;stroke-width:1.0;"/><text fill="#000000" font-family="sans-serif" font-size="14" lengthAdjust="spacing" textLength="16" x="1059.5" y="1044.1055">&lt;&lt;</text><text fill="#000000" filter="url(#be66zzj1iad4t0)" font-family="sans-serif" font-size="14" lengthAdjust="spacing" textLength="138" x="1075.5" y="1044.1055">JsonSerializer&lt;byte[]&gt;</text><text fill="#000000" font-family="sans-serif" font-size="14" lengthAdjust="spacing" textLength="16" x="1213.5" y="1044.1055">&gt;&gt;</text><text fill="#000000" font-family="sans-serif" font-size="14" lengthAdjust="spacing" textLength="16" x="1051.5" y="1062.7266">&lt;&lt;</text><text fill="#000000" filter="url(#be66zzj1iad4t0)" font-family="sans-serif" font-size="14" lengthAdjust="spacing" textLength="154" x="1067.5" y="1062.7266">JsonDeserializer&lt;byte[]&gt;</text><text fill="#000000" font-family="sans-serif" font-size="14" lengthAdjust="spacing" textLength="16" x="1221.5" y="1062.7266">&gt;&gt;</text><text fill="#000000" font-family="sans-serif" font-size="14" lengthAdjust="spacing" textLength="141" x="1074" y="1081.3477">ByteArrayJsonAdapter</text><line style="stroke:#D4AC0D;stroke-width:2.0;" x1="1012.5" x2="1239.5" y1="1089.8613" y2="1089.8613"/><line style="stroke:#D4AC0D;stroke-width:2.0;" x1="1012.5" x2="1239.5" y1="1097.8613" y2="1097.8613"/><text fill="#000000" font-family="sans-serif" font-size="14" lengthAdjust="spacing" textLength="12" x="1017.5" y="1116.9688">...</text></g><!--class ByteJsonAdapter--><g id="elem_ByteJsonAdapter"><rect codeLine="143" fill="#FEFECE" height="100.4844" id="ByteJsonAdapter" rx="2.5" ry="2.5" style="stroke:#D4AC0D;stroke-width:2.0;" width="222" x="1276" y="1023.998"/><ellipse cx="1291" cy="1056.9297" fill="#ADD1B2" rx="11" ry="11" style="stroke:#181818;stroke-width:1.0;"/><path d="M1293.7656,1052.8047 Q1293.9219,1052.5859 1294.1094,1052.4766 Q1294.2969,1052.3672 1294.5156,1052.3672 Q1294.8906,1052.3672 1295.125,1052.6328 Q1295.3594,1052.8828 1295.3594,1053.4922 L1295.3594,1054.9453 Q1295.3594,1055.5547 1295.125,1055.8203 Q1294.8906,1056.0859 1294.5156,1056.0859 Q1294.1719,1056.0859 1293.9688,1055.8828 Q1293.7656,1055.6953 1293.6563,1055.1797 Q1293.6094,1054.8203 1293.4219,1054.6328 Q1293.0938,1054.2578 1292.4844,1054.0391 Q1291.875,1053.8203 1291.25,1053.8203 Q1290.4844,1053.8203 1289.8438,1054.1484 Q1289.2188,1054.4766 1288.7188,1055.2266 Q1288.2344,1055.9766 1288.2344,1057.0078 L1288.2344,1058.1016 Q1288.2344,1059.3359 1289.125,1060.1641 Q1290.0156,1060.9766 1291.6094,1060.9766 Q1292.5469,1060.9766 1293.2031,1060.7266 Q1293.5938,1060.5703 1294.0156,1060.1328 Q1294.2813,1059.8672 1294.4219,1059.7891 Q1294.5781,1059.7109 1294.7813,1059.7109 Q1295.1094,1059.7109 1295.3594,1059.9766 Q1295.625,1060.2266 1295.625,1060.5703 Q1295.625,1060.9141 1295.2813,1061.3203 Q1294.7813,1061.8984 1293.9844,1062.2266 Q1292.9063,1062.6797 1291.6094,1062.6797 Q1290.0938,1062.6797 1288.8906,1062.0547 Q1287.9063,1061.5547 1287.2188,1060.4922 Q1286.5313,1059.4141 1286.5313,1058.1328 L1286.5313,1056.9766 Q1286.5313,1055.6484 1287.1406,1054.5078 Q1287.7656,1053.3516 1288.8594,1052.7422 Q1289.9531,1052.1172 1291.1875,1052.1172 Q1291.9219,1052.1172 1292.5625,1052.2891 Q1293.2188,1052.4453 1293.7656,1052.8047 Z " fill="#000000"/><ellipse cx="1310" cy="1056.4297" fill="#84BE84" rx="3" ry="3" style="stroke:#038048;stroke-width:1.0;"/><text fill="#000000" font-family="sans-serif" font-size="14" lengthAdjust="spacing" textLength="16" x="1324" y="1044.1055">&lt;&lt;</text><text fill="#000000" filter="url(#be66zzj1iad4t0)" font-family="sans-serif" font-size="14" lengthAdjust="spacing" textLength="131" x="1340" y="1044.1055">JsonSerializer&lt;Byte&gt;</text><text fill="#000000" font-family="sans-serif" font-size="14" lengthAdjust="spacing" textLength="16" x="1471" y="1044.1055">&gt;&gt;</text><text fill="#000000" font-family="sans-serif" font-size="14" lengthAdjust="spacing" textLength="16" x="1316" y="1062.7266">&lt;&lt;</text><text fill="#000000" filter="url(#be66zzj1iad4t0)" font-family="sans-serif" font-size="14" lengthAdjust="spacing" textLength="147" x="1332" y="1062.7266">JsonDeserializer&lt;Byte&gt;</text><text fill="#000000" font-family="sans-serif" font-size="14" lengthAdjust="spacing" textLength="16" x="1479" y="1062.7266">&gt;&gt;</text><text fill="#000000" font-family="sans-serif" font-size="14" lengthAdjust="spacing" textLength="107" x="1352" y="1081.3477">ByteJsonAdapter</text><line style="stroke:#D4AC0D;stroke-width:2.0;" x1="1277" x2="1497" y1="1089.8613" y2="1089.8613"/><line style="stroke:#D4AC0D;stroke-width:2.0;" x1="1277" x2="1497" y1="1097.8613" y2="1097.8613"/><text fill="#000000" font-family="sans-serif" font-size="14" lengthAdjust="spacing" textLength="12" x="1282" y="1116.9688">...</text></g><!--class ShortJsonAdapter--><g id="elem_ShortJsonAdapter"><rect codeLine="147" fill="#FEFECE" height="100.4844" id="ShortJsonAdapter" rx="2.5" ry="2.5" style="stroke:#D4AC0D;stroke-width:2.0;" width="228" x="454" y="1204.498"/><ellipse cx="469" cy="1237.4297" fill="#ADD1B2" rx="11" ry="11" style="stroke:#181818;stroke-width:1.0;"/><path d="M471.7656,1233.3047 Q471.9219,1233.0859 472.1094,1232.9766 Q472.2969,1232.8672 472.5156,1232.8672 Q472.8906,1232.8672 473.125,1233.1328 Q473.3594,1233.3828 473.3594,1233.9922 L473.3594,1235.4453 Q473.3594,1236.0547 473.125,1236.3203 Q472.8906,1236.5859 472.5156,1236.5859 Q472.1719,1236.5859 471.9688,1236.3828 Q471.7656,1236.1953 471.6563,1235.6797 Q471.6094,1235.3203 471.4219,1235.1328 Q471.0938,1234.7578 470.4844,1234.5391 Q469.875,1234.3203 469.25,1234.3203 Q468.4844,1234.3203 467.8438,1234.6484 Q467.2188,1234.9766 466.7188,1235.7266 Q466.2344,1236.4766 466.2344,1237.5078 L466.2344,1238.6016 Q466.2344,1239.8359 467.125,1240.6641 Q468.0156,1241.4766 469.6094,1241.4766 Q470.5469,1241.4766 471.2031,1241.2266 Q471.5938,1241.0703 472.0156,1240.6328 Q472.2813,1240.3672 472.4219,1240.2891 Q472.5781,1240.2109 472.7813,1240.2109 Q473.1094,1240.2109 473.3594,1240.4766 Q473.625,1240.7266 473.625,1241.0703 Q473.625,1241.4141 473.2813,1241.8203 Q472.7813,1242.3984 471.9844,1242.7266 Q470.9063,1243.1797 469.6094,1243.1797 Q468.0938,1243.1797 466.8906,1242.5547 Q465.9063,1242.0547 465.2188,1240.9922 Q464.5313,1239.9141 464.5313,1238.6328 L464.5313,1237.4766 Q464.5313,1236.1484 465.1406,1235.0078 Q465.7656,1233.8516 466.8594,1233.2422 Q467.9531,1232.6172 469.1875,1232.6172 Q469.9219,1232.6172 470.5625,1232.7891 Q471.2188,1232.9453 471.7656,1233.3047 Z " fill="#000000"/><ellipse cx="488" cy="1236.9297" fill="#84BE84" rx="3" ry="3" style="stroke:#038048;stroke-width:1.0;"/><text fill="#000000" font-family="sans-serif" font-size="14" lengthAdjust="spacing" textLength="16" x="502" y="1224.6055">&lt;&lt;</text><text fill="#000000" filter="url(#be66zzj1iad4t0)" font-family="sans-serif" font-size="14" lengthAdjust="spacing" textLength="137" x="518" y="1224.6055">JsonSerializer&lt;Short&gt;</text><text fill="#000000" font-family="sans-serif" font-size="14" lengthAdjust="spacing" textLength="16" x="655" y="1224.6055">&gt;&gt;</text><text fill="#000000" font-family="sans-serif" font-size="14" lengthAdjust="spacing" textLength="16" x="494" y="1243.2266">&lt;&lt;</text><text fill="#000000" filter="url(#be66zzj1iad4t0)" font-family="sans-serif" font-size="14" lengthAdjust="spacing" textLength="153" x="510" y="1243.2266">JsonDeserializer&lt;Short&gt;</text><text fill="#000000" font-family="sans-serif" font-size="14" lengthAdjust="spacing" textLength="16" x="663" y="1243.2266">&gt;&gt;</text><text fill="#000000" font-family="sans-serif" font-size="14" lengthAdjust="spacing" textLength="113" x="530" y="1261.8477">ShortJsonAdapter</text><line style="stroke:#D4AC0D;stroke-width:2.0;" x1="455" x2="681" y1="1270.3613" y2="1270.3613"/><line style="stroke:#D4AC0D;stroke-width:2.0;" x1="455" x2="681" y1="1278.3613" y2="1278.3613"/><text fill="#000000" font-family="sans-serif" font-size="14" lengthAdjust="spacing" textLength="12" x="460" y="1297.4688">...</text></g><!--class IntegerJsonAdapter--><g id="elem_IntegerJsonAdapter"><rect codeLine="151" fill="#FEFECE" height="100.4844" id="IntegerJsonAdapter" rx="2.5" ry="2.5" style="stroke:#D4AC0D;stroke-width:2.0;" width="238" x="717" y="1204.498"/><ellipse cx="732" cy="1237.4297" fill="#ADD1B2" rx="11" ry="11" style="stroke:#181818;stroke-width:1.0;"/><path d="M734.7656,1233.3047 Q734.9219,1233.0859 735.1094,1232.9766 Q735.2969,1232.8672 735.5156,1232.8672 Q735.8906,1232.8672 736.125,1233.1328 Q736.3594,1233.3828 736.3594,1233.9922 L736.3594,1235.4453 Q736.3594,1236.0547 736.125,1236.3203 Q735.8906,1236.5859 735.5156,1236.5859 Q735.1719,1236.5859 734.9688,1236.3828 Q734.7656,1236.1953 734.6563,1235.6797 Q734.6094,1235.3203 734.4219,1235.1328 Q734.0938,1234.7578 733.4844,1234.5391 Q732.875,1234.3203 732.25,1234.3203 Q731.4844,1234.3203 730.8438,1234.6484 Q730.2188,1234.9766 729.7188,1235.7266 Q729.2344,1236.4766 729.2344,1237.5078 L729.2344,1238.6016 Q729.2344,1239.8359 730.125,1240.6641 Q731.0156,1241.4766 732.6094,1241.4766 Q733.5469,1241.4766 734.2031,1241.2266 Q734.5938,1241.0703 735.0156,1240.6328 Q735.2813,1240.3672 735.4219,1240.2891 Q735.5781,1240.2109 735.7813,1240.2109 Q736.1094,1240.2109 736.3594,1240.4766 Q736.625,1240.7266 736.625,1241.0703 Q736.625,1241.4141 736.2813,1241.8203 Q735.7813,1242.3984 734.9844,1242.7266 Q733.9063,1243.1797 732.6094,1243.1797 Q731.0938,1243.1797 729.8906,1242.5547 Q728.9063,1242.0547 728.2188,1240.9922 Q727.5313,1239.9141 727.5313,1238.6328 L727.5313,1237.4766 Q727.5313,1236.1484 728.1406,1235.0078 Q728.7656,1233.8516 729.8594,1233.2422 Q730.9531,1232.6172 732.1875,1232.6172 Q732.9219,1232.6172 733.5625,1232.7891 Q734.2188,1232.9453 734.7656,1233.3047 Z " fill="#000000"/><ellipse cx="751" cy="1236.9297" fill="#84BE84" rx="3" ry="3" style="stroke:#038048;stroke-width:1.0;"/><text fill="#000000" font-family="sans-serif" font-size="14" lengthAdjust="spacing" textLength="16" x="765" y="1224.6055">&lt;&lt;</text><text fill="#000000" filter="url(#be66zzj1iad4t0)" font-family="sans-serif" font-size="14" lengthAdjust="spacing" textLength="147" x="781" y="1224.6055">JsonSerializer&lt;Integer&gt;</text><text fill="#000000" font-family="sans-serif" font-size="14" lengthAdjust="spacing" textLength="16" x="928" y="1224.6055">&gt;&gt;</text><text fill="#000000" font-family="sans-serif" font-size="14" lengthAdjust="spacing" textLength="16" x="757" y="1243.2266">&lt;&lt;</text><text fill="#000000" filter="url(#be66zzj1iad4t0)" font-family="sans-serif" font-size="14" lengthAdjust="spacing" textLength="163" x="773" y="1243.2266">JsonDeserializer&lt;Integer&gt;</text><text fill="#000000" font-family="sans-serif" font-size="14" lengthAdjust="spacing" textLength="16" x="936" y="1243.2266">&gt;&gt;</text><text fill="#000000" font-family="sans-serif" font-size="14" lengthAdjust="spacing" textLength="123" x="793" y="1261.8477">IntegerJsonAdapter</text><line style="stroke:#D4AC0D;stroke-width:2.0;" x1="718" x2="954" y1="1270.3613" y2="1270.3613"/><line style="stroke:#D4AC0D;stroke-width:2.0;" x1="718" x2="954" y1="1278.3613" y2="1278.3613"/><text fill="#000000" font-family="sans-serif" font-size="14" lengthAdjust="spacing" textLength="12" x="723" y="1297.4688">...</text></g><!--class LongJsonAdapter--><g id="elem_LongJsonAdapter"><rect codeLine="155" fill="#FEFECE" height="100.4844" id="LongJsonAdapter" rx="2.5" ry="2.5" style="stroke:#D4AC0D;stroke-width:2.0;" width="226" x="990" y="1204.498"/><ellipse cx="1005" cy="1237.4297" fill="#ADD1B2" rx="11" ry="11" style="stroke:#181818;stroke-width:1.0;"/><path d="M1007.7656,1233.3047 Q1007.9219,1233.0859 1008.1094,1232.9766 Q1008.2969,1232.8672 1008.5156,1232.8672 Q1008.8906,1232.8672 1009.125,1233.1328 Q1009.3594,1233.3828 1009.3594,1233.9922 L1009.3594,1235.4453 Q1009.3594,1236.0547 1009.125,1236.3203 Q1008.8906,1236.5859 1008.5156,1236.5859 Q1008.1719,1236.5859 1007.9688,1236.3828 Q1007.7656,1236.1953 1007.6563,1235.6797 Q1007.6094,1235.3203 1007.4219,1235.1328 Q1007.0938,1234.7578 1006.4844,1234.5391 Q1005.875,1234.3203 1005.25,1234.3203 Q1004.4844,1234.3203 1003.8438,1234.6484 Q1003.2188,1234.9766 1002.7188,1235.7266 Q1002.2344,1236.4766 1002.2344,1237.5078 L1002.2344,1238.6016 Q1002.2344,1239.8359 1003.125,1240.6641 Q1004.0156,1241.4766 1005.6094,1241.4766 Q1006.5469,1241.4766 1007.2031,1241.2266 Q1007.5938,1241.0703 1008.0156,1240.6328 Q1008.2813,1240.3672 1008.4219,1240.2891 Q1008.5781,1240.2109 1008.7813,1240.2109 Q1009.1094,1240.2109 1009.3594,1240.4766 Q1009.625,1240.7266 1009.625,1241.0703 Q1009.625,1241.4141 1009.2813,1241.8203 Q1008.7813,1242.3984 1007.9844,1242.7266 Q1006.9063,1243.1797 1005.6094,1243.1797 Q1004.0938,1243.1797 1002.8906,1242.5547 Q1001.9063,1242.0547 1001.2188,1240.9922 Q1000.5313,1239.9141 1000.5313,1238.6328 L1000.5313,1237.4766 Q1000.5313,1236.1484 1001.1406,1235.0078 Q1001.7656,1233.8516 1002.8594,1233.2422 Q1003.9531,1232.6172 1005.1875,1232.6172 Q1005.9219,1232.6172 1006.5625,1232.7891 Q1007.2188,1232.9453 1007.7656,1233.3047 Z " fill="#000000"/><ellipse cx="1024" cy="1236.9297" fill="#84BE84" rx="3" ry="3" style="stroke:#038048;stroke-width:1.0;"/><text fill="#000000" font-family="sans-serif" font-size="14" lengthAdjust="spacing" textLength="16" x="1038" y="1224.6055">&lt;&lt;</text><text fill="#000000" filter="url(#be66zzj1iad4t0)" font-family="sans-serif" font-size="14" lengthAdjust="spacing" textLength="135" x="1054" y="1224.6055">JsonSerializer&lt;Long&gt;</text><text fill="#000000" font-family="sans-serif" font-size="14" lengthAdjust="spacing" textLength="16" x="1189" y="1224.6055">&gt;&gt;</text><text fill="#000000" font-family="sans-serif" font-size="14" lengthAdjust="spacing" textLength="16" x="1030" y="1243.2266">&lt;&lt;</text><text fill="#000000" filter="url(#be66zzj1iad4t0)" font-family="sans-serif" font-size="14" lengthAdjust="spacing" textLength="151" x="1046" y="1243.2266">JsonDeserializer&lt;Long&gt;</text><text fill="#000000" font-family="sans-serif" font-size="14" lengthAdjust="spacing" textLength="16" x="1197" y="1243.2266">&gt;&gt;</text><text fill="#000000" font-family="sans-serif" font-size="14" lengthAdjust="spacing" textLength="111" x="1066" y="1261.8477">LongJsonAdapter</text><line style="stroke:#D4AC0D;stroke-width:2.0;" x1="991" x2="1215" y1="1270.3613" y2="1270.3613"/><line style="stroke:#D4AC0D;stroke-width:2.0;" x1="991" x2="1215" y1="1278.3613" y2="1278.3613"/><text fill="#000000" font-family="sans-serif" font-size="14" lengthAdjust="spacing" textLength="12" x="996" y="1297.4688">...</text></g><!--class ThrowableJsonAdapter--><g id="elem_ThrowableJsonAdapter"><rect codeLine="159" fill="#FEFECE" height="81.8633" id="ThrowableJsonAdapter" rx="2.5" ry="2.5" style="stroke:#D4AC0D;stroke-width:2.0;" width="244" x="1251" y="1213.498"/><ellipse cx="1266" cy="1237.1191" fill="#ADD1B2" rx="11" ry="11" style="stroke:#181818;stroke-width:1.0;"/><path d="M1268.7656,1232.9941 Q1268.9219,1232.7754 1269.1094,1232.666 Q1269.2969,1232.5566 1269.5156,1232.5566 Q1269.8906,1232.5566 1270.125,1232.8223 Q1270.3594,1233.0723 1270.3594,1233.6816 L1270.3594,1235.1348 Q1270.3594,1235.7441 1270.125,1236.0098 Q1269.8906,1236.2754 1269.5156,1236.2754 Q1269.1719,1236.2754 1268.9688,1236.0723 Q1268.7656,1235.8848 1268.6563,1235.3691 Q1268.6094,1235.0098 1268.4219,1234.8223 Q1268.0938,1234.4473 1267.4844,1234.2285 Q1266.875,1234.0098 1266.25,1234.0098 Q1265.4844,1234.0098 1264.8438,1234.3379 Q1264.2188,1234.666 1263.7188,1235.416 Q1263.2344,1236.166 1263.2344,1237.1973 L1263.2344,1238.291 Q1263.2344,1239.5254 1264.125,1240.3535 Q1265.0156,1241.166 1266.6094,1241.166 Q1267.5469,1241.166 1268.2031,1240.916 Q1268.5938,1240.7598 1269.0156,1240.3223 Q1269.2813,1240.0566 1269.4219,1239.9785 Q1269.5781,1239.9004 1269.7813,1239.9004 Q1270.1094,1239.9004 1270.3594,1240.166 Q1270.625,1240.416 1270.625,1240.7598 Q1270.625,1241.1035 1270.2813,1241.5098 Q1269.7813,1242.0879 1268.9844,1242.416 Q1267.9063,1242.8691 1266.6094,1242.8691 Q1265.0938,1242.8691 1263.8906,1242.2441 Q1262.9063,1241.7441 1262.2188,1240.6816 Q1261.5313,1239.6035 1261.5313,1238.3223 L1261.5313,1237.166 Q1261.5313,1235.8379 1262.1406,1234.6973 Q1262.7656,1233.541 1263.8594,1232.9316 Q1264.9531,1232.3066 1266.1875,1232.3066 Q1266.9219,1232.3066 1267.5625,1232.4785 Q1268.2188,1232.6348 1268.7656,1232.9941 Z " fill="#000000"/><ellipse cx="1285" cy="1236.6191" fill="#84BE84" rx="3" ry="3" style="stroke:#038048;stroke-width:1.0;"/><text fill="#000000" font-family="sans-serif" font-size="14" lengthAdjust="spacing" textLength="16" x="1291" y="1233.6055">&lt;&lt;</text><text fill="#000000" filter="url(#be66zzj1iad4t0)" font-family="sans-serif" font-size="14" lengthAdjust="spacing" textLength="169" x="1307" y="1233.6055">JsonSerializer&lt;Throwable&gt;</text><text fill="#000000" font-family="sans-serif" font-size="14" lengthAdjust="spacing" textLength="16" x="1476" y="1233.6055">&gt;&gt;</text><text fill="#000000" font-family="sans-serif" font-size="14" lengthAdjust="spacing" textLength="145" x="1319" y="1252.2266">ThrowableJsonAdapter</text><line style="stroke:#D4AC0D;stroke-width:2.0;" x1="1252" x2="1494" y1="1260.7402" y2="1260.7402"/><line style="stroke:#D4AC0D;stroke-width:2.0;" x1="1252" x2="1494" y1="1268.7402" y2="1268.7402"/><text fill="#000000" font-family="sans-serif" font-size="14" lengthAdjust="spacing" textLength="12" x="1257" y="1287.8477">...</text></g><!--class DateJsonSerializer--><g id="elem_DateJsonSerializer"><rect codeLine="163" fill="#FEFECE" height="81.8633" id="DateJsonSerializer" rx="2.5" ry="2.5" style="stroke:#D4AC0D;stroke-width:2.0;" width="208" x="464" y="1373.498"/><ellipse cx="479" cy="1397.1191" fill="#ADD1B2" rx="11" ry="11" style="stroke:#181818;stroke-width:1.0;"/><path d="M481.7656,1392.9941 Q481.9219,1392.7754 482.1094,1392.666 Q482.2969,1392.5566 482.5156,1392.5566 Q482.8906,1392.5566 483.125,1392.8223 Q483.3594,1393.0723 483.3594,1393.6816 L483.3594,1395.1348 Q483.3594,1395.7441 483.125,1396.0098 Q482.8906,1396.2754 482.5156,1396.2754 Q482.1719,1396.2754 481.9688,1396.0723 Q481.7656,1395.8848 481.6563,1395.3691 Q481.6094,1395.0098 481.4219,1394.8223 Q481.0938,1394.4473 480.4844,1394.2285 Q479.875,1394.0098 479.25,1394.0098 Q478.4844,1394.0098 477.8438,1394.3379 Q477.2188,1394.666 476.7188,1395.416 Q476.2344,1396.166 476.2344,1397.1973 L476.2344,1398.291 Q476.2344,1399.5254 477.125,1400.3535 Q478.0156,1401.166 479.6094,1401.166 Q480.5469,1401.166 481.2031,1400.916 Q481.5938,1400.7598 482.0156,1400.3223 Q482.2813,1400.0566 482.4219,1399.9785 Q482.5781,1399.9004 482.7813,1399.9004 Q483.1094,1399.9004 483.3594,1400.166 Q483.625,1400.416 483.625,1400.7598 Q483.625,1401.1035 483.2813,1401.5098 Q482.7813,1402.0879 481.9844,1402.416 Q480.9063,1402.8691 479.6094,1402.8691 Q478.0938,1402.8691 476.8906,1402.2441 Q475.9063,1401.7441 475.2188,1400.6816 Q474.5313,1399.6035 474.5313,1398.3223 L474.5313,1397.166 Q474.5313,1395.8379 475.1406,1394.6973 Q475.7656,1393.541 476.8594,1392.9316 Q477.9531,1392.3066 479.1875,1392.3066 Q479.9219,1392.3066 480.5625,1392.4785 Q481.2188,1392.6348 481.7656,1392.9941 Z " fill="#000000"/><ellipse cx="498" cy="1396.6191" fill="#84BE84" rx="3" ry="3" style="stroke:#038048;stroke-width:1.0;"/><text fill="#000000" font-family="sans-serif" font-size="14" lengthAdjust="spacing" textLength="16" x="504" y="1393.6055">&lt;&lt;</text><text fill="#000000" filter="url(#be66zzj1iad4t0)" font-family="sans-serif" font-size="14" lengthAdjust="spacing" textLength="133" x="520" y="1393.6055">JsonSerializer&lt;Date&gt;</text><text fill="#000000" font-family="sans-serif" font-size="14" lengthAdjust="spacing" textLength="16" x="653" y="1393.6055">&gt;&gt;</text><text fill="#000000" font-family="sans-serif" font-size="14" lengthAdjust="spacing" textLength="117" x="528" y="1412.2266">DateJsonSerializer</text><line style="stroke:#D4AC0D;stroke-width:2.0;" x1="465" x2="671" y1="1420.7402" y2="1420.7402"/><line style="stroke:#D4AC0D;stroke-width:2.0;" x1="465" x2="671" y1="1428.7402" y2="1428.7402"/><text fill="#000000" font-family="sans-serif" font-size="14" lengthAdjust="spacing" textLength="12" x="470" y="1447.8477">...</text></g><!--class CalendarJsonAdapter--><g id="elem_CalendarJsonAdapter"><rect codeLine="167" fill="#FEFECE" height="100.4844" id="CalendarJsonAdapter" rx="2.5" ry="2.5" style="stroke:#D4AC0D;stroke-width:2.0;" width="252" x="707" y="1364.498"/><ellipse cx="722" cy="1397.4297" fill="#ADD1B2" rx="11" ry="11" style="stroke:#181818;stroke-width:1.0;"/><path d="M724.7656,1393.3047 Q724.9219,1393.0859 725.1094,1392.9766 Q725.2969,1392.8672 725.5156,1392.8672 Q725.8906,1392.8672 726.125,1393.1328 Q726.3594,1393.3828 726.3594,1393.9922 L726.3594,1395.4453 Q726.3594,1396.0547 726.125,1396.3203 Q725.8906,1396.5859 725.5156,1396.5859 Q725.1719,1396.5859 724.9688,1396.3828 Q724.7656,1396.1953 724.6563,1395.6797 Q724.6094,1395.3203 724.4219,1395.1328 Q724.0938,1394.7578 723.4844,1394.5391 Q722.875,1394.3203 722.25,1394.3203 Q721.4844,1394.3203 720.8438,1394.6484 Q720.2188,1394.9766 719.7188,1395.7266 Q719.2344,1396.4766 719.2344,1397.5078 L719.2344,1398.6016 Q719.2344,1399.8359 720.125,1400.6641 Q721.0156,1401.4766 722.6094,1401.4766 Q723.5469,1401.4766 724.2031,1401.2266 Q724.5938,1401.0703 725.0156,1400.6328 Q725.2813,1400.3672 725.4219,1400.2891 Q725.5781,1400.2109 725.7813,1400.2109 Q726.1094,1400.2109 726.3594,1400.4766 Q726.625,1400.7266 726.625,1401.0703 Q726.625,1401.4141 726.2813,1401.8203 Q725.7813,1402.3984 724.9844,1402.7266 Q723.9063,1403.1797 722.6094,1403.1797 Q721.0938,1403.1797 719.8906,1402.5547 Q718.9063,1402.0547 718.2188,1400.9922 Q717.5313,1399.9141 717.5313,1398.6328 L717.5313,1397.4766 Q717.5313,1396.1484 718.1406,1395.0078 Q718.7656,1393.8516 719.8594,1393.2422 Q720.9531,1392.6172 722.1875,1392.6172 Q722.9219,1392.6172 723.5625,1392.7891 Q724.2188,1392.9453 724.7656,1393.3047 Z " fill="#000000"/><ellipse cx="741" cy="1396.9297" fill="#84BE84" rx="3" ry="3" style="stroke:#038048;stroke-width:1.0;"/><text fill="#000000" font-family="sans-serif" font-size="14" lengthAdjust="spacing" textLength="16" x="755" y="1384.6055">&lt;&lt;</text><text fill="#000000" filter="url(#be66zzj1iad4t0)" font-family="sans-serif" font-size="14" lengthAdjust="spacing" textLength="161" x="771" y="1384.6055">JsonSerializer&lt;Calendar&gt;</text><text fill="#000000" font-family="sans-serif" font-size="14" lengthAdjust="spacing" textLength="16" x="932" y="1384.6055">&gt;&gt;</text><text fill="#000000" font-family="sans-serif" font-size="14" lengthAdjust="spacing" textLength="16" x="747" y="1403.2266">&lt;&lt;</text><text fill="#000000" filter="url(#be66zzj1iad4t0)" font-family="sans-serif" font-size="14" lengthAdjust="spacing" textLength="177" x="763" y="1403.2266">JsonDeserializer&lt;Calendar&gt;</text><text fill="#000000" font-family="sans-serif" font-size="14" lengthAdjust="spacing" textLength="16" x="940" y="1403.2266">&gt;&gt;</text><text fill="#000000" font-family="sans-serif" font-size="14" lengthAdjust="spacing" textLength="137" x="783" y="1421.8477">CalendarJsonAdapter</text><line style="stroke:#D4AC0D;stroke-width:2.0;" x1="708" x2="958" y1="1430.3613" y2="1430.3613"/><line style="stroke:#D4AC0D;stroke-width:2.0;" x1="708" x2="958" y1="1438.3613" y2="1438.3613"/><text fill="#000000" font-family="sans-serif" font-size="14" lengthAdjust="spacing" textLength="12" x="713" y="1457.4688">...</text></g><!--class ByteBufferJsonAdapter--><g id="elem_ByteBufferJsonAdapter"><rect codeLine="171" fill="#FEFECE" height="100.4844" id="ByteBufferJsonAdapter" rx="2.5" ry="2.5" style="stroke:#D4AC0D;stroke-width:2.0;" width="260" x="994" y="1364.498"/><ellipse cx="1009" cy="1397.4297" fill="#ADD1B2" rx="11" ry="11" style="stroke:#181818;stroke-width:1.0;"/><path d="M1011.7656,1393.3047 Q1011.9219,1393.0859 1012.1094,1392.9766 Q1012.2969,1392.8672 1012.5156,1392.8672 Q1012.8906,1392.8672 1013.125,1393.1328 Q1013.3594,1393.3828 1013.3594,1393.9922 L1013.3594,1395.4453 Q1013.3594,1396.0547 1013.125,1396.3203 Q1012.8906,1396.5859 1012.5156,1396.5859 Q1012.1719,1396.5859 1011.9688,1396.3828 Q1011.7656,1396.1953 1011.6563,1395.6797 Q1011.6094,1395.3203 1011.4219,1395.1328 Q1011.0938,1394.7578 1010.4844,1394.5391 Q1009.875,1394.3203 1009.25,1394.3203 Q1008.4844,1394.3203 1007.8438,1394.6484 Q1007.2188,1394.9766 1006.7188,1395.7266 Q1006.2344,1396.4766 1006.2344,1397.5078 L1006.2344,1398.6016 Q1006.2344,1399.8359 1007.125,1400.6641 Q1008.0156,1401.4766 1009.6094,1401.4766 Q1010.5469,1401.4766 1011.2031,1401.2266 Q1011.5938,1401.0703 1012.0156,1400.6328 Q1012.2813,1400.3672 1012.4219,1400.2891 Q1012.5781,1400.2109 1012.7813,1400.2109 Q1013.1094,1400.2109 1013.3594,1400.4766 Q1013.625,1400.7266 1013.625,1401.0703 Q1013.625,1401.4141 1013.2813,1401.8203 Q1012.7813,1402.3984 1011.9844,1402.7266 Q1010.9063,1403.1797 1009.6094,1403.1797 Q1008.0938,1403.1797 1006.8906,1402.5547 Q1005.9063,1402.0547 1005.2188,1400.9922 Q1004.5313,1399.9141 1004.5313,1398.6328 L1004.5313,1397.4766 Q1004.5313,1396.1484 1005.1406,1395.0078 Q1005.7656,1393.8516 1006.8594,1393.2422 Q1007.9531,1392.6172 1009.1875,1392.6172 Q1009.9219,1392.6172 1010.5625,1392.7891 Q1011.2188,1392.9453 1011.7656,1393.3047 Z " fill="#000000"/><ellipse cx="1028" cy="1396.9297" fill="#84BE84" rx="3" ry="3" style="stroke:#038048;stroke-width:1.0;"/><text fill="#000000" font-family="sans-serif" font-size="14" lengthAdjust="spacing" textLength="16" x="1042" y="1384.6055">&lt;&lt;</text><text fill="#000000" filter="url(#be66zzj1iad4t0)" font-family="sans-serif" font-size="14" lengthAdjust="spacing" textLength="169" x="1058" y="1384.6055">JsonSerializer&lt;ByteBuffer&gt;</text><text fill="#000000" font-family="sans-serif" font-size="14" lengthAdjust="spacing" textLength="16" x="1227" y="1384.6055">&gt;&gt;</text><text fill="#000000" font-family="sans-serif" font-size="14" lengthAdjust="spacing" textLength="16" x="1034" y="1403.2266">&lt;&lt;</text><text fill="#000000" filter="url(#be66zzj1iad4t0)" font-family="sans-serif" font-size="14" lengthAdjust="spacing" textLength="185" x="1050" y="1403.2266">JsonDeserializer&lt;ByteBuffer&gt;</text><text fill="#000000" font-family="sans-serif" font-size="14" lengthAdjust="spacing" textLength="16" x="1235" y="1403.2266">&gt;&gt;</text><text fill="#0000FF" font-family="sans-serif" font-size="14" lengthAdjust="spacing" textLength="145" x="1070" y="1421.8477">ByteBufferJsonAdapter</text><line style="stroke:#D4AC0D;stroke-width:2.0;" x1="995" x2="1253" y1="1430.3613" y2="1430.3613"/><line style="stroke:#D4AC0D;stroke-width:2.0;" x1="995" x2="1253" y1="1438.3613" y2="1438.3613"/><text fill="#000000" font-family="sans-serif" font-size="14" lengthAdjust="spacing" textLength="12" x="1000" y="1457.4688">...</text></g><!--class ContactCardCommonProtocol--><g id="elem_ContactCardCommonProtocol"><rect codeLine="177" fill="#FEFECE" height="122.4844" id="ContactCardCommonProtocol" rx="2.5" ry="2.5" style="stroke:#D4AC0D;stroke-width:2.0;" width="319" x="1178.5" y="257.498"/><ellipse cx="1234.25" cy="273.498" fill="#EB937F" rx="11" ry="11" style="stroke:#181818;stroke-width:1.0;"/><path d="M1233.1094,274.2949 L1233.1094,276.7949 L1237.4375,276.7949 L1237.4375,275.873 Q1237.4375,275.2637 1237.6719,274.998 Q1237.9219,274.7324 1238.2969,274.7324 Q1238.6719,274.7324 1238.9063,274.998 Q1239.1406,275.2637 1239.1406,275.873 L1239.1406,278.498 L1231.1406,278.498 Q1230.5156,278.498 1230.25,278.2637 Q1230,278.0293 1230,277.6387 Q1230,277.2637 1230.2656,277.0293 Q1230.5313,276.7949 1231.1406,276.7949 L1231.4063,276.7949 L1231.4063,270.1387 L1231.1406,270.1387 Q1230.5156,270.1387 1230.25,269.9043 Q1230,269.6699 1230,269.2793 Q1230,268.9043 1230.25,268.6699 Q1230.5156,268.4355 1231.1406,268.4355 L1238.7656,268.4355 L1238.7656,271.0293 Q1238.7656,271.6387 1238.5313,271.9043 Q1238.3125,272.1543 1237.9219,272.1543 Q1237.5469,272.1543 1237.3125,271.9043 Q1237.0781,271.6387 1237.0781,271.0293 L1237.0781,270.1387 L1233.1094,270.1387 L1233.1094,272.5918 L1234.5938,272.5918 Q1234.5938,271.9355 1234.7188,271.748 Q1234.9844,271.3418 1235.4531,271.3418 Q1235.8281,271.3418 1236.0625,271.6074 Q1236.2969,271.8574 1236.2969,272.4668 L1236.2969,274.4355 Q1236.2969,274.9824 1236.1719,275.1699 Q1235.9063,275.5605 1235.4531,275.5605 Q1234.9844,275.5605 1234.7188,275.1543 Q1234.5938,274.9668 1234.5938,274.2949 L1233.1094,274.2949 Z " fill="#000000"/><ellipse cx="1259.75" cy="272.998" fill="#84BE84" rx="3" ry="3" style="stroke:#038048;stroke-width:1.0;"/><text fill="#000000" font-family="sans-serif" font-size="14" lengthAdjust="spacing" text-decoration="line-through" textLength="188" x="1265.75" y="279.2949">ContactCardCommonProtocol</text><line style="stroke:#D4AC0D;stroke-width:2.0;" x1="1179.5" x2="1496.5" y1="289.498" y2="289.498"/><text fill="#000000" font-family="sans-serif" font-size="14" lengthAdjust="spacing" text-decoration="line-through" textLength="79" x="1184.5" y="308.6055">ISO_7816_3</text><text fill="#000000" font-family="sans-serif" font-size="14" lengthAdjust="spacing" text-decoration="line-through" textLength="107" x="1184.5" y="327.2266">ISO_7816_3_TO</text><text fill="#000000" font-family="sans-serif" font-size="14" lengthAdjust="spacing" text-decoration="line-through" textLength="104" x="1184.5" y="345.8477">ISO_7816_3_T1</text><text fill="#000000" font-family="sans-serif" font-size="14" lengthAdjust="spacing" text-decoration="line-through" textLength="307" x="1184.5" y="364.4688">INNOVATRON_HIGH_SPEED_PROTOCOL_SAM</text><line style="stroke:#D4AC0D;stroke-width:2.0;" x1="1179.5" x2="1496.5" y1="371.9824" y2="371.9824"/></g><!--class ContactlessCardCommonProtocol--><g id="elem_ContactlessCardCommonProtocol"><rect codeLine="183" fill="#FEFECE" height="159.7266" id="ContactlessCardCommonProtocol" rx="2.5" ry="2.5" style="stroke:#D4AC0D;stroke-width:2.0;" width="256" x="887" y="238.498"/><ellipse cx="902" cy="254.498" fill="#EB937F" rx="11" ry="11" style="stroke:#181818;stroke-width:1.0;"/><path d="M900.8594,255.2949 L900.8594,257.7949 L905.1875,257.7949 L905.1875,256.873 Q905.1875,256.2637 905.4219,255.998 Q905.6719,255.7324 906.0469,255.7324 Q906.4219,255.7324 906.6563,255.998 Q906.8906,256.2637 906.8906,256.873 L906.8906,259.498 L898.8906,259.498 Q898.2656,259.498 898,259.2637 Q897.75,259.0293 897.75,258.6387 Q897.75,258.2637 898.0156,258.0293 Q898.2813,257.7949 898.8906,257.7949 L899.1563,257.7949 L899.1563,251.1387 L898.8906,251.1387 Q898.2656,251.1387 898,250.9043 Q897.75,250.6699 897.75,250.2793 Q897.75,249.9043 898,249.6699 Q898.2656,249.4355 898.8906,249.4355 L906.5156,249.4355 L906.5156,252.0293 Q906.5156,252.6387 906.2813,252.9043 Q906.0625,253.1543 905.6719,253.1543 Q905.2969,253.1543 905.0625,252.9043 Q904.8281,252.6387 904.8281,252.0293 L904.8281,251.1387 L900.8594,251.1387 L900.8594,253.5918 L902.3438,253.5918 Q902.3438,252.9355 902.4688,252.748 Q902.7344,252.3418 903.2031,252.3418 Q903.5781,252.3418 903.8125,252.6074 Q904.0469,252.8574 904.0469,253.4668 L904.0469,255.4355 Q904.0469,255.9824 903.9219,256.1699 Q903.6563,256.5605 903.2031,256.5605 Q902.7344,256.5605 902.4688,256.1543 Q902.3438,255.9668 902.3438,255.2949 L900.8594,255.2949 Z " fill="#000000"/><ellipse cx="921" cy="253.998" fill="#84BE84" rx="3" ry="3" style="stroke:#038048;stroke-width:1.0;"/><text fill="#000000" font-family="sans-serif" font-size="14" lengthAdjust="spacing" text-decoration="line-through" textLength="213" x="927" y="260.2949">ContactlessCardCommonProtocol</text><line style="stroke:#D4AC0D;stroke-width:2.0;" x1="888" x2="1142" y1="270.498" y2="270.498"/><text fill="#000000" font-family="sans-serif" font-size="14" lengthAdjust="spacing" text-decoration="line-through" textLength="87" x="893" y="289.6055">ISO_14443_4</text><text fill="#000000" font-family="sans-serif" font-size="14" lengthAdjust="spacing" text-decoration="line-through" textLength="149" x="893" y="308.2266">NFC_A_ISO_14443_3A</text><text fill="#000000" font-family="sans-serif" font-size="14" lengthAdjust="spacing" text-decoration="line-through" textLength="149" x="893" y="326.8477">NFC_B_ISO_14443_3B</text><text fill="#000000" font-family="sans-serif" font-size="14" lengthAdjust="spacing" text-decoration="line-through" textLength="127" x="893" y="345.4688">NFC_F_JIS_6319_4</text><text fill="#000000" font-family="sans-serif" font-size="14" lengthAdjust="spacing" text-decoration="line-through" textLength="124" x="893" y="364.0898">NFC_V_ISO_15693</text><text fill="#000000" font-family="sans-serif" font-size="14" lengthAdjust="spacing" text-decoration="line-through" textLength="203" x="893" y="382.7109">INNOVATRON_B_PRIME_CARD</text><line style="stroke:#D4AC0D;stroke-width:2.0;" x1="888" x2="1142" y1="390.2246" y2="390.2246"/></g><!--link ByteArrayUtil to JsonUtil--><!--link Assert to ByteArrayUtil--><!--link Assert to ApduUtil--><!--link Assert to BerTlvUtil--><!--SRC=[lLd_Szes5F-Tlq9hVrYI5P802KsEiJEsQTbIo0NQkzwsymaim8snF4bEmdhvt_SaoyOs1aBlCdwIdZxl-vFqP8GdV591yFk3h4AVe2gwLuDg93o_-Wq_uAhlJO1ShpLglw2Z-bczMJrhLi_FZYiaS95G0Ye_erz_HUEFzYSR1Z0rQUIJY77aSHuHZbo2hj52Y91VdvuknDAVKf-oANK9hqtfydJ6JWMU-0H7LPTKfp5t2Gc6t9i7rT37uhJoaqjcNa2GwNouix-UezxxtbNlga2kerwzr-Wr2-G6iY_ibbr4Dv7LihgMLI1V8DCmUrQzGBv4NSjicAqC-QO_-0CrcbVlhMw6-dbaethBi2_FPAogLJGIAn_Y8XPO89S6FmlqIDazUlJ40WNa4JqGnZqQ83f3u6iWegKFR1L-xmKXPdY9k22CKB4AYT6bp2NCb155RuqhoxHwfS1-3jXj6YtxeXHevYLQrdctNWgqSq2xUzK0rSe_Us19UpDSfeyvZ_7ZXJUz3mZdA2lMO8m-PfT0qbVY-_HnGmgUtiyPZG9NQ-xPFTkqovLfYDKqp3CBHDuHTu-yTfiHjzC1iPPjsUOEiIdIRZMX3YeB3mez8Qx315fl8mQxQg_YKC6KxgPjzbexTQ_1x-rcqx0IzIazPy74Z_Rhbo3bJxTtqUlkr9v0TQrhtPgQq_o14HBiLJsNAANxgjUoUpjrfrYzfxJoX5pKldg9yfNIRK0TsVjqAsZTRDWNMTMhlERuJ3I7Wx4z6AjJqITpTMJIK9suZgCaSXJJ7GTTA_e9hDXF82Z0FZ9k-uYH6KWDfeIlCIUeFG4dhbTgWtHEJk0KhSqfdVka9e_LsfpJuEIaVIfH7NLKnsegbH0eU4xG6yhcDJBrlP2JMdpg0oiZDNdqlq6O8pb0tvN2NwOo4EZDoGcSQDW7_GRdX0c5YuSQgT3VkS32cpudItCY-W7Gm0bqT5nP0_LwGCKWydrqD9ny8rE1wEJREpWZcHVCKO2NvBYCmrw6OeMEDEmG5WYy3shWW6t_rZc8Sx8IvC-_Ny3YyJ6BmDakfN271MXA0zUJ6lVmGI5XoFsGsVz4aF-ZVY0WRmm5qN92s3la1G8jlU0BXessruGTCXvU9A0VtE40QcMF6Mg6drvcr4Vof159wXRagOJhUKlXTI45S5VWrUUaJdEKqZBKQIDFWk6fa7YUvfApQUp1n1F3sOmJ4K-3YS8TlrISJy7yL5ZANSBE5nGYeRb7Qh9X35MMb2cNgveNihADCsV5EpJHPUZn4VHFn2qJh1pGac_a-4T5byX-e9uBUo1SRGHBwu36JcnLaXNPvfsrHgWupoqjgECSHr9Sb2s1ur-oXIMl9JPinkWIu7jb2wfGYJjOu88ywOzufCgXCSscRX87iZJj1SOun8UpB-1g_47DAUiFwfxHYBrSzRPT3y5DzxiUb-_qV6riosznAmkQ7Y9RCftZqFXzq7YZ2wht-6wm2dOSejr0jNS4ZRVe7lTAYnFULSSlmifROZyozl95K7tpx0Sg7rFajg8mGZTAgoAPxBe09f7dkzeta1QVFX1vhaVXUJAehqycsCfzkBPLmdrINaLfrPcOasOQQGmscNIvn85RuaaNdaB-mrQRF-6mhU_Tn9WEWhQKav6tb8_rD9_-0qGlceg8aVLv739l2Ht70na6_kfud_mRZuksLgAr72P_TrGeT7zI0d7Z8X1uti-59EbAlq7Vcet6Hiv_1q2QysIIuSYRaEkIFm1QTyIo8xsLJZBPZvRpgZkBaRadk_gnV6cxE1IIGxqAPEkun6AwWB9LX7SvEVBtbz3zB8uvry6J3_rHD57UvUwtBPj2EfhjZjSsFnTZrQNkoeQtD2i6PRrmP3zDIIYxKRZlzQXeWrODSJBXFR4HfRK4GAmdHpiCUzDkvz8XVR88fC1JTp9hfmPsT9OwdR-2b5Y4nwtVjjM2yuwJczPgjSFi7Asjr9iaO-8-lpOvqij6OdLPvLlPpCBhkIAr7U984I_dPHxyByQhI_KGwpSO5A5eVv7uUWxei_SG5qfODAdenYRvzHoHdSWXNXJnSbwqlq1xFUF72qOVvOVch4KfiMXMsSBhsMRX_7wJypn46RL9VZsJJEoJmCK7LMqPJq8h1hY4_hhdNpUQpGxRX5kur5yQr-e3w1fHTZfkh1pgOBvZ2XaL59HdkoOIH4jmddUWyHBmd3SnSsKVIeDRZMwVyauSy6s8WbKWh3yQEgttvvTEO_kACnxkMZpVM1mCXb-CyTrmu7piV_ZeZ6vjst9kxuRZeJcySKR6fxBi5ltp2UVxVIn7bVjvtcms6qwpk3JecOxXh04DempHpIAwPOYUytj_v5mspg_ATNo99LnSNZLsHAmBWUf_iXtJkBCsQkHPVe8sEATJ3ylUZEjFqZV6r-7d-8jq_iDPzS-5vxea-BkQzjMLYlvibrdBCPMi9- -mCjRqmQDj6Os_tiH_6IRLhBuvlqt-qVl-d5kegTV1s-IFlU9gkXEoYFy0]--></g></svg>