<svg xmlns="http://www.w3.org/2000/svg" xmlns:xlink="http://www.w3.org/1999/xlink" contentStyleType="text/css" data-diagram-type="CLASS" height="1556px" preserveAspectRatio="none" style="width:2222px;height:1556px;background:#FFFFFF;" version="1.1" viewBox="0 0 2222 1556" width="2222px" zoomAndPan="magnify"><title>Keyple - keyple-util-java-lib - 2.5.+ (2026-01-20)</title><defs><filter height="1" id="b135rlyo2dklng0" width="1" x="0" y="0"><feFlood flood-color="#FFFF00" result="flood"/><feComposite in="SourceGraphic" in2="flood" operator="over"/></filter></defs><g><g class="title" data-source-line="1"><text fill="#000000" font-family="sans-serif" font-size="14" font-weight="bold" lengthAdjust="spacing" textLength="309.292" x="949.354" y="25.1074">Keyple - keyple-util-java-lib - 2.5.+ (2026-01-20)</text></g><g class="legend" data-source-line="53"><rect fill="#DDDDDD" height="65.8633" rx="7.5" ry="7.5" style="stroke:#000000;stroke-width:1;" width="178.4551" x="1014.7725" y="51.6211"/><text fill="#000000" font-family="sans-serif" font-size="14" lengthAdjust="spacing" text-decoration="underline" textLength="86.3857" x="1019.7725" y="71.7285">Colors legend</text><text fill="#000000" font-family="sans-serif" font-size="14" lengthAdjust="spacing" textLength="3.8896" x="1110.0479" y="71.7285">:</text><ellipse cx="1025.2725" cy="86.3633" fill="#000000" rx="2.5" ry="2.5"/><text fill="#000000" font-family="sans-serif" font-size="14" lengthAdjust="spacing" text-decoration="underline" textLength="147.8477" x="1031.7725" y="90.3496">External API references</text><text fill="#000000" font-family="sans-serif" font-size="14" lengthAdjust="spacing" textLength="3.8896" x="1183.5098" y="90.3496">:</text><rect fill="#000000" height="3.5" width="3.5" x="1028.7725" y="102.4844"/><text fill="#000000" filter="url(#b135rlyo2dklng0)" font-family="sans-serif" font-size="14" font-weight="bold" lengthAdjust="spacing" textLength="152.4551" x="1035.7725" y="108.9707">com.google.code.gson</text></g><!--cluster util--><g class="cluster" data-entity="util" data-source-line="59" data-uid="ent0002" id="cluster_util"><path d="M8.5,136.498 L189.2373,136.498 A3.75,3.75 0 0 1 191.7373,138.998 L198.7373,161.1191 L2212.5,161.1191 A2.5,2.5 0 0 1 2215,163.6191 L2215,1546.998 A2.5,2.5 0 0 1 2212.5,1549.498 L8.5,1549.498 A2.5,2.5 0 0 1 6,1546.998 L6,138.998 A2.5,2.5 0 0 1 8.5,136.498" fill="#F8F9F9" style="stroke:#000000;stroke-width:1.5;"/><line style="stroke:#000000;stroke-width:1.5;" x1="6" x2="198.7373" y1="161.1191" y2="161.1191"/><text fill="#000000" font-family="sans-serif" font-size="14" font-weight="bold" lengthAdjust="spacing" textLength="179.7373" x="10" y="153.6055">org.eclipse.keyple.core.util</text></g><!--cluster json--><g class="cluster" data-entity="json" data-source-line="121" data-uid="ent0008" id="cluster_json"><path d="M59.5,1009.498 L89.2793,1009.498 A3.75,3.75 0 0 1 91.7793,1011.998 L98.7793,1034.1191 L1518.5,1034.1191 A2.5,2.5 0 0 1 1521,1036.6191 L1521,1522.998 A2.5,2.5 0 0 1 1518.5,1525.498 L59.5,1525.498 A2.5,2.5 0 0 1 57,1522.998 L57,1011.998 A2.5,2.5 0 0 1 59.5,1009.498" fill="#F2F3F4" style="stroke:#000000;stroke-width:1.5;"/><line style="stroke:#000000;stroke-width:1.5;" x1="57" x2="98.7793" y1="1034.1191" y2="1034.1191"/><text fill="#000000" font-family="sans-serif" font-size="14" font-weight="bold" lengthAdjust="spacing" textLength="28.7793" x="61" y="1026.6055">json</text></g><!--cluster logging--><g class="cluster" data-entity="logging" data-source-line="176" data-uid="ent0021" id="cluster_logging"><path d="M1518.5,202.998 L1570.0381,202.998 A3.75,3.75 0 0 1 1572.5381,205.498 L1579.5381,227.6191 L2188.5,227.6191 A2.5,2.5 0 0 1 2191,230.1191 L2191,920.498 A2.5,2.5 0 0 1 2188.5,922.998 L1518.5,922.998 A2.5,2.5 0 0 1 1516,920.498 L1516,205.498 A2.5,2.5 0 0 1 1518.5,202.998" fill="#F2F3F4" style="stroke:#000000;stroke-width:1.5;"/><line style="stroke:#000000;stroke-width:1.5;" x1="1516" x2="1579.5381" y1="227.6191" y2="227.6191"/><text fill="#000000" font-family="sans-serif" font-size="14" font-weight="bold" lengthAdjust="spacing" textLength="50.5381" x="1520" y="220.1055">logging</text></g><!--cluster spi--><g class="cluster" data-entity="spi" data-source-line="197" data-uid="ent0024" id="cluster_spi"><path d="M1877.5,247.998 L1898.7275,247.998 A3.75,3.75 0 0 1 1901.2275,250.498 L1908.2275,272.6191 L2164.5,272.6191 A2.5,2.5 0 0 1 2167,275.1191 L2167,365.498 A2.5,2.5 0 0 1 2164.5,367.998 L1877.5,367.998 A2.5,2.5 0 0 1 1875,365.498 L1875,250.498 A2.5,2.5 0 0 1 1877.5,247.998" fill="#E5E7E9" style="stroke:#000000;stroke-width:1.5;"/><line style="stroke:#000000;stroke-width:1.5;" x1="1875" x2="1908.2275" y1="272.6191" y2="272.6191"/><text fill="#000000" font-family="sans-serif" font-size="14" font-weight="bold" lengthAdjust="spacing" textLength="20.2275" x="1879" y="265.1055">spi</text></g><!--cluster protocol--><g class="cluster" data-entity="protocol" data-source-line="203" data-uid="ent0026" id="cluster_protocol"><path d="M843.5,201.498 L900.4932,201.498 A3.75,3.75 0 0 1 902.9932,203.998 L909.9932,226.1191 L1489.5,226.1191 A2.5,2.5 0 0 1 1492,228.6191 L1492,411.998 A2.5,2.5 0 0 1 1489.5,414.498 L843.5,414.498 A2.5,2.5 0 0 1 841,411.998 L841,203.998 A2.5,2.5 0 0 1 843.5,201.498" fill="#F2F3F4" style="stroke:#000000;stroke-width:1.5;"/><line style="stroke:#000000;stroke-width:1.5;" x1="841" x2="909.9932" y1="226.1191" y2="226.1191"/><text fill="#000000" font-family="sans-serif" font-size="14" font-weight="bold" lengthAdjust="spacing" textLength="55.9932" x="845" y="218.6055">protocol</text></g><!--class Assert--><g class="entity" data-entity="Assert" data-source-line="60" data-uid="ent0003" id="entity_Assert"><rect fill="#FEFECE" height="252.832" rx="2.5" ry="2.5" style="stroke:#D4AC0D;stroke-width:2;" width="497.5566" x="324" y="191.998"/><ellipse cx="526.856" cy="207.998" fill="#ADD1B2" rx="11" ry="11" style="stroke:#ADD1B2;stroke-width:1;"/><path d="M529.6216,203.873 Q529.7778,203.6543 529.9653,203.5449 Q530.1528,203.4355 530.3716,203.4355 Q530.7466,203.4355 530.981,203.7012 Q531.2153,203.9512 531.2153,204.5605 L531.2153,206.0137 Q531.2153,206.623 530.981,206.8887 Q530.7466,207.1543 530.3716,207.1543 Q530.0278,207.1543 529.8247,206.9512 Q529.6216,206.7637 529.5122,206.248 Q529.4653,205.8887 529.2778,205.7012 Q528.9497,205.3262 528.3403,205.1074 Q527.731,204.8887 527.106,204.8887 Q526.3403,204.8887 525.6997,205.2168 Q525.0747,205.5449 524.5747,206.2949 Q524.0903,207.0449 524.0903,208.0762 L524.0903,209.1699 Q524.0903,210.4043 524.981,211.2324 Q525.8716,212.0449 527.4653,212.0449 Q528.4028,212.0449 529.0591,211.7949 Q529.4497,211.6387 529.8716,211.2012 Q530.1372,210.9355 530.2778,210.8574 Q530.4341,210.7793 530.6372,210.7793 Q530.9653,210.7793 531.2153,211.0449 Q531.481,211.2949 531.481,211.6387 Q531.481,211.9824 531.1372,212.3887 Q530.6372,212.9668 529.8403,213.2949 Q528.7622,213.748 527.4653,213.748 Q525.9497,213.748 524.7466,213.123 Q523.7622,212.623 523.0747,211.5605 Q522.3872,210.4824 522.3872,209.2012 L522.3872,208.0449 Q522.3872,206.7168 522.9966,205.5762 Q523.6216,204.4199 524.7153,203.8105 Q525.8091,203.1855 527.0435,203.1855 Q527.7778,203.1855 528.4185,203.3574 Q529.0747,203.5137 529.6216,203.873 Z " fill="#000000"/><ellipse cx="552.356" cy="207.498" fill="#84BE84" rx="3" ry="3" style="stroke:#038048;stroke-width:1;"/><text fill="#000000" font-family="sans-serif" font-size="14" font-weight="bold" lengthAdjust="spacing" textLength="28.7793" x="558.356" y="213.7949">final</text><text fill="#000000" font-family="sans-serif" font-size="14" lengthAdjust="spacing" textLength="39.6758" x="591.0249" y="213.7949">Assert</text><line style="stroke:#D4AC0D;stroke-width:2;" x1="325" x2="820.5566" y1="223.998" y2="223.998"/><line style="stroke:#D4AC0D;stroke-width:2;" x1="325" x2="820.5566" y1="231.998" y2="231.998"/><ellipse cx="335" cy="246.8086" fill="#84BE84" rx="3" ry="3" style="stroke:#038048;stroke-width:1;"/><text fill="#000000" font-family="sans-serif" font-size="14" lengthAdjust="spacing" text-decoration="underline" textLength="129.165" x="344" y="251.1055">Assert getInstance ()</text><text fill="#000000" font-family="sans-serif" font-size="14" lengthAdjust="spacing" textLength="3.8896" x="344" y="269.7266">&#160;</text><ellipse cx="335" cy="284.0508" fill="#84BE84" rx="3" ry="3" style="stroke:#038048;stroke-width:1;"/><text fill="#000000" font-family="sans-serif" font-size="14" lengthAdjust="spacing" textLength="246.6543" x="344" y="288.3477">Assert notNull (Object obj, String name)</text><ellipse cx="335" cy="302.6719" fill="#84BE84" rx="3" ry="3" style="stroke:#038048;stroke-width:1;"/><text fill="#000000" font-family="sans-serif" font-size="14" lengthAdjust="spacing" textLength="258.3232" x="344" y="306.9688">Assert notEmpty (String obj, String name)</text><ellipse cx="335" cy="321.293" fill="#84BE84" rx="3" ry="3" style="stroke:#038048;stroke-width:1;"/><text fill="#000000" font-family="sans-serif" font-size="14" lengthAdjust="spacing" textLength="307.3643" x="344" y="325.5898">Assert notEmpty (Collection&lt;?&gt; obj, String name)</text><ellipse cx="335" cy="339.9141" fill="#84BE84" rx="3" ry="3" style="stroke:#038048;stroke-width:1;"/><text fill="#000000" font-family="sans-serif" font-size="14" lengthAdjust="spacing" textLength="255.9922" x="344" y="344.2109">Assert notEmpty (byte[] obj, String name)</text><ellipse cx="335" cy="358.5352" fill="#84BE84" rx="3" ry="3" style="stroke:#038048;stroke-width:1;"/><text fill="#000000" font-family="sans-serif" font-size="14" lengthAdjust="spacing" textLength="290.2471" x="344" y="362.832">Assert isTrue (Boolean condition, String name)</text><ellipse cx="335" cy="377.1563" fill="#84BE84" rx="3" ry="3" style="stroke:#038048;stroke-width:1;"/><text fill="#000000" font-family="sans-serif" font-size="14" lengthAdjust="spacing" textLength="415.5225" x="344" y="381.4531">Assert greaterOrEqual (Integer number, int minValue, String name)</text><ellipse cx="335" cy="395.7773" fill="#84BE84" rx="3" ry="3" style="stroke:#038048;stroke-width:1;"/><text fill="#000000" font-family="sans-serif" font-size="14" lengthAdjust="spacing" textLength="340.8262" x="344" y="400.0742">Assert isEqual (Integer number, int value, String name)</text><ellipse cx="335" cy="414.3984" fill="#84BE84" rx="3" ry="3" style="stroke:#038048;stroke-width:1;"/><text fill="#000000" font-family="sans-serif" font-size="14" lengthAdjust="spacing" textLength="471.5566" x="344" y="418.6953">Assert isInRange (Integer number, int minValue, int maxValue, String name)</text><ellipse cx="335" cy="433.0195" fill="#84BE84" rx="3" ry="3" style="stroke:#038048;stroke-width:1;"/><text fill="#000000" font-family="sans-serif" font-size="14" lengthAdjust="spacing" textLength="274.6543" x="344" y="437.3164">Assert isHexString (String hex, String name)</text></g><!--class ByteArrayUtil--><g class="entity" data-entity="ByteArrayUtil" data-source-line="73" data-uid="ent0004" id="entity_ByteArrayUtil"><rect fill="#FEFECE" height="420.4219" rx="2.5" ry="2.5" style="stroke:#D4AC0D;stroke-width:2;" width="452.46" x="22" y="542.498"/><ellipse cx="181.3042" cy="558.498" fill="#ADD1B2" rx="11" ry="11" style="stroke:#ADD1B2;stroke-width:1;"/><path d="M184.0698,554.373 Q184.2261,554.1543 184.4136,554.0449 Q184.6011,553.9355 184.8198,553.9355 Q185.1948,553.9355 185.4292,554.2012 Q185.6636,554.4512 185.6636,555.0605 L185.6636,556.5137 Q185.6636,557.123 185.4292,557.3887 Q185.1948,557.6543 184.8198,557.6543 Q184.4761,557.6543 184.2729,557.4512 Q184.0698,557.2637 183.9604,556.748 Q183.9136,556.3887 183.7261,556.2012 Q183.3979,555.8262 182.7886,555.6074 Q182.1792,555.3887 181.5542,555.3887 Q180.7886,555.3887 180.1479,555.7168 Q179.5229,556.0449 179.0229,556.7949 Q178.5386,557.5449 178.5386,558.5762 L178.5386,559.6699 Q178.5386,560.9043 179.4292,561.7324 Q180.3198,562.5449 181.9136,562.5449 Q182.8511,562.5449 183.5073,562.2949 Q183.8979,562.1387 184.3198,561.7012 Q184.5854,561.4355 184.7261,561.3574 Q184.8823,561.2793 185.0854,561.2793 Q185.4136,561.2793 185.6636,561.5449 Q185.9292,561.7949 185.9292,562.1387 Q185.9292,562.4824 185.5854,562.8887 Q185.0854,563.4668 184.2886,563.7949 Q183.2104,564.248 181.9136,564.248 Q180.3979,564.248 179.1948,563.623 Q178.2104,563.123 177.5229,562.0605 Q176.8354,560.9824 176.8354,559.7012 L176.8354,558.5449 Q176.8354,557.2168 177.4448,556.0762 Q178.0698,554.9199 179.1636,554.3105 Q180.2573,553.6855 181.4917,553.6855 Q182.2261,553.6855 182.8667,553.8574 Q183.5229,554.0137 184.0698,554.373 Z " fill="#000000"/><ellipse cx="206.8042" cy="557.998" fill="#84BE84" rx="3" ry="3" style="stroke:#038048;stroke-width:1;"/><text fill="#000000" font-family="sans-serif" font-size="14" font-weight="bold" lengthAdjust="spacing" textLength="28.7793" x="212.8042" y="564.2949">final</text><text fill="#000000" font-family="sans-serif" font-size="14" lengthAdjust="spacing" textLength="81.6826" x="245.4731" y="564.2949">ByteArrayUtil</text><line style="stroke:#D4AC0D;stroke-width:2;" x1="23" x2="473.46" y1="574.498" y2="574.498"/><line style="stroke:#D4AC0D;stroke-width:2;" x1="23" x2="473.46" y1="582.498" y2="582.498"/><ellipse cx="33" cy="597.3086" fill="#84BE84" rx="3" ry="3" style="stroke:#038048;stroke-width:1;"/><text fill="#000000" font-family="sans-serif" font-size="14" lengthAdjust="spacing" text-decoration="underline" textLength="340.792" x="42" y="601.6055">byte[] extractBytes (byte[] src, int bitOffset, int nbBytes)</text><ellipse cx="33" cy="615.9297" fill="#84BE84" rx="3" ry="3" style="stroke:#038048;stroke-width:1;"/><text fill="#000000" font-family="sans-serif" font-size="14" lengthAdjust="spacing" text-decoration="underline" textLength="254.4336" x="42" y="620.2266">byte[] extractBytes (long src, int nbBytes)</text><text fill="#000000" font-family="sans-serif" font-size="14" lengthAdjust="spacing" textLength="3.8896" x="42" y="638.8477">&#160;</text><ellipse cx="33" cy="653.1719" fill="#84BE84" rx="3" ry="3" style="stroke:#038048;stroke-width:1;"/><text fill="#000000" font-family="sans-serif" font-size="14" lengthAdjust="spacing" text-decoration="underline" textLength="241.1924" x="42" y="657.4688">short extractShort (byte[] src, int offset)</text><ellipse cx="33" cy="671.793" fill="#84BE84" rx="3" ry="3" style="stroke:#038048;stroke-width:1;"/><text fill="#000000" font-family="sans-serif" font-size="14" lengthAdjust="spacing" text-decoration="underline" textLength="399.1982" x="42" y="676.0898">int extractInt (byte[] src, int offset, int nbBytes, boolean isSigned)</text><ellipse cx="33" cy="690.4141" fill="#84BE84" rx="3" ry="3" style="stroke:#038048;stroke-width:1;"/><text fill="#000000" font-family="sans-serif" font-size="14" lengthAdjust="spacing" text-decoration="underline" textLength="426.46" x="42" y="694.7109">long extractLong (byte[] src, int offset, int nbBytes, boolean isSigned)</text><text fill="#000000" font-family="sans-serif" font-size="14" lengthAdjust="spacing" textLength="3.8896" x="42" y="713.332">&#160;</text><ellipse cx="33" cy="727.6563" fill="#84BE84" rx="3" ry="3" style="stroke:#038048;stroke-width:1;"/><text fill="#000000" font-family="sans-serif" font-size="14" lengthAdjust="spacing" text-decoration="underline" textLength="366.502" x="42" y="731.9531">void copyBytes (long src, byte[] dest, int offset, int nbBytes)</text><text fill="#000000" font-family="sans-serif" font-size="14" lengthAdjust="spacing" textLength="3.8896" x="42" y="750.5742">&#160;</text><ellipse cx="33" cy="764.8984" fill="#84BE84" rx="3" ry="3" style="stroke:#038048;stroke-width:1;"/><text fill="#000000" font-family="sans-serif" font-size="14" lengthAdjust="spacing" text-decoration="line-through" textLength="232.6748" x="42" y="769.1953">boolean isValidHexString (String hex)</text><ellipse cx="33" cy="783.5195" fill="#84BE84" rx="3" ry="3" style="stroke:#038048;stroke-width:1;"/><text fill="#000000" font-family="sans-serif" font-size="14" lengthAdjust="spacing" text-decoration="line-through" textLength="238.8682" x="42" y="787.8164">String normalizeHexString (String hex)</text><text fill="#000000" font-family="sans-serif" font-size="14" lengthAdjust="spacing" textLength="3.8896" x="42" y="806.4375">&#160;</text><ellipse cx="33" cy="820.7617" fill="#84BE84" rx="3" ry="3" style="stroke:#038048;stroke-width:1;"/><text fill="#000000" font-family="sans-serif" font-size="14" lengthAdjust="spacing" text-decoration="line-through" textLength="167.2754" x="42" y="825.0586">byte[] fromHex (String hex)</text><ellipse cx="33" cy="839.3828" fill="#84BE84" rx="3" ry="3" style="stroke:#038048;stroke-width:1;"/><text fill="#000000" font-family="sans-serif" font-size="14" lengthAdjust="spacing" text-decoration="line-through" textLength="155.627" x="42" y="843.6797">String toHex (byte[] data)</text><text fill="#000000" font-family="sans-serif" font-size="14" lengthAdjust="spacing" textLength="3.8896" x="42" y="862.3008">&#160;</text><ellipse cx="33" cy="876.625" fill="#84BE84" rx="3" ry="3" style="stroke:#038048;stroke-width:1;"/><text fill="#000000" font-family="sans-serif" font-size="14" lengthAdjust="spacing" text-decoration="line-through" textLength="252.8818" x="42" y="880.9219">int twoBytesToInt (byte[] bytes, int offset)</text><ellipse cx="33" cy="895.2461" fill="#84BE84" rx="3" ry="3" style="stroke:#038048;stroke-width:1;"/><text fill="#000000" font-family="sans-serif" font-size="14" lengthAdjust="spacing" text-decoration="line-through" textLength="296.4746" x="42" y="899.543">int twoBytesSignedToInt (byte[] bytes, int offset)</text><ellipse cx="33" cy="913.8672" fill="#84BE84" rx="3" ry="3" style="stroke:#038048;stroke-width:1;"/><text fill="#000000" font-family="sans-serif" font-size="14" lengthAdjust="spacing" text-decoration="line-through" textLength="263.0059" x="42" y="918.1641">int threeBytesToInt (byte[] bytes, int offset)</text><ellipse cx="33" cy="932.4883" fill="#84BE84" rx="3" ry="3" style="stroke:#038048;stroke-width:1;"/><text fill="#000000" font-family="sans-serif" font-size="14" lengthAdjust="spacing" text-decoration="line-through" textLength="306.5986" x="42" y="936.7852">int threeBytesSignedToInt (byte[] bytes, int offset)</text><ellipse cx="33" cy="951.1094" fill="#84BE84" rx="3" ry="3" style="stroke:#038048;stroke-width:1;"/><text fill="#000000" font-family="sans-serif" font-size="14" lengthAdjust="spacing" text-decoration="line-through" textLength="255.2197" x="42" y="955.4063">int fourBytesToInt (byte[] bytes, int offset)</text></g><!--class HexUtil--><g class="entity" data-entity="HexUtil" data-source-line="95" data-uid="ent0005" id="entity_HexUtil"><rect fill="#FEFECE" height="290.0742" rx="2.5" ry="2.5" style="stroke:#D4AC0D;stroke-width:2;" width="213.5166" x="49" y="173.498"/><ellipse cx="107.1152" cy="189.498" fill="#ADD1B2" rx="11" ry="11" style="stroke:#ADD1B2;stroke-width:1;"/><path d="M109.8809,185.373 Q110.0371,185.1543 110.2246,185.0449 Q110.4121,184.9355 110.6309,184.9355 Q111.0059,184.9355 111.2402,185.2012 Q111.4746,185.4512 111.4746,186.0605 L111.4746,187.5137 Q111.4746,188.123 111.2402,188.3887 Q111.0059,188.6543 110.6309,188.6543 Q110.2871,188.6543 110.084,188.4512 Q109.8809,188.2637 109.7715,187.748 Q109.7246,187.3887 109.5371,187.2012 Q109.209,186.8262 108.5996,186.6074 Q107.9902,186.3887 107.3652,186.3887 Q106.5996,186.3887 105.959,186.7168 Q105.334,187.0449 104.834,187.7949 Q104.3496,188.5449 104.3496,189.5762 L104.3496,190.6699 Q104.3496,191.9043 105.2402,192.7324 Q106.1309,193.5449 107.7246,193.5449 Q108.6621,193.5449 109.3184,193.2949 Q109.709,193.1387 110.1309,192.7012 Q110.3965,192.4355 110.5371,192.3574 Q110.6934,192.2793 110.8965,192.2793 Q111.2246,192.2793 111.4746,192.5449 Q111.7402,192.7949 111.7402,193.1387 Q111.7402,193.4824 111.3965,193.8887 Q110.8965,194.4668 110.0996,194.7949 Q109.0215,195.248 107.7246,195.248 Q106.209,195.248 105.0059,194.623 Q104.0215,194.123 103.334,193.0605 Q102.6465,191.9824 102.6465,190.7012 L102.6465,189.5449 Q102.6465,188.2168 103.2559,187.0762 Q103.8809,185.9199 104.9746,185.3105 Q106.0684,184.6855 107.3027,184.6855 Q108.0371,184.6855 108.6777,184.8574 Q109.334,185.0137 109.8809,185.373 Z " fill="#000000"/><ellipse cx="132.6152" cy="188.998" fill="#84BE84" rx="3" ry="3" style="stroke:#038048;stroke-width:1;"/><text fill="#000000" font-family="sans-serif" font-size="14" font-weight="bold" lengthAdjust="spacing" textLength="28.7793" x="138.6152" y="195.2949">final</text><text fill="#000000" font-family="sans-serif" font-size="14" lengthAdjust="spacing" textLength="45.1172" x="171.2842" y="195.2949">HexUtil</text><line style="stroke:#D4AC0D;stroke-width:2;" x1="50" x2="261.5166" y1="205.498" y2="205.498"/><line style="stroke:#D4AC0D;stroke-width:2;" x1="50" x2="261.5166" y1="213.498" y2="213.498"/><ellipse cx="60" cy="228.3086" fill="#84BE84" rx="3" ry="3" style="stroke:#038048;stroke-width:1;"/><text fill="#000000" font-family="sans-serif" font-size="14" lengthAdjust="spacing" text-decoration="underline" textLength="171.2061" x="69" y="232.6055">boolean isValid (String hex)</text><text fill="#000000" font-family="sans-serif" font-size="14" lengthAdjust="spacing" textLength="3.8896" x="69" y="251.2266">&#160;</text><ellipse cx="60" cy="265.5508" fill="#84BE84" rx="3" ry="3" style="stroke:#038048;stroke-width:1;"/><text fill="#000000" font-family="sans-serif" font-size="14" lengthAdjust="spacing" text-decoration="underline" textLength="187.5166" x="69" y="269.8477">byte[] toByteArray (String hex)</text><ellipse cx="60" cy="284.1719" fill="#84BE84" rx="3" ry="3" style="stroke:#038048;stroke-width:1;"/><text fill="#000000" font-family="sans-serif" font-size="14" lengthAdjust="spacing" text-decoration="underline" textLength="146.2891" x="69" y="288.4688">byte toByte (String hex)</text><ellipse cx="60" cy="302.793" fill="#84BE84" rx="3" ry="3" style="stroke:#038048;stroke-width:1;"/><text fill="#000000" font-family="sans-serif" font-size="14" lengthAdjust="spacing" text-decoration="underline" textLength="156.3994" x="69" y="307.0898">short toShort (String hex)</text><ellipse cx="60" cy="321.4141" fill="#84BE84" rx="3" ry="3" style="stroke:#038048;stroke-width:1;"/><text fill="#000000" font-family="sans-serif" font-size="14" lengthAdjust="spacing" text-decoration="underline" textLength="122.165" x="69" y="325.7109">int toInt (String hex)</text><ellipse cx="60" cy="340.0352" fill="#84BE84" rx="3" ry="3" style="stroke:#038048;stroke-width:1;"/><text fill="#000000" font-family="sans-serif" font-size="14" lengthAdjust="spacing" text-decoration="underline" textLength="149.4268" x="69" y="344.332">long toLong (String hex)</text><text fill="#000000" font-family="sans-serif" font-size="14" lengthAdjust="spacing" textLength="3.8896" x="69" y="362.9531">&#160;</text><ellipse cx="60" cy="377.2773" fill="#84BE84" rx="3" ry="3" style="stroke:#038048;stroke-width:1;"/><text fill="#000000" font-family="sans-serif" font-size="14" lengthAdjust="spacing" text-decoration="underline" textLength="147.8408" x="69" y="381.5742">String toHex (byte[] tab)</text><ellipse cx="60" cy="395.8984" fill="#84BE84" rx="3" ry="3" style="stroke:#038048;stroke-width:1;"/><text fill="#000000" font-family="sans-serif" font-size="14" lengthAdjust="spacing" text-decoration="underline" textLength="138.4961" x="69" y="400.1953">String toHex (byte val)</text><ellipse cx="60" cy="414.5195" fill="#84BE84" rx="3" ry="3" style="stroke:#038048;stroke-width:1;"/><text fill="#000000" font-family="sans-serif" font-size="14" lengthAdjust="spacing" text-decoration="underline" textLength="143.1582" x="69" y="418.8164">String toHex (short val)</text><ellipse cx="60" cy="433.1406" fill="#84BE84" rx="3" ry="3" style="stroke:#038048;stroke-width:1;"/><text fill="#000000" font-family="sans-serif" font-size="14" lengthAdjust="spacing" text-decoration="underline" textLength="126.8203" x="69" y="437.4375">String toHex (int val)</text><ellipse cx="60" cy="451.7617" fill="#84BE84" rx="3" ry="3" style="stroke:#038048;stroke-width:1;"/><text fill="#000000" font-family="sans-serif" font-size="14" lengthAdjust="spacing" text-decoration="underline" textLength="138.5029" x="69" y="456.0586">String toHex (long val)</text></g><!--class ApduUtil--><g class="entity" data-entity="ApduUtil" data-source-line="110" data-uid="ent0006" id="entity_ApduUtil"><rect fill="#FEFECE" height="103.8633" rx="2.5" ry="2.5" style="stroke:#D4AC0D;stroke-width:2;" width="454.0186" x="509" y="700.498"/><ellipse cx="683.4663" cy="716.498" fill="#ADD1B2" rx="11" ry="11" style="stroke:#ADD1B2;stroke-width:1;"/><path d="M686.2319,712.373 Q686.3882,712.1543 686.5757,712.0449 Q686.7632,711.9355 686.9819,711.9355 Q687.3569,711.9355 687.5913,712.2012 Q687.8257,712.4512 687.8257,713.0605 L687.8257,714.5137 Q687.8257,715.123 687.5913,715.3887 Q687.3569,715.6543 686.9819,715.6543 Q686.6382,715.6543 686.4351,715.4512 Q686.2319,715.2637 686.1226,714.748 Q686.0757,714.3887 685.8882,714.2012 Q685.5601,713.8262 684.9507,713.6074 Q684.3413,713.3887 683.7163,713.3887 Q682.9507,713.3887 682.3101,713.7168 Q681.6851,714.0449 681.1851,714.7949 Q680.7007,715.5449 680.7007,716.5762 L680.7007,717.6699 Q680.7007,718.9043 681.5913,719.7324 Q682.4819,720.5449 684.0757,720.5449 Q685.0132,720.5449 685.6694,720.2949 Q686.0601,720.1387 686.4819,719.7012 Q686.7476,719.4355 686.8882,719.3574 Q687.0444,719.2793 687.2476,719.2793 Q687.5757,719.2793 687.8257,719.5449 Q688.0913,719.7949 688.0913,720.1387 Q688.0913,720.4824 687.7476,720.8887 Q687.2476,721.4668 686.4507,721.7949 Q685.3726,722.248 684.0757,722.248 Q682.5601,722.248 681.3569,721.623 Q680.3726,721.123 679.6851,720.0605 Q678.9976,718.9824 678.9976,717.7012 L678.9976,716.5449 Q678.9976,715.2168 679.6069,714.0762 Q680.2319,712.9199 681.3257,712.3105 Q682.4194,711.6855 683.6538,711.6855 Q684.3882,711.6855 685.0288,711.8574 Q685.6851,712.0137 686.2319,712.373 Z " fill="#000000"/><ellipse cx="708.9663" cy="715.998" fill="#84BE84" rx="3" ry="3" style="stroke:#038048;stroke-width:1;"/><text fill="#000000" font-family="sans-serif" font-size="14" font-weight="bold" lengthAdjust="spacing" textLength="28.7793" x="714.9663" y="722.2949">final</text><text fill="#000000" font-family="sans-serif" font-size="14" lengthAdjust="spacing" textLength="52.917" x="747.6353" y="722.2949">ApduUtil</text><line style="stroke:#D4AC0D;stroke-width:2;" x1="510" x2="962.0186" y1="732.498" y2="732.498"/><line style="stroke:#D4AC0D;stroke-width:2;" x1="510" x2="962.0186" y1="740.498" y2="740.498"/><ellipse cx="520" cy="755.3086" fill="#84BE84" rx="3" ry="3" style="stroke:#038048;stroke-width:1;"/><text fill="#000000" font-family="sans-serif" font-size="14" lengthAdjust="spacing" text-decoration="underline" textLength="428.0186" x="529" y="759.6055">byte[] build (byte cla, byte ins, byte p1, byte p2, byte[] dataIn, Byte le)</text><text fill="#000000" font-family="sans-serif" font-size="14" lengthAdjust="spacing" textLength="3.8896" x="529" y="778.2266">&#160;</text><ellipse cx="520" cy="792.5508" fill="#84BE84" rx="3" ry="3" style="stroke:#038048;stroke-width:1;"/><text fill="#000000" font-family="sans-serif" font-size="14" lengthAdjust="spacing" text-decoration="underline" textLength="251.3643" x="529" y="796.8477">boolean isCase4 (byte[] apduCommand)</text></g><!--class BerTlvUtil--><g class="entity" data-entity="BerTlvUtil" data-source-line="115" data-uid="ent0007" id="entity_BerTlvUtil"><rect fill="#FEFECE" height="122.4844" rx="2.5" ry="2.5" style="stroke:#D4AC0D;stroke-width:2;" width="501.4395" x="998.5" y="691.498"/><ellipse cx="1209.1353" cy="707.498" fill="#ADD1B2" rx="11" ry="11" style="stroke:#ADD1B2;stroke-width:1;"/><path d="M1211.9009,703.373 Q1212.0571,703.1543 1212.2446,703.0449 Q1212.4321,702.9355 1212.6509,702.9355 Q1213.0259,702.9355 1213.2603,703.2012 Q1213.4946,703.4512 1213.4946,704.0605 L1213.4946,705.5137 Q1213.4946,706.123 1213.2603,706.3887 Q1213.0259,706.6543 1212.6509,706.6543 Q1212.3071,706.6543 1212.104,706.4512 Q1211.9009,706.2637 1211.7915,705.748 Q1211.7446,705.3887 1211.5571,705.2012 Q1211.229,704.8262 1210.6196,704.6074 Q1210.0103,704.3887 1209.3853,704.3887 Q1208.6196,704.3887 1207.979,704.7168 Q1207.354,705.0449 1206.854,705.7949 Q1206.3696,706.5449 1206.3696,707.5762 L1206.3696,708.6699 Q1206.3696,709.9043 1207.2603,710.7324 Q1208.1509,711.5449 1209.7446,711.5449 Q1210.6821,711.5449 1211.3384,711.2949 Q1211.729,711.1387 1212.1509,710.7012 Q1212.4165,710.4355 1212.5571,710.3574 Q1212.7134,710.2793 1212.9165,710.2793 Q1213.2446,710.2793 1213.4946,710.5449 Q1213.7603,710.7949 1213.7603,711.1387 Q1213.7603,711.4824 1213.4165,711.8887 Q1212.9165,712.4668 1212.1196,712.7949 Q1211.0415,713.248 1209.7446,713.248 Q1208.229,713.248 1207.0259,712.623 Q1206.0415,712.123 1205.354,711.0605 Q1204.6665,709.9824 1204.6665,708.7012 L1204.6665,707.5449 Q1204.6665,706.2168 1205.2759,705.0762 Q1205.9009,703.9199 1206.9946,703.3105 Q1208.0884,702.6855 1209.3228,702.6855 Q1210.0571,702.6855 1210.6978,702.8574 Q1211.354,703.0137 1211.9009,703.373 Z " fill="#000000"/><ellipse cx="1234.6353" cy="706.998" fill="#84BE84" rx="3" ry="3" style="stroke:#038048;stroke-width:1;"/><text fill="#000000" font-family="sans-serif" font-size="14" lengthAdjust="spacing" textLength="60.6689" x="1240.6353" y="713.2949">BerTlvUtil</text><line style="stroke:#D4AC0D;stroke-width:2;" x1="999.5" x2="1498.9395" y1="723.498" y2="723.498"/><line style="stroke:#D4AC0D;stroke-width:2;" x1="999.5" x2="1498.9395" y1="731.498" y2="731.498"/><ellipse cx="1009.5" cy="746.3086" fill="#84BE84" rx="3" ry="3" style="stroke:#038048;stroke-width:1;"/><text fill="#000000" font-family="sans-serif" font-size="14" lengthAdjust="spacing" text-decoration="underline" textLength="475.4395" x="1018.5" y="750.6055">Map&lt;Integer, byte[]&gt; parseSimple (byte[] tlvStructure, boolean primitiveOnly)</text><ellipse cx="1009.5" cy="764.9297" fill="#84BE84" rx="3" ry="3" style="stroke:#038048;stroke-width:1;"/><text fill="#000000" font-family="sans-serif" font-size="14" lengthAdjust="spacing" text-decoration="underline" textLength="470.7842" x="1018.5" y="769.2266">Map&lt;Integer, List&lt;byte[]&gt;&gt; parse (byte[] tlvStructure, boolean primitiveOnly)</text><text fill="#000000" font-family="sans-serif" font-size="14" lengthAdjust="spacing" textLength="3.8896" x="1018.5" y="787.8477">&#160;</text><ellipse cx="1009.5" cy="802.1719" fill="#84BE84" rx="3" ry="3" style="stroke:#038048;stroke-width:1;"/><text fill="#000000" font-family="sans-serif" font-size="14" lengthAdjust="spacing" text-decoration="underline" textLength="202.3369" x="1018.5" y="806.4688">boolean isConstructed (int tagId)</text></g><!--class JsonUtil--><g class="entity" data-entity="JsonUtil" data-source-line="122" data-uid="ent0009" id="entity_JsonUtil"><rect fill="#FEFECE" height="141.1055" rx="2.5" ry="2.5" style="stroke:#D4AC0D;stroke-width:2;" width="349.7021" x="73" y="1046.498"/><ellipse cx="196.8701" cy="1062.498" fill="#ADD1B2" rx="11" ry="11" style="stroke:#ADD1B2;stroke-width:1;"/><path d="M199.6357,1058.373 Q199.792,1058.1543 199.9795,1058.0449 Q200.167,1057.9355 200.3857,1057.9355 Q200.7607,1057.9355 200.9951,1058.2012 Q201.2295,1058.4512 201.2295,1059.0605 L201.2295,1060.5137 Q201.2295,1061.123 200.9951,1061.3887 Q200.7607,1061.6543 200.3857,1061.6543 Q200.042,1061.6543 199.8389,1061.4512 Q199.6357,1061.2637 199.5264,1060.748 Q199.4795,1060.3887 199.292,1060.2012 Q198.9639,1059.8262 198.3545,1059.6074 Q197.7451,1059.3887 197.1201,1059.3887 Q196.3545,1059.3887 195.7139,1059.7168 Q195.0889,1060.0449 194.5889,1060.7949 Q194.1045,1061.5449 194.1045,1062.5762 L194.1045,1063.6699 Q194.1045,1064.9043 194.9951,1065.7324 Q195.8857,1066.5449 197.4795,1066.5449 Q198.417,1066.5449 199.0732,1066.2949 Q199.4639,1066.1387 199.8857,1065.7012 Q200.1514,1065.4355 200.292,1065.3574 Q200.4482,1065.2793 200.6514,1065.2793 Q200.9795,1065.2793 201.2295,1065.5449 Q201.4951,1065.7949 201.4951,1066.1387 Q201.4951,1066.4824 201.1514,1066.8887 Q200.6514,1067.4668 199.8545,1067.7949 Q198.7764,1068.248 197.4795,1068.248 Q195.9639,1068.248 194.7607,1067.623 Q193.7764,1067.123 193.0889,1066.0605 Q192.4014,1064.9824 192.4014,1063.7012 L192.4014,1062.5449 Q192.4014,1061.2168 193.0107,1060.0762 Q193.6357,1058.9199 194.7295,1058.3105 Q195.8232,1057.6855 197.0576,1057.6855 Q197.792,1057.6855 198.4326,1057.8574 Q199.0889,1058.0137 199.6357,1058.373 Z " fill="#000000"/><ellipse cx="222.3701" cy="1061.998" fill="#84BE84" rx="3" ry="3" style="stroke:#038048;stroke-width:1;"/><text fill="#000000" font-family="sans-serif" font-size="14" font-weight="bold" lengthAdjust="spacing" textLength="28.7793" x="228.3701" y="1068.2949">final</text><text fill="#000000" font-family="sans-serif" font-size="14" lengthAdjust="spacing" textLength="49.793" x="261.0391" y="1068.2949">JsonUtil</text><line style="stroke:#D4AC0D;stroke-width:2;" x1="74" x2="421.7021" y1="1078.498" y2="1078.498"/><line style="stroke:#D4AC0D;stroke-width:2;" x1="74" x2="421.7021" y1="1086.498" y2="1086.498"/><ellipse cx="84" cy="1101.3086" fill="#84BE84" rx="3" ry="3" style="stroke:#038048;stroke-width:1;"/><text fill="#000000" filter="url(#b135rlyo2dklng0)" font-family="sans-serif" font-size="14" lengthAdjust="spacing" textLength="33.4619" x="93" y="1105.6055">Gson</text><line style="stroke:#FFFF00;stroke-width:0.5;" x1="93" x2="126.4619" y1="1106.6055" y2="1106.6055"/><text fill="#000000" font-family="sans-serif" font-size="14" lengthAdjust="spacing" text-decoration="underline" textLength="73.9102" x="130.3516" y="1105.6055">getParser ()</text><ellipse cx="84" cy="1119.9297" fill="#84BE84" rx="3" ry="3" style="stroke:#038048;stroke-width:1;"/><text fill="#000000" font-family="sans-serif" font-size="14" lengthAdjust="spacing" text-decoration="underline" textLength="323.7021" x="93" y="1124.2266">void registerTypeAdapter (Class&lt;?&gt; matchingClass,</text><text fill="#000000" font-family="sans-serif" font-size="14" lengthAdjust="spacing" textLength="254.4814" x="124.1172" y="1142.8477">Object adapter, boolean withSubclasses)</text><text fill="#000000" font-family="sans-serif" font-size="14" lengthAdjust="spacing" textLength="3.8896" x="93" y="1161.4688">&#160;</text><ellipse cx="84" cy="1175.793" fill="#84BE84" rx="3" ry="3" style="stroke:#038048;stroke-width:1;"/><text fill="#000000" font-family="sans-serif" font-size="14" lengthAdjust="spacing" text-decoration="underline" textLength="157.958" x="93" y="1180.0898">String toJson (Object obj)</text></g><!--class BodyError--><g class="entity" data-entity="BodyError" data-source-line="129" data-uid="ent0010" id="entity_BodyError"><rect fill="#FEFECE" height="122.4844" rx="2.5" ry="2.5" style="stroke:#D4AC0D;stroke-width:2;" width="227.5371" x="458" y="1055.998"/><ellipse cx="530.5083" cy="1071.998" fill="#ADD1B2" rx="11" ry="11" style="stroke:#ADD1B2;stroke-width:1;"/><path d="M533.2739,1067.873 Q533.4302,1067.6543 533.6177,1067.5449 Q533.8052,1067.4355 534.0239,1067.4355 Q534.3989,1067.4355 534.6333,1067.7012 Q534.8677,1067.9512 534.8677,1068.5605 L534.8677,1070.0137 Q534.8677,1070.623 534.6333,1070.8887 Q534.3989,1071.1543 534.0239,1071.1543 Q533.6802,1071.1543 533.4771,1070.9512 Q533.2739,1070.7637 533.1646,1070.248 Q533.1177,1069.8887 532.9302,1069.7012 Q532.6021,1069.3262 531.9927,1069.1074 Q531.3833,1068.8887 530.7583,1068.8887 Q529.9927,1068.8887 529.3521,1069.2168 Q528.7271,1069.5449 528.2271,1070.2949 Q527.7427,1071.0449 527.7427,1072.0762 L527.7427,1073.1699 Q527.7427,1074.4043 528.6333,1075.2324 Q529.5239,1076.0449 531.1177,1076.0449 Q532.0552,1076.0449 532.7114,1075.7949 Q533.1021,1075.6387 533.5239,1075.2012 Q533.7896,1074.9355 533.9302,1074.8574 Q534.0864,1074.7793 534.2896,1074.7793 Q534.6177,1074.7793 534.8677,1075.0449 Q535.1333,1075.2949 535.1333,1075.6387 Q535.1333,1075.9824 534.7896,1076.3887 Q534.2896,1076.9668 533.4927,1077.2949 Q532.4146,1077.748 531.1177,1077.748 Q529.6021,1077.748 528.3989,1077.123 Q527.4146,1076.623 526.7271,1075.5605 Q526.0396,1074.4824 526.0396,1073.2012 L526.0396,1072.0449 Q526.0396,1070.7168 526.6489,1069.5762 Q527.2739,1068.4199 528.3677,1067.8105 Q529.4614,1067.1855 530.6958,1067.1855 Q531.4302,1067.1855 532.0708,1067.3574 Q532.7271,1067.5137 533.2739,1067.873 Z " fill="#000000"/><ellipse cx="556.0083" cy="1071.498" fill="#84BE84" rx="3" ry="3" style="stroke:#038048;stroke-width:1;"/><text fill="#000000" font-family="sans-serif" font-size="14" lengthAdjust="spacing" textLength="63.0205" x="562.0083" y="1077.7949">BodyError</text><line style="stroke:#D4AC0D;stroke-width:2;" x1="459" x2="684.5371" y1="1087.998" y2="1087.998"/><line style="stroke:#D4AC0D;stroke-width:2;" x1="459" x2="684.5371" y1="1095.998" y2="1095.998"/><ellipse cx="469" cy="1110.8086" fill="#84BE84" rx="3" ry="3" style="stroke:#038048;stroke-width:1;"/><text fill="#000000" font-family="sans-serif" font-size="14" lengthAdjust="spacing" textLength="201.5371" x="478" y="1115.1055">BodyError (Exception exception)</text><text fill="#000000" font-family="sans-serif" font-size="14" lengthAdjust="spacing" textLength="3.8896" x="478" y="1133.7266">&#160;</text><ellipse cx="469" cy="1148.0508" fill="#84BE84" rx="3" ry="3" style="stroke:#038048;stroke-width:1;"/><text fill="#000000" font-family="sans-serif" font-size="14" lengthAdjust="spacing" textLength="106.6064" x="478" y="1152.3477">String getCode ()</text><ellipse cx="469" cy="1166.6719" fill="#84BE84" rx="3" ry="3" style="stroke:#038048;stroke-width:1;"/><text fill="#000000" font-family="sans-serif" font-size="14" lengthAdjust="spacing" textLength="159.5303" x="478" y="1170.9688">Exception getException ()</text></g><!--class BodyErrorJsonDeserializer--><g class="entity" data-entity="BodyErrorJsonDeserializer" data-source-line="135" data-uid="ent0011" id="entity_BodyErrorJsonDeserializer"><rect fill="#FEFECE" height="81.8633" rx="2.5" ry="2.5" style="stroke:#D4AC0D;stroke-width:2;" width="258.5576" x="721.5" y="1075.998"/><ellipse cx="736.5" cy="1099.6191" fill="#ADD1B2" rx="11" ry="11" style="stroke:#ADD1B2;stroke-width:1;"/><path d="M739.2656,1095.4941 Q739.4219,1095.2754 739.6094,1095.166 Q739.7969,1095.0566 740.0156,1095.0566 Q740.3906,1095.0566 740.625,1095.3223 Q740.8594,1095.5723 740.8594,1096.1816 L740.8594,1097.6348 Q740.8594,1098.2441 740.625,1098.5098 Q740.3906,1098.7754 740.0156,1098.7754 Q739.6719,1098.7754 739.4688,1098.5723 Q739.2656,1098.3848 739.1563,1097.8691 Q739.1094,1097.5098 738.9219,1097.3223 Q738.5938,1096.9473 737.9844,1096.7285 Q737.375,1096.5098 736.75,1096.5098 Q735.9844,1096.5098 735.3438,1096.8379 Q734.7188,1097.166 734.2188,1097.916 Q733.7344,1098.666 733.7344,1099.6973 L733.7344,1100.791 Q733.7344,1102.0254 734.625,1102.8535 Q735.5156,1103.666 737.1094,1103.666 Q738.0469,1103.666 738.7031,1103.416 Q739.0938,1103.2598 739.5156,1102.8223 Q739.7813,1102.5566 739.9219,1102.4785 Q740.0781,1102.4004 740.2813,1102.4004 Q740.6094,1102.4004 740.8594,1102.666 Q741.125,1102.916 741.125,1103.2598 Q741.125,1103.6035 740.7813,1104.0098 Q740.2813,1104.5879 739.4844,1104.916 Q738.4063,1105.3691 737.1094,1105.3691 Q735.5938,1105.3691 734.3906,1104.7441 Q733.4063,1104.2441 732.7188,1103.1816 Q732.0313,1102.1035 732.0313,1100.8223 L732.0313,1099.666 Q732.0313,1098.3379 732.6406,1097.1973 Q733.2656,1096.041 734.3594,1095.4316 Q735.4531,1094.8066 736.6875,1094.8066 Q737.4219,1094.8066 738.0625,1094.9785 Q738.7188,1095.1348 739.2656,1095.4941 Z " fill="#000000"/><ellipse cx="755.5" cy="1099.1191" fill="#84BE84" rx="3" ry="3" style="stroke:#038048;stroke-width:1;"/><text fill="#000000" font-family="sans-serif" font-size="14" lengthAdjust="spacing" textLength="16.3516" x="761.5" y="1096.1055">&lt;&lt;</text><text fill="#000000" filter="url(#b135rlyo2dklng0)" font-family="sans-serif" font-size="14" lengthAdjust="spacing" textLength="182.8545" x="777.8516" y="1096.1055">JsonDeserializer&lt;BodyError&gt;</text><text fill="#000000" font-family="sans-serif" font-size="14" lengthAdjust="spacing" textLength="16.3516" x="960.7061" y="1096.1055">&gt;&gt;</text><text fill="#000000" font-family="sans-serif" font-size="14" lengthAdjust="spacing" textLength="166.5029" x="786.0273" y="1114.7266">BodyErrorJsonDeserializer</text><line style="stroke:#D4AC0D;stroke-width:2;" x1="722.5" x2="979.0576" y1="1123.2402" y2="1123.2402"/><line style="stroke:#D4AC0D;stroke-width:2;" x1="722.5" x2="979.0576" y1="1131.2402" y2="1131.2402"/><text fill="#000000" font-family="sans-serif" font-size="14" lengthAdjust="spacing" textLength="11.6689" x="727.5" y="1150.3477">...</text></g><!--class ByteArrayJsonAdapter--><g class="entity" data-entity="ByteArrayJsonAdapter" data-source-line="139" data-uid="ent0012" id="entity_ByteArrayJsonAdapter"><rect fill="#FEFECE" height="100.4844" rx="2.5" ry="2.5" style="stroke:#D4AC0D;stroke-width:2;" width="229.7783" x="1016" y="1066.998"/><ellipse cx="1031" cy="1099.9297" fill="#ADD1B2" rx="11" ry="11" style="stroke:#ADD1B2;stroke-width:1;"/><path d="M1033.7656,1095.8047 Q1033.9219,1095.5859 1034.1094,1095.4766 Q1034.2969,1095.3672 1034.5156,1095.3672 Q1034.8906,1095.3672 1035.125,1095.6328 Q1035.3594,1095.8828 1035.3594,1096.4922 L1035.3594,1097.9453 Q1035.3594,1098.5547 1035.125,1098.8203 Q1034.8906,1099.0859 1034.5156,1099.0859 Q1034.1719,1099.0859 1033.9688,1098.8828 Q1033.7656,1098.6953 1033.6563,1098.1797 Q1033.6094,1097.8203 1033.4219,1097.6328 Q1033.0938,1097.2578 1032.4844,1097.0391 Q1031.875,1096.8203 1031.25,1096.8203 Q1030.4844,1096.8203 1029.8438,1097.1484 Q1029.2188,1097.4766 1028.7188,1098.2266 Q1028.2344,1098.9766 1028.2344,1100.0078 L1028.2344,1101.1016 Q1028.2344,1102.3359 1029.125,1103.1641 Q1030.0156,1103.9766 1031.6094,1103.9766 Q1032.5469,1103.9766 1033.2031,1103.7266 Q1033.5938,1103.5703 1034.0156,1103.1328 Q1034.2813,1102.8672 1034.4219,1102.7891 Q1034.5781,1102.7109 1034.7813,1102.7109 Q1035.1094,1102.7109 1035.3594,1102.9766 Q1035.625,1103.2266 1035.625,1103.5703 Q1035.625,1103.9141 1035.2813,1104.3203 Q1034.7813,1104.8984 1033.9844,1105.2266 Q1032.9063,1105.6797 1031.6094,1105.6797 Q1030.0938,1105.6797 1028.8906,1105.0547 Q1027.9063,1104.5547 1027.2188,1103.4922 Q1026.5313,1102.4141 1026.5313,1101.1328 L1026.5313,1099.9766 Q1026.5313,1098.6484 1027.1406,1097.5078 Q1027.7656,1096.3516 1028.8594,1095.7422 Q1029.9531,1095.1172 1031.1875,1095.1172 Q1031.9219,1095.1172 1032.5625,1095.2891 Q1033.2188,1095.4453 1033.7656,1095.8047 Z " fill="#000000"/><ellipse cx="1050" cy="1099.4297" fill="#84BE84" rx="3" ry="3" style="stroke:#038048;stroke-width:1;"/><text fill="#000000" font-family="sans-serif" font-size="14" lengthAdjust="spacing" textLength="16.3516" x="1063.7793" y="1087.1055">&lt;&lt;</text><text fill="#000000" filter="url(#b135rlyo2dklng0)" font-family="sans-serif" font-size="14" lengthAdjust="spacing" textLength="138.5166" x="1080.1309" y="1087.1055">JsonSerializer&lt;byte[]&gt;</text><text fill="#000000" font-family="sans-serif" font-size="14" lengthAdjust="spacing" textLength="16.3516" x="1218.6475" y="1087.1055">&gt;&gt;</text><text fill="#000000" font-family="sans-serif" font-size="14" lengthAdjust="spacing" textLength="16.3516" x="1056" y="1105.7266">&lt;&lt;</text><text fill="#000000" filter="url(#b135rlyo2dklng0)" font-family="sans-serif" font-size="14" lengthAdjust="spacing" textLength="154.0752" x="1072.3516" y="1105.7266">JsonDeserializer&lt;byte[]&gt;</text><text fill="#000000" font-family="sans-serif" font-size="14" lengthAdjust="spacing" textLength="16.3516" x="1226.4268" y="1105.7266">&gt;&gt;</text><text fill="#000000" font-family="sans-serif" font-size="14" lengthAdjust="spacing" textLength="140.0684" x="1079.355" y="1124.3477">ByteArrayJsonAdapter</text><line style="stroke:#D4AC0D;stroke-width:2;" x1="1017" x2="1244.7783" y1="1132.8613" y2="1132.8613"/><line style="stroke:#D4AC0D;stroke-width:2;" x1="1017" x2="1244.7783" y1="1140.8613" y2="1140.8613"/><text fill="#000000" font-family="sans-serif" font-size="14" lengthAdjust="spacing" textLength="11.6689" x="1022" y="1159.9688">...</text></g><!--class ByteJsonAdapter--><g class="entity" data-entity="ByteJsonAdapter" data-source-line="143" data-uid="ent0013" id="entity_ByteJsonAdapter"><rect fill="#FEFECE" height="100.4844" rx="2.5" ry="2.5" style="stroke:#D4AC0D;stroke-width:2;" width="223.5508" x="1281" y="1066.998"/><ellipse cx="1296" cy="1099.9297" fill="#ADD1B2" rx="11" ry="11" style="stroke:#ADD1B2;stroke-width:1;"/><path d="M1298.7656,1095.8047 Q1298.9219,1095.5859 1299.1094,1095.4766 Q1299.2969,1095.3672 1299.5156,1095.3672 Q1299.8906,1095.3672 1300.125,1095.6328 Q1300.3594,1095.8828 1300.3594,1096.4922 L1300.3594,1097.9453 Q1300.3594,1098.5547 1300.125,1098.8203 Q1299.8906,1099.0859 1299.5156,1099.0859 Q1299.1719,1099.0859 1298.9688,1098.8828 Q1298.7656,1098.6953 1298.6563,1098.1797 Q1298.6094,1097.8203 1298.4219,1097.6328 Q1298.0938,1097.2578 1297.4844,1097.0391 Q1296.875,1096.8203 1296.25,1096.8203 Q1295.4844,1096.8203 1294.8438,1097.1484 Q1294.2188,1097.4766 1293.7188,1098.2266 Q1293.2344,1098.9766 1293.2344,1100.0078 L1293.2344,1101.1016 Q1293.2344,1102.3359 1294.125,1103.1641 Q1295.0156,1103.9766 1296.6094,1103.9766 Q1297.5469,1103.9766 1298.2031,1103.7266 Q1298.5938,1103.5703 1299.0156,1103.1328 Q1299.2813,1102.8672 1299.4219,1102.7891 Q1299.5781,1102.7109 1299.7813,1102.7109 Q1300.1094,1102.7109 1300.3594,1102.9766 Q1300.625,1103.2266 1300.625,1103.5703 Q1300.625,1103.9141 1300.2813,1104.3203 Q1299.7813,1104.8984 1298.9844,1105.2266 Q1297.9063,1105.6797 1296.6094,1105.6797 Q1295.0938,1105.6797 1293.8906,1105.0547 Q1292.9063,1104.5547 1292.2188,1103.4922 Q1291.5313,1102.4141 1291.5313,1101.1328 L1291.5313,1099.9766 Q1291.5313,1098.6484 1292.1406,1097.5078 Q1292.7656,1096.3516 1293.8594,1095.7422 Q1294.9531,1095.1172 1296.1875,1095.1172 Q1296.9219,1095.1172 1297.5625,1095.2891 Q1298.2188,1095.4453 1298.7656,1095.8047 Z " fill="#000000"/><ellipse cx="1315" cy="1099.4297" fill="#84BE84" rx="3" ry="3" style="stroke:#038048;stroke-width:1;"/><text fill="#000000" font-family="sans-serif" font-size="14" lengthAdjust="spacing" textLength="16.3516" x="1328.7793" y="1087.1055">&lt;&lt;</text><text fill="#000000" filter="url(#b135rlyo2dklng0)" font-family="sans-serif" font-size="14" lengthAdjust="spacing" textLength="132.2891" x="1345.1309" y="1087.1055">JsonSerializer&lt;Byte&gt;</text><text fill="#000000" font-family="sans-serif" font-size="14" lengthAdjust="spacing" textLength="16.3516" x="1477.4199" y="1087.1055">&gt;&gt;</text><text fill="#000000" font-family="sans-serif" font-size="14" lengthAdjust="spacing" textLength="16.3516" x="1321" y="1105.7266">&lt;&lt;</text><text fill="#000000" filter="url(#b135rlyo2dklng0)" font-family="sans-serif" font-size="14" lengthAdjust="spacing" textLength="147.8477" x="1337.3516" y="1105.7266">JsonDeserializer&lt;Byte&gt;</text><text fill="#000000" font-family="sans-serif" font-size="14" lengthAdjust="spacing" textLength="16.3516" x="1485.1992" y="1105.7266">&gt;&gt;</text><text fill="#000000" font-family="sans-serif" font-size="14" lengthAdjust="spacing" textLength="106.6201" x="1357.9653" y="1124.3477">ByteJsonAdapter</text><line style="stroke:#D4AC0D;stroke-width:2;" x1="1282" x2="1503.5508" y1="1132.8613" y2="1132.8613"/><line style="stroke:#D4AC0D;stroke-width:2;" x1="1282" x2="1503.5508" y1="1140.8613" y2="1140.8613"/><text fill="#000000" font-family="sans-serif" font-size="14" lengthAdjust="spacing" textLength="11.6689" x="1287" y="1159.9688">...</text></g><!--class ShortJsonAdapter--><g class="entity" data-entity="ShortJsonAdapter" data-source-line="147" data-uid="ent0014" id="entity_ShortJsonAdapter"><rect fill="#FEFECE" height="100.4844" rx="2.5" ry="2.5" style="stroke:#D4AC0D;stroke-width:2;" width="228.999" x="457.5" y="1248.498"/><ellipse cx="472.5" cy="1281.4297" fill="#ADD1B2" rx="11" ry="11" style="stroke:#ADD1B2;stroke-width:1;"/><path d="M475.2656,1277.3047 Q475.4219,1277.0859 475.6094,1276.9766 Q475.7969,1276.8672 476.0156,1276.8672 Q476.3906,1276.8672 476.625,1277.1328 Q476.8594,1277.3828 476.8594,1277.9922 L476.8594,1279.4453 Q476.8594,1280.0547 476.625,1280.3203 Q476.3906,1280.5859 476.0156,1280.5859 Q475.6719,1280.5859 475.4688,1280.3828 Q475.2656,1280.1953 475.1563,1279.6797 Q475.1094,1279.3203 474.9219,1279.1328 Q474.5938,1278.7578 473.9844,1278.5391 Q473.375,1278.3203 472.75,1278.3203 Q471.9844,1278.3203 471.3438,1278.6484 Q470.7188,1278.9766 470.2188,1279.7266 Q469.7344,1280.4766 469.7344,1281.5078 L469.7344,1282.6016 Q469.7344,1283.8359 470.625,1284.6641 Q471.5156,1285.4766 473.1094,1285.4766 Q474.0469,1285.4766 474.7031,1285.2266 Q475.0938,1285.0703 475.5156,1284.6328 Q475.7813,1284.3672 475.9219,1284.2891 Q476.0781,1284.2109 476.2813,1284.2109 Q476.6094,1284.2109 476.8594,1284.4766 Q477.125,1284.7266 477.125,1285.0703 Q477.125,1285.4141 476.7813,1285.8203 Q476.2813,1286.3984 475.4844,1286.7266 Q474.4063,1287.1797 473.1094,1287.1797 Q471.5938,1287.1797 470.3906,1286.5547 Q469.4063,1286.0547 468.7188,1284.9922 Q468.0313,1283.9141 468.0313,1282.6328 L468.0313,1281.4766 Q468.0313,1280.1484 468.6406,1279.0078 Q469.2656,1277.8516 470.3594,1277.2422 Q471.4531,1276.6172 472.6875,1276.6172 Q473.4219,1276.6172 474.0625,1276.7891 Q474.7188,1276.9453 475.2656,1277.3047 Z " fill="#000000"/><ellipse cx="491.5" cy="1280.9297" fill="#84BE84" rx="3" ry="3" style="stroke:#038048;stroke-width:1;"/><text fill="#000000" font-family="sans-serif" font-size="14" lengthAdjust="spacing" textLength="16.3516" x="505.2793" y="1268.6055">&lt;&lt;</text><text fill="#000000" filter="url(#b135rlyo2dklng0)" font-family="sans-serif" font-size="14" lengthAdjust="spacing" textLength="137.7373" x="521.6309" y="1268.6055">JsonSerializer&lt;Short&gt;</text><text fill="#000000" font-family="sans-serif" font-size="14" lengthAdjust="spacing" textLength="16.3516" x="659.3682" y="1268.6055">&gt;&gt;</text><text fill="#000000" font-family="sans-serif" font-size="14" lengthAdjust="spacing" textLength="16.3516" x="497.5" y="1287.2266">&lt;&lt;</text><text fill="#000000" filter="url(#b135rlyo2dklng0)" font-family="sans-serif" font-size="14" lengthAdjust="spacing" textLength="153.2959" x="513.8516" y="1287.2266">JsonDeserializer&lt;Short&gt;</text><text fill="#000000" font-family="sans-serif" font-size="14" lengthAdjust="spacing" textLength="16.3516" x="667.1475" y="1287.2266">&gt;&gt;</text><text fill="#000000" font-family="sans-serif" font-size="14" lengthAdjust="spacing" textLength="112.0684" x="534.4653" y="1305.8477">ShortJsonAdapter</text><line style="stroke:#D4AC0D;stroke-width:2;" x1="458.5" x2="685.499" y1="1314.3613" y2="1314.3613"/><line style="stroke:#D4AC0D;stroke-width:2;" x1="458.5" x2="685.499" y1="1322.3613" y2="1322.3613"/><text fill="#000000" font-family="sans-serif" font-size="14" lengthAdjust="spacing" textLength="11.6689" x="463.5" y="1341.4688">...</text></g><!--class IntegerJsonAdapter--><g class="entity" data-entity="IntegerJsonAdapter" data-source-line="151" data-uid="ent0015" id="entity_IntegerJsonAdapter"><rect fill="#FEFECE" height="100.4844" rx="2.5" ry="2.5" style="stroke:#D4AC0D;stroke-width:2;" width="239.123" x="721.5" y="1248.498"/><ellipse cx="736.5" cy="1281.4297" fill="#ADD1B2" rx="11" ry="11" style="stroke:#ADD1B2;stroke-width:1;"/><path d="M739.2656,1277.3047 Q739.4219,1277.0859 739.6094,1276.9766 Q739.7969,1276.8672 740.0156,1276.8672 Q740.3906,1276.8672 740.625,1277.1328 Q740.8594,1277.3828 740.8594,1277.9922 L740.8594,1279.4453 Q740.8594,1280.0547 740.625,1280.3203 Q740.3906,1280.5859 740.0156,1280.5859 Q739.6719,1280.5859 739.4688,1280.3828 Q739.2656,1280.1953 739.1563,1279.6797 Q739.1094,1279.3203 738.9219,1279.1328 Q738.5938,1278.7578 737.9844,1278.5391 Q737.375,1278.3203 736.75,1278.3203 Q735.9844,1278.3203 735.3438,1278.6484 Q734.7188,1278.9766 734.2188,1279.7266 Q733.7344,1280.4766 733.7344,1281.5078 L733.7344,1282.6016 Q733.7344,1283.8359 734.625,1284.6641 Q735.5156,1285.4766 737.1094,1285.4766 Q738.0469,1285.4766 738.7031,1285.2266 Q739.0938,1285.0703 739.5156,1284.6328 Q739.7813,1284.3672 739.9219,1284.2891 Q740.0781,1284.2109 740.2813,1284.2109 Q740.6094,1284.2109 740.8594,1284.4766 Q741.125,1284.7266 741.125,1285.0703 Q741.125,1285.4141 740.7813,1285.8203 Q740.2813,1286.3984 739.4844,1286.7266 Q738.4063,1287.1797 737.1094,1287.1797 Q735.5938,1287.1797 734.3906,1286.5547 Q733.4063,1286.0547 732.7188,1284.9922 Q732.0313,1283.9141 732.0313,1282.6328 L732.0313,1281.4766 Q732.0313,1280.1484 732.6406,1279.0078 Q733.2656,1277.8516 734.3594,1277.2422 Q735.4531,1276.6172 736.6875,1276.6172 Q737.4219,1276.6172 738.0625,1276.7891 Q738.7188,1276.9453 739.2656,1277.3047 Z " fill="#000000"/><ellipse cx="755.5" cy="1280.9297" fill="#84BE84" rx="3" ry="3" style="stroke:#038048;stroke-width:1;"/><text fill="#000000" font-family="sans-serif" font-size="14" lengthAdjust="spacing" textLength="16.3516" x="769.2793" y="1268.6055">&lt;&lt;</text><text fill="#000000" filter="url(#b135rlyo2dklng0)" font-family="sans-serif" font-size="14" lengthAdjust="spacing" textLength="147.8613" x="785.6309" y="1268.6055">JsonSerializer&lt;Integer&gt;</text><text fill="#000000" font-family="sans-serif" font-size="14" lengthAdjust="spacing" textLength="16.3516" x="933.4922" y="1268.6055">&gt;&gt;</text><text fill="#000000" font-family="sans-serif" font-size="14" lengthAdjust="spacing" textLength="16.3516" x="761.5" y="1287.2266">&lt;&lt;</text><text fill="#000000" filter="url(#b135rlyo2dklng0)" font-family="sans-serif" font-size="14" lengthAdjust="spacing" textLength="163.4199" x="777.8516" y="1287.2266">JsonDeserializer&lt;Integer&gt;</text><text fill="#000000" font-family="sans-serif" font-size="14" lengthAdjust="spacing" textLength="16.3516" x="941.2715" y="1287.2266">&gt;&gt;</text><text fill="#000000" font-family="sans-serif" font-size="14" lengthAdjust="spacing" textLength="122.1924" x="798.4653" y="1305.8477">IntegerJsonAdapter</text><line style="stroke:#D4AC0D;stroke-width:2;" x1="722.5" x2="959.623" y1="1314.3613" y2="1314.3613"/><line style="stroke:#D4AC0D;stroke-width:2;" x1="722.5" x2="959.623" y1="1322.3613" y2="1322.3613"/><text fill="#000000" font-family="sans-serif" font-size="14" lengthAdjust="spacing" textLength="11.6689" x="727.5" y="1341.4688">...</text></g><!--class LongJsonAdapter--><g class="entity" data-entity="LongJsonAdapter" data-source-line="155" data-uid="ent0016" id="entity_LongJsonAdapter"><rect fill="#FEFECE" height="100.4844" rx="2.5" ry="2.5" style="stroke:#D4AC0D;stroke-width:2;" width="226.6816" x="995.5" y="1248.498"/><ellipse cx="1010.5" cy="1281.4297" fill="#ADD1B2" rx="11" ry="11" style="stroke:#ADD1B2;stroke-width:1;"/><path d="M1013.2656,1277.3047 Q1013.4219,1277.0859 1013.6094,1276.9766 Q1013.7969,1276.8672 1014.0156,1276.8672 Q1014.3906,1276.8672 1014.625,1277.1328 Q1014.8594,1277.3828 1014.8594,1277.9922 L1014.8594,1279.4453 Q1014.8594,1280.0547 1014.625,1280.3203 Q1014.3906,1280.5859 1014.0156,1280.5859 Q1013.6719,1280.5859 1013.4688,1280.3828 Q1013.2656,1280.1953 1013.1563,1279.6797 Q1013.1094,1279.3203 1012.9219,1279.1328 Q1012.5938,1278.7578 1011.9844,1278.5391 Q1011.375,1278.3203 1010.75,1278.3203 Q1009.9844,1278.3203 1009.3438,1278.6484 Q1008.7188,1278.9766 1008.2188,1279.7266 Q1007.7344,1280.4766 1007.7344,1281.5078 L1007.7344,1282.6016 Q1007.7344,1283.8359 1008.625,1284.6641 Q1009.5156,1285.4766 1011.1094,1285.4766 Q1012.0469,1285.4766 1012.7031,1285.2266 Q1013.0938,1285.0703 1013.5156,1284.6328 Q1013.7813,1284.3672 1013.9219,1284.2891 Q1014.0781,1284.2109 1014.2813,1284.2109 Q1014.6094,1284.2109 1014.8594,1284.4766 Q1015.125,1284.7266 1015.125,1285.0703 Q1015.125,1285.4141 1014.7813,1285.8203 Q1014.2813,1286.3984 1013.4844,1286.7266 Q1012.4063,1287.1797 1011.1094,1287.1797 Q1009.5938,1287.1797 1008.3906,1286.5547 Q1007.4063,1286.0547 1006.7188,1284.9922 Q1006.0313,1283.9141 1006.0313,1282.6328 L1006.0313,1281.4766 Q1006.0313,1280.1484 1006.6406,1279.0078 Q1007.2656,1277.8516 1008.3594,1277.2422 Q1009.4531,1276.6172 1010.6875,1276.6172 Q1011.4219,1276.6172 1012.0625,1276.7891 Q1012.7188,1276.9453 1013.2656,1277.3047 Z " fill="#000000"/><ellipse cx="1029.5" cy="1280.9297" fill="#84BE84" rx="3" ry="3" style="stroke:#038048;stroke-width:1;"/><text fill="#000000" font-family="sans-serif" font-size="14" lengthAdjust="spacing" textLength="16.3516" x="1043.2793" y="1268.6055">&lt;&lt;</text><text fill="#000000" filter="url(#b135rlyo2dklng0)" font-family="sans-serif" font-size="14" lengthAdjust="spacing" textLength="135.4199" x="1059.6309" y="1268.6055">JsonSerializer&lt;Long&gt;</text><text fill="#000000" font-family="sans-serif" font-size="14" lengthAdjust="spacing" textLength="16.3516" x="1195.0508" y="1268.6055">&gt;&gt;</text><text fill="#000000" font-family="sans-serif" font-size="14" lengthAdjust="spacing" textLength="16.3516" x="1035.5" y="1287.2266">&lt;&lt;</text><text fill="#000000" filter="url(#b135rlyo2dklng0)" font-family="sans-serif" font-size="14" lengthAdjust="spacing" textLength="150.9785" x="1051.8516" y="1287.2266">JsonDeserializer&lt;Long&gt;</text><text fill="#000000" font-family="sans-serif" font-size="14" lengthAdjust="spacing" textLength="16.3516" x="1202.8301" y="1287.2266">&gt;&gt;</text><text fill="#000000" font-family="sans-serif" font-size="14" lengthAdjust="spacing" textLength="109.751" x="1072.4653" y="1305.8477">LongJsonAdapter</text><line style="stroke:#D4AC0D;stroke-width:2;" x1="996.5" x2="1221.1816" y1="1314.3613" y2="1314.3613"/><line style="stroke:#D4AC0D;stroke-width:2;" x1="996.5" x2="1221.1816" y1="1322.3613" y2="1322.3613"/><text fill="#000000" font-family="sans-serif" font-size="14" lengthAdjust="spacing" textLength="11.6689" x="1001.5" y="1341.4688">...</text></g><!--class ThrowableJsonAdapter--><g class="entity" data-entity="ThrowableJsonAdapter" data-source-line="159" data-uid="ent0017" id="entity_ThrowableJsonAdapter"><rect fill="#FEFECE" height="81.8633" rx="2.5" ry="2.5" style="stroke:#D4AC0D;stroke-width:2;" width="245.3438" x="1257.5" y="1257.498"/><ellipse cx="1272.5" cy="1281.1191" fill="#ADD1B2" rx="11" ry="11" style="stroke:#ADD1B2;stroke-width:1;"/><path d="M1275.2656,1276.9941 Q1275.4219,1276.7754 1275.6094,1276.666 Q1275.7969,1276.5566 1276.0156,1276.5566 Q1276.3906,1276.5566 1276.625,1276.8223 Q1276.8594,1277.0723 1276.8594,1277.6816 L1276.8594,1279.1348 Q1276.8594,1279.7441 1276.625,1280.0098 Q1276.3906,1280.2754 1276.0156,1280.2754 Q1275.6719,1280.2754 1275.4688,1280.0723 Q1275.2656,1279.8848 1275.1563,1279.3691 Q1275.1094,1279.0098 1274.9219,1278.8223 Q1274.5938,1278.4473 1273.9844,1278.2285 Q1273.375,1278.0098 1272.75,1278.0098 Q1271.9844,1278.0098 1271.3438,1278.3379 Q1270.7188,1278.666 1270.2188,1279.416 Q1269.7344,1280.166 1269.7344,1281.1973 L1269.7344,1282.291 Q1269.7344,1283.5254 1270.625,1284.3535 Q1271.5156,1285.166 1273.1094,1285.166 Q1274.0469,1285.166 1274.7031,1284.916 Q1275.0938,1284.7598 1275.5156,1284.3223 Q1275.7813,1284.0566 1275.9219,1283.9785 Q1276.0781,1283.9004 1276.2813,1283.9004 Q1276.6094,1283.9004 1276.8594,1284.166 Q1277.125,1284.416 1277.125,1284.7598 Q1277.125,1285.1035 1276.7813,1285.5098 Q1276.2813,1286.0879 1275.4844,1286.416 Q1274.4063,1286.8691 1273.1094,1286.8691 Q1271.5938,1286.8691 1270.3906,1286.2441 Q1269.4063,1285.7441 1268.7188,1284.6816 Q1268.0313,1283.6035 1268.0313,1282.3223 L1268.0313,1281.166 Q1268.0313,1279.8379 1268.6406,1278.6973 Q1269.2656,1277.541 1270.3594,1276.9316 Q1271.4531,1276.3066 1272.6875,1276.3066 Q1273.4219,1276.3066 1274.0625,1276.4785 Q1274.7188,1276.6348 1275.2656,1276.9941 Z " fill="#000000"/><ellipse cx="1291.5" cy="1280.6191" fill="#84BE84" rx="3" ry="3" style="stroke:#038048;stroke-width:1;"/><text fill="#000000" font-family="sans-serif" font-size="14" lengthAdjust="spacing" textLength="16.3516" x="1297.5" y="1277.6055">&lt;&lt;</text><text fill="#000000" filter="url(#b135rlyo2dklng0)" font-family="sans-serif" font-size="14" lengthAdjust="spacing" textLength="169.6406" x="1313.8516" y="1277.6055">JsonSerializer&lt;Throwable&gt;</text><text fill="#000000" font-family="sans-serif" font-size="14" lengthAdjust="spacing" textLength="16.3516" x="1483.4922" y="1277.6055">&gt;&gt;</text><text fill="#000000" font-family="sans-serif" font-size="14" lengthAdjust="spacing" textLength="143.9717" x="1326.686" y="1296.2266">ThrowableJsonAdapter</text><line style="stroke:#D4AC0D;stroke-width:2;" x1="1258.5" x2="1501.8438" y1="1304.7402" y2="1304.7402"/><line style="stroke:#D4AC0D;stroke-width:2;" x1="1258.5" x2="1501.8438" y1="1312.7402" y2="1312.7402"/><text fill="#000000" font-family="sans-serif" font-size="14" lengthAdjust="spacing" textLength="11.6689" x="1263.5" y="1331.8477">...</text></g><!--class DateJsonSerializer--><g class="entity" data-entity="DateJsonSerializer" data-source-line="163" data-uid="ent0018" id="entity_DateJsonSerializer"><rect fill="#FEFECE" height="81.8633" rx="2.5" ry="2.5" style="stroke:#D4AC0D;stroke-width:2;" width="209.5508" x="467" y="1418.498"/><ellipse cx="482" cy="1442.1191" fill="#ADD1B2" rx="11" ry="11" style="stroke:#ADD1B2;stroke-width:1;"/><path d="M484.7656,1437.9941 Q484.9219,1437.7754 485.1094,1437.666 Q485.2969,1437.5566 485.5156,1437.5566 Q485.8906,1437.5566 486.125,1437.8223 Q486.3594,1438.0723 486.3594,1438.6816 L486.3594,1440.1348 Q486.3594,1440.7441 486.125,1441.0098 Q485.8906,1441.2754 485.5156,1441.2754 Q485.1719,1441.2754 484.9688,1441.0723 Q484.7656,1440.8848 484.6563,1440.3691 Q484.6094,1440.0098 484.4219,1439.8223 Q484.0938,1439.4473 483.4844,1439.2285 Q482.875,1439.0098 482.25,1439.0098 Q481.4844,1439.0098 480.8438,1439.3379 Q480.2188,1439.666 479.7188,1440.416 Q479.2344,1441.166 479.2344,1442.1973 L479.2344,1443.291 Q479.2344,1444.5254 480.125,1445.3535 Q481.0156,1446.166 482.6094,1446.166 Q483.5469,1446.166 484.2031,1445.916 Q484.5938,1445.7598 485.0156,1445.3223 Q485.2813,1445.0566 485.4219,1444.9785 Q485.5781,1444.9004 485.7813,1444.9004 Q486.1094,1444.9004 486.3594,1445.166 Q486.625,1445.416 486.625,1445.7598 Q486.625,1446.1035 486.2813,1446.5098 Q485.7813,1447.0879 484.9844,1447.416 Q483.9063,1447.8691 482.6094,1447.8691 Q481.0938,1447.8691 479.8906,1447.2441 Q478.9063,1446.7441 478.2188,1445.6816 Q477.5313,1444.6035 477.5313,1443.3223 L477.5313,1442.166 Q477.5313,1440.8379 478.1406,1439.6973 Q478.7656,1438.541 479.8594,1437.9316 Q480.9531,1437.3066 482.1875,1437.3066 Q482.9219,1437.3066 483.5625,1437.4785 Q484.2188,1437.6348 484.7656,1437.9941 Z " fill="#000000"/><ellipse cx="501" cy="1441.6191" fill="#84BE84" rx="3" ry="3" style="stroke:#038048;stroke-width:1;"/><text fill="#000000" font-family="sans-serif" font-size="14" lengthAdjust="spacing" textLength="16.3516" x="507" y="1438.6055">&lt;&lt;</text><text fill="#000000" filter="url(#b135rlyo2dklng0)" font-family="sans-serif" font-size="14" lengthAdjust="spacing" textLength="133.8477" x="523.3516" y="1438.6055">JsonSerializer&lt;Date&gt;</text><text fill="#000000" font-family="sans-serif" font-size="14" lengthAdjust="spacing" textLength="16.3516" x="657.1992" y="1438.6055">&gt;&gt;</text><text fill="#000000" font-family="sans-serif" font-size="14" lengthAdjust="spacing" textLength="117.4961" x="531.5273" y="1457.2266">DateJsonSerializer</text><line style="stroke:#D4AC0D;stroke-width:2;" x1="468" x2="675.5508" y1="1465.7402" y2="1465.7402"/><line style="stroke:#D4AC0D;stroke-width:2;" x1="468" x2="675.5508" y1="1473.7402" y2="1473.7402"/><text fill="#000000" font-family="sans-serif" font-size="14" lengthAdjust="spacing" textLength="11.6689" x="473" y="1492.8477">...</text></g><!--class CalendarJsonAdapter--><g class="entity" data-entity="CalendarJsonAdapter" data-source-line="167" data-uid="ent0019" id="entity_CalendarJsonAdapter"><rect fill="#FEFECE" height="100.4844" rx="2.5" ry="2.5" style="stroke:#D4AC0D;stroke-width:2;" width="252.3506" x="712" y="1409.498"/><ellipse cx="727" cy="1442.4297" fill="#ADD1B2" rx="11" ry="11" style="stroke:#ADD1B2;stroke-width:1;"/><path d="M729.7656,1438.3047 Q729.9219,1438.0859 730.1094,1437.9766 Q730.2969,1437.8672 730.5156,1437.8672 Q730.8906,1437.8672 731.125,1438.1328 Q731.3594,1438.3828 731.3594,1438.9922 L731.3594,1440.4453 Q731.3594,1441.0547 731.125,1441.3203 Q730.8906,1441.5859 730.5156,1441.5859 Q730.1719,1441.5859 729.9688,1441.3828 Q729.7656,1441.1953 729.6563,1440.6797 Q729.6094,1440.3203 729.4219,1440.1328 Q729.0938,1439.7578 728.4844,1439.5391 Q727.875,1439.3203 727.25,1439.3203 Q726.4844,1439.3203 725.8438,1439.6484 Q725.2188,1439.9766 724.7188,1440.7266 Q724.2344,1441.4766 724.2344,1442.5078 L724.2344,1443.6016 Q724.2344,1444.8359 725.125,1445.6641 Q726.0156,1446.4766 727.6094,1446.4766 Q728.5469,1446.4766 729.2031,1446.2266 Q729.5938,1446.0703 730.0156,1445.6328 Q730.2813,1445.3672 730.4219,1445.2891 Q730.5781,1445.2109 730.7813,1445.2109 Q731.1094,1445.2109 731.3594,1445.4766 Q731.625,1445.7266 731.625,1446.0703 Q731.625,1446.4141 731.2813,1446.8203 Q730.7813,1447.3984 729.9844,1447.7266 Q728.9063,1448.1797 727.6094,1448.1797 Q726.0938,1448.1797 724.8906,1447.5547 Q723.9063,1447.0547 723.2188,1445.9922 Q722.5313,1444.9141 722.5313,1443.6328 L722.5313,1442.4766 Q722.5313,1441.1484 723.1406,1440.0078 Q723.7656,1438.8516 724.8594,1438.2422 Q725.9531,1437.6172 727.1875,1437.6172 Q727.9219,1437.6172 728.5625,1437.7891 Q729.2188,1437.9453 729.7656,1438.3047 Z " fill="#000000"/><ellipse cx="746" cy="1441.9297" fill="#84BE84" rx="3" ry="3" style="stroke:#038048;stroke-width:1;"/><text fill="#000000" font-family="sans-serif" font-size="14" lengthAdjust="spacing" textLength="16.3516" x="759.7793" y="1429.6055">&lt;&lt;</text><text fill="#000000" filter="url(#b135rlyo2dklng0)" font-family="sans-serif" font-size="14" lengthAdjust="spacing" textLength="161.0889" x="776.1309" y="1429.6055">JsonSerializer&lt;Calendar&gt;</text><text fill="#000000" font-family="sans-serif" font-size="14" lengthAdjust="spacing" textLength="16.3516" x="937.2197" y="1429.6055">&gt;&gt;</text><text fill="#000000" font-family="sans-serif" font-size="14" lengthAdjust="spacing" textLength="16.3516" x="752" y="1448.2266">&lt;&lt;</text><text fill="#000000" filter="url(#b135rlyo2dklng0)" font-family="sans-serif" font-size="14" lengthAdjust="spacing" textLength="176.6475" x="768.3516" y="1448.2266">JsonDeserializer&lt;Calendar&gt;</text><text fill="#000000" font-family="sans-serif" font-size="14" lengthAdjust="spacing" textLength="16.3516" x="944.999" y="1448.2266">&gt;&gt;</text><text fill="#000000" font-family="sans-serif" font-size="14" lengthAdjust="spacing" textLength="135.4199" x="788.9653" y="1466.8477">CalendarJsonAdapter</text><line style="stroke:#D4AC0D;stroke-width:2;" x1="713" x2="963.3506" y1="1475.3613" y2="1475.3613"/><line style="stroke:#D4AC0D;stroke-width:2;" x1="713" x2="963.3506" y1="1483.3613" y2="1483.3613"/><text fill="#000000" font-family="sans-serif" font-size="14" lengthAdjust="spacing" textLength="11.6689" x="718" y="1502.4688">...</text></g><!--class ByteBufferJsonAdapter--><g class="entity" data-entity="ByteBufferJsonAdapter" data-source-line="171" data-uid="ent0020" id="entity_ByteBufferJsonAdapter"><rect fill="#FEFECE" height="100.4844" rx="2.5" ry="2.5" style="stroke:#D4AC0D;stroke-width:2;" width="260.9023" x="999.5" y="1409.498"/><ellipse cx="1014.5" cy="1442.4297" fill="#ADD1B2" rx="11" ry="11" style="stroke:#ADD1B2;stroke-width:1;"/><path d="M1017.2656,1438.3047 Q1017.4219,1438.0859 1017.6094,1437.9766 Q1017.7969,1437.8672 1018.0156,1437.8672 Q1018.3906,1437.8672 1018.625,1438.1328 Q1018.8594,1438.3828 1018.8594,1438.9922 L1018.8594,1440.4453 Q1018.8594,1441.0547 1018.625,1441.3203 Q1018.3906,1441.5859 1018.0156,1441.5859 Q1017.6719,1441.5859 1017.4688,1441.3828 Q1017.2656,1441.1953 1017.1563,1440.6797 Q1017.1094,1440.3203 1016.9219,1440.1328 Q1016.5938,1439.7578 1015.9844,1439.5391 Q1015.375,1439.3203 1014.75,1439.3203 Q1013.9844,1439.3203 1013.3438,1439.6484 Q1012.7188,1439.9766 1012.2188,1440.7266 Q1011.7344,1441.4766 1011.7344,1442.5078 L1011.7344,1443.6016 Q1011.7344,1444.8359 1012.625,1445.6641 Q1013.5156,1446.4766 1015.1094,1446.4766 Q1016.0469,1446.4766 1016.7031,1446.2266 Q1017.0938,1446.0703 1017.5156,1445.6328 Q1017.7813,1445.3672 1017.9219,1445.2891 Q1018.0781,1445.2109 1018.2813,1445.2109 Q1018.6094,1445.2109 1018.8594,1445.4766 Q1019.125,1445.7266 1019.125,1446.0703 Q1019.125,1446.4141 1018.7813,1446.8203 Q1018.2813,1447.3984 1017.4844,1447.7266 Q1016.4063,1448.1797 1015.1094,1448.1797 Q1013.5938,1448.1797 1012.3906,1447.5547 Q1011.4063,1447.0547 1010.7188,1445.9922 Q1010.0313,1444.9141 1010.0313,1443.6328 L1010.0313,1442.4766 Q1010.0313,1441.1484 1010.6406,1440.0078 Q1011.2656,1438.8516 1012.3594,1438.2422 Q1013.4531,1437.6172 1014.6875,1437.6172 Q1015.4219,1437.6172 1016.0625,1437.7891 Q1016.7188,1437.9453 1017.2656,1438.3047 Z " fill="#000000"/><ellipse cx="1033.5" cy="1441.9297" fill="#84BE84" rx="3" ry="3" style="stroke:#038048;stroke-width:1;"/><text fill="#000000" font-family="sans-serif" font-size="14" lengthAdjust="spacing" textLength="16.3516" x="1047.2793" y="1429.6055">&lt;&lt;</text><text fill="#000000" filter="url(#b135rlyo2dklng0)" font-family="sans-serif" font-size="14" lengthAdjust="spacing" textLength="169.6406" x="1063.6309" y="1429.6055">JsonSerializer&lt;ByteBuffer&gt;</text><text fill="#000000" font-family="sans-serif" font-size="14" lengthAdjust="spacing" textLength="16.3516" x="1233.2715" y="1429.6055">&gt;&gt;</text><text fill="#000000" font-family="sans-serif" font-size="14" lengthAdjust="spacing" textLength="16.3516" x="1039.5" y="1448.2266">&lt;&lt;</text><text fill="#000000" filter="url(#b135rlyo2dklng0)" font-family="sans-serif" font-size="14" lengthAdjust="spacing" textLength="185.1992" x="1055.8516" y="1448.2266">JsonDeserializer&lt;ByteBuffer&gt;</text><text fill="#000000" font-family="sans-serif" font-size="14" lengthAdjust="spacing" textLength="16.3516" x="1241.0508" y="1448.2266">&gt;&gt;</text><text fill="#0000FF" font-family="sans-serif" font-size="14" lengthAdjust="spacing" textLength="143.9717" x="1076.4653" y="1466.8477">ByteBufferJsonAdapter</text><line style="stroke:#D4AC0D;stroke-width:2;" x1="1000.5" x2="1259.4023" y1="1475.3613" y2="1475.3613"/><line style="stroke:#D4AC0D;stroke-width:2;" x1="1000.5" x2="1259.4023" y1="1483.3613" y2="1483.3613"/><text fill="#000000" font-family="sans-serif" font-size="14" lengthAdjust="spacing" textLength="11.6689" x="1005.5" y="1502.4688">...</text></g><!--class LoggerFactory--><g class="entity" data-entity="LoggerFactory" data-source-line="177" data-uid="ent0022" id="entity_LoggerFactory"><rect fill="#FEFECE" height="85.2422" rx="2.5" ry="2.5" style="stroke:#D4AC0D;stroke-width:2;" width="289.7852" x="1532" y="275.998"/><ellipse cx="1605.6738" cy="291.998" fill="#ADD1B2" rx="11" ry="11" style="stroke:#ADD1B2;stroke-width:1;"/><path d="M1608.4395,287.873 Q1608.5957,287.6543 1608.7832,287.5449 Q1608.9707,287.4355 1609.1895,287.4355 Q1609.5645,287.4355 1609.7988,287.7012 Q1610.0332,287.9512 1610.0332,288.5605 L1610.0332,290.0137 Q1610.0332,290.623 1609.7988,290.8887 Q1609.5645,291.1543 1609.1895,291.1543 Q1608.8457,291.1543 1608.6426,290.9512 Q1608.4395,290.7637 1608.3301,290.248 Q1608.2832,289.8887 1608.0957,289.7012 Q1607.7676,289.3262 1607.1582,289.1074 Q1606.5488,288.8887 1605.9238,288.8887 Q1605.1582,288.8887 1604.5176,289.2168 Q1603.8926,289.5449 1603.3926,290.2949 Q1602.9082,291.0449 1602.9082,292.0762 L1602.9082,293.1699 Q1602.9082,294.4043 1603.7988,295.2324 Q1604.6895,296.0449 1606.2832,296.0449 Q1607.2207,296.0449 1607.877,295.7949 Q1608.2676,295.6387 1608.6895,295.2012 Q1608.9551,294.9355 1609.0957,294.8574 Q1609.252,294.7793 1609.4551,294.7793 Q1609.7832,294.7793 1610.0332,295.0449 Q1610.2988,295.2949 1610.2988,295.6387 Q1610.2988,295.9824 1609.9551,296.3887 Q1609.4551,296.9668 1608.6582,297.2949 Q1607.5801,297.748 1606.2832,297.748 Q1604.7676,297.748 1603.5645,297.123 Q1602.5801,296.623 1601.8926,295.5605 Q1601.2051,294.4824 1601.2051,293.2012 L1601.2051,292.0449 Q1601.2051,290.7168 1601.8145,289.5762 Q1602.4395,288.4199 1603.5332,287.8105 Q1604.627,287.1855 1605.8613,287.1855 Q1606.5957,287.1855 1607.2363,287.3574 Q1607.8926,287.5137 1608.4395,287.873 Z " fill="#000000"/><ellipse cx="1631.1738" cy="291.498" fill="#84BE84" rx="3" ry="3" style="stroke:#038048;stroke-width:1;"/><text fill="#0000FF" font-family="sans-serif" font-size="14" font-weight="bold" lengthAdjust="spacing" textLength="28.7793" x="1637.1738" y="297.7949">final</text><text fill="#0000FF" font-family="sans-serif" font-size="14" lengthAdjust="spacing" textLength="90.2686" x="1669.8428" y="297.7949">LoggerFactory</text><line style="stroke:#D4AC0D;stroke-width:2;" x1="1533" x2="1820.7852" y1="307.998" y2="307.998"/><line style="stroke:#D4AC0D;stroke-width:2;" x1="1533" x2="1820.7852" y1="315.998" y2="315.998"/><ellipse cx="1543" cy="330.8086" fill="#84BE84" rx="3" ry="3" style="stroke:#038048;stroke-width:1;"/><text fill="#0000FF" font-family="sans-serif" font-size="14" lengthAdjust="spacing" text-decoration="underline" textLength="263.7852" x="1552" y="335.1055">void setProvider (LoggerProvider provider)</text><ellipse cx="1543" cy="349.4297" fill="#84BE84" rx="3" ry="3" style="stroke:#038048;stroke-width:1;"/><text fill="#0000FF" font-family="sans-serif" font-size="14" lengthAdjust="spacing" text-decoration="underline" textLength="214.792" x="1552" y="353.7266">Logger getLogger(Class&lt;?&gt; clazz)</text></g><!--class Logger--><g class="entity" data-entity="Logger" data-source-line="181" data-uid="ent0023" id="entity_Logger"><rect fill="#FEFECE" height="308.6953" rx="2.5" ry="2.5" style="stroke:#D4AC0D;stroke-width:2;" width="425.1709" x="1671.5" y="597.998"/><ellipse cx="1852.5391" cy="613.998" fill="#B4A7E5" rx="11" ry="11" style="stroke:#B4A7E5;stroke-width:1;"/><path d="M1853.4922,610.6387 L1853.4922,617.2949 L1855.2109,617.2949 Q1855.8203,617.2949 1856.0859,617.5293 Q1856.3516,617.7637 1856.3516,618.1543 Q1856.3516,618.5293 1856.0859,618.7637 Q1855.8203,618.998 1855.2109,618.998 L1850.0703,618.998 Q1849.4609,618.998 1849.1953,618.7637 Q1848.9297,618.5293 1848.9297,618.1387 Q1848.9297,617.7637 1849.1953,617.5293 Q1849.4609,617.2949 1850.0703,617.2949 L1851.7891,617.2949 L1851.7891,610.6387 L1850.0703,610.6387 Q1849.4609,610.6387 1849.1953,610.4043 Q1848.9297,610.1699 1848.9297,609.7793 Q1848.9297,609.4043 1849.1953,609.1699 Q1849.4609,608.9355 1850.0703,608.9355 L1855.2109,608.9355 Q1855.8203,608.9355 1856.0859,609.1699 Q1856.3516,609.4043 1856.3516,609.7793 Q1856.3516,610.1699 1856.0859,610.4043 Q1855.8203,610.6387 1855.2109,610.6387 L1853.4922,610.6387 Z " fill="#000000"/><ellipse cx="1878.0391" cy="613.498" fill="#84BE84" rx="3" ry="3" style="stroke:#038048;stroke-width:1;"/><text fill="#0000FF" font-family="sans-serif" font-size="14" font-style="italic" lengthAdjust="spacing" textLength="43.5928" x="1884.0391" y="619.7949">Logger</text><line style="stroke:#D4AC0D;stroke-width:2;" x1="1672.5" x2="2095.6709" y1="629.998" y2="629.998"/><line style="stroke:#D4AC0D;stroke-width:2;" x1="1672.5" x2="2095.6709" y1="637.998" y2="637.998"/><ellipse cx="1682.5" cy="652.8086" fill="#84BE84" rx="3" ry="3" style="stroke:#038048;stroke-width:1;"/><text fill="#0000FF" font-family="sans-serif" font-size="14" lengthAdjust="spacing" textLength="164.2061" x="1691.5" y="657.1055">boolean isTraceEnabled ()</text><ellipse cx="1682.5" cy="671.4297" fill="#84BE84" rx="3" ry="3" style="stroke:#038048;stroke-width:1;"/><text fill="#0000FF" font-family="sans-serif" font-size="14" lengthAdjust="spacing" textLength="169.6748" x="1691.5" y="675.7266">boolean isDebugEnabled ()</text><ellipse cx="1682.5" cy="690.0508" fill="#84BE84" rx="3" ry="3" style="stroke:#038048;stroke-width:1;"/><text fill="#0000FF" font-family="sans-serif" font-size="14" lengthAdjust="spacing" textLength="151.7715" x="1691.5" y="694.3477">boolean isInfoEnabled ()</text><ellipse cx="1682.5" cy="708.6719" fill="#84BE84" rx="3" ry="3" style="stroke:#038048;stroke-width:1;"/><text fill="#0000FF" font-family="sans-serif" font-size="14" lengthAdjust="spacing" textLength="161.8682" x="1691.5" y="712.9688">boolean isWarnEnabled ()</text><ellipse cx="1682.5" cy="727.293" fill="#84BE84" rx="3" ry="3" style="stroke:#038048;stroke-width:1;"/><text fill="#0000FF" font-family="sans-serif" font-size="14" lengthAdjust="spacing" textLength="159.5303" x="1691.5" y="731.5898">boolean isErrorEnabled ()</text><text fill="#000000" font-family="sans-serif" font-size="14" lengthAdjust="spacing" textLength="3.8896" x="1691.5" y="750.2109">&#160;</text><ellipse cx="1682.5" cy="764.5352" fill="#84BE84" rx="3" ry="3" style="stroke:#038048;stroke-width:1;"/><text fill="#0000FF" font-family="sans-serif" font-size="14" lengthAdjust="spacing" textLength="262.2129" x="1691.5" y="768.832">void trace (String message, Object... args)</text><ellipse cx="1682.5" cy="783.1563" fill="#84BE84" rx="3" ry="3" style="stroke:#038048;stroke-width:1;"/><text fill="#0000FF" font-family="sans-serif" font-size="14" lengthAdjust="spacing" textLength="270.0195" x="1691.5" y="787.4531">void debug (String message, Object... args)</text><ellipse cx="1682.5" cy="801.7773" fill="#84BE84" rx="3" ry="3" style="stroke:#038048;stroke-width:1;"/><text fill="#0000FF" font-family="sans-serif" font-size="14" lengthAdjust="spacing" textLength="253.6611" x="1691.5" y="806.0742">void info (String message, Object... args)</text><ellipse cx="1682.5" cy="820.3984" fill="#84BE84" rx="3" ry="3" style="stroke:#038048;stroke-width:1;"/><text fill="#0000FF" font-family="sans-serif" font-size="14" lengthAdjust="spacing" textLength="261.4336" x="1691.5" y="824.6953">void warn (String message, Object... args)</text><ellipse cx="1682.5" cy="839.0195" fill="#84BE84" rx="3" ry="3" style="stroke:#038048;stroke-width:1;"/><text fill="#0000FF" font-family="sans-serif" font-size="14" lengthAdjust="spacing" textLength="260.6475" x="1691.5" y="843.3164">void error (String message, Object... args)</text><text fill="#000000" font-family="sans-serif" font-size="14" lengthAdjust="spacing" textLength="3.8896" x="1691.5" y="861.9375">&#160;</text><ellipse cx="1682.5" cy="876.2617" fill="#84BE84" rx="3" ry="3" style="stroke:#038048;stroke-width:1;"/><text fill="#0000FF" font-family="sans-serif" font-size="14" lengthAdjust="spacing" textLength="399.1709" x="1691.5" y="880.5586">void warn (String message, Throwable throwable, Object... args)</text><ellipse cx="1682.5" cy="894.8828" fill="#84BE84" rx="3" ry="3" style="stroke:#038048;stroke-width:1;"/><text fill="#0000FF" font-family="sans-serif" font-size="14" lengthAdjust="spacing" textLength="398.3848" x="1691.5" y="899.1797">void error (String message, Throwable throwable, Object... args)</text></g><!--class LoggerProvider--><g class="entity" data-entity="LoggerProvider" data-source-line="198" data-uid="ent0025" id="entity_LoggerProvider"><rect fill="#FEFECE" height="66.6211" rx="2.5" ry="2.5" style="stroke:#D4AC0D;stroke-width:2;" width="259.4541" x="1891.5" y="284.998"/><ellipse cx="1963.6152" cy="300.998" fill="#B4A7E5" rx="11" ry="11" style="stroke:#B4A7E5;stroke-width:1;"/><path d="M1964.5684,297.6387 L1964.5684,304.2949 L1966.2871,304.2949 Q1966.8965,304.2949 1967.1621,304.5293 Q1967.4277,304.7637 1967.4277,305.1543 Q1967.4277,305.5293 1967.1621,305.7637 Q1966.8965,305.998 1966.2871,305.998 L1961.1465,305.998 Q1960.5371,305.998 1960.2715,305.7637 Q1960.0059,305.5293 1960.0059,305.1387 Q1960.0059,304.7637 1960.2715,304.5293 Q1960.5371,304.2949 1961.1465,304.2949 L1962.8652,304.2949 L1962.8652,297.6387 L1961.1465,297.6387 Q1960.5371,297.6387 1960.2715,297.4043 Q1960.0059,297.1699 1960.0059,296.7793 Q1960.0059,296.4043 1960.2715,296.1699 Q1960.5371,295.9355 1961.1465,295.9355 L1966.2871,295.9355 Q1966.8965,295.9355 1967.1621,296.1699 Q1967.4277,296.4043 1967.4277,296.7793 Q1967.4277,297.1699 1967.1621,297.4043 Q1966.8965,297.6387 1966.2871,297.6387 L1964.5684,297.6387 Z " fill="#000000"/><ellipse cx="1989.1152" cy="300.498" fill="#84BE84" rx="3" ry="3" style="stroke:#038048;stroke-width:1;"/><text fill="#0000FF" font-family="sans-serif" font-size="14" font-style="italic" lengthAdjust="spacing" textLength="95.7236" x="1995.1152" y="306.7949">LoggerProvider</text><line style="stroke:#D4AC0D;stroke-width:2;" x1="1892.5" x2="2149.9541" y1="316.998" y2="316.998"/><line style="stroke:#D4AC0D;stroke-width:2;" x1="1892.5" x2="2149.9541" y1="324.998" y2="324.998"/><ellipse cx="1902.5" cy="339.8086" fill="#84BE84" rx="3" ry="3" style="stroke:#038048;stroke-width:1;"/><text fill="#0000FF" font-family="sans-serif" font-size="14" lengthAdjust="spacing" textLength="233.4541" x="1911.5" y="344.1055">Logger getLogger (String className)</text></g><!--class ContactCardCommonProtocol--><g class="entity" data-entity="ContactCardCommonProtocol" data-source-line="204" data-uid="ent0027" id="entity_ContactCardCommonProtocol"><rect fill="#FEFECE" height="122.4844" rx="2.5" ry="2.5" style="stroke:#D4AC0D;stroke-width:2;" width="327.8477" x="1148" y="257.498"/><ellipse cx="1208.8018" cy="273.498" fill="#EB937F" rx="11" ry="11" style="stroke:#EB93DF;stroke-width:1;"/><path d="M1207.6611,274.2949 L1207.6611,276.7949 L1211.9893,276.7949 L1211.9893,275.873 Q1211.9893,275.2637 1212.2236,274.998 Q1212.4736,274.7324 1212.8486,274.7324 Q1213.2236,274.7324 1213.458,274.998 Q1213.6924,275.2637 1213.6924,275.873 L1213.6924,278.498 L1205.6924,278.498 Q1205.0674,278.498 1204.8018,278.2637 Q1204.5518,278.0293 1204.5518,277.6387 Q1204.5518,277.2637 1204.8174,277.0293 Q1205.083,276.7949 1205.6924,276.7949 L1205.958,276.7949 L1205.958,270.1387 L1205.6924,270.1387 Q1205.0674,270.1387 1204.8018,269.9043 Q1204.5518,269.6699 1204.5518,269.2793 Q1204.5518,268.9043 1204.8018,268.6699 Q1205.0674,268.4355 1205.6924,268.4355 L1213.3174,268.4355 L1213.3174,271.0293 Q1213.3174,271.6387 1213.083,271.9043 Q1212.8643,272.1543 1212.4736,272.1543 Q1212.0986,272.1543 1211.8643,271.9043 Q1211.6299,271.6387 1211.6299,271.0293 L1211.6299,270.1387 L1207.6611,270.1387 L1207.6611,272.5918 L1209.1455,272.5918 Q1209.1455,271.9355 1209.2705,271.748 Q1209.5361,271.3418 1210.0049,271.3418 Q1210.3799,271.3418 1210.6143,271.6074 Q1210.8486,271.8574 1210.8486,272.4668 L1210.8486,274.4355 Q1210.8486,274.9824 1210.7236,275.1699 Q1210.458,275.5605 1210.0049,275.5605 Q1209.5361,275.5605 1209.2705,275.1543 Q1209.1455,274.9668 1209.1455,274.2949 L1207.6611,274.2949 Z " fill="#000000"/><ellipse cx="1234.3018" cy="272.998" fill="#84BE84" rx="3" ry="3" style="stroke:#038048;stroke-width:1;"/><text fill="#000000" font-family="sans-serif" font-size="14" lengthAdjust="spacing" text-decoration="line-through" textLength="186.7441" x="1240.3018" y="279.2949">ContactCardCommonProtocol</text><line style="stroke:#D4AC0D;stroke-width:2;" x1="1149" x2="1474.8477" y1="289.498" y2="289.498"/><text fill="#000000" font-family="sans-serif" font-size="14" lengthAdjust="spacing" text-decoration="line-through" textLength="78.6201" x="1154" y="308.6055">ISO_7816_3</text><text fill="#000000" font-family="sans-serif" font-size="14" lengthAdjust="spacing" text-decoration="line-through" textLength="105.8477" x="1154" y="327.2266">ISO_7816_3_TO</text><text fill="#000000" font-family="sans-serif" font-size="14" lengthAdjust="spacing" text-decoration="line-through" textLength="102.7441" x="1154" y="345.8477">ISO_7816_3_T1</text><text fill="#000000" font-family="sans-serif" font-size="14" lengthAdjust="spacing" text-decoration="line-through" textLength="315.8477" x="1154" y="364.4688">INNOVATRON_HIGH_SPEED_PROTOCOL_SAM</text><line style="stroke:#D4AC0D;stroke-width:2;" x1="1149" x2="1474.8477" y1="371.9824" y2="371.9824"/></g><!--class ContactlessCardCommonProtocol--><g class="entity" data-entity="ContactlessCardCommonProtocol" data-source-line="210" data-uid="ent0028" id="entity_ContactlessCardCommonProtocol"><rect fill="#FEFECE" height="159.7266" rx="2.5" ry="2.5" style="stroke:#D4AC0D;stroke-width:2;" width="254.6406" x="857.5" y="238.498"/><ellipse cx="872.5" cy="254.498" fill="#EB937F" rx="11" ry="11" style="stroke:#EB93DF;stroke-width:1;"/><path d="M871.3594,255.2949 L871.3594,257.7949 L875.6875,257.7949 L875.6875,256.873 Q875.6875,256.2637 875.9219,255.998 Q876.1719,255.7324 876.5469,255.7324 Q876.9219,255.7324 877.1563,255.998 Q877.3906,256.2637 877.3906,256.873 L877.3906,259.498 L869.3906,259.498 Q868.7656,259.498 868.5,259.2637 Q868.25,259.0293 868.25,258.6387 Q868.25,258.2637 868.5156,258.0293 Q868.7813,257.7949 869.3906,257.7949 L869.6563,257.7949 L869.6563,251.1387 L869.3906,251.1387 Q868.7656,251.1387 868.5,250.9043 Q868.25,250.6699 868.25,250.2793 Q868.25,249.9043 868.5,249.6699 Q868.7656,249.4355 869.3906,249.4355 L877.0156,249.4355 L877.0156,252.0293 Q877.0156,252.6387 876.7813,252.9043 Q876.5625,253.1543 876.1719,253.1543 Q875.7969,253.1543 875.5625,252.9043 Q875.3281,252.6387 875.3281,252.0293 L875.3281,251.1387 L871.3594,251.1387 L871.3594,253.5918 L872.8438,253.5918 Q872.8438,252.9355 872.9688,252.748 Q873.2344,252.3418 873.7031,252.3418 Q874.0781,252.3418 874.3125,252.6074 Q874.5469,252.8574 874.5469,253.4668 L874.5469,255.4355 Q874.5469,255.9824 874.4219,256.1699 Q874.1563,256.5605 873.7031,256.5605 Q873.2344,256.5605 872.9688,256.1543 Q872.8438,255.9668 872.8438,255.2949 L871.3594,255.2949 Z " fill="#000000"/><ellipse cx="891.5" cy="253.998" fill="#84BE84" rx="3" ry="3" style="stroke:#038048;stroke-width:1;"/><text fill="#000000" font-family="sans-serif" font-size="14" lengthAdjust="spacing" text-decoration="line-through" textLength="211.6406" x="897.5" y="260.2949">ContactlessCardCommonProtocol</text><line style="stroke:#D4AC0D;stroke-width:2;" x1="858.5" x2="1111.1406" y1="270.498" y2="270.498"/><text fill="#000000" font-family="sans-serif" font-size="14" lengthAdjust="spacing" text-decoration="line-through" textLength="86.4063" x="863.5" y="289.6055">ISO_14443_4</text><text fill="#000000" font-family="sans-serif" font-size="14" lengthAdjust="spacing" text-decoration="line-through" textLength="149.4268" x="863.5" y="308.2266">NFC_A_ISO_14443_3A</text><text fill="#000000" font-family="sans-serif" font-size="14" lengthAdjust="spacing" text-decoration="line-through" textLength="149.4268" x="863.5" y="326.8477">NFC_B_ISO_14443_3B</text><text fill="#000000" font-family="sans-serif" font-size="14" lengthAdjust="spacing" text-decoration="line-through" textLength="127.627" x="863.5" y="345.4688">NFC_F_JIS_6319_4</text><text fill="#000000" font-family="sans-serif" font-size="14" lengthAdjust="spacing" text-decoration="line-through" textLength="124.5166" x="863.5" y="364.0898">NFC_V_ISO_15693</text><text fill="#000000" font-family="sans-serif" font-size="14" lengthAdjust="spacing" text-decoration="line-through" textLength="210.041" x="863.5" y="382.7109">INNOVATRON_B_PRIME_CARD</text><line style="stroke:#D4AC0D;stroke-width:2;" x1="858.5" x2="1111.1406" y1="390.2246" y2="390.2246"/></g><!--link LoggerFactory to LoggerProvider--><g class="link" data-entity-1="LoggerFactory" data-entity-2="LoggerProvider" data-source-line="223" data-uid="lnk29" id="link_LoggerFactory_LoggerProvider"><path codeLine="223" d="M1822.39,318.498 C1845.31,318.498 1862.88,318.498 1885.41,318.498" fill="none" id="LoggerFactory-to-LoggerProvider" style="stroke:#27AE60;stroke-width:2;stroke-dasharray:7,7;"/><polygon fill="#27AE60" points="1891.41,318.498,1882.41,314.498,1886.41,318.498,1882.41,322.498,1891.41,318.498" style="stroke:#27AE60;stroke-width:2;"/><polygon fill="#000000" points="1849.25,306.1436,1840.2049,303.2046,1840.2049,309.0825,1849.25,306.1436" style="stroke:#000000;stroke-width:1;"/><text fill="#000000" font-family="sans-serif" font-size="13" lengthAdjust="spacing" textLength="20.96" x="1853.25" y="311.5264">use</text></g><!--link LoggerFactory to Logger--><g class="link" data-entity-1="LoggerFactory" data-entity-2="Logger" data-source-line="224" data-uid="lnk30" id="link_LoggerFactory_Logger"><path codeLine="224" d="M1697.04,361.308 C1723.06,415.628 1767.3374,508.0371 1807.6374,592.1471" fill="none" id="LoggerFactory-to-Logger" style="stroke:#3498DB;stroke-width:2;stroke-dasharray:7,7;"/><polygon fill="#3498DB" points="1810.23,597.558,1809.9484,587.7132,1808.0695,593.0489,1802.7338,591.17,1810.23,597.558" style="stroke:#3498DB;stroke-width:2;"/><polygon fill="#000000" points="1775.1604,507.6527,1773.9026,498.2257,1768.6018,500.7654,1775.1604,507.6527" style="stroke:#000000;stroke-width:1;"/><text fill="#000000" font-family="sans-serif" font-size="13" lengthAdjust="spacing" textLength="42.6372" x="1782" y="508.5264">provide</text></g><!--link LoggerProvider to Logger--><g class="link" data-entity-1="LoggerProvider" data-entity-2="Logger" data-source-line="226" data-uid="lnk31" id="link_LoggerProvider_Logger"><path codeLine="226" d="M2010.59,352.318 C1994.11,404.308 1962.7733,503.0886 1934.5433,592.1286" fill="none" id="LoggerProvider-to-Logger" style="stroke:#3498DB;stroke-width:2;stroke-dasharray:7,7;"/><polygon fill="#3498DB" points="1932.73,597.848,1939.263,590.4778,1934.2411,593.0819,1931.6371,588.06,1932.73,597.848" style="stroke:#3498DB;stroke-width:2;"/><polygon fill="#000000" points="1967.4886,507.9097,1973.0242,500.1761,1967.4213,498.3993,1967.4886,507.9097" style="stroke:#000000;stroke-width:1;"/><text fill="#000000" font-family="sans-serif" font-size="13" lengthAdjust="spacing" textLength="42.6372" x="1978" y="508.5264">provide</text></g><!--link ByteArrayUtil to JsonUtil--><!--link Assert to ByteArrayUtil--><!--link Assert to ApduUtil--><!--link Assert to BerTlvUtil--><!--SRC=[lLfjSzgu5lxEhz1jFcoI1f80IPeConsmJSjk6ZA1TgUpk-CHM80ROx6Id8Hsyj_tI9PVCJYqDvTFyj5pNdMET6GZNE6H2eBVxsIrz0Ygedirg0R2zQfVyGEkUkuOoFNQMUqjsg-VrC-h9wVL-ib1XVWE4af0vHVqwwzezC7wQC407WqQU2HW7BcS1uGZXw0hD1TYoQ-EZ-TYuKseHzc4EeJN9dHnF6N70eyzWeEgGwgJaBk014FkplpgqiFYkF8VXqnTdo33VdzdVJb5lNUzozvbZbn7lNglqMlco0radLaNLXxTHEQ5sJND7FaC6HsZPzPpv7FKDOs6SP4YN_TlVaUDvkKxivkYVXfQg7xHiSvFPAogLJGKAm_Y8kPO88VwlmZqIDazUdJ57Fda4JqGnbtg8pf5uAilWeK7R1L-x_fBpF02SK4OeMAr99qkPGvXXemeskjSceRPAmJsCy1kitDXdHK2ZQn4qppjrWk1LWPeTIyRe5hvPzsOqjuKb-5XpaFyQEvExdt2EKgBxJ167zDJ8EaByJpwk2O5J-vdZ0Q-epNth9vbMCNADCHiTemJ4qJU4QT4Ngl5YDDkWrZJCYrZYzWOQLqq8GygSnSIFI8cOGAjjm63gYfLl5GmfRjf6RsBhReJy3khsUoOaVgOdh5Wx0Nb-YL8-TFjdVMwMxL7K9thMhUcPZI_PuJufQfd4gLqN_OkhDvMtJ5MrvHM7f7psbSlKRvIkZkGHrQPRWMj6mthBArwbTKSxed6u6PatOpKhkYHcTeowLBjkBQj978KqcqRNIdw8SnOJo38nnxgtFOH8rEGway8Jp27g3K69wvMga3QXuUmYzPcbCuyKfFRQct6gNzus3gMgBRQgaCrbSeIA7X6q1lAPZKoyTmb9xLmrmTMHcfowt-3C4ToWBuhXMydCX3epU4Xx6ZO0_qTpWaJ2XSEDLAXltE1XJjvZgPcHFHze84JQF-WaW3rl4_5JU1vQ7ym_aec0j7nroFO8vdhpv2F5-IWYCDQBCKAxMlOBYmGU0_Km0RR-czx9yxnIf0__tu1Yyj7B01dkvJ26UQZ2VKTLseiuOD4mh3s0sRz4y3wx_Tz0Ul6a1yineGT8TSNQE7wdp4KMga9MsGyl4X0tx_3FkHAYHdg2J-zpAWFv4aZegMRawS2hkSDYTU59O2p0gy-HNcQeHIceLusyYGOdWY9v_5QSZO9FHYxOZ2TSYB2Ht-iS0Sl5UTHC3yM5dCNiFCvXKXexg5wM3E6AakAbCjPpGkhieapOyKH6kiqTFaG-YVY50bM3cZ9rtByew8BP3zGru4QMAxMWgLrG6CdDYf9YspnTg8HCivr2XFg8CCH9HTb2-3uHZQmPBM4XaqPNG2yLBQW2XMvWmNEoPF-Y4Ug71hHzDADmq0MBdkECGpnxknpE1f_K7FC-eEwfpHWBrUzgUeXk76zwt5nfMTpOzFwvajPq7WJsR3I6GwDBuE6XIwehl7jO1NiC4JRWQfs10rBjCIzmkI4UzN1Yx3ob2X7Xbw-2AfFddAWyZ56RagApj89ugo87hOT0EF0zHpj6qWBTn-8FDUZvMaqg2Sx4vHo7uvjjU0UASwYEEiCp4apZZG6cmowM63VAV2a2rSXxs6ZpH_nigNFtSYODeAsb9EXkv2NzNWzlGU8NZ0H0IF9VhnaxW8wZWSoyBtLGPdyQvUBbbQYjUmcVtjKA7H_KW9nmYGGUDRFX2JgIhz2tvgEnjgQ_mQ0UCsZXnH7reHCb_mUqBeZbXtfhNIIoNwqc5UTMOpCNDdLZ-HDsy5B8JdKhK2sZWii9dD8MqKuoiYHlx-4xcTno9a4JrxqXy5OUPSvtpOKXNGqtHqdDZ_dOzMbpig2kpJB1oMPsBUU9cGfkr4ux_KeRuDM3N4ou3wn5gL40Y2IX_qjXhrfjJBB8Nqo2Io1gyvareeDREjLQhV_ycDY7XwsVfjcSyxRTkQnLgljPkSmiL8NISh4Ch_MEUB3Hc9rMcLRsTJ4wxaYjUtYI1ulduiy-ByOhmxLNQnVOr24lFrvukiveFVUNLmeOD6al1lhvDTpH7OYktYHnyldlFqvskiPFvep-YXVDASjYebviuecNiys4sVhJJvd8SgeTVBhcMHWZ_WEtYbhYtWYMZx01VJNtV-wmNIwMn5ku5AVDAxK2z04KRGxhitiwc2sO_BeR2PFwlMcAMrIqa1T0vwm7bpoALlfMajHybr3MaYsDO8xsosZ3wuZMw9GHloyr8E35mWBMMKV4OwIzWhy-FQjiAE07fAmAPwGh9UXW9HJsxn9sjCH0qcMB-lQMUjqYbbCCWvckx7q_IdTZUCFpFpTE5Glb6BPpAEMKBxhIMwn2y8vPDGH2ljCI3o4sOmVb0XnP2X-LeWBmVbP6OyGhf-LGS86kKp83raI7nxofKeu-X-PjvFaf8oYBOGltNoXR2smgCnJXHPN_lUrMz3RTG59iSU-g3th9lFEE6jiqTu7suoW83sz-H4_M83Hl0sNJW5xce6P8-_WrB_LwDOnRuU7pIP4pWiGrXyEx8jtf-TsO_ECFHficpnTcxov6NpkZEu6D_Q7_liFzl3Miapxzcum6XY3QtlO-LYqzUNzyo09odqiHXNxUTfiDXjsCpzrqpFiZfq06fqYH3UDw1OXUlPl_Q5ztZYzBDRnEPHmTdxPs1AnBWIg_z6oZSwTkPOZp_BpMuTpEd6nl9VoIYLxoDMOEvkBMZkVlNlXj_eh5722sdcc62znwal_LNJI0RYIarK6Lny8hpjV1f_2xuFPpnZLF-Ukun3_xshybgDIqHzHKdCPfeBvwArO4Mly-adRCXnzkGx_m17Lb_e2k1Vzl-BxSsQYfjxLx4L_iyZFnhMv4H5rBcM0cjoVzgB_RG3eNm00]--></g></svg>