<?xml version="1.0" encoding="us-ascii" standalone="no"?><svg xmlns="http://www.w3.org/2000/svg" xmlns:xlink="http://www.w3.org/1999/xlink" contentStyleType="text/css" height="1208.8px" preserveAspectRatio="none" style="width:1236px;height:1208px;background:#FFFFFF;" version="1.1" viewBox="0 0 1236 1208" width="1236px" zoomAndPan="magnify"><defs><filter height="1" id="bsqmuhl57mb2b0" width="1" x="0" y="0"><feFlood flood-color="#FFFF00" result="flood"/><feComposite in="SourceGraphic" in2="flood" operator="over"/></filter></defs><g><text fill="#000000" font-family="sans-serif" font-size="11.2" font-weight="bold" lengthAdjust="spacing" textLength="258.4" x="483.2" y="20.0859">Keyple - keyple-util-java-lib - 2.3.+ (2022-11-03)</text><rect fill="#DDDDDD" height="52.6906" id="_legend" rx="6" ry="6" style="stroke:#000000;stroke-width:0.8000000000000002;" width="148.8" x="538" y="41.2969"/><text fill="#000000" font-family="sans-serif" font-size="11.2" lengthAdjust="spacing" text-decoration="underline" textLength="70.4" x="542" y="57.3828">Colors legend</text><text fill="#000000" font-family="sans-serif" font-size="11.2" lengthAdjust="spacing" textLength="3.2" x="615.6" y="57.3828">:</text><ellipse cx="546.4" cy="69.0906" fill="#000000" rx="2" ry="2" style="stroke:#000000;stroke-width:0.0;"/><text fill="#000000" font-family="sans-serif" font-size="11.2" lengthAdjust="spacing" text-decoration="underline" textLength="118.4" x="551.6" y="72.2797">External API references</text><text fill="#000000" font-family="sans-serif" font-size="11.2" lengthAdjust="spacing" textLength="3.2" x="673.2" y="72.2797">:</text><rect fill="#000000" height="2.8" style="stroke:#000000;stroke-width:0.0;" width="2.8" x="549.2" y="81.9875"/><text fill="#000000" filter="url(#bsqmuhl57mb2b0)" font-family="sans-serif" font-size="11.2" font-weight="bold" lengthAdjust="spacing" textLength="128" x="554.8" y="87.1766">com.google.code.gson</text><!--cluster util--><g id="cluster_util"><path d="M6.8,109.1984 L160.4,109.1984 A3,3 0 0 1 162.4,111.1984 L168,128.8953 L1228.4,128.8953 A2,2 0 0 1 1230.4,130.8953 L1230.4,1201.5984 A2,2 0 0 1 1228.4,1203.5984 L6.8,1203.5984 A2,2 0 0 1 4.8,1201.5984 L4.8,111.1984 A2,2 0 0 1 6.8,109.1984 " fill="#F8F9F9" style="stroke:#000000;stroke-width:1.2000000000000002;"/><line style="stroke:#000000;stroke-width:1.2000000000000002;" x1="4.8" x2="168" y1="128.8953" y2="128.8953"/><text fill="#000000" font-family="sans-serif" font-size="11.2" font-weight="bold" lengthAdjust="spacing" textLength="152.8" x="8" y="122.8844">org.eclipse.keyple.core.util</text></g><!--cluster json--><g id="cluster_json"><path d="M40.4,773.1984 L65.2,773.1984 A3,3 0 0 1 67.2,775.1984 L72.8,792.8953 L1209.2,792.8953 A2,2 0 0 1 1211.2,794.8953 L1211.2,1182.3984 A2,2 0 0 1 1209.2,1184.3984 L40.4,1184.3984 A2,2 0 0 1 38.4,1182.3984 L38.4,775.1984 A2,2 0 0 1 40.4,773.1984 " fill="#F2F3F4" style="stroke:#000000;stroke-width:1.2000000000000002;"/><line style="stroke:#000000;stroke-width:1.2000000000000002;" x1="38.4" x2="72.8" y1="792.8953" y2="792.8953"/><text fill="#000000" font-family="sans-serif" font-size="11.2" font-weight="bold" lengthAdjust="spacing" textLength="24" x="41.6" y="786.8844">json</text></g><!--cluster protocol--><g id="cluster_protocol"><path d="M698.8,161.1984 L746.8,161.1984 A3,3 0 0 1 748.8,163.1984 L754.4,180.8953 L1209.2,180.8953 A2,2 0 0 1 1211.2,182.8953 L1211.2,329.5984 A2,2 0 0 1 1209.2,331.5984 L698.8,331.5984 A2,2 0 0 1 696.8,329.5984 L696.8,163.1984 A2,2 0 0 1 698.8,161.1984 " fill="#F2F3F4" style="stroke:#000000;stroke-width:1.2000000000000002;"/><line style="stroke:#000000;stroke-width:1.2000000000000002;" x1="696.8" x2="754.4" y1="180.8953" y2="180.8953"/><text fill="#000000" font-family="sans-serif" font-size="11.2" font-weight="bold" lengthAdjust="spacing" textLength="47.2" x="700" y="174.8844">protocol</text></g><!--class Assert--><g id="elem_Assert"><rect codeLine="60" fill="#FEFECE" height="202.2656" id="Assert" rx="2" ry="2" style="stroke:#D4AC0D;stroke-width:1.6000000000000003;" width="400" x="281.6" y="153.5984"/><ellipse cx="444.2" cy="166.3984" fill="#ADD1B2" rx="8.8" ry="8.8" style="stroke:#181818;stroke-width:0.8000000000000002;"/><path d="M446.4125,163.0984 Q446.5375,162.9234 446.6875,162.8359 Q446.8375,162.7484 447.0125,162.7484 Q447.3125,162.7484 447.5,162.9609 Q447.6875,163.1609 447.6875,163.6484 L447.6875,164.8109 Q447.6875,165.2984 447.5,165.5109 Q447.3125,165.7234 447.0125,165.7234 Q446.7375,165.7234 446.575,165.5609 Q446.4125,165.4109 446.325,164.9984 Q446.2875,164.7109 446.1375,164.5609 Q445.875,164.2609 445.3875,164.0859 Q444.9,163.9109 444.4,163.9109 Q443.7875,163.9109 443.275,164.1734 Q442.775,164.4359 442.375,165.0359 Q441.9875,165.6359 441.9875,166.4609 L441.9875,167.3359 Q441.9875,168.3234 442.7,168.9859 Q443.4125,169.6359 444.6875,169.6359 Q445.4375,169.6359 445.9625,169.4359 Q446.275,169.3109 446.6125,168.9609 Q446.825,168.7484 446.9375,168.6859 Q447.0625,168.6234 447.225,168.6234 Q447.4875,168.6234 447.6875,168.8359 Q447.9,169.0359 447.9,169.3109 Q447.9,169.5859 447.625,169.9109 Q447.225,170.3734 446.5875,170.6359 Q445.725,170.9984 444.6875,170.9984 Q443.475,170.9984 442.5125,170.4984 Q441.725,170.0984 441.175,169.2484 Q440.625,168.3859 440.625,167.3609 L440.625,166.4359 Q440.625,165.3734 441.1125,164.4609 Q441.6125,163.5359 442.4875,163.0484 Q443.3625,162.5484 444.35,162.5484 Q444.9375,162.5484 445.45,162.6859 Q445.975,162.8109 446.4125,163.0984 Z " fill="#000000"/><ellipse cx="464.6" cy="165.9984" fill="#84BE84" rx="2.4" ry="2.4" style="stroke:#038048;stroke-width:0.8000000000000002;"/><text fill="#000000" font-family="sans-serif" font-size="11.2" font-weight="bold" lengthAdjust="spacing" textLength="24" x="469.4" y="171.0359">final</text><text fill="#000000" font-family="sans-serif" font-size="11.2" lengthAdjust="spacing" textLength="32" x="496.6" y="171.0359">Assert</text><line style="stroke:#D4AC0D;stroke-width:1.6000000000000003;" x1="282.4" x2="680.8" y1="179.1984" y2="179.1984"/><line style="stroke:#D4AC0D;stroke-width:1.6000000000000003;" x1="282.4" x2="680.8" y1="185.5984" y2="185.5984"/><ellipse cx="290.4" cy="197.4469" fill="#84BE84" rx="2.4" ry="2.4" style="stroke:#038048;stroke-width:0.8000000000000002;"/><text fill="#000000" font-family="sans-serif" font-size="11.2" lengthAdjust="spacing" text-decoration="underline" textLength="104.8" x="297.6" y="200.8844">Assert getInstance ()</text><text fill="#000000" font-family="sans-serif" font-size="11.2" lengthAdjust="spacing" textLength="3.2" x="297.6" y="215.7813">&#160;</text><ellipse cx="290.4" cy="227.2406" fill="#84BE84" rx="2.4" ry="2.4" style="stroke:#038048;stroke-width:0.8000000000000002;"/><text fill="#000000" font-family="sans-serif" font-size="11.2" lengthAdjust="spacing" textLength="199.2" x="297.6" y="230.6781">Assert notNull (Object obj, String name)</text><ellipse cx="290.4" cy="242.1375" fill="#84BE84" rx="2.4" ry="2.4" style="stroke:#038048;stroke-width:0.8000000000000002;"/><text fill="#000000" font-family="sans-serif" font-size="11.2" lengthAdjust="spacing" textLength="208.8" x="297.6" y="245.575">Assert notEmpty (String obj, String name)</text><ellipse cx="290.4" cy="257.0344" fill="#84BE84" rx="2.4" ry="2.4" style="stroke:#038048;stroke-width:0.8000000000000002;"/><text fill="#000000" font-family="sans-serif" font-size="11.2" lengthAdjust="spacing" textLength="248" x="297.6" y="260.4719">Assert notEmpty (Collection&lt;?&gt; obj, String name)</text><ellipse cx="290.4" cy="271.9313" fill="#84BE84" rx="2.4" ry="2.4" style="stroke:#038048;stroke-width:0.8000000000000002;"/><text fill="#000000" font-family="sans-serif" font-size="11.2" lengthAdjust="spacing" textLength="207.2" x="297.6" y="275.3688">Assert notEmpty (byte[] obj, String name)</text><ellipse cx="290.4" cy="286.8281" fill="#84BE84" rx="2.4" ry="2.4" style="stroke:#038048;stroke-width:0.8000000000000002;"/><text fill="#000000" font-family="sans-serif" font-size="11.2" lengthAdjust="spacing" textLength="236" x="297.6" y="290.2656">Assert isTrue (Boolean condition, String name)</text><ellipse cx="290.4" cy="301.725" fill="#84BE84" rx="2.4" ry="2.4" style="stroke:#038048;stroke-width:0.8000000000000002;"/><text fill="#000000" font-family="sans-serif" font-size="11.2" lengthAdjust="spacing" textLength="336.8" x="297.6" y="305.1625">Assert greaterOrEqual (Integer number, int minValue, String name)</text><ellipse cx="290.4" cy="316.6219" fill="#84BE84" rx="2.4" ry="2.4" style="stroke:#038048;stroke-width:0.8000000000000002;"/><text fill="#000000" font-family="sans-serif" font-size="11.2" lengthAdjust="spacing" textLength="276" x="297.6" y="320.0594">Assert isEqual (Integer number, int value, String name)</text><ellipse cx="290.4" cy="331.5188" fill="#84BE84" rx="2.4" ry="2.4" style="stroke:#038048;stroke-width:0.8000000000000002;"/><text fill="#000000" font-family="sans-serif" font-size="11.2" lengthAdjust="spacing" textLength="379.2" x="297.6" y="334.9563">Assert isInRange (Integer number, int minValue, int maxValue, String name)</text><ellipse cx="290.4" cy="346.4156" fill="#84BE84" rx="2.4" ry="2.4" style="stroke:#038048;stroke-width:0.8000000000000002;"/><text fill="#000000" font-family="sans-serif" font-size="11.2" lengthAdjust="spacing" textLength="220" x="297.6" y="349.8531">Assert isHexString (String hex, String name)</text></g><!--class ByteArrayUtil--><g id="elem_ByteArrayUtil"><rect codeLine="73" fill="#FEFECE" height="336.3375" id="ByteArrayUtil" rx="2" ry="2" style="stroke:#D4AC0D;stroke-width:1.6000000000000003;" width="368" x="17.6" y="418.7984"/><ellipse cx="147.8" cy="431.5984" fill="#ADD1B2" rx="8.8" ry="8.8" style="stroke:#181818;stroke-width:0.8000000000000002;"/><path d="M150.0125,428.2984 Q150.1375,428.1234 150.2875,428.0359 Q150.4375,427.9484 150.6125,427.9484 Q150.9125,427.9484 151.1,428.1609 Q151.2875,428.3609 151.2875,428.8484 L151.2875,430.0109 Q151.2875,430.4984 151.1,430.7109 Q150.9125,430.9234 150.6125,430.9234 Q150.3375,430.9234 150.175,430.7609 Q150.0125,430.6109 149.925,430.1984 Q149.8875,429.9109 149.7375,429.7609 Q149.475,429.4609 148.9875,429.2859 Q148.5,429.1109 148,429.1109 Q147.3875,429.1109 146.875,429.3734 Q146.375,429.6359 145.975,430.2359 Q145.5875,430.8359 145.5875,431.6609 L145.5875,432.5359 Q145.5875,433.5234 146.3,434.1859 Q147.0125,434.8359 148.2875,434.8359 Q149.0375,434.8359 149.5625,434.6359 Q149.875,434.5109 150.2125,434.1609 Q150.425,433.9484 150.5375,433.8859 Q150.6625,433.8234 150.825,433.8234 Q151.0875,433.8234 151.2875,434.0359 Q151.5,434.2359 151.5,434.5109 Q151.5,434.7859 151.225,435.1109 Q150.825,435.5734 150.1875,435.8359 Q149.325,436.1984 148.2875,436.1984 Q147.075,436.1984 146.1125,435.6984 Q145.325,435.2984 144.775,434.4484 Q144.225,433.5859 144.225,432.5609 L144.225,431.6359 Q144.225,430.5734 144.7125,429.6609 Q145.2125,428.7359 146.0875,428.2484 Q146.9625,427.7484 147.95,427.7484 Q148.5375,427.7484 149.05,427.8859 Q149.575,428.0109 150.0125,428.2984 Z " fill="#000000"/><ellipse cx="168.2" cy="431.1984" fill="#84BE84" rx="2.4" ry="2.4" style="stroke:#038048;stroke-width:0.8000000000000002;"/><text fill="#000000" font-family="sans-serif" font-size="11.2" font-weight="bold" lengthAdjust="spacing" textLength="24" x="173" y="436.2359">final</text><text fill="#000000" font-family="sans-serif" font-size="11.2" lengthAdjust="spacing" textLength="64.8" x="200.2" y="436.2359">ByteArrayUtil</text><line style="stroke:#D4AC0D;stroke-width:1.6000000000000003;" x1="18.4" x2="384.8" y1="444.3984" y2="444.3984"/><line style="stroke:#D4AC0D;stroke-width:1.6000000000000003;" x1="18.4" x2="384.8" y1="450.7984" y2="450.7984"/><ellipse cx="26.4" cy="462.6469" fill="#84BE84" rx="2.4" ry="2.4" style="stroke:#038048;stroke-width:0.8000000000000002;"/><text fill="#000000" font-family="sans-serif" font-size="11.2" lengthAdjust="spacing" text-decoration="underline" textLength="276.8" x="33.6" y="466.0844">byte[] extractBytes (byte[] src, int bitOffset, int nbBytes)</text><ellipse cx="26.4" cy="477.5438" fill="#84BE84" rx="2.4" ry="2.4" style="stroke:#038048;stroke-width:0.8000000000000002;"/><text fill="#000000" font-family="sans-serif" font-size="11.2" lengthAdjust="spacing" text-decoration="underline" textLength="206.4" x="33.6" y="480.9813">byte[] extractBytes (long src, int nbBytes)</text><text fill="#000000" font-family="sans-serif" font-size="11.2" lengthAdjust="spacing" textLength="3.2" x="33.6" y="495.8781">&#160;</text><ellipse cx="26.4" cy="507.3375" fill="#84BE84" rx="2.4" ry="2.4" style="stroke:#038048;stroke-width:0.8000000000000002;"/><text fill="#000000" font-family="sans-serif" font-size="11.2" lengthAdjust="spacing" text-decoration="underline" textLength="196.8" x="33.6" y="510.775">short extractShort (byte[] src, int offset)</text><ellipse cx="26.4" cy="522.2344" fill="#84BE84" rx="2.4" ry="2.4" style="stroke:#038048;stroke-width:0.8000000000000002;"/><text fill="#000000" font-family="sans-serif" font-size="11.2" lengthAdjust="spacing" text-decoration="underline" textLength="324" x="33.6" y="525.6719">int extractInt (byte[] src, int offset, int nbBytes, boolean isSigned)</text><ellipse cx="26.4" cy="537.1313" fill="#84BE84" rx="2.4" ry="2.4" style="stroke:#038048;stroke-width:0.8000000000000002;"/><text fill="#000000" font-family="sans-serif" font-size="11.2" lengthAdjust="spacing" text-decoration="underline" textLength="347.2" x="33.6" y="540.5688">long extractLong (byte[] src, int offset, int nbBytes, boolean isSigned)</text><text fill="#000000" font-family="sans-serif" font-size="11.2" lengthAdjust="spacing" textLength="3.2" x="33.6" y="555.4656">&#160;</text><ellipse cx="26.4" cy="566.925" fill="#84BE84" rx="2.4" ry="2.4" style="stroke:#038048;stroke-width:0.8000000000000002;"/><text fill="#000000" font-family="sans-serif" font-size="11.2" lengthAdjust="spacing" text-decoration="underline" textLength="298.4" x="33.6" y="570.3625">void copyBytes (long src, byte[] dest, int offset, int nbBytes)</text><text fill="#000000" font-family="sans-serif" font-size="11.2" lengthAdjust="spacing" textLength="3.2" x="33.6" y="585.2594">&#160;</text><ellipse cx="26.4" cy="596.7188" fill="#84BE84" rx="2.4" ry="2.4" style="stroke:#038048;stroke-width:0.8000000000000002;"/><text fill="#000000" font-family="sans-serif" font-size="11.2" lengthAdjust="spacing" text-decoration="line-through" textLength="186.4" x="33.6" y="600.1563">boolean isValidHexString (String hex)</text><ellipse cx="26.4" cy="611.6156" fill="#84BE84" rx="2.4" ry="2.4" style="stroke:#038048;stroke-width:0.8000000000000002;"/><text fill="#000000" font-family="sans-serif" font-size="11.2" lengthAdjust="spacing" text-decoration="line-through" textLength="190.4" x="33.6" y="615.0531">String normalizeHexString (String hex)</text><text fill="#000000" font-family="sans-serif" font-size="11.2" lengthAdjust="spacing" textLength="3.2" x="33.6" y="629.95">&#160;</text><ellipse cx="26.4" cy="641.4094" fill="#84BE84" rx="2.4" ry="2.4" style="stroke:#038048;stroke-width:0.8000000000000002;"/><text fill="#000000" font-family="sans-serif" font-size="11.2" lengthAdjust="spacing" text-decoration="line-through" textLength="133.6" x="33.6" y="644.8469">byte[] fromHex (String hex)</text><ellipse cx="26.4" cy="656.3063" fill="#84BE84" rx="2.4" ry="2.4" style="stroke:#038048;stroke-width:0.8000000000000002;"/><text fill="#000000" font-family="sans-serif" font-size="11.2" lengthAdjust="spacing" text-decoration="line-through" textLength="125.6" x="33.6" y="659.7438">String toHex (byte[] data)</text><text fill="#000000" font-family="sans-serif" font-size="11.2" lengthAdjust="spacing" textLength="3.2" x="33.6" y="674.6406">&#160;</text><ellipse cx="26.4" cy="686.1" fill="#84BE84" rx="2.4" ry="2.4" style="stroke:#038048;stroke-width:0.8000000000000002;"/><text fill="#000000" font-family="sans-serif" font-size="11.2" lengthAdjust="spacing" text-decoration="line-through" textLength="204.8" x="33.6" y="689.5375">int twoBytesToInt (byte[] bytes, int offset)</text><ellipse cx="26.4" cy="700.9969" fill="#84BE84" rx="2.4" ry="2.4" style="stroke:#038048;stroke-width:0.8000000000000002;"/><text fill="#000000" font-family="sans-serif" font-size="11.2" lengthAdjust="spacing" text-decoration="line-through" textLength="240" x="33.6" y="704.4344">int twoBytesSignedToInt (byte[] bytes, int offset)</text><ellipse cx="26.4" cy="715.8938" fill="#84BE84" rx="2.4" ry="2.4" style="stroke:#038048;stroke-width:0.8000000000000002;"/><text fill="#000000" font-family="sans-serif" font-size="11.2" lengthAdjust="spacing" text-decoration="line-through" textLength="214.4" x="33.6" y="719.3313">int threeBytesToInt (byte[] bytes, int offset)</text><ellipse cx="26.4" cy="730.7906" fill="#84BE84" rx="2.4" ry="2.4" style="stroke:#038048;stroke-width:0.8000000000000002;"/><text fill="#000000" font-family="sans-serif" font-size="11.2" lengthAdjust="spacing" text-decoration="line-through" textLength="249.6" x="33.6" y="734.2281">int threeBytesSignedToInt (byte[] bytes, int offset)</text><ellipse cx="26.4" cy="745.6875" fill="#84BE84" rx="2.4" ry="2.4" style="stroke:#038048;stroke-width:0.8000000000000002;"/><text fill="#000000" font-family="sans-serif" font-size="11.2" lengthAdjust="spacing" text-decoration="line-through" textLength="208" x="33.6" y="749.125">int fourBytesToInt (byte[] bytes, int offset)</text></g><!--class HexUtil--><g id="elem_HexUtil"><rect codeLine="95" fill="#FEFECE" height="232.0594" id="HexUtil" rx="2" ry="2" style="stroke:#D4AC0D;stroke-width:1.6000000000000003;" width="172.8" x="49.6" y="138.7984"/><ellipse cx="97.8" cy="151.5984" fill="#ADD1B2" rx="8.8" ry="8.8" style="stroke:#181818;stroke-width:0.8000000000000002;"/><path d="M100.0125,148.2984 Q100.1375,148.1234 100.2875,148.0359 Q100.4375,147.9484 100.6125,147.9484 Q100.9125,147.9484 101.1,148.1609 Q101.2875,148.3609 101.2875,148.8484 L101.2875,150.0109 Q101.2875,150.4984 101.1,150.7109 Q100.9125,150.9234 100.6125,150.9234 Q100.3375,150.9234 100.175,150.7609 Q100.0125,150.6109 99.925,150.1984 Q99.8875,149.9109 99.7375,149.7609 Q99.475,149.4609 98.9875,149.2859 Q98.5,149.1109 98,149.1109 Q97.3875,149.1109 96.875,149.3734 Q96.375,149.6359 95.975,150.2359 Q95.5875,150.8359 95.5875,151.6609 L95.5875,152.5359 Q95.5875,153.5234 96.3,154.1859 Q97.0125,154.8359 98.2875,154.8359 Q99.0375,154.8359 99.5625,154.6359 Q99.875,154.5109 100.2125,154.1609 Q100.425,153.9484 100.5375,153.8859 Q100.6625,153.8234 100.825,153.8234 Q101.0875,153.8234 101.2875,154.0359 Q101.5,154.2359 101.5,154.5109 Q101.5,154.7859 101.225,155.1109 Q100.825,155.5734 100.1875,155.8359 Q99.325,156.1984 98.2875,156.1984 Q97.075,156.1984 96.1125,155.6984 Q95.325,155.2984 94.775,154.4484 Q94.225,153.5859 94.225,152.5609 L94.225,151.6359 Q94.225,150.5734 94.7125,149.6609 Q95.2125,148.7359 96.0875,148.2484 Q96.9625,147.7484 97.95,147.7484 Q98.5375,147.7484 99.05,147.8859 Q99.575,148.0109 100.0125,148.2984 Z " fill="#000000"/><ellipse cx="118.2" cy="151.1984" fill="#84BE84" rx="2.4" ry="2.4" style="stroke:#038048;stroke-width:0.8000000000000002;"/><text fill="#000000" font-family="sans-serif" font-size="11.2" font-weight="bold" lengthAdjust="spacing" textLength="24" x="123" y="156.2359">final</text><text fill="#000000" font-family="sans-serif" font-size="11.2" lengthAdjust="spacing" textLength="33.6" x="150.2" y="156.2359">HexUtil</text><line style="stroke:#D4AC0D;stroke-width:1.6000000000000003;" x1="50.4" x2="221.6" y1="164.3984" y2="164.3984"/><line style="stroke:#D4AC0D;stroke-width:1.6000000000000003;" x1="50.4" x2="221.6" y1="170.7984" y2="170.7984"/><ellipse cx="58.4" cy="182.6469" fill="#84BE84" rx="2.4" ry="2.4" style="stroke:#038048;stroke-width:0.8000000000000002;"/><text fill="#000000" font-family="sans-serif" font-size="11.2" lengthAdjust="spacing" text-decoration="underline" textLength="138.4" x="65.6" y="186.0844">boolean isValid (String hex)</text><text fill="#000000" font-family="sans-serif" font-size="11.2" lengthAdjust="spacing" textLength="3.2" x="65.6" y="200.9813">&#160;</text><ellipse cx="58.4" cy="212.4406" fill="#84BE84" rx="2.4" ry="2.4" style="stroke:#038048;stroke-width:0.8000000000000002;"/><text fill="#000000" font-family="sans-serif" font-size="11.2" lengthAdjust="spacing" text-decoration="underline" textLength="152" x="65.6" y="215.8781">byte[] toByteArray (String hex)</text><ellipse cx="58.4" cy="227.3375" fill="#84BE84" rx="2.4" ry="2.4" style="stroke:#038048;stroke-width:0.8000000000000002;"/><text fill="#000000" font-family="sans-serif" font-size="11.2" lengthAdjust="spacing" text-decoration="underline" textLength="118.4" x="65.6" y="230.775">byte toByte (String hex)</text><ellipse cx="58.4" cy="242.2344" fill="#84BE84" rx="2.4" ry="2.4" style="stroke:#038048;stroke-width:0.8000000000000002;"/><text fill="#000000" font-family="sans-serif" font-size="11.2" lengthAdjust="spacing" text-decoration="underline" textLength="127.2" x="65.6" y="245.6719">short toShort (String hex)</text><ellipse cx="58.4" cy="257.1313" fill="#84BE84" rx="2.4" ry="2.4" style="stroke:#038048;stroke-width:0.8000000000000002;"/><text fill="#000000" font-family="sans-serif" font-size="11.2" lengthAdjust="spacing" text-decoration="underline" textLength="98.4" x="65.6" y="260.5688">int toInt (String hex)</text><ellipse cx="58.4" cy="272.0281" fill="#84BE84" rx="2.4" ry="2.4" style="stroke:#038048;stroke-width:0.8000000000000002;"/><text fill="#000000" font-family="sans-serif" font-size="11.2" lengthAdjust="spacing" text-decoration="underline" textLength="121.6" x="65.6" y="275.4656">long toLong (String hex)</text><text fill="#000000" font-family="sans-serif" font-size="11.2" lengthAdjust="spacing" textLength="3.2" x="65.6" y="290.3625">&#160;</text><ellipse cx="58.4" cy="301.8219" fill="#84BE84" rx="2.4" ry="2.4" style="stroke:#038048;stroke-width:0.8000000000000002;"/><text fill="#000000" font-family="sans-serif" font-size="11.2" lengthAdjust="spacing" text-decoration="underline" textLength="119.2" x="65.6" y="305.2594">String toHex (byte[] tab)</text><ellipse cx="58.4" cy="316.7188" fill="#84BE84" rx="2.4" ry="2.4" style="stroke:#038048;stroke-width:0.8000000000000002;"/><text fill="#000000" font-family="sans-serif" font-size="11.2" lengthAdjust="spacing" text-decoration="underline" textLength="111.2" x="65.6" y="320.1563">String toHex (byte val)</text><ellipse cx="58.4" cy="331.6156" fill="#84BE84" rx="2.4" ry="2.4" style="stroke:#038048;stroke-width:0.8000000000000002;"/><text fill="#000000" font-family="sans-serif" font-size="11.2" lengthAdjust="spacing" text-decoration="underline" textLength="115.2" x="65.6" y="335.0531">String toHex (short val)</text><ellipse cx="58.4" cy="346.5125" fill="#84BE84" rx="2.4" ry="2.4" style="stroke:#038048;stroke-width:0.8000000000000002;"/><text fill="#000000" font-family="sans-serif" font-size="11.2" lengthAdjust="spacing" text-decoration="underline" textLength="101.6" x="65.6" y="349.95">String toHex (int val)</text><ellipse cx="58.4" cy="361.4094" fill="#84BE84" rx="2.4" ry="2.4" style="stroke:#038048;stroke-width:0.8000000000000002;"/><text fill="#000000" font-family="sans-serif" font-size="11.2" lengthAdjust="spacing" text-decoration="underline" textLength="111.2" x="65.6" y="364.8469">String toHex (long val)</text></g><!--class ApduUtil--><g id="elem_ApduUtil"><rect codeLine="110" fill="#FEFECE" height="83.0906" id="ApduUtil" rx="2" ry="2" style="stroke:#D4AC0D;stroke-width:1.6000000000000003;" width="369.6" x="413.6" y="545.1984"/><ellipse cx="556.2" cy="557.9984" fill="#ADD1B2" rx="8.8" ry="8.8" style="stroke:#181818;stroke-width:0.8000000000000002;"/><path d="M558.4125,554.6984 Q558.5375,554.5234 558.6875,554.4359 Q558.8375,554.3484 559.0125,554.3484 Q559.3125,554.3484 559.5,554.5609 Q559.6875,554.7609 559.6875,555.2484 L559.6875,556.4109 Q559.6875,556.8984 559.5,557.1109 Q559.3125,557.3234 559.0125,557.3234 Q558.7375,557.3234 558.575,557.1609 Q558.4125,557.0109 558.325,556.5984 Q558.2875,556.3109 558.1375,556.1609 Q557.875,555.8609 557.3875,555.6859 Q556.9,555.5109 556.4,555.5109 Q555.7875,555.5109 555.275,555.7734 Q554.775,556.0359 554.375,556.6359 Q553.9875,557.2359 553.9875,558.0609 L553.9875,558.9359 Q553.9875,559.9234 554.7,560.5859 Q555.4125,561.2359 556.6875,561.2359 Q557.4375,561.2359 557.9625,561.0359 Q558.275,560.9109 558.6125,560.5609 Q558.825,560.3484 558.9375,560.2859 Q559.0625,560.2234 559.225,560.2234 Q559.4875,560.2234 559.6875,560.4359 Q559.9,560.6359 559.9,560.9109 Q559.9,561.1859 559.625,561.5109 Q559.225,561.9734 558.5875,562.2359 Q557.725,562.5984 556.6875,562.5984 Q555.475,562.5984 554.5125,562.0984 Q553.725,561.6984 553.175,560.8484 Q552.625,559.9859 552.625,558.9609 L552.625,558.0359 Q552.625,556.9734 553.1125,556.0609 Q553.6125,555.1359 554.4875,554.6484 Q555.3625,554.1484 556.35,554.1484 Q556.9375,554.1484 557.45,554.2859 Q557.975,554.4109 558.4125,554.6984 Z " fill="#000000"/><ellipse cx="576.6" cy="557.5984" fill="#84BE84" rx="2.4" ry="2.4" style="stroke:#038048;stroke-width:0.8000000000000002;"/><text fill="#000000" font-family="sans-serif" font-size="11.2" font-weight="bold" lengthAdjust="spacing" textLength="24" x="581.4" y="562.6359">final</text><text fill="#000000" font-family="sans-serif" font-size="11.2" lengthAdjust="spacing" textLength="41.6" x="608.6" y="562.6359">ApduUtil</text><line style="stroke:#D4AC0D;stroke-width:1.6000000000000003;" x1="414.4" x2="782.4" y1="570.7984" y2="570.7984"/><line style="stroke:#D4AC0D;stroke-width:1.6000000000000003;" x1="414.4" x2="782.4" y1="577.1984" y2="577.1984"/><ellipse cx="422.4" cy="589.0469" fill="#84BE84" rx="2.4" ry="2.4" style="stroke:#038048;stroke-width:0.8000000000000002;"/><text fill="#000000" font-family="sans-serif" font-size="11.2" lengthAdjust="spacing" text-decoration="underline" textLength="348.8" x="429.6" y="592.4844">byte[] build (byte cla, byte ins, byte p1, byte p2, byte[] dataIn, Byte le)</text><text fill="#000000" font-family="sans-serif" font-size="11.2" lengthAdjust="spacing" textLength="3.2" x="429.6" y="607.3813">&#160;</text><ellipse cx="422.4" cy="618.8406" fill="#84BE84" rx="2.4" ry="2.4" style="stroke:#038048;stroke-width:0.8000000000000002;"/><text fill="#000000" font-family="sans-serif" font-size="11.2" lengthAdjust="spacing" text-decoration="underline" textLength="204" x="429.6" y="622.2781">boolean isCase4 (byte[] apduCommand)</text></g><!--class BerTlvUtil--><g id="elem_BerTlvUtil"><rect codeLine="115" fill="#FEFECE" height="97.9875" id="BerTlvUtil" rx="2" ry="2" style="stroke:#D4AC0D;stroke-width:1.6000000000000003;" width="405.6" x="811.6" y="537.9984"/><ellipse cx="982.6" cy="550.7984" fill="#ADD1B2" rx="8.8" ry="8.8" style="stroke:#181818;stroke-width:0.8000000000000002;"/><path d="M984.8125,547.4984 Q984.9375,547.3234 985.0875,547.2359 Q985.2375,547.1484 985.4125,547.1484 Q985.7125,547.1484 985.9,547.3609 Q986.0875,547.5609 986.0875,548.0484 L986.0875,549.2109 Q986.0875,549.6984 985.9,549.9109 Q985.7125,550.1234 985.4125,550.1234 Q985.1375,550.1234 984.975,549.9609 Q984.8125,549.8109 984.725,549.3984 Q984.6875,549.1109 984.5375,548.9609 Q984.275,548.6609 983.7875,548.4859 Q983.3,548.3109 982.8,548.3109 Q982.1875,548.3109 981.675,548.5734 Q981.175,548.8359 980.775,549.4359 Q980.3875,550.0359 980.3875,550.8609 L980.3875,551.7359 Q980.3875,552.7234 981.1,553.3859 Q981.8125,554.0359 983.0875,554.0359 Q983.8375,554.0359 984.3625,553.8359 Q984.675,553.7109 985.0125,553.3609 Q985.225,553.1484 985.3375,553.0859 Q985.4625,553.0234 985.625,553.0234 Q985.8875,553.0234 986.0875,553.2359 Q986.3,553.4359 986.3,553.7109 Q986.3,553.9859 986.025,554.3109 Q985.625,554.7734 984.9875,555.0359 Q984.125,555.3984 983.0875,555.3984 Q981.875,555.3984 980.9125,554.8984 Q980.125,554.4984 979.575,553.6484 Q979.025,552.7859 979.025,551.7609 L979.025,550.8359 Q979.025,549.7734 979.5125,548.8609 Q980.0125,547.9359 980.8875,547.4484 Q981.7625,546.9484 982.75,546.9484 Q983.3375,546.9484 983.85,547.0859 Q984.375,547.2109 984.8125,547.4984 Z " fill="#000000"/><ellipse cx="1003" cy="550.3984" fill="#84BE84" rx="2.4" ry="2.4" style="stroke:#038048;stroke-width:0.8000000000000002;"/><text fill="#000000" font-family="sans-serif" font-size="11.2" lengthAdjust="spacing" textLength="48" x="1007.8" y="555.4359">BerTlvUtil</text><line style="stroke:#D4AC0D;stroke-width:1.6000000000000003;" x1="812.4" x2="1216.4" y1="563.5984" y2="563.5984"/><line style="stroke:#D4AC0D;stroke-width:1.6000000000000003;" x1="812.4" x2="1216.4" y1="569.9984" y2="569.9984"/><ellipse cx="820.4" cy="581.8469" fill="#84BE84" rx="2.4" ry="2.4" style="stroke:#038048;stroke-width:0.8000000000000002;"/><text fill="#000000" font-family="sans-serif" font-size="11.2" lengthAdjust="spacing" text-decoration="underline" textLength="384.8" x="827.6" y="585.2844">Map&lt;Integer, byte[]&gt; parseSimple (byte[] tlvStructure, boolean primitiveOnly)</text><ellipse cx="820.4" cy="596.7438" fill="#84BE84" rx="2.4" ry="2.4" style="stroke:#038048;stroke-width:0.8000000000000002;"/><text fill="#000000" font-family="sans-serif" font-size="11.2" lengthAdjust="spacing" text-decoration="underline" textLength="381.6" x="827.6" y="600.1813">Map&lt;Integer, List&lt;byte[]&gt;&gt; parse (byte[] tlvStructure, boolean primitiveOnly)</text><text fill="#000000" font-family="sans-serif" font-size="11.2" lengthAdjust="spacing" textLength="3.2" x="827.6" y="615.0781">&#160;</text><ellipse cx="820.4" cy="626.5375" fill="#84BE84" rx="2.4" ry="2.4" style="stroke:#038048;stroke-width:0.8000000000000002;"/><text fill="#000000" font-family="sans-serif" font-size="11.2" lengthAdjust="spacing" text-decoration="underline" textLength="164.8" x="827.6" y="629.975">boolean isConstructed (int tagId)</text></g><!--class JsonUtil--><g id="elem_JsonUtil"><rect codeLine="122" fill="#FEFECE" height="112.8844" id="JsonUtil" rx="2" ry="2" style="stroke:#D4AC0D;stroke-width:1.6000000000000003;" width="283.2" x="51.2" y="802.7984"/><ellipse cx="152.2" cy="815.5984" fill="#ADD1B2" rx="8.8" ry="8.8" style="stroke:#181818;stroke-width:0.8000000000000002;"/><path d="M154.4125,812.2984 Q154.5375,812.1234 154.6875,812.0359 Q154.8375,811.9484 155.0125,811.9484 Q155.3125,811.9484 155.5,812.1609 Q155.6875,812.3609 155.6875,812.8484 L155.6875,814.0109 Q155.6875,814.4984 155.5,814.7109 Q155.3125,814.9234 155.0125,814.9234 Q154.7375,814.9234 154.575,814.7609 Q154.4125,814.6109 154.325,814.1984 Q154.2875,813.9109 154.1375,813.7609 Q153.875,813.4609 153.3875,813.2859 Q152.9,813.1109 152.4,813.1109 Q151.7875,813.1109 151.275,813.3734 Q150.775,813.6359 150.375,814.2359 Q149.9875,814.8359 149.9875,815.6609 L149.9875,816.5359 Q149.9875,817.5234 150.7,818.1859 Q151.4125,818.8359 152.6875,818.8359 Q153.4375,818.8359 153.9625,818.6359 Q154.275,818.5109 154.6125,818.1609 Q154.825,817.9484 154.9375,817.8859 Q155.0625,817.8234 155.225,817.8234 Q155.4875,817.8234 155.6875,818.0359 Q155.9,818.2359 155.9,818.5109 Q155.9,818.7859 155.625,819.1109 Q155.225,819.5734 154.5875,819.8359 Q153.725,820.1984 152.6875,820.1984 Q151.475,820.1984 150.5125,819.6984 Q149.725,819.2984 149.175,818.4484 Q148.625,817.5859 148.625,816.5609 L148.625,815.6359 Q148.625,814.5734 149.1125,813.6609 Q149.6125,812.7359 150.4875,812.2484 Q151.3625,811.7484 152.35,811.7484 Q152.9375,811.7484 153.45,811.8859 Q153.975,812.0109 154.4125,812.2984 Z " fill="#000000"/><ellipse cx="172.6" cy="815.1984" fill="#84BE84" rx="2.4" ry="2.4" style="stroke:#038048;stroke-width:0.8000000000000002;"/><text fill="#000000" font-family="sans-serif" font-size="11.2" font-weight="bold" lengthAdjust="spacing" textLength="24" x="177.4" y="820.2359">final</text><text fill="#000000" font-family="sans-serif" font-size="11.2" lengthAdjust="spacing" textLength="38.4" x="204.6" y="820.2359">JsonUtil</text><line style="stroke:#D4AC0D;stroke-width:1.6000000000000003;" x1="52" x2="333.6" y1="828.3984" y2="828.3984"/><line style="stroke:#D4AC0D;stroke-width:1.6000000000000003;" x1="52" x2="333.6" y1="834.7984" y2="834.7984"/><ellipse cx="60" cy="846.6469" fill="#84BE84" rx="2.4" ry="2.4" style="stroke:#038048;stroke-width:0.8000000000000002;"/><text fill="#000000" filter="url(#bsqmuhl57mb2b0)" font-family="sans-serif" font-size="11.2" lengthAdjust="spacing" text-decoration="underline" textLength="27.2" x="67.2" y="850.0844">Gson</text><text fill="#000000" font-family="sans-serif" font-size="11.2" lengthAdjust="spacing" text-decoration="underline" textLength="60.8" x="97.6" y="850.0844">getParser ()</text><ellipse cx="60" cy="861.5438" fill="#84BE84" rx="2.4" ry="2.4" style="stroke:#038048;stroke-width:0.8000000000000002;"/><text fill="#000000" font-family="sans-serif" font-size="11.2" lengthAdjust="spacing" text-decoration="underline" textLength="262.4" x="67.2" y="864.9813">void registerTypeAdapter (Class&lt;?&gt; matchingClass,</text><text fill="#000000" font-family="sans-serif" font-size="11.2" lengthAdjust="spacing" textLength="206.4" x="92.8" y="879.8781">Object adapter, boolean withSubclasses)</text><text fill="#000000" font-family="sans-serif" font-size="11.2" lengthAdjust="spacing" textLength="3.2" x="67.2" y="894.775">&#160;</text><ellipse cx="60" cy="906.2344" fill="#84BE84" rx="2.4" ry="2.4" style="stroke:#038048;stroke-width:0.8000000000000002;"/><text fill="#000000" font-family="sans-serif" font-size="11.2" lengthAdjust="spacing" text-decoration="underline" textLength="128" x="67.2" y="909.6719">String toJson (Object obj)</text></g><!--class BodyError--><g id="elem_BodyError"><rect codeLine="129" fill="#FEFECE" height="97.9875" id="BodyError" rx="2" ry="2" style="stroke:#D4AC0D;stroke-width:1.6000000000000003;" width="183.2" x="362.8" y="810.3984"/><ellipse cx="421" cy="823.1984" fill="#ADD1B2" rx="8.8" ry="8.8" style="stroke:#181818;stroke-width:0.8000000000000002;"/><path d="M423.2125,819.8984 Q423.3375,819.7234 423.4875,819.6359 Q423.6375,819.5484 423.8125,819.5484 Q424.1125,819.5484 424.3,819.7609 Q424.4875,819.9609 424.4875,820.4484 L424.4875,821.6109 Q424.4875,822.0984 424.3,822.3109 Q424.1125,822.5234 423.8125,822.5234 Q423.5375,822.5234 423.375,822.3609 Q423.2125,822.2109 423.125,821.7984 Q423.0875,821.5109 422.9375,821.3609 Q422.675,821.0609 422.1875,820.8859 Q421.7,820.7109 421.2,820.7109 Q420.5875,820.7109 420.075,820.9734 Q419.575,821.2359 419.175,821.8359 Q418.7875,822.4359 418.7875,823.2609 L418.7875,824.1359 Q418.7875,825.1234 419.5,825.7859 Q420.2125,826.4359 421.4875,826.4359 Q422.2375,826.4359 422.7625,826.2359 Q423.075,826.1109 423.4125,825.7609 Q423.625,825.5484 423.7375,825.4859 Q423.8625,825.4234 424.025,825.4234 Q424.2875,825.4234 424.4875,825.6359 Q424.7,825.8359 424.7,826.1109 Q424.7,826.3859 424.425,826.7109 Q424.025,827.1734 423.3875,827.4359 Q422.525,827.7984 421.4875,827.7984 Q420.275,827.7984 419.3125,827.2984 Q418.525,826.8984 417.975,826.0484 Q417.425,825.1859 417.425,824.1609 L417.425,823.2359 Q417.425,822.1734 417.9125,821.2609 Q418.4125,820.3359 419.2875,819.8484 Q420.1625,819.3484 421.15,819.3484 Q421.7375,819.3484 422.25,819.4859 Q422.775,819.6109 423.2125,819.8984 Z " fill="#000000"/><ellipse cx="441.4" cy="822.7984" fill="#84BE84" rx="2.4" ry="2.4" style="stroke:#038048;stroke-width:0.8000000000000002;"/><text fill="#000000" font-family="sans-serif" font-size="11.2" lengthAdjust="spacing" textLength="51.2" x="446.2" y="827.8359">BodyError</text><line style="stroke:#D4AC0D;stroke-width:1.6000000000000003;" x1="363.6" x2="545.2" y1="835.9984" y2="835.9984"/><line style="stroke:#D4AC0D;stroke-width:1.6000000000000003;" x1="363.6" x2="545.2" y1="842.3984" y2="842.3984"/><ellipse cx="371.6" cy="854.2469" fill="#84BE84" rx="2.4" ry="2.4" style="stroke:#038048;stroke-width:0.8000000000000002;"/><text fill="#000000" font-family="sans-serif" font-size="11.2" lengthAdjust="spacing" textLength="162.4" x="378.8" y="857.6844">BodyError (Exception exception)</text><text fill="#000000" font-family="sans-serif" font-size="11.2" lengthAdjust="spacing" textLength="3.2" x="378.8" y="872.5813">&#160;</text><ellipse cx="371.6" cy="884.0406" fill="#84BE84" rx="2.4" ry="2.4" style="stroke:#038048;stroke-width:0.8000000000000002;"/><text fill="#000000" font-family="sans-serif" font-size="11.2" lengthAdjust="spacing" textLength="87.2" x="378.8" y="887.4781">String getCode ()</text><ellipse cx="371.6" cy="898.9375" fill="#84BE84" rx="2.4" ry="2.4" style="stroke:#038048;stroke-width:0.8000000000000002;"/><text fill="#000000" font-family="sans-serif" font-size="11.2" lengthAdjust="spacing" textLength="128" x="378.8" y="902.375">Exception getException ()</text></g><!--class BodyErrorJsonDeserializer--><g id="elem_BodyErrorJsonDeserializer"><rect codeLine="135" fill="#FEFECE" height="65.4906" id="BodyErrorJsonDeserializer" rx="2" ry="2" style="stroke:#D4AC0D;stroke-width:1.6000000000000003;" width="206.4" x="574.4" y="826.3984"/><ellipse cx="586.4" cy="845.2953" fill="#ADD1B2" rx="8.8" ry="8.8" style="stroke:#181818;stroke-width:0.8000000000000002;"/><path d="M588.6125,841.9953 Q588.7375,841.8203 588.8875,841.7328 Q589.0375,841.6453 589.2125,841.6453 Q589.5125,841.6453 589.7,841.8578 Q589.8875,842.0578 589.8875,842.5453 L589.8875,843.7078 Q589.8875,844.1953 589.7,844.4078 Q589.5125,844.6203 589.2125,844.6203 Q588.9375,844.6203 588.775,844.4578 Q588.6125,844.3078 588.525,843.8953 Q588.4875,843.6078 588.3375,843.4578 Q588.075,843.1578 587.5875,842.9828 Q587.1,842.8078 586.6,842.8078 Q585.9875,842.8078 585.475,843.0703 Q584.975,843.3328 584.575,843.9328 Q584.1875,844.5328 584.1875,845.3578 L584.1875,846.2328 Q584.1875,847.2203 584.9,847.8828 Q585.6125,848.5328 586.8875,848.5328 Q587.6375,848.5328 588.1625,848.3328 Q588.475,848.2078 588.8125,847.8578 Q589.025,847.6453 589.1375,847.5828 Q589.2625,847.5203 589.425,847.5203 Q589.6875,847.5203 589.8875,847.7328 Q590.1,847.9328 590.1,848.2078 Q590.1,848.4828 589.825,848.8078 Q589.425,849.2703 588.7875,849.5328 Q587.925,849.8953 586.8875,849.8953 Q585.675,849.8953 584.7125,849.3953 Q583.925,848.9953 583.375,848.1453 Q582.825,847.2828 582.825,846.2578 L582.825,845.3328 Q582.825,844.2703 583.3125,843.3578 Q583.8125,842.4328 584.6875,841.9453 Q585.5625,841.4453 586.55,841.4453 Q587.1375,841.4453 587.65,841.5828 Q588.175,841.7078 588.6125,841.9953 Z " fill="#000000"/><ellipse cx="601.6" cy="844.8953" fill="#84BE84" rx="2.4" ry="2.4" style="stroke:#038048;stroke-width:0.8000000000000002;"/><text fill="#000000" font-family="sans-serif" font-size="11.2" lengthAdjust="spacing" textLength="12.8" x="606.4" y="842.4844">&lt;&lt;</text><text fill="#000000" filter="url(#bsqmuhl57mb2b0)" font-family="sans-serif" font-size="11.2" lengthAdjust="spacing" textLength="146.4" x="619.2" y="842.4844">JsonDeserializer&lt;BodyError&gt;</text><text fill="#000000" font-family="sans-serif" font-size="11.2" lengthAdjust="spacing" textLength="12.8" x="765.6" y="842.4844">&gt;&gt;</text><text fill="#000000" font-family="sans-serif" font-size="11.2" lengthAdjust="spacing" textLength="133.6" x="625.6" y="857.3813">BodyErrorJsonDeserializer</text><line style="stroke:#D4AC0D;stroke-width:1.6000000000000003;" x1="575.2" x2="780" y1="864.1922" y2="864.1922"/><line style="stroke:#D4AC0D;stroke-width:1.6000000000000003;" x1="575.2" x2="780" y1="870.5922" y2="870.5922"/><text fill="#000000" font-family="sans-serif" font-size="11.2" lengthAdjust="spacing" textLength="9.6" x="579.2" y="885.8781">...</text></g><!--class ByteArrayJsonAdapter--><g id="elem_ByteArrayJsonAdapter"><rect codeLine="139" fill="#FEFECE" height="80.3875" id="ByteArrayJsonAdapter" rx="2" ry="2" style="stroke:#D4AC0D;stroke-width:1.6000000000000003;" width="183.2" x="809.2" y="819.1984"/><ellipse cx="821.2" cy="845.5438" fill="#ADD1B2" rx="8.8" ry="8.8" style="stroke:#181818;stroke-width:0.8000000000000002;"/><path d="M823.4125,842.2438 Q823.5375,842.0688 823.6875,841.9813 Q823.8375,841.8938 824.0125,841.8938 Q824.3125,841.8938 824.5,842.1063 Q824.6875,842.3063 824.6875,842.7938 L824.6875,843.9563 Q824.6875,844.4438 824.5,844.6563 Q824.3125,844.8688 824.0125,844.8688 Q823.7375,844.8688 823.575,844.7063 Q823.4125,844.5563 823.325,844.1438 Q823.2875,843.8563 823.1375,843.7063 Q822.875,843.4063 822.3875,843.2313 Q821.9,843.0563 821.4,843.0563 Q820.7875,843.0563 820.275,843.3188 Q819.775,843.5813 819.375,844.1813 Q818.9875,844.7813 818.9875,845.6063 L818.9875,846.4813 Q818.9875,847.4688 819.7,848.1313 Q820.4125,848.7813 821.6875,848.7813 Q822.4375,848.7813 822.9625,848.5813 Q823.275,848.4563 823.6125,848.1063 Q823.825,847.8938 823.9375,847.8313 Q824.0625,847.7688 824.225,847.7688 Q824.4875,847.7688 824.6875,847.9813 Q824.9,848.1813 824.9,848.4563 Q824.9,848.7313 824.625,849.0563 Q824.225,849.5188 823.5875,849.7813 Q822.725,850.1438 821.6875,850.1438 Q820.475,850.1438 819.5125,849.6438 Q818.725,849.2438 818.175,848.3938 Q817.625,847.5313 817.625,846.5063 L817.625,845.5813 Q817.625,844.5188 818.1125,843.6063 Q818.6125,842.6813 819.4875,842.1938 Q820.3625,841.6938 821.35,841.6938 Q821.9375,841.6938 822.45,841.8313 Q822.975,841.9563 823.4125,842.2438 Z " fill="#000000"/><ellipse cx="836.4" cy="845.1438" fill="#84BE84" rx="2.4" ry="2.4" style="stroke:#038048;stroke-width:0.8000000000000002;"/><text fill="#000000" font-family="sans-serif" font-size="11.2" lengthAdjust="spacing" textLength="12.8" x="847.6" y="835.2844">&lt;&lt;</text><text fill="#000000" filter="url(#bsqmuhl57mb2b0)" font-family="sans-serif" font-size="11.2" lengthAdjust="spacing" textLength="110.4" x="860.4" y="835.2844">JsonSerializer&lt;byte[]&gt;</text><text fill="#000000" font-family="sans-serif" font-size="11.2" lengthAdjust="spacing" textLength="12.8" x="970.8" y="835.2844">&gt;&gt;</text><text fill="#000000" font-family="sans-serif" font-size="11.2" lengthAdjust="spacing" textLength="12.8" x="841.2" y="850.1813">&lt;&lt;</text><text fill="#000000" filter="url(#bsqmuhl57mb2b0)" font-family="sans-serif" font-size="11.2" lengthAdjust="spacing" textLength="123.2" x="854" y="850.1813">JsonDeserializer&lt;byte[]&gt;</text><text fill="#000000" font-family="sans-serif" font-size="11.2" lengthAdjust="spacing" textLength="12.8" x="977.2" y="850.1813">&gt;&gt;</text><text fill="#000000" font-family="sans-serif" font-size="11.2" lengthAdjust="spacing" textLength="112.8" x="859.2" y="865.0781">ByteArrayJsonAdapter</text><line style="stroke:#D4AC0D;stroke-width:1.6000000000000003;" x1="810" x2="991.6" y1="871.8891" y2="871.8891"/><line style="stroke:#D4AC0D;stroke-width:1.6000000000000003;" x1="810" x2="991.6" y1="878.2891" y2="878.2891"/><text fill="#000000" font-family="sans-serif" font-size="11.2" lengthAdjust="spacing" textLength="9.6" x="814" y="893.575">...</text></g><!--class ByteJsonAdapter--><g id="elem_ByteJsonAdapter"><rect codeLine="143" fill="#FEFECE" height="80.3875" id="ByteJsonAdapter" rx="2" ry="2" style="stroke:#D4AC0D;stroke-width:1.6000000000000003;" width="177.6" x="1020.8" y="819.1984"/><ellipse cx="1032.8" cy="845.5438" fill="#ADD1B2" rx="8.8" ry="8.8" style="stroke:#181818;stroke-width:0.8000000000000002;"/><path d="M1035.0125,842.2438 Q1035.1375,842.0688 1035.2875,841.9813 Q1035.4375,841.8938 1035.6125,841.8938 Q1035.9125,841.8938 1036.1,842.1063 Q1036.2875,842.3063 1036.2875,842.7938 L1036.2875,843.9563 Q1036.2875,844.4438 1036.1,844.6563 Q1035.9125,844.8688 1035.6125,844.8688 Q1035.3375,844.8688 1035.175,844.7063 Q1035.0125,844.5563 1034.925,844.1438 Q1034.8875,843.8563 1034.7375,843.7063 Q1034.475,843.4063 1033.9875,843.2313 Q1033.5,843.0563 1033,843.0563 Q1032.3875,843.0563 1031.875,843.3188 Q1031.375,843.5813 1030.975,844.1813 Q1030.5875,844.7813 1030.5875,845.6063 L1030.5875,846.4813 Q1030.5875,847.4688 1031.3,848.1313 Q1032.0125,848.7813 1033.2875,848.7813 Q1034.0375,848.7813 1034.5625,848.5813 Q1034.875,848.4563 1035.2125,848.1063 Q1035.425,847.8938 1035.5375,847.8313 Q1035.6625,847.7688 1035.825,847.7688 Q1036.0875,847.7688 1036.2875,847.9813 Q1036.5,848.1813 1036.5,848.4563 Q1036.5,848.7313 1036.225,849.0563 Q1035.825,849.5188 1035.1875,849.7813 Q1034.325,850.1438 1033.2875,850.1438 Q1032.075,850.1438 1031.1125,849.6438 Q1030.325,849.2438 1029.775,848.3938 Q1029.225,847.5313 1029.225,846.5063 L1029.225,845.5813 Q1029.225,844.5188 1029.7125,843.6063 Q1030.2125,842.6813 1031.0875,842.1938 Q1031.9625,841.6938 1032.95,841.6938 Q1033.5375,841.6938 1034.05,841.8313 Q1034.575,841.9563 1035.0125,842.2438 Z " fill="#000000"/><ellipse cx="1048" cy="845.1438" fill="#84BE84" rx="2.4" ry="2.4" style="stroke:#038048;stroke-width:0.8000000000000002;"/><text fill="#000000" font-family="sans-serif" font-size="11.2" lengthAdjust="spacing" textLength="12.8" x="1059.2" y="835.2844">&lt;&lt;</text><text fill="#000000" filter="url(#bsqmuhl57mb2b0)" font-family="sans-serif" font-size="11.2" lengthAdjust="spacing" textLength="104.8" x="1072" y="835.2844">JsonSerializer&lt;Byte&gt;</text><text fill="#000000" font-family="sans-serif" font-size="11.2" lengthAdjust="spacing" textLength="12.8" x="1176.8" y="835.2844">&gt;&gt;</text><text fill="#000000" font-family="sans-serif" font-size="11.2" lengthAdjust="spacing" textLength="12.8" x="1052.8" y="850.1813">&lt;&lt;</text><text fill="#000000" filter="url(#bsqmuhl57mb2b0)" font-family="sans-serif" font-size="11.2" lengthAdjust="spacing" textLength="117.6" x="1065.6" y="850.1813">JsonDeserializer&lt;Byte&gt;</text><text fill="#000000" font-family="sans-serif" font-size="11.2" lengthAdjust="spacing" textLength="12.8" x="1183.2" y="850.1813">&gt;&gt;</text><text fill="#000000" font-family="sans-serif" font-size="11.2" lengthAdjust="spacing" textLength="85.6" x="1081.6" y="865.0781">ByteJsonAdapter</text><line style="stroke:#D4AC0D;stroke-width:1.6000000000000003;" x1="1021.6" x2="1197.6" y1="871.8891" y2="871.8891"/><line style="stroke:#D4AC0D;stroke-width:1.6000000000000003;" x1="1021.6" x2="1197.6" y1="878.2891" y2="878.2891"/><text fill="#000000" font-family="sans-serif" font-size="11.2" lengthAdjust="spacing" textLength="9.6" x="1025.6" y="893.575">...</text></g><!--class ShortJsonAdapter--><g id="elem_ShortJsonAdapter"><rect codeLine="147" fill="#FEFECE" height="80.3875" id="ShortJsonAdapter" rx="2" ry="2" style="stroke:#D4AC0D;stroke-width:1.6000000000000003;" width="182.4" x="363.2" y="963.5984"/><ellipse cx="375.2" cy="989.9438" fill="#ADD1B2" rx="8.8" ry="8.8" style="stroke:#181818;stroke-width:0.8000000000000002;"/><path d="M377.4125,986.6438 Q377.5375,986.4688 377.6875,986.3813 Q377.8375,986.2938 378.0125,986.2938 Q378.3125,986.2938 378.5,986.5063 Q378.6875,986.7063 378.6875,987.1938 L378.6875,988.3563 Q378.6875,988.8438 378.5,989.0563 Q378.3125,989.2688 378.0125,989.2688 Q377.7375,989.2688 377.575,989.1063 Q377.4125,988.9563 377.325,988.5438 Q377.2875,988.2563 377.1375,988.1063 Q376.875,987.8063 376.3875,987.6313 Q375.9,987.4563 375.4,987.4563 Q374.7875,987.4563 374.275,987.7188 Q373.775,987.9813 373.375,988.5813 Q372.9875,989.1813 372.9875,990.0063 L372.9875,990.8813 Q372.9875,991.8688 373.7,992.5313 Q374.4125,993.1813 375.6875,993.1813 Q376.4375,993.1813 376.9625,992.9813 Q377.275,992.8563 377.6125,992.5063 Q377.825,992.2938 377.9375,992.2313 Q378.0625,992.1688 378.225,992.1688 Q378.4875,992.1688 378.6875,992.3813 Q378.9,992.5813 378.9,992.8563 Q378.9,993.1313 378.625,993.4563 Q378.225,993.9188 377.5875,994.1813 Q376.725,994.5438 375.6875,994.5438 Q374.475,994.5438 373.5125,994.0438 Q372.725,993.6438 372.175,992.7938 Q371.625,991.9313 371.625,990.9063 L371.625,989.9813 Q371.625,988.9188 372.1125,988.0063 Q372.6125,987.0813 373.4875,986.5938 Q374.3625,986.0938 375.35,986.0938 Q375.9375,986.0938 376.45,986.2313 Q376.975,986.3563 377.4125,986.6438 Z " fill="#000000"/><ellipse cx="390.4" cy="989.5438" fill="#84BE84" rx="2.4" ry="2.4" style="stroke:#038048;stroke-width:0.8000000000000002;"/><text fill="#000000" font-family="sans-serif" font-size="11.2" lengthAdjust="spacing" textLength="12.8" x="401.6" y="979.6844">&lt;&lt;</text><text fill="#000000" filter="url(#bsqmuhl57mb2b0)" font-family="sans-serif" font-size="11.2" lengthAdjust="spacing" textLength="109.6" x="414.4" y="979.6844">JsonSerializer&lt;Short&gt;</text><text fill="#000000" font-family="sans-serif" font-size="11.2" lengthAdjust="spacing" textLength="12.8" x="524" y="979.6844">&gt;&gt;</text><text fill="#000000" font-family="sans-serif" font-size="11.2" lengthAdjust="spacing" textLength="12.8" x="395.2" y="994.5813">&lt;&lt;</text><text fill="#000000" filter="url(#bsqmuhl57mb2b0)" font-family="sans-serif" font-size="11.2" lengthAdjust="spacing" textLength="122.4" x="408" y="994.5813">JsonDeserializer&lt;Short&gt;</text><text fill="#000000" font-family="sans-serif" font-size="11.2" lengthAdjust="spacing" textLength="12.8" x="530.4" y="994.5813">&gt;&gt;</text><text fill="#000000" font-family="sans-serif" font-size="11.2" lengthAdjust="spacing" textLength="90.4" x="424" y="1009.4781">ShortJsonAdapter</text><line style="stroke:#D4AC0D;stroke-width:1.6000000000000003;" x1="364" x2="544.8" y1="1016.2891" y2="1016.2891"/><line style="stroke:#D4AC0D;stroke-width:1.6000000000000003;" x1="364" x2="544.8" y1="1022.6891" y2="1022.6891"/><text fill="#000000" font-family="sans-serif" font-size="11.2" lengthAdjust="spacing" textLength="9.6" x="368" y="1037.975">...</text></g><!--class IntegerJsonAdapter--><g id="elem_IntegerJsonAdapter"><rect codeLine="151" fill="#FEFECE" height="80.3875" id="IntegerJsonAdapter" rx="2" ry="2" style="stroke:#D4AC0D;stroke-width:1.6000000000000003;" width="190.4" x="573.6" y="963.5984"/><ellipse cx="585.6" cy="989.9438" fill="#ADD1B2" rx="8.8" ry="8.8" style="stroke:#181818;stroke-width:0.8000000000000002;"/><path d="M587.8125,986.6438 Q587.9375,986.4688 588.0875,986.3813 Q588.2375,986.2938 588.4125,986.2938 Q588.7125,986.2938 588.9,986.5063 Q589.0875,986.7063 589.0875,987.1938 L589.0875,988.3563 Q589.0875,988.8438 588.9,989.0563 Q588.7125,989.2688 588.4125,989.2688 Q588.1375,989.2688 587.975,989.1063 Q587.8125,988.9563 587.725,988.5438 Q587.6875,988.2563 587.5375,988.1063 Q587.275,987.8063 586.7875,987.6313 Q586.3,987.4563 585.8,987.4563 Q585.1875,987.4563 584.675,987.7188 Q584.175,987.9813 583.775,988.5813 Q583.3875,989.1813 583.3875,990.0063 L583.3875,990.8813 Q583.3875,991.8688 584.1,992.5313 Q584.8125,993.1813 586.0875,993.1813 Q586.8375,993.1813 587.3625,992.9813 Q587.675,992.8563 588.0125,992.5063 Q588.225,992.2938 588.3375,992.2313 Q588.4625,992.1688 588.625,992.1688 Q588.8875,992.1688 589.0875,992.3813 Q589.3,992.5813 589.3,992.8563 Q589.3,993.1313 589.025,993.4563 Q588.625,993.9188 587.9875,994.1813 Q587.125,994.5438 586.0875,994.5438 Q584.875,994.5438 583.9125,994.0438 Q583.125,993.6438 582.575,992.7938 Q582.025,991.9313 582.025,990.9063 L582.025,989.9813 Q582.025,988.9188 582.5125,988.0063 Q583.0125,987.0813 583.8875,986.5938 Q584.7625,986.0938 585.75,986.0938 Q586.3375,986.0938 586.85,986.2313 Q587.375,986.3563 587.8125,986.6438 Z " fill="#000000"/><ellipse cx="600.8" cy="989.5438" fill="#84BE84" rx="2.4" ry="2.4" style="stroke:#038048;stroke-width:0.8000000000000002;"/><text fill="#000000" font-family="sans-serif" font-size="11.2" lengthAdjust="spacing" textLength="12.8" x="612" y="979.6844">&lt;&lt;</text><text fill="#000000" filter="url(#bsqmuhl57mb2b0)" font-family="sans-serif" font-size="11.2" lengthAdjust="spacing" textLength="117.6" x="624.8" y="979.6844">JsonSerializer&lt;Integer&gt;</text><text fill="#000000" font-family="sans-serif" font-size="11.2" lengthAdjust="spacing" textLength="12.8" x="742.4" y="979.6844">&gt;&gt;</text><text fill="#000000" font-family="sans-serif" font-size="11.2" lengthAdjust="spacing" textLength="12.8" x="605.6" y="994.5813">&lt;&lt;</text><text fill="#000000" filter="url(#bsqmuhl57mb2b0)" font-family="sans-serif" font-size="11.2" lengthAdjust="spacing" textLength="130.4" x="618.4" y="994.5813">JsonDeserializer&lt;Integer&gt;</text><text fill="#000000" font-family="sans-serif" font-size="11.2" lengthAdjust="spacing" textLength="12.8" x="748.8" y="994.5813">&gt;&gt;</text><text fill="#000000" font-family="sans-serif" font-size="11.2" lengthAdjust="spacing" textLength="98.4" x="634.4" y="1009.4781">IntegerJsonAdapter</text><line style="stroke:#D4AC0D;stroke-width:1.6000000000000003;" x1="574.4" x2="763.2" y1="1016.2891" y2="1016.2891"/><line style="stroke:#D4AC0D;stroke-width:1.6000000000000003;" x1="574.4" x2="763.2" y1="1022.6891" y2="1022.6891"/><text fill="#000000" font-family="sans-serif" font-size="11.2" lengthAdjust="spacing" textLength="9.6" x="578.4" y="1037.975">...</text></g><!--class LongJsonAdapter--><g id="elem_LongJsonAdapter"><rect codeLine="155" fill="#FEFECE" height="80.3875" id="LongJsonAdapter" rx="2" ry="2" style="stroke:#D4AC0D;stroke-width:1.6000000000000003;" width="180.8" x="792" y="963.5984"/><ellipse cx="804" cy="989.9438" fill="#ADD1B2" rx="8.8" ry="8.8" style="stroke:#181818;stroke-width:0.8000000000000002;"/><path d="M806.2125,986.6438 Q806.3375,986.4688 806.4875,986.3813 Q806.6375,986.2938 806.8125,986.2938 Q807.1125,986.2938 807.3,986.5063 Q807.4875,986.7063 807.4875,987.1938 L807.4875,988.3563 Q807.4875,988.8438 807.3,989.0563 Q807.1125,989.2688 806.8125,989.2688 Q806.5375,989.2688 806.375,989.1063 Q806.2125,988.9563 806.125,988.5438 Q806.0875,988.2563 805.9375,988.1063 Q805.675,987.8063 805.1875,987.6313 Q804.7,987.4563 804.2,987.4563 Q803.5875,987.4563 803.075,987.7188 Q802.575,987.9813 802.175,988.5813 Q801.7875,989.1813 801.7875,990.0063 L801.7875,990.8813 Q801.7875,991.8688 802.5,992.5313 Q803.2125,993.1813 804.4875,993.1813 Q805.2375,993.1813 805.7625,992.9813 Q806.075,992.8563 806.4125,992.5063 Q806.625,992.2938 806.7375,992.2313 Q806.8625,992.1688 807.025,992.1688 Q807.2875,992.1688 807.4875,992.3813 Q807.7,992.5813 807.7,992.8563 Q807.7,993.1313 807.425,993.4563 Q807.025,993.9188 806.3875,994.1813 Q805.525,994.5438 804.4875,994.5438 Q803.275,994.5438 802.3125,994.0438 Q801.525,993.6438 800.975,992.7938 Q800.425,991.9313 800.425,990.9063 L800.425,989.9813 Q800.425,988.9188 800.9125,988.0063 Q801.4125,987.0813 802.2875,986.5938 Q803.1625,986.0938 804.15,986.0938 Q804.7375,986.0938 805.25,986.2313 Q805.775,986.3563 806.2125,986.6438 Z " fill="#000000"/><ellipse cx="819.2" cy="989.5438" fill="#84BE84" rx="2.4" ry="2.4" style="stroke:#038048;stroke-width:0.8000000000000002;"/><text fill="#000000" font-family="sans-serif" font-size="11.2" lengthAdjust="spacing" textLength="12.8" x="830.4" y="979.6844">&lt;&lt;</text><text fill="#000000" filter="url(#bsqmuhl57mb2b0)" font-family="sans-serif" font-size="11.2" lengthAdjust="spacing" textLength="108" x="843.2" y="979.6844">JsonSerializer&lt;Long&gt;</text><text fill="#000000" font-family="sans-serif" font-size="11.2" lengthAdjust="spacing" textLength="12.8" x="951.2" y="979.6844">&gt;&gt;</text><text fill="#000000" font-family="sans-serif" font-size="11.2" lengthAdjust="spacing" textLength="12.8" x="824" y="994.5813">&lt;&lt;</text><text fill="#000000" filter="url(#bsqmuhl57mb2b0)" font-family="sans-serif" font-size="11.2" lengthAdjust="spacing" textLength="120.8" x="836.8" y="994.5813">JsonDeserializer&lt;Long&gt;</text><text fill="#000000" font-family="sans-serif" font-size="11.2" lengthAdjust="spacing" textLength="12.8" x="957.6" y="994.5813">&gt;&gt;</text><text fill="#000000" font-family="sans-serif" font-size="11.2" lengthAdjust="spacing" textLength="88.8" x="852.8" y="1009.4781">LongJsonAdapter</text><line style="stroke:#D4AC0D;stroke-width:1.6000000000000003;" x1="792.8" x2="972" y1="1016.2891" y2="1016.2891"/><line style="stroke:#D4AC0D;stroke-width:1.6000000000000003;" x1="792.8" x2="972" y1="1022.6891" y2="1022.6891"/><text fill="#000000" font-family="sans-serif" font-size="11.2" lengthAdjust="spacing" textLength="9.6" x="796.8" y="1037.975">...</text></g><!--class ThrowableJsonSerializer--><g id="elem_ThrowableJsonSerializer"><rect codeLine="159" fill="#FEFECE" height="65.4906" id="ThrowableJsonSerializer" rx="2" ry="2" style="stroke:#D4AC0D;stroke-width:1.6000000000000003;" width="195.2" x="1000.8" y="970.7984"/><ellipse cx="1012.8" cy="989.6953" fill="#ADD1B2" rx="8.8" ry="8.8" style="stroke:#181818;stroke-width:0.8000000000000002;"/><path d="M1015.0125,986.3953 Q1015.1375,986.2203 1015.2875,986.1328 Q1015.4375,986.0453 1015.6125,986.0453 Q1015.9125,986.0453 1016.1,986.2578 Q1016.2875,986.4578 1016.2875,986.9453 L1016.2875,988.1078 Q1016.2875,988.5953 1016.1,988.8078 Q1015.9125,989.0203 1015.6125,989.0203 Q1015.3375,989.0203 1015.175,988.8578 Q1015.0125,988.7078 1014.925,988.2953 Q1014.8875,988.0078 1014.7375,987.8578 Q1014.475,987.5578 1013.9875,987.3828 Q1013.5,987.2078 1013,987.2078 Q1012.3875,987.2078 1011.875,987.4703 Q1011.375,987.7328 1010.975,988.3328 Q1010.5875,988.9328 1010.5875,989.7578 L1010.5875,990.6328 Q1010.5875,991.6203 1011.3,992.2828 Q1012.0125,992.9328 1013.2875,992.9328 Q1014.0375,992.9328 1014.5625,992.7328 Q1014.875,992.6078 1015.2125,992.2578 Q1015.425,992.0453 1015.5375,991.9828 Q1015.6625,991.9203 1015.825,991.9203 Q1016.0875,991.9203 1016.2875,992.1328 Q1016.5,992.3328 1016.5,992.6078 Q1016.5,992.8828 1016.225,993.2078 Q1015.825,993.6703 1015.1875,993.9328 Q1014.325,994.2953 1013.2875,994.2953 Q1012.075,994.2953 1011.1125,993.7953 Q1010.325,993.3953 1009.775,992.5453 Q1009.225,991.6828 1009.225,990.6578 L1009.225,989.7328 Q1009.225,988.6703 1009.7125,987.7578 Q1010.2125,986.8328 1011.0875,986.3453 Q1011.9625,985.8453 1012.95,985.8453 Q1013.5375,985.8453 1014.05,985.9828 Q1014.575,986.1078 1015.0125,986.3953 Z " fill="#000000"/><ellipse cx="1028" cy="989.2953" fill="#84BE84" rx="2.4" ry="2.4" style="stroke:#038048;stroke-width:0.8000000000000002;"/><text fill="#000000" font-family="sans-serif" font-size="11.2" lengthAdjust="spacing" textLength="12.8" x="1032.8" y="986.8844">&lt;&lt;</text><text fill="#000000" filter="url(#bsqmuhl57mb2b0)" font-family="sans-serif" font-size="11.2" lengthAdjust="spacing" textLength="135.2" x="1045.6" y="986.8844">JsonSerializer&lt;Throwable&gt;</text><text fill="#000000" font-family="sans-serif" font-size="11.2" lengthAdjust="spacing" textLength="12.8" x="1180.8" y="986.8844">&gt;&gt;</text><text fill="#000000" font-family="sans-serif" font-size="11.2" lengthAdjust="spacing" textLength="122.4" x="1052" y="1001.7813">ThrowableJsonSerializer</text><line style="stroke:#D4AC0D;stroke-width:1.6000000000000003;" x1="1001.6" x2="1195.2" y1="1008.5922" y2="1008.5922"/><line style="stroke:#D4AC0D;stroke-width:1.6000000000000003;" x1="1001.6" x2="1195.2" y1="1014.9922" y2="1014.9922"/><text fill="#000000" font-family="sans-serif" font-size="11.2" lengthAdjust="spacing" textLength="9.6" x="1005.6" y="1030.2781">...</text></g><!--class DateJsonSerializer--><g id="elem_DateJsonSerializer"><rect codeLine="163" fill="#FEFECE" height="65.4906" id="DateJsonSerializer" rx="2" ry="2" style="stroke:#D4AC0D;stroke-width:1.6000000000000003;" width="166.4" x="371.2" y="1098.7984"/><ellipse cx="383.2" cy="1117.6953" fill="#ADD1B2" rx="8.8" ry="8.8" style="stroke:#181818;stroke-width:0.8000000000000002;"/><path d="M385.4125,1114.3953 Q385.5375,1114.2203 385.6875,1114.1328 Q385.8375,1114.0453 386.0125,1114.0453 Q386.3125,1114.0453 386.5,1114.2578 Q386.6875,1114.4578 386.6875,1114.9453 L386.6875,1116.1078 Q386.6875,1116.5953 386.5,1116.8078 Q386.3125,1117.0203 386.0125,1117.0203 Q385.7375,1117.0203 385.575,1116.8578 Q385.4125,1116.7078 385.325,1116.2953 Q385.2875,1116.0078 385.1375,1115.8578 Q384.875,1115.5578 384.3875,1115.3828 Q383.9,1115.2078 383.4,1115.2078 Q382.7875,1115.2078 382.275,1115.4703 Q381.775,1115.7328 381.375,1116.3328 Q380.9875,1116.9328 380.9875,1117.7578 L380.9875,1118.6328 Q380.9875,1119.6203 381.7,1120.2828 Q382.4125,1120.9328 383.6875,1120.9328 Q384.4375,1120.9328 384.9625,1120.7328 Q385.275,1120.6078 385.6125,1120.2578 Q385.825,1120.0453 385.9375,1119.9828 Q386.0625,1119.9203 386.225,1119.9203 Q386.4875,1119.9203 386.6875,1120.1328 Q386.9,1120.3328 386.9,1120.6078 Q386.9,1120.8828 386.625,1121.2078 Q386.225,1121.6703 385.5875,1121.9328 Q384.725,1122.2953 383.6875,1122.2953 Q382.475,1122.2953 381.5125,1121.7953 Q380.725,1121.3953 380.175,1120.5453 Q379.625,1119.6828 379.625,1118.6578 L379.625,1117.7328 Q379.625,1116.6703 380.1125,1115.7578 Q380.6125,1114.8328 381.4875,1114.3453 Q382.3625,1113.8453 383.35,1113.8453 Q383.9375,1113.8453 384.45,1113.9828 Q384.975,1114.1078 385.4125,1114.3953 Z " fill="#000000"/><ellipse cx="398.4" cy="1117.2953" fill="#84BE84" rx="2.4" ry="2.4" style="stroke:#038048;stroke-width:0.8000000000000002;"/><text fill="#000000" font-family="sans-serif" font-size="11.2" lengthAdjust="spacing" textLength="12.8" x="403.2" y="1114.8844">&lt;&lt;</text><text fill="#000000" filter="url(#bsqmuhl57mb2b0)" font-family="sans-serif" font-size="11.2" lengthAdjust="spacing" textLength="106.4" x="416" y="1114.8844">JsonSerializer&lt;Date&gt;</text><text fill="#000000" font-family="sans-serif" font-size="11.2" lengthAdjust="spacing" textLength="12.8" x="522.4" y="1114.8844">&gt;&gt;</text><text fill="#000000" font-family="sans-serif" font-size="11.2" lengthAdjust="spacing" textLength="93.6" x="422.4" y="1129.7813">DateJsonSerializer</text><line style="stroke:#D4AC0D;stroke-width:1.6000000000000003;" x1="372" x2="536.8" y1="1136.5922" y2="1136.5922"/><line style="stroke:#D4AC0D;stroke-width:1.6000000000000003;" x1="372" x2="536.8" y1="1142.9922" y2="1142.9922"/><text fill="#000000" font-family="sans-serif" font-size="11.2" lengthAdjust="spacing" textLength="9.6" x="376" y="1158.2781">...</text></g><!--class CalendarJsonAdapter--><g id="elem_CalendarJsonAdapter"><rect codeLine="167" fill="#FEFECE" height="80.3875" id="CalendarJsonAdapter" rx="2" ry="2" style="stroke:#D4AC0D;stroke-width:1.6000000000000003;" width="201.6" x="565.6" y="1091.5984"/><ellipse cx="577.6" cy="1117.9438" fill="#ADD1B2" rx="8.8" ry="8.8" style="stroke:#181818;stroke-width:0.8000000000000002;"/><path d="M579.8125,1114.6438 Q579.9375,1114.4688 580.0875,1114.3813 Q580.2375,1114.2938 580.4125,1114.2938 Q580.7125,1114.2938 580.9,1114.5063 Q581.0875,1114.7063 581.0875,1115.1938 L581.0875,1116.3563 Q581.0875,1116.8438 580.9,1117.0563 Q580.7125,1117.2688 580.4125,1117.2688 Q580.1375,1117.2688 579.975,1117.1063 Q579.8125,1116.9563 579.725,1116.5438 Q579.6875,1116.2563 579.5375,1116.1063 Q579.275,1115.8063 578.7875,1115.6313 Q578.3,1115.4563 577.8,1115.4563 Q577.1875,1115.4563 576.675,1115.7188 Q576.175,1115.9813 575.775,1116.5813 Q575.3875,1117.1813 575.3875,1118.0063 L575.3875,1118.8813 Q575.3875,1119.8688 576.1,1120.5313 Q576.8125,1121.1813 578.0875,1121.1813 Q578.8375,1121.1813 579.3625,1120.9813 Q579.675,1120.8563 580.0125,1120.5063 Q580.225,1120.2938 580.3375,1120.2313 Q580.4625,1120.1688 580.625,1120.1688 Q580.8875,1120.1688 581.0875,1120.3813 Q581.3,1120.5813 581.3,1120.8563 Q581.3,1121.1313 581.025,1121.4563 Q580.625,1121.9188 579.9875,1122.1813 Q579.125,1122.5438 578.0875,1122.5438 Q576.875,1122.5438 575.9125,1122.0438 Q575.125,1121.6438 574.575,1120.7938 Q574.025,1119.9313 574.025,1118.9063 L574.025,1117.9813 Q574.025,1116.9188 574.5125,1116.0063 Q575.0125,1115.0813 575.8875,1114.5938 Q576.7625,1114.0938 577.75,1114.0938 Q578.3375,1114.0938 578.85,1114.2313 Q579.375,1114.3563 579.8125,1114.6438 Z " fill="#000000"/><ellipse cx="592.8" cy="1117.5438" fill="#84BE84" rx="2.4" ry="2.4" style="stroke:#038048;stroke-width:0.8000000000000002;"/><text fill="#000000" font-family="sans-serif" font-size="11.2" lengthAdjust="spacing" textLength="12.8" x="604" y="1107.6844">&lt;&lt;</text><text fill="#000000" filter="url(#bsqmuhl57mb2b0)" font-family="sans-serif" font-size="11.2" lengthAdjust="spacing" textLength="128.8" x="616.8" y="1107.6844">JsonSerializer&lt;Calendar&gt;</text><text fill="#000000" font-family="sans-serif" font-size="11.2" lengthAdjust="spacing" textLength="12.8" x="745.6" y="1107.6844">&gt;&gt;</text><text fill="#000000" font-family="sans-serif" font-size="11.2" lengthAdjust="spacing" textLength="12.8" x="597.6" y="1122.5813">&lt;&lt;</text><text fill="#000000" filter="url(#bsqmuhl57mb2b0)" font-family="sans-serif" font-size="11.2" lengthAdjust="spacing" textLength="141.6" x="610.4" y="1122.5813">JsonDeserializer&lt;Calendar&gt;</text><text fill="#000000" font-family="sans-serif" font-size="11.2" lengthAdjust="spacing" textLength="12.8" x="752" y="1122.5813">&gt;&gt;</text><text fill="#000000" font-family="sans-serif" font-size="11.2" lengthAdjust="spacing" textLength="109.6" x="626.4" y="1137.4781">CalendarJsonAdapter</text><line style="stroke:#D4AC0D;stroke-width:1.6000000000000003;" x1="566.4" x2="766.4" y1="1144.2891" y2="1144.2891"/><line style="stroke:#D4AC0D;stroke-width:1.6000000000000003;" x1="566.4" x2="766.4" y1="1150.6891" y2="1150.6891"/><text fill="#000000" font-family="sans-serif" font-size="11.2" lengthAdjust="spacing" textLength="9.6" x="570.4" y="1165.975">...</text></g><!--class ByteBufferJsonAdapter--><g id="elem_ByteBufferJsonAdapter"><rect codeLine="171" fill="#FEFECE" height="80.3875" id="ByteBufferJsonAdapter" rx="2" ry="2" style="stroke:#D4AC0D;stroke-width:1.6000000000000003;" width="208" x="795.2" y="1091.5984"/><ellipse cx="807.2" cy="1117.9438" fill="#ADD1B2" rx="8.8" ry="8.8" style="stroke:#181818;stroke-width:0.8000000000000002;"/><path d="M809.4125,1114.6438 Q809.5375,1114.4688 809.6875,1114.3813 Q809.8375,1114.2938 810.0125,1114.2938 Q810.3125,1114.2938 810.5,1114.5063 Q810.6875,1114.7063 810.6875,1115.1938 L810.6875,1116.3563 Q810.6875,1116.8438 810.5,1117.0563 Q810.3125,1117.2688 810.0125,1117.2688 Q809.7375,1117.2688 809.575,1117.1063 Q809.4125,1116.9563 809.325,1116.5438 Q809.2875,1116.2563 809.1375,1116.1063 Q808.875,1115.8063 808.3875,1115.6313 Q807.9,1115.4563 807.4,1115.4563 Q806.7875,1115.4563 806.275,1115.7188 Q805.775,1115.9813 805.375,1116.5813 Q804.9875,1117.1813 804.9875,1118.0063 L804.9875,1118.8813 Q804.9875,1119.8688 805.7,1120.5313 Q806.4125,1121.1813 807.6875,1121.1813 Q808.4375,1121.1813 808.9625,1120.9813 Q809.275,1120.8563 809.6125,1120.5063 Q809.825,1120.2938 809.9375,1120.2313 Q810.0625,1120.1688 810.225,1120.1688 Q810.4875,1120.1688 810.6875,1120.3813 Q810.9,1120.5813 810.9,1120.8563 Q810.9,1121.1313 810.625,1121.4563 Q810.225,1121.9188 809.5875,1122.1813 Q808.725,1122.5438 807.6875,1122.5438 Q806.475,1122.5438 805.5125,1122.0438 Q804.725,1121.6438 804.175,1120.7938 Q803.625,1119.9313 803.625,1118.9063 L803.625,1117.9813 Q803.625,1116.9188 804.1125,1116.0063 Q804.6125,1115.0813 805.4875,1114.5938 Q806.3625,1114.0938 807.35,1114.0938 Q807.9375,1114.0938 808.45,1114.2313 Q808.975,1114.3563 809.4125,1114.6438 Z " fill="#000000"/><ellipse cx="822.4" cy="1117.5438" fill="#84BE84" rx="2.4" ry="2.4" style="stroke:#038048;stroke-width:0.8000000000000002;"/><text fill="#000000" font-family="sans-serif" font-size="11.2" lengthAdjust="spacing" textLength="12.8" x="833.6" y="1107.6844">&lt;&lt;</text><text fill="#000000" filter="url(#bsqmuhl57mb2b0)" font-family="sans-serif" font-size="11.2" lengthAdjust="spacing" textLength="135.2" x="846.4" y="1107.6844">JsonSerializer&lt;ByteBuffer&gt;</text><text fill="#000000" font-family="sans-serif" font-size="11.2" lengthAdjust="spacing" textLength="12.8" x="981.6" y="1107.6844">&gt;&gt;</text><text fill="#000000" font-family="sans-serif" font-size="11.2" lengthAdjust="spacing" textLength="12.8" x="827.2" y="1122.5813">&lt;&lt;</text><text fill="#000000" filter="url(#bsqmuhl57mb2b0)" font-family="sans-serif" font-size="11.2" lengthAdjust="spacing" textLength="148" x="840" y="1122.5813">JsonDeserializer&lt;ByteBuffer&gt;</text><text fill="#000000" font-family="sans-serif" font-size="11.2" lengthAdjust="spacing" textLength="12.8" x="988" y="1122.5813">&gt;&gt;</text><text fill="#0000FF" font-family="sans-serif" font-size="11.2" lengthAdjust="spacing" textLength="116" x="856" y="1137.4781">ByteBufferJsonAdapter</text><line style="stroke:#D4AC0D;stroke-width:1.6000000000000003;" x1="796" x2="1002.4" y1="1144.2891" y2="1144.2891"/><line style="stroke:#D4AC0D;stroke-width:1.6000000000000003;" x1="796" x2="1002.4" y1="1150.6891" y2="1150.6891"/><text fill="#000000" font-family="sans-serif" font-size="11.2" lengthAdjust="spacing" textLength="9.6" x="800" y="1165.975">...</text></g><!--class ContactCardCommonProtocol--><g id="elem_ContactCardCommonProtocol"><rect codeLine="177" fill="#FEFECE" height="97.9875" id="ContactCardCommonProtocol" rx="2" ry="2" style="stroke:#D4AC0D;stroke-width:1.6000000000000003;" width="255.2" x="942.8" y="205.9984"/><ellipse cx="987.4" cy="218.7984" fill="#EB937F" rx="8.8" ry="8.8" style="stroke:#181818;stroke-width:0.8000000000000002;"/><path d="M986.4875,219.4359 L986.4875,221.4359 L989.95,221.4359 L989.95,220.6984 Q989.95,220.2109 990.1375,219.9984 Q990.3375,219.7859 990.6375,219.7859 Q990.9375,219.7859 991.125,219.9984 Q991.3125,220.2109 991.3125,220.6984 L991.3125,222.7984 L984.9125,222.7984 Q984.4125,222.7984 984.2,222.6109 Q984,222.4234 984,222.1109 Q984,221.8109 984.2125,221.6234 Q984.425,221.4359 984.9125,221.4359 L985.125,221.4359 L985.125,216.1109 L984.9125,216.1109 Q984.4125,216.1109 984.2,215.9234 Q984,215.7359 984,215.4234 Q984,215.1234 984.2,214.9359 Q984.4125,214.7484 984.9125,214.7484 L991.0125,214.7484 L991.0125,216.8234 Q991.0125,217.3109 990.825,217.5234 Q990.65,217.7234 990.3375,217.7234 Q990.0375,217.7234 989.85,217.5234 Q989.6625,217.3109 989.6625,216.8234 L989.6625,216.1109 L986.4875,216.1109 L986.4875,218.0734 L987.675,218.0734 Q987.675,217.5484 987.775,217.3984 Q987.9875,217.0734 988.3625,217.0734 Q988.6625,217.0734 988.85,217.2859 Q989.0375,217.4859 989.0375,217.9734 L989.0375,219.5484 Q989.0375,219.9859 988.9375,220.1359 Q988.725,220.4484 988.3625,220.4484 Q987.9875,220.4484 987.775,220.1234 Q987.675,219.9734 987.675,219.4359 L986.4875,219.4359 Z " fill="#000000"/><ellipse cx="1007.8" cy="218.3984" fill="#84BE84" rx="2.4" ry="2.4" style="stroke:#038048;stroke-width:0.8000000000000002;"/><text fill="#000000" font-family="sans-serif" font-size="11.2" lengthAdjust="spacing" text-decoration="line-through" textLength="150.4" x="1012.6" y="223.4359">ContactCardCommonProtocol</text><line style="stroke:#D4AC0D;stroke-width:1.6000000000000003;" x1="943.6" x2="1197.2" y1="231.5984" y2="231.5984"/><text fill="#000000" font-family="sans-serif" font-size="11.2" lengthAdjust="spacing" text-decoration="line-through" textLength="63.2" x="947.6" y="246.8844">ISO_7816_3</text><text fill="#000000" font-family="sans-serif" font-size="11.2" lengthAdjust="spacing" text-decoration="line-through" textLength="85.6" x="947.6" y="261.7813">ISO_7816_3_TO</text><text fill="#000000" font-family="sans-serif" font-size="11.2" lengthAdjust="spacing" text-decoration="line-through" textLength="83.2" x="947.6" y="276.6781">ISO_7816_3_T1</text><text fill="#000000" font-family="sans-serif" font-size="11.2" lengthAdjust="spacing" text-decoration="line-through" textLength="245.6" x="947.6" y="291.575">INNOVATRON_HIGH_SPEED_PROTOCOL_SAM</text><line style="stroke:#D4AC0D;stroke-width:1.6000000000000003;" x1="943.6" x2="1197.2" y1="297.5859" y2="297.5859"/></g><!--class ContactlessCardCommonProtocol--><g id="elem_ContactlessCardCommonProtocol"><rect codeLine="183" fill="#FEFECE" height="127.7813" id="ContactlessCardCommonProtocol" rx="2" ry="2" style="stroke:#D4AC0D;stroke-width:1.6000000000000003;" width="204.8" x="709.6" y="190.7984"/><ellipse cx="721.6" cy="203.5984" fill="#EB937F" rx="8.8" ry="8.8" style="stroke:#181818;stroke-width:0.8000000000000002;"/><path d="M720.6875,204.2359 L720.6875,206.2359 L724.15,206.2359 L724.15,205.4984 Q724.15,205.0109 724.3375,204.7984 Q724.5375,204.5859 724.8375,204.5859 Q725.1375,204.5859 725.325,204.7984 Q725.5125,205.0109 725.5125,205.4984 L725.5125,207.5984 L719.1125,207.5984 Q718.6125,207.5984 718.4,207.4109 Q718.2,207.2234 718.2,206.9109 Q718.2,206.6109 718.4125,206.4234 Q718.625,206.2359 719.1125,206.2359 L719.325,206.2359 L719.325,200.9109 L719.1125,200.9109 Q718.6125,200.9109 718.4,200.7234 Q718.2,200.5359 718.2,200.2234 Q718.2,199.9234 718.4,199.7359 Q718.6125,199.5484 719.1125,199.5484 L725.2125,199.5484 L725.2125,201.6234 Q725.2125,202.1109 725.025,202.3234 Q724.85,202.5234 724.5375,202.5234 Q724.2375,202.5234 724.05,202.3234 Q723.8625,202.1109 723.8625,201.6234 L723.8625,200.9109 L720.6875,200.9109 L720.6875,202.8734 L721.875,202.8734 Q721.875,202.3484 721.975,202.1984 Q722.1875,201.8734 722.5625,201.8734 Q722.8625,201.8734 723.05,202.0859 Q723.2375,202.2859 723.2375,202.7734 L723.2375,204.3484 Q723.2375,204.7859 723.1375,204.9359 Q722.925,205.2484 722.5625,205.2484 Q722.1875,205.2484 721.975,204.9234 Q721.875,204.7734 721.875,204.2359 L720.6875,204.2359 Z " fill="#000000"/><ellipse cx="736.8" cy="203.1984" fill="#84BE84" rx="2.4" ry="2.4" style="stroke:#038048;stroke-width:0.8000000000000002;"/><text fill="#000000" font-family="sans-serif" font-size="11.2" lengthAdjust="spacing" text-decoration="line-through" textLength="170.4" x="741.6" y="208.2359">ContactlessCardCommonProtocol</text><line style="stroke:#D4AC0D;stroke-width:1.6000000000000003;" x1="710.4" x2="913.6" y1="216.3984" y2="216.3984"/><text fill="#000000" font-family="sans-serif" font-size="11.2" lengthAdjust="spacing" text-decoration="line-through" textLength="69.6" x="714.4" y="231.6844">ISO_14443_4</text><text fill="#000000" font-family="sans-serif" font-size="11.2" lengthAdjust="spacing" text-decoration="line-through" textLength="119.2" x="714.4" y="246.5813">NFC_A_ISO_14443_3A</text><text fill="#000000" font-family="sans-serif" font-size="11.2" lengthAdjust="spacing" text-decoration="line-through" textLength="119.2" x="714.4" y="261.4781">NFC_B_ISO_14443_3B</text><text fill="#000000" font-family="sans-serif" font-size="11.2" lengthAdjust="spacing" text-decoration="line-through" textLength="101.6" x="714.4" y="276.375">NFC_F_JIS_6319_4</text><text fill="#000000" font-family="sans-serif" font-size="11.2" lengthAdjust="spacing" text-decoration="line-through" textLength="99.2" x="714.4" y="291.2719">NFC_V_ISO_15693</text><text fill="#000000" font-family="sans-serif" font-size="11.2" lengthAdjust="spacing" text-decoration="line-through" textLength="162.4" x="714.4" y="306.1688">INNOVATRON_B_PRIME_CARD</text><line style="stroke:#D4AC0D;stroke-width:1.6000000000000003;" x1="710.4" x2="913.6" y1="312.1797" y2="312.1797"/></g><!--link ByteArrayUtil to JsonUtil--><!--link Assert to ByteArrayUtil--><!--link Assert to ApduUtil--><!--link Assert to BerTlvUtil--><!--SRC=[lLbjSzgu5lxEhz1jFsoIBQIy93GPbZl6DYsxAMG2xKndTySZi00tnlALv2JSJlxx7icoiOs1q9aidwIZvxmVIKT6UC8d5GI_FyWwz0cgedirg4R2ywlVyGEk-juKo8rQi_OhEccyRpIgzNhrVVEqGW8N2IMWyWlwxJSq-MH_jc40KvD6FeaOHnxd4U789UWQBOK8-VNv-LAi_1drAPjHb_3QZAxEv-nSuAbFS5HrINKMSvUGOCYzHL0DVIpEA_znoTmB23ATZtVsjphgV-XVzQyAv0RgD_hDVgj0RYBxmcxRHNGBMMshPra5yWKo3RDlDGhaIzIppARPpf1l1iC_KBDrzS7gPQXVnZPgj0txyhsCLRMAncBjGrp44Wlaqk0NWHufkqUFdbYYW3oY1yAuHmD4vmXy3KIqye6jmk-z8CGChn0NX14grY4nUfIvX9aoekYjSMMPLhyKECW1UosZRL-K0isyHCkgzngbG3i7j7jNJL2j_BE7bhGtmsNwcFCOFrbwi_k0S8woOWt6w6Ds2IHz8xvF7xUauDdzWj4eSBNcljstJRjScOPOBSDyRu78E-8UaDVfCE9sko3MiYtRt2CsHThj5jH1PUb1eIV4JPX0wst4O5STL1mgcDBTiir-Uw_k3VY3tMePLg8-fUSicFhHOVqIfFpfzI_wlRtQ4wYkTQrRKtEQFp92WeEg5nAbT5_rstP_h-uKg_UKLfwGYzhNBr6-LheDg2Fxa6u5RPXD-oAhUftN79-9vcWuiOSJTIhwPA6EJ1gg4zTnb4IEOhhZe6j5FuCL-ma41TX7nkq0CJ87gS6Cy0tc37McuCJrMcsGxjaPdAAr1QKBdzJaiLfRS1gSdNNE9QghZkfOJQKI0WKl27f3sQ96PhuNSbABJtrWPQGcZ_ut27Ca1-Y7KlZhJ0O2lJaxWnCD-w3Vu9mmeN3nK2CL-WSNM7YpvsHfGSGW01euWKvEAnkWNW-e64Q-Zqv6q-za9X2TVdy7PoJpWWKAy8gSbd7Ogr2iqOc67SC2WVT13HomdVzsZ-AShWNvy-yNi7XymY9mjaSft641cj70zQJ60tnGI1XoFsBs_oB8_yaW490tXe9eDINi7V82WLPUy1N3HZjemXuP3oyIC0ZkS02rSi0CDSDFBpFg4tdIY2HrI_9KmlMye_1wa0AuA_3wIrAdEKff6UgqaIV1y4n8F4zpoTaizc3gYT5ypec8fy5KuKvVAiwdO7ugBEKkOUTB2f7Gt6CrsJA6AalAbCjLpGjPsSMPi-8TckeozFWO-YVYbWbM3cZ9DtByiw9BP3zGpuKz4AwtWgLrG6CdTYh9YkpmxaOZL9pdbXRKQOuZAIxALi3nVxA39QybDcpEw0hW1sKBgb29ErZWWZpfZtYaog49pQPk6WUoDEq5nZZ4nxCluMhyISqfwq_gdjE8lLprhbqFmKttknwNx_HyRUpARt4h2veU8ZiodUFG-4FGUACBglVuVh0ATXoY_K2rTmIDj-W1zqgB4zvLfo_2oblYC3BsyaLGVVCS1YeVK-IkeZ12Dqgh8fdikm2caUUxsZUG5fy-47ckHs4z6JGs9nDivG5SsohXFYclehJgJCn9Auqq1fjCkbhXm2tnf0TF8VzXfysVSTZHzsvYJ1T1Myh9s5l9ntgQJ_y1eXVDHCJ8vZmEcRU2ZkE1Z09_VNf8_et7HKShqLgEaxy_AXIwFoc1k74H2BmOv4AITANVeM_DHcChvxy38CrvCibmv4t8TSaV0QqxOjcHtaedcUn7otdLdSN8mfDT_KI-j5qS2icXNWMoTLnXCLj2sIh2kvmS-VjBw7uMnvoRuCc7_ZYQAkzozzkEJI4TpNR76vkVYx7gKNTjmrkQ5OEoMJYndsOabDqetFTwLBH1guOucV2Us8hIHW8WDfEJFOQzwNHowP0-MGHIuAaxcNLI0xiwIztkNq5ABCBZrc_NQi5vnybDQxNQSNQEDrRgJP8nyP1VsnpfPIEnkgpohMncuVLSaTgESQI8b_Co3_uLuzMbUeprMmoAKBI_I7mz1_JPUumB9IoQL7HZc_nwZiXEv1WlYdWvBzfVeBsUyPCbeu_oGtFMefIO1olBTgozdeKMpkywEI-nQvlyUYQPs2U1Yu-gtJAUX5RCVWdzTK_1NZIV7xSLTt2fFpQkrMVG3QBiZDnQETR1VDyKCYeeAC_sJYI8Lk0yxqBx9U1HRsBcocwK1hSQtJddtJZWkn05gq3OO3nosX_gbqvpzuep6UrRh6yj3eUZhyRaRZHqFWq-VdB6jxPjERTteyd87DquO-DpMNQB_lc4yyC-bgFA_QotMgscqoek3VkcOpWRGDCeG_IoY5uPek_yFXWxbytwLRcEhx64Yykhvfw8zI1GWy-sOnftrbQDFCiFqGRdTEPXsQ5n_M7wnlWs-X9_byv_Fgl-kVHSbmH_LzFkkbBH7-yoQpccalNaDLR6cZvxj2tZoRUR-8_3f9hLb-UtoVzwFvvp2pNrHdYR_BrNN4rtGXRn3m00]--></g></svg>