<svg xmlns="http://www.w3.org/2000/svg" xmlns:xlink="http://www.w3.org/1999/xlink" contentStyleType="text/css" data-diagram-type="CLASS" height="1511px" preserveAspectRatio="none" style="width:1525px;height:1511px;background:#FFFFFF;" version="1.1" viewBox="0 0 1525 1511" width="1525px" zoomAndPan="magnify"><title>Keyple - keyple-util-java-lib - 2.3.+ (2024-04-10)</title><defs><filter height="1" id="be66zzj1iad4t0" width="1" x="0" y="0"><feFlood flood-color="#FFFF00" result="flood"/><feComposite in="SourceGraphic" in2="flood" operator="over"/></filter></defs><g><g class="title" data-source-line="1"><text fill="#000000" font-family="sans-serif" font-size="14" font-weight="bold" lengthAdjust="spacing" textLength="309.292" x="600.854" y="25.1074">Keyple - keyple-util-java-lib - 2.3.+ (2024-04-10)</text></g><g class="legend" data-source-line="53"><rect fill="#DDDDDD" height="65.8633" rx="7.5" ry="7.5" style="stroke:#000000;stroke-width:1;" width="178.4551" x="666.2725" y="51.6211"/><text fill="#000000" font-family="sans-serif" font-size="14" lengthAdjust="spacing" text-decoration="underline" textLength="86.3857" x="671.2725" y="71.7285">Colors legend</text><text fill="#000000" font-family="sans-serif" font-size="14" lengthAdjust="spacing" textLength="3.8896" x="761.5479" y="71.7285">:</text><ellipse cx="676.7725" cy="86.3633" fill="#000000" rx="2.5" ry="2.5"/><text fill="#000000" font-family="sans-serif" font-size="14" lengthAdjust="spacing" text-decoration="underline" textLength="147.8477" x="683.2725" y="90.3496">External API references</text><text fill="#000000" font-family="sans-serif" font-size="14" lengthAdjust="spacing" textLength="3.8896" x="835.0098" y="90.3496">:</text><rect fill="#000000" height="3.5" width="3.5" x="680.2725" y="102.4844"/><text fill="#000000" filter="url(#be66zzj1iad4t0)" font-family="sans-serif" font-size="14" font-weight="bold" lengthAdjust="spacing" textLength="152.4551" x="687.2725" y="108.9707">com.google.code.gson</text></g><!--cluster util--><g class="cluster" data-entity="util" data-source-line="59" data-uid="ent0002" id="cluster_util"><path d="M8.5,136.498 L189.2373,136.498 A3.75,3.75 0 0 1 191.7373,138.998 L198.7373,161.1191 L1515.5,161.1191 A2.5,2.5 0 0 1 1518,163.6191 L1518,1501.998 A2.5,2.5 0 0 1 1515.5,1504.498 L8.5,1504.498 A2.5,2.5 0 0 1 6,1501.998 L6,138.998 A2.5,2.5 0 0 1 8.5,136.498" fill="#F8F9F9" style="stroke:#000000;stroke-width:1.5;"/><line style="stroke:#000000;stroke-width:1.5;" x1="6" x2="198.7373" y1="161.1191" y2="161.1191"/><text fill="#000000" font-family="sans-serif" font-size="14" font-weight="bold" lengthAdjust="spacing" textLength="179.7373" x="10" y="153.6055">org.eclipse.keyple.core.util</text></g><!--cluster json--><g class="cluster" data-entity="json" data-source-line="121" data-uid="ent0008" id="cluster_json"><path d="M32.5,966.498 L62.2793,966.498 A3.75,3.75 0 0 1 64.7793,968.998 L71.7793,991.1191 L1491.5,991.1191 A2.5,2.5 0 0 1 1494,993.6191 L1494,1477.998 A2.5,2.5 0 0 1 1491.5,1480.498 L32.5,1480.498 A2.5,2.5 0 0 1 30,1477.998 L30,968.998 A2.5,2.5 0 0 1 32.5,966.498" fill="#F2F3F4" style="stroke:#000000;stroke-width:1.5;"/><line style="stroke:#000000;stroke-width:1.5;" x1="30" x2="71.7793" y1="991.1191" y2="991.1191"/><text fill="#000000" font-family="sans-serif" font-size="14" font-weight="bold" lengthAdjust="spacing" textLength="28.7793" x="34" y="983.6055">json</text></g><!--cluster protocol--><g class="cluster" data-entity="protocol" data-source-line="176" data-uid="ent0021" id="cluster_protocol"><path d="M845.5,201.498 L902.4932,201.498 A3.75,3.75 0 0 1 904.9932,203.998 L911.9932,226.1191 L1491.5,226.1191 A2.5,2.5 0 0 1 1494,228.6191 L1494,411.998 A2.5,2.5 0 0 1 1491.5,414.498 L845.5,414.498 A2.5,2.5 0 0 1 843,411.998 L843,203.998 A2.5,2.5 0 0 1 845.5,201.498" fill="#F2F3F4" style="stroke:#000000;stroke-width:1.5;"/><line style="stroke:#000000;stroke-width:1.5;" x1="843" x2="911.9932" y1="226.1191" y2="226.1191"/><text fill="#000000" font-family="sans-serif" font-size="14" font-weight="bold" lengthAdjust="spacing" textLength="55.9932" x="847" y="218.6055">protocol</text></g><!--class Assert--><g class="entity" data-entity="Assert" data-source-line="60" data-uid="ent0003" id="entity_Assert"><rect fill="#FEFECE" height="252.832" rx="2.5" ry="2.5" style="stroke:#D4AC0D;stroke-width:2;" width="497.5566" x="326" y="191.998"/><ellipse cx="528.856" cy="207.998" fill="#ADD1B2" rx="11" ry="11" style="stroke:#ADD1B2;stroke-width:1;"/><path d="M531.6216,203.873 Q531.7778,203.6543 531.9653,203.5449 Q532.1528,203.4355 532.3716,203.4355 Q532.7466,203.4355 532.981,203.7012 Q533.2153,203.9512 533.2153,204.5605 L533.2153,206.0137 Q533.2153,206.623 532.981,206.8887 Q532.7466,207.1543 532.3716,207.1543 Q532.0278,207.1543 531.8247,206.9512 Q531.6216,206.7637 531.5122,206.248 Q531.4653,205.8887 531.2778,205.7012 Q530.9497,205.3262 530.3403,205.1074 Q529.731,204.8887 529.106,204.8887 Q528.3403,204.8887 527.6997,205.2168 Q527.0747,205.5449 526.5747,206.2949 Q526.0903,207.0449 526.0903,208.0762 L526.0903,209.1699 Q526.0903,210.4043 526.981,211.2324 Q527.8716,212.0449 529.4653,212.0449 Q530.4028,212.0449 531.0591,211.7949 Q531.4497,211.6387 531.8716,211.2012 Q532.1372,210.9355 532.2778,210.8574 Q532.4341,210.7793 532.6372,210.7793 Q532.9653,210.7793 533.2153,211.0449 Q533.481,211.2949 533.481,211.6387 Q533.481,211.9824 533.1372,212.3887 Q532.6372,212.9668 531.8403,213.2949 Q530.7622,213.748 529.4653,213.748 Q527.9497,213.748 526.7466,213.123 Q525.7622,212.623 525.0747,211.5605 Q524.3872,210.4824 524.3872,209.2012 L524.3872,208.0449 Q524.3872,206.7168 524.9966,205.5762 Q525.6216,204.4199 526.7153,203.8105 Q527.8091,203.1855 529.0435,203.1855 Q529.7778,203.1855 530.4185,203.3574 Q531.0747,203.5137 531.6216,203.873 Z " fill="#000000"/><ellipse cx="554.356" cy="207.498" fill="#84BE84" rx="3" ry="3" style="stroke:#038048;stroke-width:1;"/><text fill="#000000" font-family="sans-serif" font-size="14" font-weight="bold" lengthAdjust="spacing" textLength="28.7793" x="560.356" y="213.7949">final</text><text fill="#000000" font-family="sans-serif" font-size="14" lengthAdjust="spacing" textLength="39.6758" x="593.0249" y="213.7949">Assert</text><line style="stroke:#D4AC0D;stroke-width:2;" x1="327" x2="822.5566" y1="223.998" y2="223.998"/><line style="stroke:#D4AC0D;stroke-width:2;" x1="327" x2="822.5566" y1="231.998" y2="231.998"/><ellipse cx="337" cy="246.8086" fill="#84BE84" rx="3" ry="3" style="stroke:#038048;stroke-width:1;"/><text fill="#000000" font-family="sans-serif" font-size="14" lengthAdjust="spacing" text-decoration="underline" textLength="129.165" x="346" y="251.1055">Assert getInstance ()</text><text fill="#000000" font-family="sans-serif" font-size="14" lengthAdjust="spacing" textLength="3.8896" x="346" y="269.7266">&#160;</text><ellipse cx="337" cy="284.0508" fill="#84BE84" rx="3" ry="3" style="stroke:#038048;stroke-width:1;"/><text fill="#000000" font-family="sans-serif" font-size="14" lengthAdjust="spacing" textLength="246.6543" x="346" y="288.3477">Assert notNull (Object obj, String name)</text><ellipse cx="337" cy="302.6719" fill="#84BE84" rx="3" ry="3" style="stroke:#038048;stroke-width:1;"/><text fill="#000000" font-family="sans-serif" font-size="14" lengthAdjust="spacing" textLength="258.3232" x="346" y="306.9688">Assert notEmpty (String obj, String name)</text><ellipse cx="337" cy="321.293" fill="#84BE84" rx="3" ry="3" style="stroke:#038048;stroke-width:1;"/><text fill="#000000" font-family="sans-serif" font-size="14" lengthAdjust="spacing" textLength="307.3643" x="346" y="325.5898">Assert notEmpty (Collection&lt;?&gt; obj, String name)</text><ellipse cx="337" cy="339.9141" fill="#84BE84" rx="3" ry="3" style="stroke:#038048;stroke-width:1;"/><text fill="#000000" font-family="sans-serif" font-size="14" lengthAdjust="spacing" textLength="255.9922" x="346" y="344.2109">Assert notEmpty (byte[] obj, String name)</text><ellipse cx="337" cy="358.5352" fill="#84BE84" rx="3" ry="3" style="stroke:#038048;stroke-width:1;"/><text fill="#000000" font-family="sans-serif" font-size="14" lengthAdjust="spacing" textLength="290.2471" x="346" y="362.832">Assert isTrue (Boolean condition, String name)</text><ellipse cx="337" cy="377.1563" fill="#84BE84" rx="3" ry="3" style="stroke:#038048;stroke-width:1;"/><text fill="#000000" font-family="sans-serif" font-size="14" lengthAdjust="spacing" textLength="415.5225" x="346" y="381.4531">Assert greaterOrEqual (Integer number, int minValue, String name)</text><ellipse cx="337" cy="395.7773" fill="#84BE84" rx="3" ry="3" style="stroke:#038048;stroke-width:1;"/><text fill="#000000" font-family="sans-serif" font-size="14" lengthAdjust="spacing" textLength="340.8262" x="346" y="400.0742">Assert isEqual (Integer number, int value, String name)</text><ellipse cx="337" cy="414.3984" fill="#84BE84" rx="3" ry="3" style="stroke:#038048;stroke-width:1;"/><text fill="#000000" font-family="sans-serif" font-size="14" lengthAdjust="spacing" textLength="471.5566" x="346" y="418.6953">Assert isInRange (Integer number, int minValue, int maxValue, String name)</text><ellipse cx="337" cy="433.0195" fill="#84BE84" rx="3" ry="3" style="stroke:#038048;stroke-width:1;"/><text fill="#000000" font-family="sans-serif" font-size="14" lengthAdjust="spacing" textLength="274.6543" x="346" y="437.3164">Assert isHexString (String hex, String name)</text></g><!--class ByteArrayUtil--><g class="entity" data-entity="ByteArrayUtil" data-source-line="73" data-uid="ent0004" id="entity_ByteArrayUtil"><rect fill="#FEFECE" height="420.4219" rx="2.5" ry="2.5" style="stroke:#D4AC0D;stroke-width:2;" width="452.46" x="22" y="523.498"/><ellipse cx="181.3042" cy="539.498" fill="#ADD1B2" rx="11" ry="11" style="stroke:#ADD1B2;stroke-width:1;"/><path d="M184.0698,535.373 Q184.2261,535.1543 184.4136,535.0449 Q184.6011,534.9355 184.8198,534.9355 Q185.1948,534.9355 185.4292,535.2012 Q185.6636,535.4512 185.6636,536.0605 L185.6636,537.5137 Q185.6636,538.123 185.4292,538.3887 Q185.1948,538.6543 184.8198,538.6543 Q184.4761,538.6543 184.2729,538.4512 Q184.0698,538.2637 183.9604,537.748 Q183.9136,537.3887 183.7261,537.2012 Q183.3979,536.8262 182.7886,536.6074 Q182.1792,536.3887 181.5542,536.3887 Q180.7886,536.3887 180.1479,536.7168 Q179.5229,537.0449 179.0229,537.7949 Q178.5386,538.5449 178.5386,539.5762 L178.5386,540.6699 Q178.5386,541.9043 179.4292,542.7324 Q180.3198,543.5449 181.9136,543.5449 Q182.8511,543.5449 183.5073,543.2949 Q183.8979,543.1387 184.3198,542.7012 Q184.5854,542.4355 184.7261,542.3574 Q184.8823,542.2793 185.0854,542.2793 Q185.4136,542.2793 185.6636,542.5449 Q185.9292,542.7949 185.9292,543.1387 Q185.9292,543.4824 185.5854,543.8887 Q185.0854,544.4668 184.2886,544.7949 Q183.2104,545.248 181.9136,545.248 Q180.3979,545.248 179.1948,544.623 Q178.2104,544.123 177.5229,543.0605 Q176.8354,541.9824 176.8354,540.7012 L176.8354,539.5449 Q176.8354,538.2168 177.4448,537.0762 Q178.0698,535.9199 179.1636,535.3105 Q180.2573,534.6855 181.4917,534.6855 Q182.2261,534.6855 182.8667,534.8574 Q183.5229,535.0137 184.0698,535.373 Z " fill="#000000"/><ellipse cx="206.8042" cy="538.998" fill="#84BE84" rx="3" ry="3" style="stroke:#038048;stroke-width:1;"/><text fill="#000000" font-family="sans-serif" font-size="14" font-weight="bold" lengthAdjust="spacing" textLength="28.7793" x="212.8042" y="545.2949">final</text><text fill="#000000" font-family="sans-serif" font-size="14" lengthAdjust="spacing" textLength="81.6826" x="245.4731" y="545.2949">ByteArrayUtil</text><line style="stroke:#D4AC0D;stroke-width:2;" x1="23" x2="473.46" y1="555.498" y2="555.498"/><line style="stroke:#D4AC0D;stroke-width:2;" x1="23" x2="473.46" y1="563.498" y2="563.498"/><ellipse cx="33" cy="578.3086" fill="#84BE84" rx="3" ry="3" style="stroke:#038048;stroke-width:1;"/><text fill="#000000" font-family="sans-serif" font-size="14" lengthAdjust="spacing" text-decoration="underline" textLength="340.792" x="42" y="582.6055">byte[] extractBytes (byte[] src, int bitOffset, int nbBytes)</text><ellipse cx="33" cy="596.9297" fill="#84BE84" rx="3" ry="3" style="stroke:#038048;stroke-width:1;"/><text fill="#000000" font-family="sans-serif" font-size="14" lengthAdjust="spacing" text-decoration="underline" textLength="254.4336" x="42" y="601.2266">byte[] extractBytes (long src, int nbBytes)</text><text fill="#000000" font-family="sans-serif" font-size="14" lengthAdjust="spacing" textLength="3.8896" x="42" y="619.8477">&#160;</text><ellipse cx="33" cy="634.1719" fill="#84BE84" rx="3" ry="3" style="stroke:#038048;stroke-width:1;"/><text fill="#000000" font-family="sans-serif" font-size="14" lengthAdjust="spacing" text-decoration="underline" textLength="241.1924" x="42" y="638.4688">short extractShort (byte[] src, int offset)</text><ellipse cx="33" cy="652.793" fill="#84BE84" rx="3" ry="3" style="stroke:#038048;stroke-width:1;"/><text fill="#000000" font-family="sans-serif" font-size="14" lengthAdjust="spacing" text-decoration="underline" textLength="399.1982" x="42" y="657.0898">int extractInt (byte[] src, int offset, int nbBytes, boolean isSigned)</text><ellipse cx="33" cy="671.4141" fill="#84BE84" rx="3" ry="3" style="stroke:#038048;stroke-width:1;"/><text fill="#000000" font-family="sans-serif" font-size="14" lengthAdjust="spacing" text-decoration="underline" textLength="426.46" x="42" y="675.7109">long extractLong (byte[] src, int offset, int nbBytes, boolean isSigned)</text><text fill="#000000" font-family="sans-serif" font-size="14" lengthAdjust="spacing" textLength="3.8896" x="42" y="694.332">&#160;</text><ellipse cx="33" cy="708.6563" fill="#84BE84" rx="3" ry="3" style="stroke:#038048;stroke-width:1;"/><text fill="#000000" font-family="sans-serif" font-size="14" lengthAdjust="spacing" text-decoration="underline" textLength="366.502" x="42" y="712.9531">void copyBytes (long src, byte[] dest, int offset, int nbBytes)</text><text fill="#000000" font-family="sans-serif" font-size="14" lengthAdjust="spacing" textLength="3.8896" x="42" y="731.5742">&#160;</text><ellipse cx="33" cy="745.8984" fill="#84BE84" rx="3" ry="3" style="stroke:#038048;stroke-width:1;"/><text fill="#000000" font-family="sans-serif" font-size="14" lengthAdjust="spacing" text-decoration="line-through" textLength="232.6748" x="42" y="750.1953">boolean isValidHexString (String hex)</text><ellipse cx="33" cy="764.5195" fill="#84BE84" rx="3" ry="3" style="stroke:#038048;stroke-width:1;"/><text fill="#000000" font-family="sans-serif" font-size="14" lengthAdjust="spacing" text-decoration="line-through" textLength="238.8682" x="42" y="768.8164">String normalizeHexString (String hex)</text><text fill="#000000" font-family="sans-serif" font-size="14" lengthAdjust="spacing" textLength="3.8896" x="42" y="787.4375">&#160;</text><ellipse cx="33" cy="801.7617" fill="#84BE84" rx="3" ry="3" style="stroke:#038048;stroke-width:1;"/><text fill="#000000" font-family="sans-serif" font-size="14" lengthAdjust="spacing" text-decoration="line-through" textLength="167.2754" x="42" y="806.0586">byte[] fromHex (String hex)</text><ellipse cx="33" cy="820.3828" fill="#84BE84" rx="3" ry="3" style="stroke:#038048;stroke-width:1;"/><text fill="#000000" font-family="sans-serif" font-size="14" lengthAdjust="spacing" text-decoration="line-through" textLength="155.627" x="42" y="824.6797">String toHex (byte[] data)</text><text fill="#000000" font-family="sans-serif" font-size="14" lengthAdjust="spacing" textLength="3.8896" x="42" y="843.3008">&#160;</text><ellipse cx="33" cy="857.625" fill="#84BE84" rx="3" ry="3" style="stroke:#038048;stroke-width:1;"/><text fill="#000000" font-family="sans-serif" font-size="14" lengthAdjust="spacing" text-decoration="line-through" textLength="252.8818" x="42" y="861.9219">int twoBytesToInt (byte[] bytes, int offset)</text><ellipse cx="33" cy="876.2461" fill="#84BE84" rx="3" ry="3" style="stroke:#038048;stroke-width:1;"/><text fill="#000000" font-family="sans-serif" font-size="14" lengthAdjust="spacing" text-decoration="line-through" textLength="296.4746" x="42" y="880.543">int twoBytesSignedToInt (byte[] bytes, int offset)</text><ellipse cx="33" cy="894.8672" fill="#84BE84" rx="3" ry="3" style="stroke:#038048;stroke-width:1;"/><text fill="#000000" font-family="sans-serif" font-size="14" lengthAdjust="spacing" text-decoration="line-through" textLength="263.0059" x="42" y="899.1641">int threeBytesToInt (byte[] bytes, int offset)</text><ellipse cx="33" cy="913.4883" fill="#84BE84" rx="3" ry="3" style="stroke:#038048;stroke-width:1;"/><text fill="#000000" font-family="sans-serif" font-size="14" lengthAdjust="spacing" text-decoration="line-through" textLength="306.5986" x="42" y="917.7852">int threeBytesSignedToInt (byte[] bytes, int offset)</text><ellipse cx="33" cy="932.1094" fill="#84BE84" rx="3" ry="3" style="stroke:#038048;stroke-width:1;"/><text fill="#000000" font-family="sans-serif" font-size="14" lengthAdjust="spacing" text-decoration="line-through" textLength="255.2197" x="42" y="936.4063">int fourBytesToInt (byte[] bytes, int offset)</text></g><!--class HexUtil--><g class="entity" data-entity="HexUtil" data-source-line="95" data-uid="ent0005" id="entity_HexUtil"><rect fill="#FEFECE" height="290.0742" rx="2.5" ry="2.5" style="stroke:#D4AC0D;stroke-width:2;" width="213.5166" x="50" y="173.498"/><ellipse cx="108.1152" cy="189.498" fill="#ADD1B2" rx="11" ry="11" style="stroke:#ADD1B2;stroke-width:1;"/><path d="M110.8809,185.373 Q111.0371,185.1543 111.2246,185.0449 Q111.4121,184.9355 111.6309,184.9355 Q112.0059,184.9355 112.2402,185.2012 Q112.4746,185.4512 112.4746,186.0605 L112.4746,187.5137 Q112.4746,188.123 112.2402,188.3887 Q112.0059,188.6543 111.6309,188.6543 Q111.2871,188.6543 111.084,188.4512 Q110.8809,188.2637 110.7715,187.748 Q110.7246,187.3887 110.5371,187.2012 Q110.209,186.8262 109.5996,186.6074 Q108.9902,186.3887 108.3652,186.3887 Q107.5996,186.3887 106.959,186.7168 Q106.334,187.0449 105.834,187.7949 Q105.3496,188.5449 105.3496,189.5762 L105.3496,190.6699 Q105.3496,191.9043 106.2402,192.7324 Q107.1309,193.5449 108.7246,193.5449 Q109.6621,193.5449 110.3184,193.2949 Q110.709,193.1387 111.1309,192.7012 Q111.3965,192.4355 111.5371,192.3574 Q111.6934,192.2793 111.8965,192.2793 Q112.2246,192.2793 112.4746,192.5449 Q112.7402,192.7949 112.7402,193.1387 Q112.7402,193.4824 112.3965,193.8887 Q111.8965,194.4668 111.0996,194.7949 Q110.0215,195.248 108.7246,195.248 Q107.209,195.248 106.0059,194.623 Q105.0215,194.123 104.334,193.0605 Q103.6465,191.9824 103.6465,190.7012 L103.6465,189.5449 Q103.6465,188.2168 104.2559,187.0762 Q104.8809,185.9199 105.9746,185.3105 Q107.0684,184.6855 108.3027,184.6855 Q109.0371,184.6855 109.6777,184.8574 Q110.334,185.0137 110.8809,185.373 Z " fill="#000000"/><ellipse cx="133.6152" cy="188.998" fill="#84BE84" rx="3" ry="3" style="stroke:#038048;stroke-width:1;"/><text fill="#000000" font-family="sans-serif" font-size="14" font-weight="bold" lengthAdjust="spacing" textLength="28.7793" x="139.6152" y="195.2949">final</text><text fill="#000000" font-family="sans-serif" font-size="14" lengthAdjust="spacing" textLength="45.1172" x="172.2842" y="195.2949">HexUtil</text><line style="stroke:#D4AC0D;stroke-width:2;" x1="51" x2="262.5166" y1="205.498" y2="205.498"/><line style="stroke:#D4AC0D;stroke-width:2;" x1="51" x2="262.5166" y1="213.498" y2="213.498"/><ellipse cx="61" cy="228.3086" fill="#84BE84" rx="3" ry="3" style="stroke:#038048;stroke-width:1;"/><text fill="#000000" font-family="sans-serif" font-size="14" lengthAdjust="spacing" text-decoration="underline" textLength="171.2061" x="70" y="232.6055">boolean isValid (String hex)</text><text fill="#000000" font-family="sans-serif" font-size="14" lengthAdjust="spacing" textLength="3.8896" x="70" y="251.2266">&#160;</text><ellipse cx="61" cy="265.5508" fill="#84BE84" rx="3" ry="3" style="stroke:#038048;stroke-width:1;"/><text fill="#000000" font-family="sans-serif" font-size="14" lengthAdjust="spacing" text-decoration="underline" textLength="187.5166" x="70" y="269.8477">byte[] toByteArray (String hex)</text><ellipse cx="61" cy="284.1719" fill="#84BE84" rx="3" ry="3" style="stroke:#038048;stroke-width:1;"/><text fill="#000000" font-family="sans-serif" font-size="14" lengthAdjust="spacing" text-decoration="underline" textLength="146.2891" x="70" y="288.4688">byte toByte (String hex)</text><ellipse cx="61" cy="302.793" fill="#84BE84" rx="3" ry="3" style="stroke:#038048;stroke-width:1;"/><text fill="#000000" font-family="sans-serif" font-size="14" lengthAdjust="spacing" text-decoration="underline" textLength="156.3994" x="70" y="307.0898">short toShort (String hex)</text><ellipse cx="61" cy="321.4141" fill="#84BE84" rx="3" ry="3" style="stroke:#038048;stroke-width:1;"/><text fill="#000000" font-family="sans-serif" font-size="14" lengthAdjust="spacing" text-decoration="underline" textLength="122.165" x="70" y="325.7109">int toInt (String hex)</text><ellipse cx="61" cy="340.0352" fill="#84BE84" rx="3" ry="3" style="stroke:#038048;stroke-width:1;"/><text fill="#000000" font-family="sans-serif" font-size="14" lengthAdjust="spacing" text-decoration="underline" textLength="149.4268" x="70" y="344.332">long toLong (String hex)</text><text fill="#000000" font-family="sans-serif" font-size="14" lengthAdjust="spacing" textLength="3.8896" x="70" y="362.9531">&#160;</text><ellipse cx="61" cy="377.2773" fill="#84BE84" rx="3" ry="3" style="stroke:#038048;stroke-width:1;"/><text fill="#000000" font-family="sans-serif" font-size="14" lengthAdjust="spacing" text-decoration="underline" textLength="147.8408" x="70" y="381.5742">String toHex (byte[] tab)</text><ellipse cx="61" cy="395.8984" fill="#84BE84" rx="3" ry="3" style="stroke:#038048;stroke-width:1;"/><text fill="#000000" font-family="sans-serif" font-size="14" lengthAdjust="spacing" text-decoration="underline" textLength="138.4961" x="70" y="400.1953">String toHex (byte val)</text><ellipse cx="61" cy="414.5195" fill="#84BE84" rx="3" ry="3" style="stroke:#038048;stroke-width:1;"/><text fill="#000000" font-family="sans-serif" font-size="14" lengthAdjust="spacing" text-decoration="underline" textLength="143.1582" x="70" y="418.8164">String toHex (short val)</text><ellipse cx="61" cy="433.1406" fill="#84BE84" rx="3" ry="3" style="stroke:#038048;stroke-width:1;"/><text fill="#000000" font-family="sans-serif" font-size="14" lengthAdjust="spacing" text-decoration="underline" textLength="126.8203" x="70" y="437.4375">String toHex (int val)</text><ellipse cx="61" cy="451.7617" fill="#84BE84" rx="3" ry="3" style="stroke:#038048;stroke-width:1;"/><text fill="#000000" font-family="sans-serif" font-size="14" lengthAdjust="spacing" text-decoration="underline" textLength="138.5029" x="70" y="456.0586">String toHex (long val)</text></g><!--class ApduUtil--><g class="entity" data-entity="ApduUtil" data-source-line="110" data-uid="ent0006" id="entity_ApduUtil"><rect fill="#FEFECE" height="103.8633" rx="2.5" ry="2.5" style="stroke:#D4AC0D;stroke-width:2;" width="454.0186" x="509" y="681.498"/><ellipse cx="683.4663" cy="697.498" fill="#ADD1B2" rx="11" ry="11" style="stroke:#ADD1B2;stroke-width:1;"/><path d="M686.2319,693.373 Q686.3882,693.1543 686.5757,693.0449 Q686.7632,692.9355 686.9819,692.9355 Q687.3569,692.9355 687.5913,693.2012 Q687.8257,693.4512 687.8257,694.0605 L687.8257,695.5137 Q687.8257,696.123 687.5913,696.3887 Q687.3569,696.6543 686.9819,696.6543 Q686.6382,696.6543 686.4351,696.4512 Q686.2319,696.2637 686.1226,695.748 Q686.0757,695.3887 685.8882,695.2012 Q685.5601,694.8262 684.9507,694.6074 Q684.3413,694.3887 683.7163,694.3887 Q682.9507,694.3887 682.3101,694.7168 Q681.6851,695.0449 681.1851,695.7949 Q680.7007,696.5449 680.7007,697.5762 L680.7007,698.6699 Q680.7007,699.9043 681.5913,700.7324 Q682.4819,701.5449 684.0757,701.5449 Q685.0132,701.5449 685.6694,701.2949 Q686.0601,701.1387 686.4819,700.7012 Q686.7476,700.4355 686.8882,700.3574 Q687.0444,700.2793 687.2476,700.2793 Q687.5757,700.2793 687.8257,700.5449 Q688.0913,700.7949 688.0913,701.1387 Q688.0913,701.4824 687.7476,701.8887 Q687.2476,702.4668 686.4507,702.7949 Q685.3726,703.248 684.0757,703.248 Q682.5601,703.248 681.3569,702.623 Q680.3726,702.123 679.6851,701.0605 Q678.9976,699.9824 678.9976,698.7012 L678.9976,697.5449 Q678.9976,696.2168 679.6069,695.0762 Q680.2319,693.9199 681.3257,693.3105 Q682.4194,692.6855 683.6538,692.6855 Q684.3882,692.6855 685.0288,692.8574 Q685.6851,693.0137 686.2319,693.373 Z " fill="#000000"/><ellipse cx="708.9663" cy="696.998" fill="#84BE84" rx="3" ry="3" style="stroke:#038048;stroke-width:1;"/><text fill="#000000" font-family="sans-serif" font-size="14" font-weight="bold" lengthAdjust="spacing" textLength="28.7793" x="714.9663" y="703.2949">final</text><text fill="#000000" font-family="sans-serif" font-size="14" lengthAdjust="spacing" textLength="52.917" x="747.6353" y="703.2949">ApduUtil</text><line style="stroke:#D4AC0D;stroke-width:2;" x1="510" x2="962.0186" y1="713.498" y2="713.498"/><line style="stroke:#D4AC0D;stroke-width:2;" x1="510" x2="962.0186" y1="721.498" y2="721.498"/><ellipse cx="520" cy="736.3086" fill="#84BE84" rx="3" ry="3" style="stroke:#038048;stroke-width:1;"/><text fill="#000000" font-family="sans-serif" font-size="14" lengthAdjust="spacing" text-decoration="underline" textLength="428.0186" x="529" y="740.6055">byte[] build (byte cla, byte ins, byte p1, byte p2, byte[] dataIn, Byte le)</text><text fill="#000000" font-family="sans-serif" font-size="14" lengthAdjust="spacing" textLength="3.8896" x="529" y="759.2266">&#160;</text><ellipse cx="520" cy="773.5508" fill="#84BE84" rx="3" ry="3" style="stroke:#038048;stroke-width:1;"/><text fill="#000000" font-family="sans-serif" font-size="14" lengthAdjust="spacing" text-decoration="underline" textLength="251.3643" x="529" y="777.8477">boolean isCase4 (byte[] apduCommand)</text></g><!--class BerTlvUtil--><g class="entity" data-entity="BerTlvUtil" data-source-line="115" data-uid="ent0007" id="entity_BerTlvUtil"><rect fill="#FEFECE" height="122.4844" rx="2.5" ry="2.5" style="stroke:#D4AC0D;stroke-width:2;" width="501.4395" x="998.5" y="672.498"/><ellipse cx="1209.1353" cy="688.498" fill="#ADD1B2" rx="11" ry="11" style="stroke:#ADD1B2;stroke-width:1;"/><path d="M1211.9009,684.373 Q1212.0571,684.1543 1212.2446,684.0449 Q1212.4321,683.9355 1212.6509,683.9355 Q1213.0259,683.9355 1213.2603,684.2012 Q1213.4946,684.4512 1213.4946,685.0605 L1213.4946,686.5137 Q1213.4946,687.123 1213.2603,687.3887 Q1213.0259,687.6543 1212.6509,687.6543 Q1212.3071,687.6543 1212.104,687.4512 Q1211.9009,687.2637 1211.7915,686.748 Q1211.7446,686.3887 1211.5571,686.2012 Q1211.229,685.8262 1210.6196,685.6074 Q1210.0103,685.3887 1209.3853,685.3887 Q1208.6196,685.3887 1207.979,685.7168 Q1207.354,686.0449 1206.854,686.7949 Q1206.3696,687.5449 1206.3696,688.5762 L1206.3696,689.6699 Q1206.3696,690.9043 1207.2603,691.7324 Q1208.1509,692.5449 1209.7446,692.5449 Q1210.6821,692.5449 1211.3384,692.2949 Q1211.729,692.1387 1212.1509,691.7012 Q1212.4165,691.4355 1212.5571,691.3574 Q1212.7134,691.2793 1212.9165,691.2793 Q1213.2446,691.2793 1213.4946,691.5449 Q1213.7603,691.7949 1213.7603,692.1387 Q1213.7603,692.4824 1213.4165,692.8887 Q1212.9165,693.4668 1212.1196,693.7949 Q1211.0415,694.248 1209.7446,694.248 Q1208.229,694.248 1207.0259,693.623 Q1206.0415,693.123 1205.354,692.0605 Q1204.6665,690.9824 1204.6665,689.7012 L1204.6665,688.5449 Q1204.6665,687.2168 1205.2759,686.0762 Q1205.9009,684.9199 1206.9946,684.3105 Q1208.0884,683.6855 1209.3228,683.6855 Q1210.0571,683.6855 1210.6978,683.8574 Q1211.354,684.0137 1211.9009,684.373 Z " fill="#000000"/><ellipse cx="1234.6353" cy="687.998" fill="#84BE84" rx="3" ry="3" style="stroke:#038048;stroke-width:1;"/><text fill="#000000" font-family="sans-serif" font-size="14" lengthAdjust="spacing" textLength="60.6689" x="1240.6353" y="694.2949">BerTlvUtil</text><line style="stroke:#D4AC0D;stroke-width:2;" x1="999.5" x2="1498.9395" y1="704.498" y2="704.498"/><line style="stroke:#D4AC0D;stroke-width:2;" x1="999.5" x2="1498.9395" y1="712.498" y2="712.498"/><ellipse cx="1009.5" cy="727.3086" fill="#84BE84" rx="3" ry="3" style="stroke:#038048;stroke-width:1;"/><text fill="#000000" font-family="sans-serif" font-size="14" lengthAdjust="spacing" text-decoration="underline" textLength="475.4395" x="1018.5" y="731.6055">Map&lt;Integer, byte[]&gt; parseSimple (byte[] tlvStructure, boolean primitiveOnly)</text><ellipse cx="1009.5" cy="745.9297" fill="#84BE84" rx="3" ry="3" style="stroke:#038048;stroke-width:1;"/><text fill="#000000" font-family="sans-serif" font-size="14" lengthAdjust="spacing" text-decoration="underline" textLength="470.7842" x="1018.5" y="750.2266">Map&lt;Integer, List&lt;byte[]&gt;&gt; parse (byte[] tlvStructure, boolean primitiveOnly)</text><text fill="#000000" font-family="sans-serif" font-size="14" lengthAdjust="spacing" textLength="3.8896" x="1018.5" y="768.8477">&#160;</text><ellipse cx="1009.5" cy="783.1719" fill="#84BE84" rx="3" ry="3" style="stroke:#038048;stroke-width:1;"/><text fill="#000000" font-family="sans-serif" font-size="14" lengthAdjust="spacing" text-decoration="underline" textLength="202.3369" x="1018.5" y="787.4688">boolean isConstructed (int tagId)</text></g><!--class JsonUtil--><g class="entity" data-entity="JsonUtil" data-source-line="122" data-uid="ent0009" id="entity_JsonUtil"><rect fill="#FEFECE" height="141.1055" rx="2.5" ry="2.5" style="stroke:#D4AC0D;stroke-width:2;" width="349.7021" x="46" y="1003.498"/><ellipse cx="169.8701" cy="1019.498" fill="#ADD1B2" rx="11" ry="11" style="stroke:#ADD1B2;stroke-width:1;"/><path d="M172.6357,1015.373 Q172.792,1015.1543 172.9795,1015.0449 Q173.167,1014.9355 173.3857,1014.9355 Q173.7607,1014.9355 173.9951,1015.2012 Q174.2295,1015.4512 174.2295,1016.0605 L174.2295,1017.5137 Q174.2295,1018.123 173.9951,1018.3887 Q173.7607,1018.6543 173.3857,1018.6543 Q173.042,1018.6543 172.8389,1018.4512 Q172.6357,1018.2637 172.5264,1017.748 Q172.4795,1017.3887 172.292,1017.2012 Q171.9639,1016.8262 171.3545,1016.6074 Q170.7451,1016.3887 170.1201,1016.3887 Q169.3545,1016.3887 168.7139,1016.7168 Q168.0889,1017.0449 167.5889,1017.7949 Q167.1045,1018.5449 167.1045,1019.5762 L167.1045,1020.6699 Q167.1045,1021.9043 167.9951,1022.7324 Q168.8857,1023.5449 170.4795,1023.5449 Q171.417,1023.5449 172.0732,1023.2949 Q172.4639,1023.1387 172.8857,1022.7012 Q173.1514,1022.4355 173.292,1022.3574 Q173.4482,1022.2793 173.6514,1022.2793 Q173.9795,1022.2793 174.2295,1022.5449 Q174.4951,1022.7949 174.4951,1023.1387 Q174.4951,1023.4824 174.1514,1023.8887 Q173.6514,1024.4668 172.8545,1024.7949 Q171.7764,1025.248 170.4795,1025.248 Q168.9639,1025.248 167.7607,1024.623 Q166.7764,1024.123 166.0889,1023.0605 Q165.4014,1021.9824 165.4014,1020.7012 L165.4014,1019.5449 Q165.4014,1018.2168 166.0107,1017.0762 Q166.6357,1015.9199 167.7295,1015.3105 Q168.8232,1014.6855 170.0576,1014.6855 Q170.792,1014.6855 171.4326,1014.8574 Q172.0889,1015.0137 172.6357,1015.373 Z " fill="#000000"/><ellipse cx="195.3701" cy="1018.998" fill="#84BE84" rx="3" ry="3" style="stroke:#038048;stroke-width:1;"/><text fill="#000000" font-family="sans-serif" font-size="14" font-weight="bold" lengthAdjust="spacing" textLength="28.7793" x="201.3701" y="1025.2949">final</text><text fill="#000000" font-family="sans-serif" font-size="14" lengthAdjust="spacing" textLength="49.793" x="234.0391" y="1025.2949">JsonUtil</text><line style="stroke:#D4AC0D;stroke-width:2;" x1="47" x2="394.7021" y1="1035.498" y2="1035.498"/><line style="stroke:#D4AC0D;stroke-width:2;" x1="47" x2="394.7021" y1="1043.498" y2="1043.498"/><ellipse cx="57" cy="1058.3086" fill="#84BE84" rx="3" ry="3" style="stroke:#038048;stroke-width:1;"/><text fill="#000000" filter="url(#be66zzj1iad4t0)" font-family="sans-serif" font-size="14" lengthAdjust="spacing" textLength="33.4619" x="66" y="1062.6055">Gson</text><line style="stroke:#FFFF00;stroke-width:0.5;" x1="66" x2="99.4619" y1="1063.6055" y2="1063.6055"/><text fill="#000000" font-family="sans-serif" font-size="14" lengthAdjust="spacing" text-decoration="underline" textLength="73.9102" x="103.3516" y="1062.6055">getParser ()</text><ellipse cx="57" cy="1076.9297" fill="#84BE84" rx="3" ry="3" style="stroke:#038048;stroke-width:1;"/><text fill="#000000" font-family="sans-serif" font-size="14" lengthAdjust="spacing" text-decoration="underline" textLength="323.7021" x="66" y="1081.2266">void registerTypeAdapter (Class&lt;?&gt; matchingClass,</text><text fill="#000000" font-family="sans-serif" font-size="14" lengthAdjust="spacing" textLength="254.4814" x="97.1172" y="1099.8477">Object adapter, boolean withSubclasses)</text><text fill="#000000" font-family="sans-serif" font-size="14" lengthAdjust="spacing" textLength="3.8896" x="66" y="1118.4688">&#160;</text><ellipse cx="57" cy="1132.793" fill="#84BE84" rx="3" ry="3" style="stroke:#038048;stroke-width:1;"/><text fill="#000000" font-family="sans-serif" font-size="14" lengthAdjust="spacing" text-decoration="underline" textLength="157.958" x="66" y="1137.0898">String toJson (Object obj)</text></g><!--class BodyError--><g class="entity" data-entity="BodyError" data-source-line="129" data-uid="ent0010" id="entity_BodyError"><rect fill="#FEFECE" height="122.4844" rx="2.5" ry="2.5" style="stroke:#D4AC0D;stroke-width:2;" width="227.5371" x="431" y="1012.998"/><ellipse cx="503.5083" cy="1028.998" fill="#ADD1B2" rx="11" ry="11" style="stroke:#ADD1B2;stroke-width:1;"/><path d="M506.2739,1024.873 Q506.4302,1024.6543 506.6177,1024.5449 Q506.8052,1024.4355 507.0239,1024.4355 Q507.3989,1024.4355 507.6333,1024.7012 Q507.8677,1024.9512 507.8677,1025.5605 L507.8677,1027.0137 Q507.8677,1027.623 507.6333,1027.8887 Q507.3989,1028.1543 507.0239,1028.1543 Q506.6802,1028.1543 506.4771,1027.9512 Q506.2739,1027.7637 506.1646,1027.248 Q506.1177,1026.8887 505.9302,1026.7012 Q505.6021,1026.3262 504.9927,1026.1074 Q504.3833,1025.8887 503.7583,1025.8887 Q502.9927,1025.8887 502.3521,1026.2168 Q501.7271,1026.5449 501.2271,1027.2949 Q500.7427,1028.0449 500.7427,1029.0762 L500.7427,1030.1699 Q500.7427,1031.4043 501.6333,1032.2324 Q502.5239,1033.0449 504.1177,1033.0449 Q505.0552,1033.0449 505.7114,1032.7949 Q506.1021,1032.6387 506.5239,1032.2012 Q506.7896,1031.9355 506.9302,1031.8574 Q507.0864,1031.7793 507.2896,1031.7793 Q507.6177,1031.7793 507.8677,1032.0449 Q508.1333,1032.2949 508.1333,1032.6387 Q508.1333,1032.9824 507.7896,1033.3887 Q507.2896,1033.9668 506.4927,1034.2949 Q505.4146,1034.748 504.1177,1034.748 Q502.6021,1034.748 501.3989,1034.123 Q500.4146,1033.623 499.7271,1032.5605 Q499.0396,1031.4824 499.0396,1030.2012 L499.0396,1029.0449 Q499.0396,1027.7168 499.6489,1026.5762 Q500.2739,1025.4199 501.3677,1024.8105 Q502.4614,1024.1855 503.6958,1024.1855 Q504.4302,1024.1855 505.0708,1024.3574 Q505.7271,1024.5137 506.2739,1024.873 Z " fill="#000000"/><ellipse cx="529.0083" cy="1028.498" fill="#84BE84" rx="3" ry="3" style="stroke:#038048;stroke-width:1;"/><text fill="#000000" font-family="sans-serif" font-size="14" lengthAdjust="spacing" textLength="63.0205" x="535.0083" y="1034.7949">BodyError</text><line style="stroke:#D4AC0D;stroke-width:2;" x1="432" x2="657.5371" y1="1044.998" y2="1044.998"/><line style="stroke:#D4AC0D;stroke-width:2;" x1="432" x2="657.5371" y1="1052.998" y2="1052.998"/><ellipse cx="442" cy="1067.8086" fill="#84BE84" rx="3" ry="3" style="stroke:#038048;stroke-width:1;"/><text fill="#000000" font-family="sans-serif" font-size="14" lengthAdjust="spacing" textLength="201.5371" x="451" y="1072.1055">BodyError (Exception exception)</text><text fill="#000000" font-family="sans-serif" font-size="14" lengthAdjust="spacing" textLength="3.8896" x="451" y="1090.7266">&#160;</text><ellipse cx="442" cy="1105.0508" fill="#84BE84" rx="3" ry="3" style="stroke:#038048;stroke-width:1;"/><text fill="#000000" font-family="sans-serif" font-size="14" lengthAdjust="spacing" textLength="106.6064" x="451" y="1109.3477">String getCode ()</text><ellipse cx="442" cy="1123.6719" fill="#84BE84" rx="3" ry="3" style="stroke:#038048;stroke-width:1;"/><text fill="#000000" font-family="sans-serif" font-size="14" lengthAdjust="spacing" textLength="159.5303" x="451" y="1127.9688">Exception getException ()</text></g><!--class BodyErrorJsonDeserializer--><g class="entity" data-entity="BodyErrorJsonDeserializer" data-source-line="135" data-uid="ent0011" id="entity_BodyErrorJsonDeserializer"><rect fill="#FEFECE" height="81.8633" rx="2.5" ry="2.5" style="stroke:#D4AC0D;stroke-width:2;" width="258.5576" x="694.5" y="1032.998"/><ellipse cx="709.5" cy="1056.6191" fill="#ADD1B2" rx="11" ry="11" style="stroke:#ADD1B2;stroke-width:1;"/><path d="M712.2656,1052.4941 Q712.4219,1052.2754 712.6094,1052.166 Q712.7969,1052.0566 713.0156,1052.0566 Q713.3906,1052.0566 713.625,1052.3223 Q713.8594,1052.5723 713.8594,1053.1816 L713.8594,1054.6348 Q713.8594,1055.2441 713.625,1055.5098 Q713.3906,1055.7754 713.0156,1055.7754 Q712.6719,1055.7754 712.4688,1055.5723 Q712.2656,1055.3848 712.1563,1054.8691 Q712.1094,1054.5098 711.9219,1054.3223 Q711.5938,1053.9473 710.9844,1053.7285 Q710.375,1053.5098 709.75,1053.5098 Q708.9844,1053.5098 708.3438,1053.8379 Q707.7188,1054.166 707.2188,1054.916 Q706.7344,1055.666 706.7344,1056.6973 L706.7344,1057.791 Q706.7344,1059.0254 707.625,1059.8535 Q708.5156,1060.666 710.1094,1060.666 Q711.0469,1060.666 711.7031,1060.416 Q712.0938,1060.2598 712.5156,1059.8223 Q712.7813,1059.5566 712.9219,1059.4785 Q713.0781,1059.4004 713.2813,1059.4004 Q713.6094,1059.4004 713.8594,1059.666 Q714.125,1059.916 714.125,1060.2598 Q714.125,1060.6035 713.7813,1061.0098 Q713.2813,1061.5879 712.4844,1061.916 Q711.4063,1062.3691 710.1094,1062.3691 Q708.5938,1062.3691 707.3906,1061.7441 Q706.4063,1061.2441 705.7188,1060.1816 Q705.0313,1059.1035 705.0313,1057.8223 L705.0313,1056.666 Q705.0313,1055.3379 705.6406,1054.1973 Q706.2656,1053.041 707.3594,1052.4316 Q708.4531,1051.8066 709.6875,1051.8066 Q710.4219,1051.8066 711.0625,1051.9785 Q711.7188,1052.1348 712.2656,1052.4941 Z " fill="#000000"/><ellipse cx="728.5" cy="1056.1191" fill="#84BE84" rx="3" ry="3" style="stroke:#038048;stroke-width:1;"/><text fill="#000000" font-family="sans-serif" font-size="14" lengthAdjust="spacing" textLength="16.3516" x="734.5" y="1053.1055">&lt;&lt;</text><text fill="#000000" filter="url(#be66zzj1iad4t0)" font-family="sans-serif" font-size="14" lengthAdjust="spacing" textLength="182.8545" x="750.8516" y="1053.1055">JsonDeserializer&lt;BodyError&gt;</text><text fill="#000000" font-family="sans-serif" font-size="14" lengthAdjust="spacing" textLength="16.3516" x="933.7061" y="1053.1055">&gt;&gt;</text><text fill="#000000" font-family="sans-serif" font-size="14" lengthAdjust="spacing" textLength="166.5029" x="759.0273" y="1071.7266">BodyErrorJsonDeserializer</text><line style="stroke:#D4AC0D;stroke-width:2;" x1="695.5" x2="952.0576" y1="1080.2402" y2="1080.2402"/><line style="stroke:#D4AC0D;stroke-width:2;" x1="695.5" x2="952.0576" y1="1088.2402" y2="1088.2402"/><text fill="#000000" font-family="sans-serif" font-size="14" lengthAdjust="spacing" textLength="11.6689" x="700.5" y="1107.3477">...</text></g><!--class ByteArrayJsonAdapter--><g class="entity" data-entity="ByteArrayJsonAdapter" data-source-line="139" data-uid="ent0012" id="entity_ByteArrayJsonAdapter"><rect fill="#FEFECE" height="100.4844" rx="2.5" ry="2.5" style="stroke:#D4AC0D;stroke-width:2;" width="229.7783" x="989" y="1023.998"/><ellipse cx="1004" cy="1056.9297" fill="#ADD1B2" rx="11" ry="11" style="stroke:#ADD1B2;stroke-width:1;"/><path d="M1006.7656,1052.8047 Q1006.9219,1052.5859 1007.1094,1052.4766 Q1007.2969,1052.3672 1007.5156,1052.3672 Q1007.8906,1052.3672 1008.125,1052.6328 Q1008.3594,1052.8828 1008.3594,1053.4922 L1008.3594,1054.9453 Q1008.3594,1055.5547 1008.125,1055.8203 Q1007.8906,1056.0859 1007.5156,1056.0859 Q1007.1719,1056.0859 1006.9688,1055.8828 Q1006.7656,1055.6953 1006.6563,1055.1797 Q1006.6094,1054.8203 1006.4219,1054.6328 Q1006.0938,1054.2578 1005.4844,1054.0391 Q1004.875,1053.8203 1004.25,1053.8203 Q1003.4844,1053.8203 1002.8438,1054.1484 Q1002.2188,1054.4766 1001.7188,1055.2266 Q1001.2344,1055.9766 1001.2344,1057.0078 L1001.2344,1058.1016 Q1001.2344,1059.3359 1002.125,1060.1641 Q1003.0156,1060.9766 1004.6094,1060.9766 Q1005.5469,1060.9766 1006.2031,1060.7266 Q1006.5938,1060.5703 1007.0156,1060.1328 Q1007.2813,1059.8672 1007.4219,1059.7891 Q1007.5781,1059.7109 1007.7813,1059.7109 Q1008.1094,1059.7109 1008.3594,1059.9766 Q1008.625,1060.2266 1008.625,1060.5703 Q1008.625,1060.9141 1008.2813,1061.3203 Q1007.7813,1061.8984 1006.9844,1062.2266 Q1005.9063,1062.6797 1004.6094,1062.6797 Q1003.0938,1062.6797 1001.8906,1062.0547 Q1000.9063,1061.5547 1000.2188,1060.4922 Q999.5313,1059.4141 999.5313,1058.1328 L999.5313,1056.9766 Q999.5313,1055.6484 1000.1406,1054.5078 Q1000.7656,1053.3516 1001.8594,1052.7422 Q1002.9531,1052.1172 1004.1875,1052.1172 Q1004.9219,1052.1172 1005.5625,1052.2891 Q1006.2188,1052.4453 1006.7656,1052.8047 Z " fill="#000000"/><ellipse cx="1023" cy="1056.4297" fill="#84BE84" rx="3" ry="3" style="stroke:#038048;stroke-width:1;"/><text fill="#000000" font-family="sans-serif" font-size="14" lengthAdjust="spacing" textLength="16.3516" x="1036.7793" y="1044.1055">&lt;&lt;</text><text fill="#000000" filter="url(#be66zzj1iad4t0)" font-family="sans-serif" font-size="14" lengthAdjust="spacing" textLength="138.5166" x="1053.1309" y="1044.1055">JsonSerializer&lt;byte[]&gt;</text><text fill="#000000" font-family="sans-serif" font-size="14" lengthAdjust="spacing" textLength="16.3516" x="1191.6475" y="1044.1055">&gt;&gt;</text><text fill="#000000" font-family="sans-serif" font-size="14" lengthAdjust="spacing" textLength="16.3516" x="1029" y="1062.7266">&lt;&lt;</text><text fill="#000000" filter="url(#be66zzj1iad4t0)" font-family="sans-serif" font-size="14" lengthAdjust="spacing" textLength="154.0752" x="1045.3516" y="1062.7266">JsonDeserializer&lt;byte[]&gt;</text><text fill="#000000" font-family="sans-serif" font-size="14" lengthAdjust="spacing" textLength="16.3516" x="1199.4268" y="1062.7266">&gt;&gt;</text><text fill="#000000" font-family="sans-serif" font-size="14" lengthAdjust="spacing" textLength="140.0684" x="1052.355" y="1081.3477">ByteArrayJsonAdapter</text><line style="stroke:#D4AC0D;stroke-width:2;" x1="990" x2="1217.7783" y1="1089.8613" y2="1089.8613"/><line style="stroke:#D4AC0D;stroke-width:2;" x1="990" x2="1217.7783" y1="1097.8613" y2="1097.8613"/><text fill="#000000" font-family="sans-serif" font-size="14" lengthAdjust="spacing" textLength="11.6689" x="995" y="1116.9688">...</text></g><!--class ByteJsonAdapter--><g class="entity" data-entity="ByteJsonAdapter" data-source-line="143" data-uid="ent0013" id="entity_ByteJsonAdapter"><rect fill="#FEFECE" height="100.4844" rx="2.5" ry="2.5" style="stroke:#D4AC0D;stroke-width:2;" width="223.5508" x="1254" y="1023.998"/><ellipse cx="1269" cy="1056.9297" fill="#ADD1B2" rx="11" ry="11" style="stroke:#ADD1B2;stroke-width:1;"/><path d="M1271.7656,1052.8047 Q1271.9219,1052.5859 1272.1094,1052.4766 Q1272.2969,1052.3672 1272.5156,1052.3672 Q1272.8906,1052.3672 1273.125,1052.6328 Q1273.3594,1052.8828 1273.3594,1053.4922 L1273.3594,1054.9453 Q1273.3594,1055.5547 1273.125,1055.8203 Q1272.8906,1056.0859 1272.5156,1056.0859 Q1272.1719,1056.0859 1271.9688,1055.8828 Q1271.7656,1055.6953 1271.6563,1055.1797 Q1271.6094,1054.8203 1271.4219,1054.6328 Q1271.0938,1054.2578 1270.4844,1054.0391 Q1269.875,1053.8203 1269.25,1053.8203 Q1268.4844,1053.8203 1267.8438,1054.1484 Q1267.2188,1054.4766 1266.7188,1055.2266 Q1266.2344,1055.9766 1266.2344,1057.0078 L1266.2344,1058.1016 Q1266.2344,1059.3359 1267.125,1060.1641 Q1268.0156,1060.9766 1269.6094,1060.9766 Q1270.5469,1060.9766 1271.2031,1060.7266 Q1271.5938,1060.5703 1272.0156,1060.1328 Q1272.2813,1059.8672 1272.4219,1059.7891 Q1272.5781,1059.7109 1272.7813,1059.7109 Q1273.1094,1059.7109 1273.3594,1059.9766 Q1273.625,1060.2266 1273.625,1060.5703 Q1273.625,1060.9141 1273.2813,1061.3203 Q1272.7813,1061.8984 1271.9844,1062.2266 Q1270.9063,1062.6797 1269.6094,1062.6797 Q1268.0938,1062.6797 1266.8906,1062.0547 Q1265.9063,1061.5547 1265.2188,1060.4922 Q1264.5313,1059.4141 1264.5313,1058.1328 L1264.5313,1056.9766 Q1264.5313,1055.6484 1265.1406,1054.5078 Q1265.7656,1053.3516 1266.8594,1052.7422 Q1267.9531,1052.1172 1269.1875,1052.1172 Q1269.9219,1052.1172 1270.5625,1052.2891 Q1271.2188,1052.4453 1271.7656,1052.8047 Z " fill="#000000"/><ellipse cx="1288" cy="1056.4297" fill="#84BE84" rx="3" ry="3" style="stroke:#038048;stroke-width:1;"/><text fill="#000000" font-family="sans-serif" font-size="14" lengthAdjust="spacing" textLength="16.3516" x="1301.7793" y="1044.1055">&lt;&lt;</text><text fill="#000000" filter="url(#be66zzj1iad4t0)" font-family="sans-serif" font-size="14" lengthAdjust="spacing" textLength="132.2891" x="1318.1309" y="1044.1055">JsonSerializer&lt;Byte&gt;</text><text fill="#000000" font-family="sans-serif" font-size="14" lengthAdjust="spacing" textLength="16.3516" x="1450.4199" y="1044.1055">&gt;&gt;</text><text fill="#000000" font-family="sans-serif" font-size="14" lengthAdjust="spacing" textLength="16.3516" x="1294" y="1062.7266">&lt;&lt;</text><text fill="#000000" filter="url(#be66zzj1iad4t0)" font-family="sans-serif" font-size="14" lengthAdjust="spacing" textLength="147.8477" x="1310.3516" y="1062.7266">JsonDeserializer&lt;Byte&gt;</text><text fill="#000000" font-family="sans-serif" font-size="14" lengthAdjust="spacing" textLength="16.3516" x="1458.1992" y="1062.7266">&gt;&gt;</text><text fill="#000000" font-family="sans-serif" font-size="14" lengthAdjust="spacing" textLength="106.6201" x="1330.9653" y="1081.3477">ByteJsonAdapter</text><line style="stroke:#D4AC0D;stroke-width:2;" x1="1255" x2="1476.5508" y1="1089.8613" y2="1089.8613"/><line style="stroke:#D4AC0D;stroke-width:2;" x1="1255" x2="1476.5508" y1="1097.8613" y2="1097.8613"/><text fill="#000000" font-family="sans-serif" font-size="14" lengthAdjust="spacing" textLength="11.6689" x="1260" y="1116.9688">...</text></g><!--class ShortJsonAdapter--><g class="entity" data-entity="ShortJsonAdapter" data-source-line="147" data-uid="ent0014" id="entity_ShortJsonAdapter"><rect fill="#FEFECE" height="100.4844" rx="2.5" ry="2.5" style="stroke:#D4AC0D;stroke-width:2;" width="228.999" x="430.5" y="1204.498"/><ellipse cx="445.5" cy="1237.4297" fill="#ADD1B2" rx="11" ry="11" style="stroke:#ADD1B2;stroke-width:1;"/><path d="M448.2656,1233.3047 Q448.4219,1233.0859 448.6094,1232.9766 Q448.7969,1232.8672 449.0156,1232.8672 Q449.3906,1232.8672 449.625,1233.1328 Q449.8594,1233.3828 449.8594,1233.9922 L449.8594,1235.4453 Q449.8594,1236.0547 449.625,1236.3203 Q449.3906,1236.5859 449.0156,1236.5859 Q448.6719,1236.5859 448.4688,1236.3828 Q448.2656,1236.1953 448.1563,1235.6797 Q448.1094,1235.3203 447.9219,1235.1328 Q447.5938,1234.7578 446.9844,1234.5391 Q446.375,1234.3203 445.75,1234.3203 Q444.9844,1234.3203 444.3438,1234.6484 Q443.7188,1234.9766 443.2188,1235.7266 Q442.7344,1236.4766 442.7344,1237.5078 L442.7344,1238.6016 Q442.7344,1239.8359 443.625,1240.6641 Q444.5156,1241.4766 446.1094,1241.4766 Q447.0469,1241.4766 447.7031,1241.2266 Q448.0938,1241.0703 448.5156,1240.6328 Q448.7813,1240.3672 448.9219,1240.2891 Q449.0781,1240.2109 449.2813,1240.2109 Q449.6094,1240.2109 449.8594,1240.4766 Q450.125,1240.7266 450.125,1241.0703 Q450.125,1241.4141 449.7813,1241.8203 Q449.2813,1242.3984 448.4844,1242.7266 Q447.4063,1243.1797 446.1094,1243.1797 Q444.5938,1243.1797 443.3906,1242.5547 Q442.4063,1242.0547 441.7188,1240.9922 Q441.0313,1239.9141 441.0313,1238.6328 L441.0313,1237.4766 Q441.0313,1236.1484 441.6406,1235.0078 Q442.2656,1233.8516 443.3594,1233.2422 Q444.4531,1232.6172 445.6875,1232.6172 Q446.4219,1232.6172 447.0625,1232.7891 Q447.7188,1232.9453 448.2656,1233.3047 Z " fill="#000000"/><ellipse cx="464.5" cy="1236.9297" fill="#84BE84" rx="3" ry="3" style="stroke:#038048;stroke-width:1;"/><text fill="#000000" font-family="sans-serif" font-size="14" lengthAdjust="spacing" textLength="16.3516" x="478.2793" y="1224.6055">&lt;&lt;</text><text fill="#000000" filter="url(#be66zzj1iad4t0)" font-family="sans-serif" font-size="14" lengthAdjust="spacing" textLength="137.7373" x="494.6309" y="1224.6055">JsonSerializer&lt;Short&gt;</text><text fill="#000000" font-family="sans-serif" font-size="14" lengthAdjust="spacing" textLength="16.3516" x="632.3682" y="1224.6055">&gt;&gt;</text><text fill="#000000" font-family="sans-serif" font-size="14" lengthAdjust="spacing" textLength="16.3516" x="470.5" y="1243.2266">&lt;&lt;</text><text fill="#000000" filter="url(#be66zzj1iad4t0)" font-family="sans-serif" font-size="14" lengthAdjust="spacing" textLength="153.2959" x="486.8516" y="1243.2266">JsonDeserializer&lt;Short&gt;</text><text fill="#000000" font-family="sans-serif" font-size="14" lengthAdjust="spacing" textLength="16.3516" x="640.1475" y="1243.2266">&gt;&gt;</text><text fill="#000000" font-family="sans-serif" font-size="14" lengthAdjust="spacing" textLength="112.0684" x="507.4653" y="1261.8477">ShortJsonAdapter</text><line style="stroke:#D4AC0D;stroke-width:2;" x1="431.5" x2="658.499" y1="1270.3613" y2="1270.3613"/><line style="stroke:#D4AC0D;stroke-width:2;" x1="431.5" x2="658.499" y1="1278.3613" y2="1278.3613"/><text fill="#000000" font-family="sans-serif" font-size="14" lengthAdjust="spacing" textLength="11.6689" x="436.5" y="1297.4688">...</text></g><!--class IntegerJsonAdapter--><g class="entity" data-entity="IntegerJsonAdapter" data-source-line="151" data-uid="ent0015" id="entity_IntegerJsonAdapter"><rect fill="#FEFECE" height="100.4844" rx="2.5" ry="2.5" style="stroke:#D4AC0D;stroke-width:2;" width="239.123" x="694.5" y="1204.498"/><ellipse cx="709.5" cy="1237.4297" fill="#ADD1B2" rx="11" ry="11" style="stroke:#ADD1B2;stroke-width:1;"/><path d="M712.2656,1233.3047 Q712.4219,1233.0859 712.6094,1232.9766 Q712.7969,1232.8672 713.0156,1232.8672 Q713.3906,1232.8672 713.625,1233.1328 Q713.8594,1233.3828 713.8594,1233.9922 L713.8594,1235.4453 Q713.8594,1236.0547 713.625,1236.3203 Q713.3906,1236.5859 713.0156,1236.5859 Q712.6719,1236.5859 712.4688,1236.3828 Q712.2656,1236.1953 712.1563,1235.6797 Q712.1094,1235.3203 711.9219,1235.1328 Q711.5938,1234.7578 710.9844,1234.5391 Q710.375,1234.3203 709.75,1234.3203 Q708.9844,1234.3203 708.3438,1234.6484 Q707.7188,1234.9766 707.2188,1235.7266 Q706.7344,1236.4766 706.7344,1237.5078 L706.7344,1238.6016 Q706.7344,1239.8359 707.625,1240.6641 Q708.5156,1241.4766 710.1094,1241.4766 Q711.0469,1241.4766 711.7031,1241.2266 Q712.0938,1241.0703 712.5156,1240.6328 Q712.7813,1240.3672 712.9219,1240.2891 Q713.0781,1240.2109 713.2813,1240.2109 Q713.6094,1240.2109 713.8594,1240.4766 Q714.125,1240.7266 714.125,1241.0703 Q714.125,1241.4141 713.7813,1241.8203 Q713.2813,1242.3984 712.4844,1242.7266 Q711.4063,1243.1797 710.1094,1243.1797 Q708.5938,1243.1797 707.3906,1242.5547 Q706.4063,1242.0547 705.7188,1240.9922 Q705.0313,1239.9141 705.0313,1238.6328 L705.0313,1237.4766 Q705.0313,1236.1484 705.6406,1235.0078 Q706.2656,1233.8516 707.3594,1233.2422 Q708.4531,1232.6172 709.6875,1232.6172 Q710.4219,1232.6172 711.0625,1232.7891 Q711.7188,1232.9453 712.2656,1233.3047 Z " fill="#000000"/><ellipse cx="728.5" cy="1236.9297" fill="#84BE84" rx="3" ry="3" style="stroke:#038048;stroke-width:1;"/><text fill="#000000" font-family="sans-serif" font-size="14" lengthAdjust="spacing" textLength="16.3516" x="742.2793" y="1224.6055">&lt;&lt;</text><text fill="#000000" filter="url(#be66zzj1iad4t0)" font-family="sans-serif" font-size="14" lengthAdjust="spacing" textLength="147.8613" x="758.6309" y="1224.6055">JsonSerializer&lt;Integer&gt;</text><text fill="#000000" font-family="sans-serif" font-size="14" lengthAdjust="spacing" textLength="16.3516" x="906.4922" y="1224.6055">&gt;&gt;</text><text fill="#000000" font-family="sans-serif" font-size="14" lengthAdjust="spacing" textLength="16.3516" x="734.5" y="1243.2266">&lt;&lt;</text><text fill="#000000" filter="url(#be66zzj1iad4t0)" font-family="sans-serif" font-size="14" lengthAdjust="spacing" textLength="163.4199" x="750.8516" y="1243.2266">JsonDeserializer&lt;Integer&gt;</text><text fill="#000000" font-family="sans-serif" font-size="14" lengthAdjust="spacing" textLength="16.3516" x="914.2715" y="1243.2266">&gt;&gt;</text><text fill="#000000" font-family="sans-serif" font-size="14" lengthAdjust="spacing" textLength="122.1924" x="771.4653" y="1261.8477">IntegerJsonAdapter</text><line style="stroke:#D4AC0D;stroke-width:2;" x1="695.5" x2="932.623" y1="1270.3613" y2="1270.3613"/><line style="stroke:#D4AC0D;stroke-width:2;" x1="695.5" x2="932.623" y1="1278.3613" y2="1278.3613"/><text fill="#000000" font-family="sans-serif" font-size="14" lengthAdjust="spacing" textLength="11.6689" x="700.5" y="1297.4688">...</text></g><!--class LongJsonAdapter--><g class="entity" data-entity="LongJsonAdapter" data-source-line="155" data-uid="ent0016" id="entity_LongJsonAdapter"><rect fill="#FEFECE" height="100.4844" rx="2.5" ry="2.5" style="stroke:#D4AC0D;stroke-width:2;" width="226.6816" x="968.5" y="1204.498"/><ellipse cx="983.5" cy="1237.4297" fill="#ADD1B2" rx="11" ry="11" style="stroke:#ADD1B2;stroke-width:1;"/><path d="M986.2656,1233.3047 Q986.4219,1233.0859 986.6094,1232.9766 Q986.7969,1232.8672 987.0156,1232.8672 Q987.3906,1232.8672 987.625,1233.1328 Q987.8594,1233.3828 987.8594,1233.9922 L987.8594,1235.4453 Q987.8594,1236.0547 987.625,1236.3203 Q987.3906,1236.5859 987.0156,1236.5859 Q986.6719,1236.5859 986.4688,1236.3828 Q986.2656,1236.1953 986.1563,1235.6797 Q986.1094,1235.3203 985.9219,1235.1328 Q985.5938,1234.7578 984.9844,1234.5391 Q984.375,1234.3203 983.75,1234.3203 Q982.9844,1234.3203 982.3438,1234.6484 Q981.7188,1234.9766 981.2188,1235.7266 Q980.7344,1236.4766 980.7344,1237.5078 L980.7344,1238.6016 Q980.7344,1239.8359 981.625,1240.6641 Q982.5156,1241.4766 984.1094,1241.4766 Q985.0469,1241.4766 985.7031,1241.2266 Q986.0938,1241.0703 986.5156,1240.6328 Q986.7813,1240.3672 986.9219,1240.2891 Q987.0781,1240.2109 987.2813,1240.2109 Q987.6094,1240.2109 987.8594,1240.4766 Q988.125,1240.7266 988.125,1241.0703 Q988.125,1241.4141 987.7813,1241.8203 Q987.2813,1242.3984 986.4844,1242.7266 Q985.4063,1243.1797 984.1094,1243.1797 Q982.5938,1243.1797 981.3906,1242.5547 Q980.4063,1242.0547 979.7188,1240.9922 Q979.0313,1239.9141 979.0313,1238.6328 L979.0313,1237.4766 Q979.0313,1236.1484 979.6406,1235.0078 Q980.2656,1233.8516 981.3594,1233.2422 Q982.4531,1232.6172 983.6875,1232.6172 Q984.4219,1232.6172 985.0625,1232.7891 Q985.7188,1232.9453 986.2656,1233.3047 Z " fill="#000000"/><ellipse cx="1002.5" cy="1236.9297" fill="#84BE84" rx="3" ry="3" style="stroke:#038048;stroke-width:1;"/><text fill="#000000" font-family="sans-serif" font-size="14" lengthAdjust="spacing" textLength="16.3516" x="1016.2793" y="1224.6055">&lt;&lt;</text><text fill="#000000" filter="url(#be66zzj1iad4t0)" font-family="sans-serif" font-size="14" lengthAdjust="spacing" textLength="135.4199" x="1032.6309" y="1224.6055">JsonSerializer&lt;Long&gt;</text><text fill="#000000" font-family="sans-serif" font-size="14" lengthAdjust="spacing" textLength="16.3516" x="1168.0508" y="1224.6055">&gt;&gt;</text><text fill="#000000" font-family="sans-serif" font-size="14" lengthAdjust="spacing" textLength="16.3516" x="1008.5" y="1243.2266">&lt;&lt;</text><text fill="#000000" filter="url(#be66zzj1iad4t0)" font-family="sans-serif" font-size="14" lengthAdjust="spacing" textLength="150.9785" x="1024.8516" y="1243.2266">JsonDeserializer&lt;Long&gt;</text><text fill="#000000" font-family="sans-serif" font-size="14" lengthAdjust="spacing" textLength="16.3516" x="1175.8301" y="1243.2266">&gt;&gt;</text><text fill="#000000" font-family="sans-serif" font-size="14" lengthAdjust="spacing" textLength="109.751" x="1045.4653" y="1261.8477">LongJsonAdapter</text><line style="stroke:#D4AC0D;stroke-width:2;" x1="969.5" x2="1194.1816" y1="1270.3613" y2="1270.3613"/><line style="stroke:#D4AC0D;stroke-width:2;" x1="969.5" x2="1194.1816" y1="1278.3613" y2="1278.3613"/><text fill="#000000" font-family="sans-serif" font-size="14" lengthAdjust="spacing" textLength="11.6689" x="974.5" y="1297.4688">...</text></g><!--class ThrowableJsonAdapter--><g class="entity" data-entity="ThrowableJsonAdapter" data-source-line="159" data-uid="ent0017" id="entity_ThrowableJsonAdapter"><rect fill="#FEFECE" height="81.8633" rx="2.5" ry="2.5" style="stroke:#D4AC0D;stroke-width:2;" width="245.3438" x="1230.5" y="1213.498"/><ellipse cx="1245.5" cy="1237.1191" fill="#ADD1B2" rx="11" ry="11" style="stroke:#ADD1B2;stroke-width:1;"/><path d="M1248.2656,1232.9941 Q1248.4219,1232.7754 1248.6094,1232.666 Q1248.7969,1232.5566 1249.0156,1232.5566 Q1249.3906,1232.5566 1249.625,1232.8223 Q1249.8594,1233.0723 1249.8594,1233.6816 L1249.8594,1235.1348 Q1249.8594,1235.7441 1249.625,1236.0098 Q1249.3906,1236.2754 1249.0156,1236.2754 Q1248.6719,1236.2754 1248.4688,1236.0723 Q1248.2656,1235.8848 1248.1563,1235.3691 Q1248.1094,1235.0098 1247.9219,1234.8223 Q1247.5938,1234.4473 1246.9844,1234.2285 Q1246.375,1234.0098 1245.75,1234.0098 Q1244.9844,1234.0098 1244.3438,1234.3379 Q1243.7188,1234.666 1243.2188,1235.416 Q1242.7344,1236.166 1242.7344,1237.1973 L1242.7344,1238.291 Q1242.7344,1239.5254 1243.625,1240.3535 Q1244.5156,1241.166 1246.1094,1241.166 Q1247.0469,1241.166 1247.7031,1240.916 Q1248.0938,1240.7598 1248.5156,1240.3223 Q1248.7813,1240.0566 1248.9219,1239.9785 Q1249.0781,1239.9004 1249.2813,1239.9004 Q1249.6094,1239.9004 1249.8594,1240.166 Q1250.125,1240.416 1250.125,1240.7598 Q1250.125,1241.1035 1249.7813,1241.5098 Q1249.2813,1242.0879 1248.4844,1242.416 Q1247.4063,1242.8691 1246.1094,1242.8691 Q1244.5938,1242.8691 1243.3906,1242.2441 Q1242.4063,1241.7441 1241.7188,1240.6816 Q1241.0313,1239.6035 1241.0313,1238.3223 L1241.0313,1237.166 Q1241.0313,1235.8379 1241.6406,1234.6973 Q1242.2656,1233.541 1243.3594,1232.9316 Q1244.4531,1232.3066 1245.6875,1232.3066 Q1246.4219,1232.3066 1247.0625,1232.4785 Q1247.7188,1232.6348 1248.2656,1232.9941 Z " fill="#000000"/><ellipse cx="1264.5" cy="1236.6191" fill="#84BE84" rx="3" ry="3" style="stroke:#038048;stroke-width:1;"/><text fill="#000000" font-family="sans-serif" font-size="14" lengthAdjust="spacing" textLength="16.3516" x="1270.5" y="1233.6055">&lt;&lt;</text><text fill="#000000" filter="url(#be66zzj1iad4t0)" font-family="sans-serif" font-size="14" lengthAdjust="spacing" textLength="169.6406" x="1286.8516" y="1233.6055">JsonSerializer&lt;Throwable&gt;</text><text fill="#000000" font-family="sans-serif" font-size="14" lengthAdjust="spacing" textLength="16.3516" x="1456.4922" y="1233.6055">&gt;&gt;</text><text fill="#000000" font-family="sans-serif" font-size="14" lengthAdjust="spacing" textLength="143.9717" x="1299.686" y="1252.2266">ThrowableJsonAdapter</text><line style="stroke:#D4AC0D;stroke-width:2;" x1="1231.5" x2="1474.8438" y1="1260.7402" y2="1260.7402"/><line style="stroke:#D4AC0D;stroke-width:2;" x1="1231.5" x2="1474.8438" y1="1268.7402" y2="1268.7402"/><text fill="#000000" font-family="sans-serif" font-size="14" lengthAdjust="spacing" textLength="11.6689" x="1236.5" y="1287.8477">...</text></g><!--class DateJsonSerializer--><g class="entity" data-entity="DateJsonSerializer" data-source-line="163" data-uid="ent0018" id="entity_DateJsonSerializer"><rect fill="#FEFECE" height="81.8633" rx="2.5" ry="2.5" style="stroke:#D4AC0D;stroke-width:2;" width="209.5508" x="440" y="1373.498"/><ellipse cx="455" cy="1397.1191" fill="#ADD1B2" rx="11" ry="11" style="stroke:#ADD1B2;stroke-width:1;"/><path d="M457.7656,1392.9941 Q457.9219,1392.7754 458.1094,1392.666 Q458.2969,1392.5566 458.5156,1392.5566 Q458.8906,1392.5566 459.125,1392.8223 Q459.3594,1393.0723 459.3594,1393.6816 L459.3594,1395.1348 Q459.3594,1395.7441 459.125,1396.0098 Q458.8906,1396.2754 458.5156,1396.2754 Q458.1719,1396.2754 457.9688,1396.0723 Q457.7656,1395.8848 457.6563,1395.3691 Q457.6094,1395.0098 457.4219,1394.8223 Q457.0938,1394.4473 456.4844,1394.2285 Q455.875,1394.0098 455.25,1394.0098 Q454.4844,1394.0098 453.8438,1394.3379 Q453.2188,1394.666 452.7188,1395.416 Q452.2344,1396.166 452.2344,1397.1973 L452.2344,1398.291 Q452.2344,1399.5254 453.125,1400.3535 Q454.0156,1401.166 455.6094,1401.166 Q456.5469,1401.166 457.2031,1400.916 Q457.5938,1400.7598 458.0156,1400.3223 Q458.2813,1400.0566 458.4219,1399.9785 Q458.5781,1399.9004 458.7813,1399.9004 Q459.1094,1399.9004 459.3594,1400.166 Q459.625,1400.416 459.625,1400.7598 Q459.625,1401.1035 459.2813,1401.5098 Q458.7813,1402.0879 457.9844,1402.416 Q456.9063,1402.8691 455.6094,1402.8691 Q454.0938,1402.8691 452.8906,1402.2441 Q451.9063,1401.7441 451.2188,1400.6816 Q450.5313,1399.6035 450.5313,1398.3223 L450.5313,1397.166 Q450.5313,1395.8379 451.1406,1394.6973 Q451.7656,1393.541 452.8594,1392.9316 Q453.9531,1392.3066 455.1875,1392.3066 Q455.9219,1392.3066 456.5625,1392.4785 Q457.2188,1392.6348 457.7656,1392.9941 Z " fill="#000000"/><ellipse cx="474" cy="1396.6191" fill="#84BE84" rx="3" ry="3" style="stroke:#038048;stroke-width:1;"/><text fill="#000000" font-family="sans-serif" font-size="14" lengthAdjust="spacing" textLength="16.3516" x="480" y="1393.6055">&lt;&lt;</text><text fill="#000000" filter="url(#be66zzj1iad4t0)" font-family="sans-serif" font-size="14" lengthAdjust="spacing" textLength="133.8477" x="496.3516" y="1393.6055">JsonSerializer&lt;Date&gt;</text><text fill="#000000" font-family="sans-serif" font-size="14" lengthAdjust="spacing" textLength="16.3516" x="630.1992" y="1393.6055">&gt;&gt;</text><text fill="#000000" font-family="sans-serif" font-size="14" lengthAdjust="spacing" textLength="117.4961" x="504.5273" y="1412.2266">DateJsonSerializer</text><line style="stroke:#D4AC0D;stroke-width:2;" x1="441" x2="648.5508" y1="1420.7402" y2="1420.7402"/><line style="stroke:#D4AC0D;stroke-width:2;" x1="441" x2="648.5508" y1="1428.7402" y2="1428.7402"/><text fill="#000000" font-family="sans-serif" font-size="14" lengthAdjust="spacing" textLength="11.6689" x="446" y="1447.8477">...</text></g><!--class CalendarJsonAdapter--><g class="entity" data-entity="CalendarJsonAdapter" data-source-line="167" data-uid="ent0019" id="entity_CalendarJsonAdapter"><rect fill="#FEFECE" height="100.4844" rx="2.5" ry="2.5" style="stroke:#D4AC0D;stroke-width:2;" width="252.3506" x="685" y="1364.498"/><ellipse cx="700" cy="1397.4297" fill="#ADD1B2" rx="11" ry="11" style="stroke:#ADD1B2;stroke-width:1;"/><path d="M702.7656,1393.3047 Q702.9219,1393.0859 703.1094,1392.9766 Q703.2969,1392.8672 703.5156,1392.8672 Q703.8906,1392.8672 704.125,1393.1328 Q704.3594,1393.3828 704.3594,1393.9922 L704.3594,1395.4453 Q704.3594,1396.0547 704.125,1396.3203 Q703.8906,1396.5859 703.5156,1396.5859 Q703.1719,1396.5859 702.9688,1396.3828 Q702.7656,1396.1953 702.6563,1395.6797 Q702.6094,1395.3203 702.4219,1395.1328 Q702.0938,1394.7578 701.4844,1394.5391 Q700.875,1394.3203 700.25,1394.3203 Q699.4844,1394.3203 698.8438,1394.6484 Q698.2188,1394.9766 697.7188,1395.7266 Q697.2344,1396.4766 697.2344,1397.5078 L697.2344,1398.6016 Q697.2344,1399.8359 698.125,1400.6641 Q699.0156,1401.4766 700.6094,1401.4766 Q701.5469,1401.4766 702.2031,1401.2266 Q702.5938,1401.0703 703.0156,1400.6328 Q703.2813,1400.3672 703.4219,1400.2891 Q703.5781,1400.2109 703.7813,1400.2109 Q704.1094,1400.2109 704.3594,1400.4766 Q704.625,1400.7266 704.625,1401.0703 Q704.625,1401.4141 704.2813,1401.8203 Q703.7813,1402.3984 702.9844,1402.7266 Q701.9063,1403.1797 700.6094,1403.1797 Q699.0938,1403.1797 697.8906,1402.5547 Q696.9063,1402.0547 696.2188,1400.9922 Q695.5313,1399.9141 695.5313,1398.6328 L695.5313,1397.4766 Q695.5313,1396.1484 696.1406,1395.0078 Q696.7656,1393.8516 697.8594,1393.2422 Q698.9531,1392.6172 700.1875,1392.6172 Q700.9219,1392.6172 701.5625,1392.7891 Q702.2188,1392.9453 702.7656,1393.3047 Z " fill="#000000"/><ellipse cx="719" cy="1396.9297" fill="#84BE84" rx="3" ry="3" style="stroke:#038048;stroke-width:1;"/><text fill="#000000" font-family="sans-serif" font-size="14" lengthAdjust="spacing" textLength="16.3516" x="732.7793" y="1384.6055">&lt;&lt;</text><text fill="#000000" filter="url(#be66zzj1iad4t0)" font-family="sans-serif" font-size="14" lengthAdjust="spacing" textLength="161.0889" x="749.1309" y="1384.6055">JsonSerializer&lt;Calendar&gt;</text><text fill="#000000" font-family="sans-serif" font-size="14" lengthAdjust="spacing" textLength="16.3516" x="910.2197" y="1384.6055">&gt;&gt;</text><text fill="#000000" font-family="sans-serif" font-size="14" lengthAdjust="spacing" textLength="16.3516" x="725" y="1403.2266">&lt;&lt;</text><text fill="#000000" filter="url(#be66zzj1iad4t0)" font-family="sans-serif" font-size="14" lengthAdjust="spacing" textLength="176.6475" x="741.3516" y="1403.2266">JsonDeserializer&lt;Calendar&gt;</text><text fill="#000000" font-family="sans-serif" font-size="14" lengthAdjust="spacing" textLength="16.3516" x="917.999" y="1403.2266">&gt;&gt;</text><text fill="#000000" font-family="sans-serif" font-size="14" lengthAdjust="spacing" textLength="135.4199" x="761.9653" y="1421.8477">CalendarJsonAdapter</text><line style="stroke:#D4AC0D;stroke-width:2;" x1="686" x2="936.3506" y1="1430.3613" y2="1430.3613"/><line style="stroke:#D4AC0D;stroke-width:2;" x1="686" x2="936.3506" y1="1438.3613" y2="1438.3613"/><text fill="#000000" font-family="sans-serif" font-size="14" lengthAdjust="spacing" textLength="11.6689" x="691" y="1457.4688">...</text></g><!--class ByteBufferJsonAdapter--><g class="entity" data-entity="ByteBufferJsonAdapter" data-source-line="171" data-uid="ent0020" id="entity_ByteBufferJsonAdapter"><rect fill="#FEFECE" height="100.4844" rx="2.5" ry="2.5" style="stroke:#D4AC0D;stroke-width:2;" width="260.9023" x="972.5" y="1364.498"/><ellipse cx="987.5" cy="1397.4297" fill="#ADD1B2" rx="11" ry="11" style="stroke:#ADD1B2;stroke-width:1;"/><path d="M990.2656,1393.3047 Q990.4219,1393.0859 990.6094,1392.9766 Q990.7969,1392.8672 991.0156,1392.8672 Q991.3906,1392.8672 991.625,1393.1328 Q991.8594,1393.3828 991.8594,1393.9922 L991.8594,1395.4453 Q991.8594,1396.0547 991.625,1396.3203 Q991.3906,1396.5859 991.0156,1396.5859 Q990.6719,1396.5859 990.4688,1396.3828 Q990.2656,1396.1953 990.1563,1395.6797 Q990.1094,1395.3203 989.9219,1395.1328 Q989.5938,1394.7578 988.9844,1394.5391 Q988.375,1394.3203 987.75,1394.3203 Q986.9844,1394.3203 986.3438,1394.6484 Q985.7188,1394.9766 985.2188,1395.7266 Q984.7344,1396.4766 984.7344,1397.5078 L984.7344,1398.6016 Q984.7344,1399.8359 985.625,1400.6641 Q986.5156,1401.4766 988.1094,1401.4766 Q989.0469,1401.4766 989.7031,1401.2266 Q990.0938,1401.0703 990.5156,1400.6328 Q990.7813,1400.3672 990.9219,1400.2891 Q991.0781,1400.2109 991.2813,1400.2109 Q991.6094,1400.2109 991.8594,1400.4766 Q992.125,1400.7266 992.125,1401.0703 Q992.125,1401.4141 991.7813,1401.8203 Q991.2813,1402.3984 990.4844,1402.7266 Q989.4063,1403.1797 988.1094,1403.1797 Q986.5938,1403.1797 985.3906,1402.5547 Q984.4063,1402.0547 983.7188,1400.9922 Q983.0313,1399.9141 983.0313,1398.6328 L983.0313,1397.4766 Q983.0313,1396.1484 983.6406,1395.0078 Q984.2656,1393.8516 985.3594,1393.2422 Q986.4531,1392.6172 987.6875,1392.6172 Q988.4219,1392.6172 989.0625,1392.7891 Q989.7188,1392.9453 990.2656,1393.3047 Z " fill="#000000"/><ellipse cx="1006.5" cy="1396.9297" fill="#84BE84" rx="3" ry="3" style="stroke:#038048;stroke-width:1;"/><text fill="#000000" font-family="sans-serif" font-size="14" lengthAdjust="spacing" textLength="16.3516" x="1020.2793" y="1384.6055">&lt;&lt;</text><text fill="#000000" filter="url(#be66zzj1iad4t0)" font-family="sans-serif" font-size="14" lengthAdjust="spacing" textLength="169.6406" x="1036.6309" y="1384.6055">JsonSerializer&lt;ByteBuffer&gt;</text><text fill="#000000" font-family="sans-serif" font-size="14" lengthAdjust="spacing" textLength="16.3516" x="1206.2715" y="1384.6055">&gt;&gt;</text><text fill="#000000" font-family="sans-serif" font-size="14" lengthAdjust="spacing" textLength="16.3516" x="1012.5" y="1403.2266">&lt;&lt;</text><text fill="#000000" filter="url(#be66zzj1iad4t0)" font-family="sans-serif" font-size="14" lengthAdjust="spacing" textLength="185.1992" x="1028.8516" y="1403.2266">JsonDeserializer&lt;ByteBuffer&gt;</text><text fill="#000000" font-family="sans-serif" font-size="14" lengthAdjust="spacing" textLength="16.3516" x="1214.0508" y="1403.2266">&gt;&gt;</text><text fill="#0000FF" font-family="sans-serif" font-size="14" lengthAdjust="spacing" textLength="143.9717" x="1049.4653" y="1421.8477">ByteBufferJsonAdapter</text><line style="stroke:#D4AC0D;stroke-width:2;" x1="973.5" x2="1232.4023" y1="1430.3613" y2="1430.3613"/><line style="stroke:#D4AC0D;stroke-width:2;" x1="973.5" x2="1232.4023" y1="1438.3613" y2="1438.3613"/><text fill="#000000" font-family="sans-serif" font-size="14" lengthAdjust="spacing" textLength="11.6689" x="978.5" y="1457.4688">...</text></g><!--class ContactCardCommonProtocol--><g class="entity" data-entity="ContactCardCommonProtocol" data-source-line="177" data-uid="ent0022" id="entity_ContactCardCommonProtocol"><rect fill="#FEFECE" height="122.4844" rx="2.5" ry="2.5" style="stroke:#D4AC0D;stroke-width:2;" width="327.8477" x="1150" y="257.498"/><ellipse cx="1210.8018" cy="273.498" fill="#EB937F" rx="11" ry="11" style="stroke:#EB93DF;stroke-width:1;"/><path d="M1209.6611,274.2949 L1209.6611,276.7949 L1213.9893,276.7949 L1213.9893,275.873 Q1213.9893,275.2637 1214.2236,274.998 Q1214.4736,274.7324 1214.8486,274.7324 Q1215.2236,274.7324 1215.458,274.998 Q1215.6924,275.2637 1215.6924,275.873 L1215.6924,278.498 L1207.6924,278.498 Q1207.0674,278.498 1206.8018,278.2637 Q1206.5518,278.0293 1206.5518,277.6387 Q1206.5518,277.2637 1206.8174,277.0293 Q1207.083,276.7949 1207.6924,276.7949 L1207.958,276.7949 L1207.958,270.1387 L1207.6924,270.1387 Q1207.0674,270.1387 1206.8018,269.9043 Q1206.5518,269.6699 1206.5518,269.2793 Q1206.5518,268.9043 1206.8018,268.6699 Q1207.0674,268.4355 1207.6924,268.4355 L1215.3174,268.4355 L1215.3174,271.0293 Q1215.3174,271.6387 1215.083,271.9043 Q1214.8643,272.1543 1214.4736,272.1543 Q1214.0986,272.1543 1213.8643,271.9043 Q1213.6299,271.6387 1213.6299,271.0293 L1213.6299,270.1387 L1209.6611,270.1387 L1209.6611,272.5918 L1211.1455,272.5918 Q1211.1455,271.9355 1211.2705,271.748 Q1211.5361,271.3418 1212.0049,271.3418 Q1212.3799,271.3418 1212.6143,271.6074 Q1212.8486,271.8574 1212.8486,272.4668 L1212.8486,274.4355 Q1212.8486,274.9824 1212.7236,275.1699 Q1212.458,275.5605 1212.0049,275.5605 Q1211.5361,275.5605 1211.2705,275.1543 Q1211.1455,274.9668 1211.1455,274.2949 L1209.6611,274.2949 Z " fill="#000000"/><ellipse cx="1236.3018" cy="272.998" fill="#84BE84" rx="3" ry="3" style="stroke:#038048;stroke-width:1;"/><text fill="#000000" font-family="sans-serif" font-size="14" lengthAdjust="spacing" text-decoration="line-through" textLength="186.7441" x="1242.3018" y="279.2949">ContactCardCommonProtocol</text><line style="stroke:#D4AC0D;stroke-width:2;" x1="1151" x2="1476.8477" y1="289.498" y2="289.498"/><text fill="#000000" font-family="sans-serif" font-size="14" lengthAdjust="spacing" text-decoration="line-through" textLength="78.6201" x="1156" y="308.6055">ISO_7816_3</text><text fill="#000000" font-family="sans-serif" font-size="14" lengthAdjust="spacing" text-decoration="line-through" textLength="105.8477" x="1156" y="327.2266">ISO_7816_3_TO</text><text fill="#000000" font-family="sans-serif" font-size="14" lengthAdjust="spacing" text-decoration="line-through" textLength="102.7441" x="1156" y="345.8477">ISO_7816_3_T1</text><text fill="#000000" font-family="sans-serif" font-size="14" lengthAdjust="spacing" text-decoration="line-through" textLength="315.8477" x="1156" y="364.4688">INNOVATRON_HIGH_SPEED_PROTOCOL_SAM</text><line style="stroke:#D4AC0D;stroke-width:2;" x1="1151" x2="1476.8477" y1="371.9824" y2="371.9824"/></g><!--class ContactlessCardCommonProtocol--><g class="entity" data-entity="ContactlessCardCommonProtocol" data-source-line="183" data-uid="ent0023" id="entity_ContactlessCardCommonProtocol"><rect fill="#FEFECE" height="159.7266" rx="2.5" ry="2.5" style="stroke:#D4AC0D;stroke-width:2;" width="254.6406" x="859.5" y="238.498"/><ellipse cx="874.5" cy="254.498" fill="#EB937F" rx="11" ry="11" style="stroke:#EB93DF;stroke-width:1;"/><path d="M873.3594,255.2949 L873.3594,257.7949 L877.6875,257.7949 L877.6875,256.873 Q877.6875,256.2637 877.9219,255.998 Q878.1719,255.7324 878.5469,255.7324 Q878.9219,255.7324 879.1563,255.998 Q879.3906,256.2637 879.3906,256.873 L879.3906,259.498 L871.3906,259.498 Q870.7656,259.498 870.5,259.2637 Q870.25,259.0293 870.25,258.6387 Q870.25,258.2637 870.5156,258.0293 Q870.7813,257.7949 871.3906,257.7949 L871.6563,257.7949 L871.6563,251.1387 L871.3906,251.1387 Q870.7656,251.1387 870.5,250.9043 Q870.25,250.6699 870.25,250.2793 Q870.25,249.9043 870.5,249.6699 Q870.7656,249.4355 871.3906,249.4355 L879.0156,249.4355 L879.0156,252.0293 Q879.0156,252.6387 878.7813,252.9043 Q878.5625,253.1543 878.1719,253.1543 Q877.7969,253.1543 877.5625,252.9043 Q877.3281,252.6387 877.3281,252.0293 L877.3281,251.1387 L873.3594,251.1387 L873.3594,253.5918 L874.8438,253.5918 Q874.8438,252.9355 874.9688,252.748 Q875.2344,252.3418 875.7031,252.3418 Q876.0781,252.3418 876.3125,252.6074 Q876.5469,252.8574 876.5469,253.4668 L876.5469,255.4355 Q876.5469,255.9824 876.4219,256.1699 Q876.1563,256.5605 875.7031,256.5605 Q875.2344,256.5605 874.9688,256.1543 Q874.8438,255.9668 874.8438,255.2949 L873.3594,255.2949 Z " fill="#000000"/><ellipse cx="893.5" cy="253.998" fill="#84BE84" rx="3" ry="3" style="stroke:#038048;stroke-width:1;"/><text fill="#000000" font-family="sans-serif" font-size="14" lengthAdjust="spacing" text-decoration="line-through" textLength="211.6406" x="899.5" y="260.2949">ContactlessCardCommonProtocol</text><line style="stroke:#D4AC0D;stroke-width:2;" x1="860.5" x2="1113.1406" y1="270.498" y2="270.498"/><text fill="#000000" font-family="sans-serif" font-size="14" lengthAdjust="spacing" text-decoration="line-through" textLength="86.4063" x="865.5" y="289.6055">ISO_14443_4</text><text fill="#000000" font-family="sans-serif" font-size="14" lengthAdjust="spacing" text-decoration="line-through" textLength="149.4268" x="865.5" y="308.2266">NFC_A_ISO_14443_3A</text><text fill="#000000" font-family="sans-serif" font-size="14" lengthAdjust="spacing" text-decoration="line-through" textLength="149.4268" x="865.5" y="326.8477">NFC_B_ISO_14443_3B</text><text fill="#000000" font-family="sans-serif" font-size="14" lengthAdjust="spacing" text-decoration="line-through" textLength="127.627" x="865.5" y="345.4688">NFC_F_JIS_6319_4</text><text fill="#000000" font-family="sans-serif" font-size="14" lengthAdjust="spacing" text-decoration="line-through" textLength="124.5166" x="865.5" y="364.0898">NFC_V_ISO_15693</text><text fill="#000000" font-family="sans-serif" font-size="14" lengthAdjust="spacing" text-decoration="line-through" textLength="210.041" x="865.5" y="382.7109">INNOVATRON_B_PRIME_CARD</text><line style="stroke:#D4AC0D;stroke-width:2;" x1="860.5" x2="1113.1406" y1="390.2246" y2="390.2246"/></g><!--link ByteArrayUtil to JsonUtil--><!--link Assert to ByteArrayUtil--><!--link Assert to ApduUtil--><!--link Assert to BerTlvUtil--><!--SRC=[lLd_Szes5F-Tlq9hVrYI5P802KsEiJEsQTbIo0NQkzwsymaim8snF4bEmdhvt_SaoyOs1aBlCdwIdZxl-vFqP8GdV591yFk3h4AVe2gwLuDg93o_-Wq_uAhlJO1ShpLglw2Z-bczMJrhLi_FZYiaS95G0Ye_erz_HUEFzYSR1Z0rQUIJY77aSHuHZbo2hj52Y91VdvuknDAVKf-oANK9hqtfydJ6JWMU-0H7LPTKfp5t2Gc6t9i7rT37uhJoaqjcNa2GwNouix-UezxxtbNlga2kerwzr-Wr2-G6iY_ibbr4Dv7LihgMLI1V8DCmUrQzGBv4NSjicAqC-QO_-0CrcbVlhMw6-dbaethBi2_FPAogLJGIAn_Y8XPO89S6FmlqIDazUlJ40WNa4JqGnZqQ83f3u6iWegKFR1L-xmKXPdY9k22CKB4AYT6bp2NCb155RuqhoxHwfS1-3jXj6YtxeXHevYLQrdctNWgqSq2xUzK0rSe_Us19UpDSfeyvZ_7ZXJUz3mZdA2lMO8m-PfT0qbVY-_HnGmgUtiyPZG9NQ-xPFTkqovLfYDKqp3CBHDuHTu-yTfiHjzC1iPPjsUOEiIdIRZMX3YeB3mez8Qx315fl8mQxQg_YKC6KxgPjzbexTQ_1x-rcqx0IzIazPy74Z_Rhbo3bJxTtqUlkr9v0TQrhtPgQq_o14HBiLJsNAANxgjUoUpjrfrYzfxJoX5pKldg9yfNIRK0TsVjqAsZTRDWNMTMhlERuJ3I7Wx4z6AjJqITpTMJIK9suZgCaSXJJ7GTTA_e9hDXF82Z0FZ9k-uYH6KWDfeIlCIUeFG4dhbTgWtHEJk0KhSqfdVka9e_LsfpJuEIaVIfH7NLKnsegbH0eU4xG6yhcDJBrlP2JMdpg0oiZDNdqlq6O8pb0tvN2NwOo4EZDoGcSQDW7_GRdX0c5YuSQgT3VkS32cpudItCY-W7Gm0bqT5nP0_LwGCKWydrqD9ny8rE1wEJREpWZcHVCKO2NvBYCmrw6OeMEDEmG5WYy3shWW6t_rZc8Sx8IvC-_Ny3YyJ6BmDakfN271MXA0zUJ6lVmGI5XoFsGsVz4aF-ZVY0WRmm5qN92s3la1G8jlU0BXessruGTCXvU9A0VtE40QcMF6Mg6drvcr4Vof159wXRagOJhUKlXTI45S5VWrUUaJdEKqZBKQIDFWk6fa7YUvfApQUp1n1F3sOmJ4K-3YS8TlrISJy7yL5ZANSBE5nGYeRb7Qh9X35MMb2cNgveNihADCsV5EpJHPUZn4VHFn2qJh1pGac_a-4T5byX-e9uBUo1SRGHBwu36JcnLaXNPvfsrHgWupoqjgECSHr9Sb2s1ur-oXIMl9JPinkWIu7jb2wfGYJjOu88ywOzufCgXCSscRX87iZJj1SOun8UpB-1g_47DAUiFwfxHYBrSzRPT3y5DzxiUb-_qV6riosznAmkQ7Y9RCftZqFXzq7YZ2wht-6wm2dOSejr0jNS4ZRVe7lTAYnFULSSlmifROZyozl95K7tpx0Sg7rFajg8mGZTAgoAPxBe09f7dkzeta1QVFX1vhaVXUJAehqycsCfzkBPLmdrINaLfrPcOasOQQGmscNIvn85RuaaNdaB-mrQRF-6mhU_Tn9WEWhQKav6tb8_rD9_-0qGlceg8aVLv739l2Ht70na6_kfud_mRZuksLgAr72P_TrGeT7zI0d7Z8X1uti-59EbAlq7Vcet6Hiv_1q2QysIIuSYRaEkIFm1QTyIo8xsLJZBPZvRpgZkBaRadk_gnV6cxE1IIGxqAPEkun6AwWB9LX7SvEVBtbz3zB8uvry6J3_rHD57UvUwtBPj2EfhjZjSsFnTZrQNkoeQtD2i6PRrmP3zDIIYxKRZlzQXeWrODSJBXFR4HfRK4GAmdHpiCUzDkvz8XVR88fC1JTp9hfmPsT9OwdR-2b5Y4nwtVjjM2yuwJczPgjSFi7Asjr9iaO-8-lpOvqij6OdLPvLlPpCBhkIAr7U984I_dPHxyByQhI_KGwpSO5A5eVv7uUWxei_SG5qfODAdenYRvzHoHdSWXNXJnSbwqlq1xFUF72qOVvOVch4KfiMXMsSBhsMRX_7wJypn46RL9VZsJJEoJmCK7LMqPJq8h1hY4_hhdNpUQpGxRX5kur5yQr-e3w1fHTZfkh1pgOBvZ2XaL59HdkoOIH4jmddUWyHBmd3SnSsKVIeDRZMwVyauSy6s8WbKWh3yQEgttvvTEO_kACnxkMZpVM1mCXb-CyTrmu7piV_ZeZ6vjst9kxuRZeJcySKR6fxBi5ltp2UVxVIn7bVjvtcms6qwpk3JecOxXh04DempHpIAwPOYUytj_v5mspg_ATNo99LnSNZLsHAmBWUf_iXtJkBCsQkHPVe8sEATJ3ylUZEjFqZV6r-7d-8jq_iDPzS-5vxea-BkQzjMLYlvibrdBCPMi9- -mCjRqmQDj6Os_tiH_6IRLhBuvlqt-qVl-d5kegTV1s-IFlU9gkXEoYFy0]--></g></svg>